<?xml version="1.0" encoding="utf-8"?>
<!-- Generator: Adobe Illustrator 23.0.3, SVG Export Plug-In . SVG Version: 6.00 Build 0)  -->
<svg version="1.1" xmlns="http://www.w3.org/2000/svg" xmlns:xlink="http://www.w3.org/1999/xlink" x="0px" y="0px"
	 viewBox="0 0 1920 506" style="enable-background:new 0 0 1920 506;" xml:space="preserve">
<style type="text/css">
	.st0{display:none;}
	.st1{fill:#7AAACE;}
	.st2{fill:#CCAE69;}
	.st3{fill:#3F964F;}
	.st4{fill:#0E6A41;}
	.st5{fill:#2C2858;}
	.st6{fill:#494C7F;}
	.st7{fill:#47A859;}
	.st8{fill:#FFC0A9;}
	.st9{fill:#FFAF96;}
	.st10{fill:#E25A1E;}
	.st11{fill:#1D262D;}
	.st12{fill:#FFFFFF;}
	.st13{fill:#FFAF8A;}
	.st14{fill:#E89A49;}
	.st15{fill:#FFC366;}
	.st16{fill:#4B78FF;}
	.st17{clip-path:url(#XMLID_3_);fill:#FFAF8A;}
	.st18{fill:#193441;}
	.st19{fill:#91BAEE;}
	.st20{fill:#C9E1FF;}
	.st21{fill:#385ABF;}
	.st22{fill:#FFEEBB;}
	.st23{opacity:0.8;fill:#D3E3F8;}
	.st24{fill:#FFC4B4;}
	.st25{fill:#B5985D;}
	.st26{opacity:0.5;fill:#D3E3F8;}
	.st27{fill:#93AEFF;}
	.st28{fill:none;stroke:#FFFFFF;stroke-width:2.7794;stroke-miterlimit:10;}
	.st29{fill:#D3E3F8;}
	.st30{fill:#A7C8F1;}
	.st31{fill:#25506B;}
	.st32{fill:#FFE79F;}
	.st33{clip-path:url(#XMLID_4_);fill:#FFAF8A;}
	.st34{display:inline;fill:#00E9D2;}
</style>
<g id="Layer_1" class="st0">
	
		<image style="display:inline;overflow:visible;" width="793" height="209" xlink:href="99A1EC2.jpg"  transform="matrix(2.4212 0 0 2.4212 0 0)">
	</image>
</g>
<g id="Layer_3">
	<g>
		<rect y="-8" class="st1" width="1925" height="519.7"/>
		<path class="st2" d="M0,511.7V371.6c49.4-15.1,129.1-27.9,224.1-30.7c110.7-3.4,218.1,6,271,9h0c0,0,0,0,0,0
			c65.4,3.8,115.6,3.1,179.6-7.7c98.4-16.5,181.1-49.8,283.2-66.1c0,0,0,0,0,0c124.9-19.9,212.2-8.8,335.6,12
			c37.9,6.4,76.1,12.7,116.6,16.4c69,6.4,146.2,5.2,217.1-4.9c95.6-13.6,185.9-44.5,298-38.1v250H0z"/>
	</g>
	<g>
		<g>
			<polygon class="st3" points="855.1,920 855.1,920.4 851.3,984.2 850,1006.4 849.9,1008.1 849.6,1013.4 849.5,1014.9 
				849.4,1017.5 849,1023.4 829.1,1019.5 828.8,1019.4 807.8,1015.3 780,1009.9 780,920 			"/>
			<path class="st4" d="M920.2,938.3c-1.8,7.6-4.5,14.5-8,20.6c-14.9,26.8-42.8,40.7-62.2,47.4v0c-4.8,1.7-9,2.9-12.4,3.8
				c-0.1,0-0.1,0-0.2,0h0c-1.1,0.3-2.2,0.5-3.1,0.8c-3.4,0.8-5.3,1.1-5.3,1.1c-0.1-0.5-0.2-0.9-0.2-1.4c-0.2-1.4-0.5-2.8-0.7-4.1
				c-7.7-51.3,11.4-75.7,27-86.1c0.2-0.2,0.5-0.3,0.7-0.5H921c-3.6,6.7-9.1,12.5-16,16.5c-1.2,0.7-2.4,1.3-3.6,2
				c1.6,0.7,3.5,1.3,5.9,1.6C913,940.9,917.7,939.3,920.2,938.3z"/>
			<path class="st4" d="M836.8,1013.3l-0.5,0.4l-7.1,5.7l-0.2,0.2l-48.9,39.5v-65.9c16.8,1.5,35.9,6.2,48.1,13.3
				c2,1.2,3.9,2.4,5.5,3.7c0.3,0.2,0.5,0.4,0.8,0.6C835.2,1011.7,836,1012.5,836.8,1013.3z"/>
			<path class="st3" d="M999.3,993.8c-9.6-4-18.2-3.8-22.1-3.5l6.1-9c-13.8-8.4-27-14.1-39.5-17.7c-16,6-25.1,16.7-25.1,16.7
				c-2.3-5.7,2.1-14.8,5.6-20.6c-16.1-1.8-30.7,0-43.2,4.4l-14.4,27.2l-3.9-17.9c-20.5,15.1-25.9,40-25.9,40
				c30.6,14.5,66.5-3.5,99.7-1.2c56.8,4,105.6,20.5,105.6,20.5C1036.6,1021.1,1026.8,1005.1,999.3,993.8z"/>
			<path class="st3" d="M1004.5,1034.7l37.2-2.4c-7.4-4.7-103.7-63.4-204.9-19c55.9,52.3,145,33.4,155.8,32.3
				c-2.6-6.6-4.7-14.8-2.3-20.5L1004.5,1034.7z"/>
			<g>
				<path class="st4" d="M951.1,1133.2c-2.8-9.5-11.9-18.9-14.5-21.6l14.4,1.4c-1.8-44.3-41.4-81.9-52.4-88.4l-30.1,6.2l11.6-14
					c-24.2-5.8-52.7-2.2-52.7-2.2c7.3,31.5,48.9,54.6,67.3,80.6c31.5,44.4,48.3,90.6,48.3,90.6
					C948.6,1174.5,958.9,1160.5,951.1,1133.2z"/>
				<path class="st3" d="M914.9,1161.5l28,23.6c-0.8-8.3-13.5-115.7-109.9-162.8c1.5,38.5,10.9,77,29.2,95.9l15.9-23.7l-6.1,26.6
					c3.9,17.6,23.2,28.7,30.6,36c1-5.4,6.5-16.1,12.4-17.8L914.9,1161.5z"/>
			</g>
			<path class="st3" d="M856,1056c0,0.5-0.1,1.1-0.1,1.6c-1,10.3-4.2,20.6-11.6,29.1c-3.2,3.7-7.2,7-12.1,9.9
				c-6,3.5-12.3,7-18.5,10.4l-11.3-14l5,17.4c-8.1,4.3-15.7,8.3-21.8,11.3l-5.5-10.8v-78.1c7.5-7.4,16.7-13.5,27.8-17.5
				c6.3-2.3,13.3-3.8,21-4.6c1.6-0.2,3.2-0.3,4.8-0.4c1.3-0.1,2.6-0.1,3.9-0.1c0,0,0.1,0,0.1,0c2.1,0,4.3,0,6.6,0.1
				c1.2,0,2.4,0.1,3.6,0.2c0,0,0.5,1.1,1.2,3c0.2,0.5,0.4,1,0.6,1.5c0.3,0.8,0.6,1.8,1,2.8c0.8,2.3,1.6,5.1,2.4,8.2
				c0.7,2.7,1.3,5.7,1.9,8.9C855.8,1041.4,856.5,1048.7,856,1056z"/>
		</g>
		<g>
			<path class="st5" d="M983.5,1517.2c-5.6-6-11.6-10.8-17.8-14.6c-0.6-0.4-1.3-0.8-1.9-1.1c-5.6,0.2-13.5,1.3-17.6,5.4
				c0.1-0.2,2.5-5.8,6.3-10.8c-9.1-1.8-17-2.9-24-3.4c0.9-0.8,1.8-1.6,2.6-2.5c13-15,28.9-18.2,39.3-18.5c6.7-0.1,11.1,0.9,11.1,0.9
				c-8.7-8.8-17.7-14.2-26.2-17.3c-12.7-4.6-24.4-4.2-33-2.6l-0.6-0.6l-14.6-15c0,0-0.4-1-1.3-2.4c0,0,0,0,0,0
				c-0.8-1.2-1.9-2.6-3.3-3.9c-1.4-1.2-3-2.3-5-3c-0.7-0.2-1.5-0.4-2.3-0.5c-0.1,0-0.3,0-0.4-0.1c-0.1,0-0.1,0-0.2,0
				c-0.1,0-0.3,0-0.4,0c-0.1,0-0.1,0-0.2,0c-2.1-0.1-4.7,1.7-7.5,3.6c-4.4,3-9.3,6.2-13.3,2.7c-1.2-1-2.4-1.9-3.5-2.7
				c-9.2-5.9-17.5-4-25.1,0c-6.3,3.3-12.1,8-17.4,10.8h0c-1.2,0.6-2.4,1.2-3.6,1.6c-2-3.7-3.5-7.7-4.7-11.9c0,0,0,0,0,0v0
				c0-0.1,0-0.1,0-0.2c0-0.1-0.1-0.2-0.1-0.3c-0.2-0.8-0.4-1.6-0.6-2.4v0c0,0,0,0,0,0c-0.4-2-0.8-4-1.1-6v0c0,0,0,0,0,0
				c0,0,0-0.1,0-0.1c-0.3-2.1-0.5-4.3-0.7-6.6c-0.1-1-0.1-2-0.2-3v0c-0.1-3.1-0.1-6.3,0-9.5v0c0-0.1,0-0.1,0-0.2c0,0,0,0,0,0
				c0-0.7,0.1-1.3,0.1-2c0.1-2.1,0.3-4.3,0.5-6.5v0c0,0,0,0,0,0v0c0.2-1.7,0.4-3.4,0.6-5.2c0.5-3.5,1.1-7.1,1.8-10.7c0,0,0,0,0,0
				c1.5-7.6,3.5-15.3,5.9-22.9v0c0.2-0.7,0.5-1.4,0.7-2.2c1.2-3.7,2.5-7.4,3.9-11.1c0.9-2.5,1.9-4.9,2.9-7.3
				c1.9-4.6,3.9-9.1,6.1-13.4v0c0.4-0.8,0.8-1.6,1.2-2.4c0.8-1.6,1.6-3.2,2.5-4.8c1.6-3,3.2-5.9,4.9-8.7v0c0.5-0.8,1-1.6,1.5-2.4
				c0,0,0,0,0,0c3.1-5.2,6.4-9.9,9.7-14.3c0.3-0.4,0.6-0.7,0.9-1.1c4.1-5.3,8.4-9.9,12.5-13.6c0.7-0.6,1.3-1.2,2-1.7h0
				c3.2-2.6,6.5-4.7,9.6-6.1c0,0-6.3-1.1-16.3,0.2c-1.2,0.2-2.5,0.3-3.8,0.6c0,0,0,0,0,0c-0.9,0.2-1.9,0.3-2.9,0.6c0,0,0,0,0,0h0
				c-0.8,0.2-1.7,0.4-2.6,0.6c-3.3,0.8-6.8,1.9-10.4,3.3c-0.9,0.3-1.8,0.7-2.8,1.1c-4.8,2-9.9,4.6-15.1,7.8
				c-0.6,0.4-1.2,0.8-1.8,1.2h0c-3.3,2.1-6.6,4.6-9.9,7.3c1.4-5,3.2-10.4,5.4-15.8c3.6-9.1,8.2-18.7,13.1-27.9
				c6.5-12.2,13.7-24,20.2-33.6c-0.4,0.2-24.2,11.3-45.9,33.7c-12.3,12.7-23.9,29.1-30.3,49.2v253h36.5c0,0,0,0,0,0h20.1l0,0h87.2
				c0.5-0.4,0.9-0.9,1.4-1.3l0,0c4.2-3.9,9.3-7.6,15.2-10.1c11.1-4.7,21.8-6.1,30.9-5.9c15.1,0.3,25.6,4.9,25.6,4.9
				C992.7,1528.3,988.2,1522.3,983.5,1517.2z"/>
			<g>
				<path class="st6" d="M909,1231.8c8.4-2.8,15.8-0.8,23.3-1.5c-6,4.5-10.2,10.8-18.4,14.4c-11.6,5-19.2-0.1-19.2-0.1
					S897.1,1235.7,909,1231.8z"/>
				<path class="st6" d="M883.2,1232.9c3.7-7.4,9.9-11,14.3-16.5c-1,7,0.5,13.9-2.5,21.7c-4.3,11-12.7,12.8-12.7,12.8
					S877.9,1243.5,883.2,1232.9z"/>
				<path class="st6" d="M898.9,1248.1c8.2,1.5,13.4,6.3,19.9,9.1c-7,1-13.2,4.4-21.5,3.7c-11.8-0.9-15.8-8.6-15.8-8.6
					S887.2,1246.1,898.9,1248.1z"/>
				<path class="st6" d="M862,1242.4c2.2-9.5,8.3-15.3,11.9-22.7c0.7,8.2,4.3,15.8,2.9,25.4c-1.9,13.7-11,18-11,18
					S858.9,1255.9,862,1242.4z"/>
				<path class="st6" d="M886.1,1261.3c9.4,2.6,14.9,8.9,22.2,12.8c-8.2,0.4-15.9,3.6-25.5,1.9c-13.6-2.5-17.5-11.8-17.5-11.8
					S872.7,1257.5,886.1,1261.3z"/>
				<path class="st6" d="M844.7,1255.9c1.4-9.9,7-16.3,10-24.2c1.5,8.3,5.8,15.7,5.4,25.7c-0.7,14.2-9.5,19.4-9.5,19.4
					S842.8,1270,844.7,1255.9z"/>
				<path class="st6" d="M868.5,1273.9c9.9,1.1,16.5,6.6,24.5,9.4c-8.3,1.7-15.5,6.2-25.5,6c-14.2-0.3-19.6-9.1-19.6-9.1
					S854.4,1272.3,868.5,1273.9z"/>
				<path class="st6" d="M828.2,1271.7c0.3-10.3,5.4-17.6,7.7-26.1c2.5,8.4,7.7,15.5,8.4,25.9c0.9,14.7-7.7,21-7.7,21
					S827.7,1286.4,828.2,1271.7z"/>
				<path class="st6" d="M857.7,1289c10.2,2,16.5,8.2,24.5,11.7c-8.7,1.1-16.6,5.2-26.9,4.1c-14.6-1.5-19.5-11-19.5-11
					S843.2,1286.1,857.7,1289z"/>
				<path class="st6" d="M813.1,1289.5c-1.4-10.3,2.4-18.3,3.2-27c3.8,7.9,10.2,14,12.6,24.1c3.3,14.3-4.1,22-4.1,22
					S815.1,1304.1,813.1,1289.5z"/>
				<path class="st6" d="M796.9,1312.7c-3.2-9.9-0.8-18.4-1.6-27.1c5.2,7.1,12.5,12,16.6,21.5c5.8,13.5-0.2,22.4-0.2,22.4
					S801.4,1326.7,796.9,1312.7z"/>
				<path class="st6" d="M786.1,1337.6c-4.8-9.2-3.9-18-6.1-26.5c6.3,6.1,14.4,9.7,20,18.4c8,12.4,3.5,22.1,3.5,22.1
					S792.9,1350.6,786.1,1337.6z"/>
				<path class="st6" d="M842.9,1305c9.2,1.1,15.3,6.2,22.7,8.9c-7.7,1.5-14.5,5.7-23.7,5.4c-13.2-0.4-18.1-8.6-18.1-8.6
					S829.8,1303.4,842.9,1305z"/>
				<path class="st6" d="M833.9,1320.7c9.2,1.1,15.3,6.2,22.7,8.9c-7.7,1.5-14.5,5.7-23.7,5.4c-13.2-0.4-18.1-8.6-18.1-8.6
					S820.8,1319.1,833.9,1320.7z"/>
				<path class="st6" d="M824.3,1341.2c9.2,1.1,15.3,6.2,22.7,8.9c-7.7,1.5-14.5,5.7-23.7,5.4c-13.2-0.4-18.1-8.6-18.1-8.6
					S811.2,1339.6,824.3,1341.2z"/>
				<path class="st6" d="M800.7,1364.3l1.5-0.1c0-0.1-0.2-5.3,3.5-15.8c3.4-9.7,10.7-26,26.8-48.6c13.8-19.4,41.7-45.3,64.3-55
					l-0.6-1.3c-22.9,9.8-51,35.8-64.9,55.4C800,1342.8,800.6,1363.4,800.7,1364.3z"/>
			</g>
			<g>
				<path class="st4" d="M972.4,1346.2c0,0-1,1-2.7,2.7c-0.3,0.3-0.7,0.7-1,1l0,0c0,0-0.1,0.1-0.1,0.1l0,0
					c-5.8,5.9-17.2,17.5-28.2,28.5l-12.4-7l6.7,12.6c-1.8,1.8-3.5,3.5-5.2,5.1c-5,4.9-9.3,9-12.3,11.7c-0.7,0.6-1.4,1.2-1.9,1.7
					c-2.3,1.9-5.1,4.8-8.3,8.6c-1.2,1.4-2.4,2.9-3.7,4.5c-2.1,2.7-4.4,5.6-6.8,8.8c-0.4,0.5-0.7,1-1.1,1.5c-0.3,0.4-0.7,0.9-1,1.3
					c-0.3,0.4-0.6,0.8-0.9,1.2c-0.6,0.8-1.1,1.6-1.7,2.4c-23.6,32.8-55.7,84.5-75.5,116.9H780v-50.1l0.1-0.2l3.3-5.7l0-0.1l2-3.6
					l3-5.3l0-0.1l0-0.1l0,0l0.1-0.1c0,0,0,0,0,0l1-1.7l0.1-0.2l5.5-9.5l0,0l12-20.9l0-0.1l3.8-6.6l0.3-0.6l1.2-2.1l4.7-7.3
					c0,0,0,0,0,0l1.2-1.9c0,0,0,0,0,0l0,0c0,0,0,0,0,0l0.1-0.2l0.3-0.5l2-3.1c0,0,0,0,0,0l0,0c0,0,0,0,0,0l0.3-0.4v0l3.8-5.9
					l3.6-5.7l9.4-14.7l7.4-11.7l8.6-13.5c4.2-3.7,8.7-6.9,13.4-9.8c11.4-6.9,23.9-11.6,36.2-14.7l-0.7,7.9l8.2-9.7
					c12.2-2.4,24.6-3.8,37.1-4.1c0,0,0,0,0,0c6.2-0.2,12.4,0,18.7,0.3h0c0.5,0,1.1,0.1,1.6,0.1h0
					C969.8,1345.9,971.1,1346,972.4,1346.2z"/>
			</g>
			<g>
				<path class="st3" d="M891.1,1283.4L891.1,1283.4c0,0,0,0.2-0.1,0.4c-0.7,3-5.5,23.8-11.6,48.4l-14.7,0.9l13.1,5.4
					c-0.4,1.3-0.9,2.6-1.3,3.9c-2.7,7.9-5.7,15.8-9,23.6c-3.3,7.9-6.8,15.6-10.6,23.3c-1.9,3.9-3.9,7.8-5.9,11.7
					c-2.6,4.9-5.3,9.8-8.1,14.7c-0.7,1.2-1.4,2.5-2.2,3.7c-2.3,3.9-4.6,7.7-6.9,11.5c-2.3,3.6-4.6,7.2-6.9,10.8h0
					c-1,1.6-2.1,3.2-3.2,4.7v0c-3.6,5.3-7.3,10.6-11.1,15.8c0,0,0,0,0,0c-2,2.7-4,5.4-6,8c-5.1,6.7-10.2,13.2-15.6,19.6
					c0,0-0.1,0.1-0.1,0.1c-0.3,0.4-0.7,0.8-1,1.3c-0.9,1.1-1.8,2.2-2.7,3.3c-2.3,2.8-4.7,5.5-7.1,8.2c0,0.1-0.1,0.1-0.1,0.2v-80.7
					l0.1-0.8v-0.1l0.1-0.7l0.8-4.9l1.5-9.4l0.9-5.3l0.1-0.9l1.8-10.8l0.7-4.1c0.3-0.8,0.5-1.6,0.8-2.4c1.5-4.4,3.2-8.3,5-12.1
					c0-0.1,0.1-0.2,0.1-0.3c3-6.1,6.5-11.5,10.4-16.6l0,0c0.8-1.1,1.7-2.2,2.6-3.3l0,0c0.5-0.6,1-1.2,1.5-1.9
					c1.7-2.1,3.5-4.1,5.4-6.1c2.6-2.8,5.4-5.7,8.3-8.6c0.2-0.3,0.5-0.5,0.7-0.8l4,8.1l0.4,0.8l0.1-0.8l1.2-7.2l1.3-7.7
					c2.1-2,4.3-3.9,6.5-5.8c0.8-0.7,1.6-1.3,2.4-2c1.8-1.5,3.5-2.9,5.3-4.3c3.1-2.4,6.2-4.8,9.4-7.1c1.2-0.9,2.3-1.7,3.5-2.5
					c5.2-3.7,10.6-7.1,16-10.4h0c3-1.8,6.1-3.6,9.2-5.3c0.5-0.3,1-0.6,1.6-0.8c1-0.6,2.1-1.1,3.1-1.7c0.5-0.3,1-0.5,1.6-0.8
					c1.1-0.5,2.1-1.1,3.2-1.6c0,0,0,0,0,0C890,1283.9,890.6,1283.6,891.1,1283.4z"/>
				<path class="st7" d="M891.1,1283.4L891.1,1283.4c0,0-0.2,0.2-0.5,0.5l0,0c-1.5,1.5-6.3,6.5-13.2,14.4c-1.2,1.3-2.4,2.7-3.6,4.2
					c-2.8,3.3-5.9,7-9.2,11.1c-0.2,0.2-0.4,0.5-0.6,0.7v0c-3.4,4.2-7.1,8.9-10.9,13.8c-0.8,1-1.5,2-2.3,3.1
					c-3.7,4.9-7.4,10.1-11.3,15.5c-0.6,0.9-1.2,1.8-1.8,2.6c-1,1.5-2,3-3.1,4.5c-5.2,7.7-10.5,16-15.7,24.6c0,0,0,0,0,0
					c-2.1,3.5-4.2,7.1-6.2,10.7c-1.3,2.4-2.7,4.7-4,7.2c-0.8,1.5-1.6,3-2.4,4.5c-2.1,4-4.2,8.1-6.3,12.3c-0.4,0.8-0.8,1.6-1.2,2.4
					c-0.7,1.4-1.4,2.9-2.1,4.4c-0.8,1.7-1.6,3.4-2.3,5.1c-0.9,1.9-1.7,3.8-2.5,5.7c-0.1,0.3-0.3,0.6-0.4,1c-0.4,1-0.8,1.9-1.2,2.9
					c0,0,0,0,0,0c-0.6,1.5-1.3,3.1-1.9,4.7c0,0,0,0,0,0c-0.2,0.5-0.4,1.1-0.7,1.6c-1,2.6-2,5.1-3,7.7c-0.6,1.5-1.1,3-1.6,4.5
					c0,0,0,0,0,0c-1,2.7-1.9,5.5-2.8,8.2c0-0.1-0.1-0.3-0.1-0.4c0-0.1-0.1-0.3-0.1-0.4v-65.3c0.1-0.3,0.2-0.5,0.3-0.8
					c0.5-1.5,1.1-3.1,1.8-4.6c0.1-0.2,0.2-0.4,0.3-0.6c1.1-2.5,2.2-5.1,3.5-7.6c1.8-3.7,3.8-7.3,6-10.9c0.1-0.1,0.1-0.2,0.2-0.3
					c0,0,0,0,0,0c3.1-5.1,6.4-10,9.8-14.8c0,0,0,0,0,0c0,0,0,0,0,0c0.8-1.1,1.7-2.2,2.5-3.3l0,0c0,0,0,0,0,0
					c0.8-1.1,1.6-2.1,2.5-3.2c1.9-2.3,3.7-4.6,5.6-6.8c2.6-3,5.2-5.8,7.7-8.4c0.2-0.3,0.5-0.5,0.7-0.8l4,8.1l0.4,0.8l0.1-0.8
					l1.2-7.2l1.3-7.7c2.1-2,4.3-3.9,6.5-5.8c0.8-0.7,1.6-1.3,2.4-2c1.8-1.5,3.5-2.9,5.3-4.3c3.1-2.4,6.2-4.8,9.4-7.1
					c1.2-0.9,2.3-1.7,3.5-2.5c5.2-3.7,10.6-7.1,16-10.4h0c3-1.8,6.1-3.6,9.2-5.3c0.5-0.3,1-0.6,1.6-0.8c1-0.6,2.1-1.1,3.1-1.7
					c0.5-0.3,1-0.5,1.6-0.8c1.1-0.5,2.1-1.1,3.2-1.6c0,0,0,0,0,0C890,1283.9,890.6,1283.6,891.1,1283.4z"/>
			</g>
			<g>
				<path class="st6" d="M800.2,1381.1c4.2-7.2,10.5-10.4,15.3-15.6c-1.4,6.9-0.4,14-3.9,21.5c-4.9,10.8-13.4,12-13.4,12
					S794.2,1391.3,800.2,1381.1z"/>
				<path class="st6" d="M782.8,1398c-2.1-7.5,0-13.9-0.3-20.5c3.7,5.5,9.1,9.4,11.8,16.7c3.9,10.4-0.9,16.8-0.9,16.8
					S785.8,1408.7,782.8,1398z"/>
				<path class="st6" d="M803.3,1398.9c6.6-4.1,13.3-4,19.6-6.1c-4.2,5.1-6.5,11.3-12.7,16.1c-8.8,6.7-16.4,3.9-16.4,3.9
					S793.9,1404.7,803.3,1398.9z"/>
				<path class="st6" d="M802.6,1416.1c8.2-4.1,16-3.1,23.5-4.9c-5.5,5.4-8.9,12.5-16.7,17.3c-11.1,6.8-19.6,2.7-19.6,2.7
					S790.9,1421.8,802.6,1416.1z"/>
				<path class="st6" d="M798.2,1435.9c7.7-5.4,15.7-5.7,23-8.8c-4.7,6.4-7,14.1-14.1,20.2c-10.1,8.7-19.4,5.9-19.4,5.9
					S787.3,1443.6,798.2,1435.9z"/>
				<path class="st6" d="M800,1453.2c8.4-5,16.7-4.6,24.5-7.1c-5.4,6.2-8.4,14-16.2,19.7c-11.2,8.2-20.5,4.5-20.5,4.5
					S788.2,1460.2,800,1453.2z"/>
				<path class="st6" d="M799.7,1473.7c7.1-5,14.6-5.2,21.4-8c-4.4,5.9-6.5,13.1-13.2,18.7c-9.4,8-18,5.4-18,5.4
					S789.6,1480.7,799.7,1473.7z"/>
				<path class="st6" d="M803.3,1490.2c7.1-5,14.6-5.2,21.4-8c-4.4,5.9-6.5,13.1-13.2,18.7c-9.4,8-18,5.4-18,5.4
					S793.2,1497.3,803.3,1490.2z"/>
				<path class="st6" d="M806.2,1509.2c6.2-6.1,13.5-7.6,19.7-11.5c-3.3,6.5-4.2,14-9.8,20.6c-7.9,9.5-16.8,8.4-16.8,8.4
					S797.5,1517.9,806.2,1509.2z"/>
				<path class="st6" d="M807.3,1541.5l1-1c0,0-3.4-3.6-7.5-13.2c-3.7-8.9-8.8-24.9-11.7-50.7c-2.5-22.2,0.8-57.7,10.5-78.7
					l-1.2-0.6c-9.9,21.1-13.2,57-10.6,79.4C793.4,1526.8,806.8,1540.9,807.3,1541.5z"/>
				<path class="st6" d="M780,1403.9c2.3,1.9,4.4,4.2,6.1,6.6c7.3,10.8,3.5,19.5,3.5,19.5s-4.7-0.3-9.6-4.5L780,1403.9z"/>
				<path class="st6" d="M780,1427.4c0.7,0.7,1.3,1.4,2,2.2c8.4,10.3,5.4,19.5,5.4,19.5c-2.6-0.1-5.1-0.9-7.4-2.1V1427.4z"/>
				<path class="st6" d="M780,1470.7c9.7,7.7,9.3,16.7,9.3,16.7c-3.1,0.7-6.3,0.6-9.3-0.3V1470.7z"/>
				<path class="st6" d="M780,1449.7c9.5,9.6,7.4,19.2,7.4,19.2c-2.5,0.2-5.1-0.2-7.4-1.1V1449.7z"/>
				<path class="st6" d="M780,1489.7c1,0.5,1.9,1,2.8,1.5c10.5,6.5,10.7,15.5,10.7,15.5s-5.9,2.2-13.5-1.4V1489.7z"/>
				<path class="st6" d="M780,1512.1c1.9,0.3,3.8,0.7,5.6,1.4c11.6,4.2,13.6,12.9,13.6,12.9s-7.6,4.8-18.8-0.5l-0.5-0.2L780,1512.1z
					"/>
				<path class="st6" d="M780,1534.2c2.5-0.9,5.1-1.5,7.8-1.7c12.3-1,17.8,6.1,17.8,6.1s-4.9,7.5-17.3,7.3c-2.8-0.1-5.6-0.5-8.2-1.3
					V1534.2z"/>
			</g>
			<g>
				<path class="st4" d="M905.6,1511.2l-13-1l10.5,7.9c-3.7,10.2-7.1,19-8.9,22.8c-1.1,2.3-2.3,4.6-3.5,6.8h-54.2l0,0h-9.5v0
					c0.8-2.5,1.8-4.9,2.8-7.3c6.5-14.8,19.6-25.3,31.5-35c1-0.8,2-1.7,3-2.5l5.6-4.4c3.3-2.5,6.7-4.8,10.2-7.1
					c12.3-8,25.5-14.5,39.3-19.6C919.4,1472.2,912.4,1492.4,905.6,1511.2z"/>
			</g>
			<g>
				<path class="st7" d="M896.5,1423.5c0,0,0,0.1,0,0.1c-0.1,0.3-0.4,1.1-0.9,2.3c-0.2,0.4-0.4,0.9-0.6,1.4c-0.4,1-0.9,2.2-1.4,3.5
					c-5.7,14.1-18.9,46.4-32.2,74.5c-3.2,6.8-6.5,13.4-9.6,19.4c-3.6,6.9-8.9,14.7-15.3,23l0,0h-20.1c0,0,0,0,0,0h-36.3
					c0.6-0.8,1.1-1.7,1.7-2.5c0,0,0,0,0,0c0,0,0,0,0,0c2.9-4.3,6-8.6,9.1-12.7c0,0,0,0,0,0c1.1-1.4,2.2-2.9,3.3-4.3l0,0c0,0,0,0,0,0
					c1.2-1.5,2.3-3,3.5-4.5c0,0,0.1-0.1,0.1-0.1c0,0,0,0,0.1-0.1v0c0,0,0.1-0.1,0.1-0.1c0.3-0.3,0.5-0.7,0.8-1c0,0,0.1-0.1,0.1-0.1
					c0.1-0.2,0.3-0.4,0.4-0.5l0,0c0.1-0.1,0.1-0.1,0.2-0.2c5.1-6.3,10.4-12.5,15.9-18.5l0,0c0,0,0.1-0.1,0.1-0.1v0c0,0,0,0,0,0
					c1.7-1.8,3.3-3.6,5-5.3l0.2,2.9v0l0,0.1v0l0.7,8.4v0l0,0.3v0l1.9,23.8l3.5-42c11-5.7,49.2-42.6,64-60.1c1.1-1.3,2.1-2.5,2.9-3.6
					c0.7-0.9,1.3-1.7,1.7-2.4c0,0,0,0,0,0c0.3-0.5,0.6-0.9,0.8-1.2C896.5,1423.6,896.5,1423.5,896.5,1423.5z"/>
				<path class="st3" d="M893.3,1480.3l-25.8,15.5l12.8-4.4l11.2-3.9c-1,3.6-2.1,7.4-3.4,11.3c-3.7,11.2-7.6,21.4-11.7,30.8
					l-29.8,8.3l26.4-0.9c-1.8,3.7-3.5,7.3-5.4,10.6h-31l0,0h-12.2c0,0,0,0,0,0c18.1-27.6,55.1-93.6,68-116.9
					c0.5-0.8,0.9-1.6,1.3-2.4c0.2-0.4,0.4-0.8,0.6-1.2c0.5-0.9,0.9-1.7,1.3-2.4c0,0,0,0,0,0c0.3-0.5,0.5-1,0.7-1.3c0,0,0,0,0,0.1
					c0,0,0,0,0,0c0,0.1,0.1,0.4,0.2,0.8c0.2,0.7,0.4,1.9,0.7,3.4c0.1,0.9,0.3,1.8,0.4,3C898.8,1439.6,899.1,1456.2,893.3,1480.3z"/>
			</g>
			<path class="st5" d="M900.1,1438.8c8.2-8.2,16.5-4.5,24.1-26.3c8.1,20.4-1.1,36.9-4.7,43.6
				C911.1,1449.7,900.1,1438.8,900.1,1438.8z"/>
		</g>
	</g>
	<path class="st2" d="M1951,514.9H29.1C9.7,514.9-6,501.8-6,485.7l0,0c0-16.1,15.7-29.2,35.1-29.2H1951V514.9z"/>
	<g>
		<g>
			<path class="st8" d="M1593.2,238c6.2-9.8,19.7-13,19.7-13c12.2-0.4,11.1-10.7,11.1-10.7l8.2-0.3l8.2,0.3c0,0-1.1,10.4,11.1,10.7
				c0,0,11.7,2.5,17.3,9.6c-1.3,1.1-2.6,2.3-3.8,3.4H1593.2z"/>
			<path class="st9" d="M1619.1,223.5c0,0,6.8,7.4,13.7,7.4c6.9,0,12.4-7.4,12.4-7.4c-5.5-2.9-4.9-9.3-4.9-9.3l-8.2-0.3l-8.2,0.3
				C1623.9,214.3,1624.6,220.6,1619.1,223.5z"/>
			<path class="st10" d="M1681.1,248.5c-2.9-8.3-5.6-13-10.4-17.3c-5.7-5.1-21.7-6.4-21.7-6.4s-2.9,9.5-16.9,9.5
				c-14.1,0-17.2-9.5-17.2-9.5s-15.7,1.3-21.4,6.4c-4.8,4.3-7.6,9-10.4,17.3H1681.1z"/>
			<g>
				<path class="st8" d="M1651.7,194.1c-1.2-12-10.6-18.9-19.9-18.7c-9.3,0.1-18.5,7.3-19.4,19.4c-0.5,7.1,1.1,14.6,2.3,19
					c0.7,2.6,2,5,3.8,6.8c4.2,4.3,9.6,7.7,13.9,7.6c4.3-0.1,9.6-3.6,13.7-8c1.8-1.9,3-4.3,3.7-6.9
					C1650.9,208.8,1652.4,201.1,1651.7,194.1z"/>
				<path class="st11" d="M1640.8,207.7c0.6,0.6,1.5,0.6,2,0s0.6-1.5,0-2c-0.6-0.6-1.5-0.6-2,0
					C1640.3,206.3,1640.3,207.2,1640.8,207.7z"/>
				<path class="st11" d="M1623.8,206.7c0,0.8-0.6,1.4-1.4,1.4c-0.8,0-1.4-0.6-1.4-1.4c0-0.8,0.6-1.4,1.4-1.4
					C1623.1,205.3,1623.8,205.9,1623.8,206.7z"/>
				<path class="st12" d="M1636.8,215.9c0.7,0,1.2,0.8,0.8,1.4c-1.2,1.7-3.2,2.9-5.5,2.9c-2.2,0-4.2-1.1-5.4-2.8
					c-0.5-0.6,0-1.5,0.7-1.5H1636.8z"/>
				<path class="st13" d="M1638.7,212.7c0,1.3,1.3,2.3,3,2.3s3-1,3-2.3c0-1.3-1.3-2.3-3-2.3S1638.7,211.4,1638.7,212.7z"/>
				<path class="st13" d="M1625.5,212.7c0,1.3-1.3,2.3-3,2.3c-1.7,0-3-1-3-2.3c0-1.3,1.3-2.3,3-2.3
					C1624.2,210.4,1625.5,211.4,1625.5,212.7z"/>
				<path class="st11" d="M1611,183.5c0.5-2.3,2.5-3.5,3.7-3.9c1.8,3.7,3.9,7.3,5.4,11.1c-1.5,2.8-4.6,5.7-4.6,7.9
					c0,2.7-0.4,5.9-1.8,6.8c-1.5,0.9-1.3-4.6-1.4-6.8v-1C1612.6,189.7,1610.3,186.9,1611,183.5z"/>
				<path class="st11" d="M1653.2,183.5c-0.5-2.3-2.5-3.5-3.7-3.9c-1.8,3.7-3.9,7.3-5.4,11.1c1.5,2.8,4.6,5.7,4.6,7.9
					c0,2.7,0.4,5.9,1.8,6.8c1.5,0.9,1.3-4.6,1.4-6.8v-1C1651.6,189.7,1653.9,186.9,1653.2,183.5z"/>
				<path class="st11" d="M1642.2,196.7c-3.2,3.1-5.3,1.6-7.2,0.4c-2.5-1.5-4.5-1.7-6.6-0.9c-1.7,0.7-2.9,2.6-4.6,2.2
					c-1.6-0.4-3.5-1.7-5-2.5c-1.7-0.9-4.1-0.1-5.7-1.2c-1.4-0.9,0.5-6.5,0.5-8.1c0.1-5-0.3-9.3,4.5-10.8c1.7-0.5,5-0.9,6.7-1.5
					c2.2-0.7,4.1-2,6.3-2.8c3.8-1.3,8.3-0.4,11.3,2.2c1.5,1.2,2.7,2.9,4.6,3.5c1.1,0.3,2.3,0.3,3.2,0.8c1.8,1.1,1.8,3.7,1,5.7
					c-0.9,2.3-2.2,8.1-4.6,8.9c-1,0.4,3.6,2.2,2.7,2.9C1648.1,196.4,1644.4,194.6,1642.2,196.7z"/>
			</g>
		</g>
		<g>
			<g>
				<path class="st14" d="M1767.6,470.9l-0.1,7.4c0,2.8-2.3,5-5.1,5l-16.8-0.1c-1.5,0-2.5-1.5-1.9-2.9l0,0c0.3-0.8,1-1.3,1.9-1.3
					l1.5,0c5.2-0.1,9.7-3.8,10.8-8.9l0,0L1767.6,470.9z"/>
				<path class="st14" d="M1756.3,460.5c-0.1-1.7-0.3-3.4-0.3-5.1c-0.1-2.9-0.3-5.8-0.4-8.6l14.9-2.6l-0.2,1.6l-1.2,10.1
					c-0.2,1.7-0.4,3.4-0.6,5.1c-0.2,1.7-0.2,3.4-0.5,5.1c-0.5,3.4-0.4,7-0.8,10.4l-0.5-0.2c-1.3,2.2-2.9,3.9-5.2,3.5
					c-1.9-0.3-3.5-1.9-3.8-3.7c-0.4-3.4-0.8-6.9-1.1-10.3C1756.6,463.9,1756.4,462.2,1756.3,460.5z"/>
				<path class="st14" d="M1808.2,471.3l0.1,7.4c0,2.8,2.4,5,5.2,5l16.8-0.3c1.5,0,2.5-1.5,1.9-2.9l0,0c-0.3-0.8-1.1-1.3-1.9-1.3
					l-1.5,0c-5.2,0-9.8-3.7-10.9-8.8l0,0L1808.2,471.3z"/>
				<path class="st14" d="M1817.2,460c-0.2-1.7-0.3-3.4-0.6-5.1c-0.4-2.9-0.7-5.7-1.1-8.6h-15.2l0.4,1.5l2.9,9.8
					c0.5,1.6,1,3.3,1.5,4.9c0.5,1.6,0.8,3.3,1.3,5c1.1,3.3,2.1,6.5,3.1,9.8l0,0c1.7,2,3.5,3.3,5.7,2.5c1.8-0.7,3.1-2.5,3.1-4.3
					c-0.2-3.5-0.4-6.9-0.7-10.3C1817.5,463.4,1817.3,461.7,1817.2,460z"/>
				<path class="st15" d="M1819.3,466.9c0,0-7.3,3.3-13.6,3.3c0,0-12.8-48.7-14.5-63c-1.7-14.3-7.9-30.4-15.5-50.7
					c-5.3-14-12.1-28-5.6-39.5c3-5.3,26-19.4,28.3-7c2.3,12.5,0.6,17.5,3.4,32.7c2,10.8,6.6,33.7,10,52.6
					C1815.3,414.2,1819.3,466.9,1819.3,466.9z"/>
				<path class="st15" d="M1752.5,444c1.6,15.1,3.1,27.8,3.1,27.8s7.8,1.8,14,0.6c0,0,0.8-13.4,1.4-28.4H1752.5z"/>
			</g>
			<path class="st14" d="M1841.2,333.8c0,0,0.2,0.3,0.6,0.8c0.4,0.5,0.9,1.3,1.6,2.3c1.4,2,3.3,4.8,5.5,8.3
				c2.2,3.5,4.6,7.7,6.9,12.4c1.2,2.4,2.3,4.9,3.3,7.7c1,2.8,1.9,5.7,2.2,9.5c0.1,1,0.1,2,0,3.2c-0.1,1.1-0.4,2.4-1,3.8
				c-0.3,0.7-0.7,1.4-1.2,2.1c-0.2,0.3-0.5,0.7-0.8,1l-0.2,0.2l-0.1,0.1c-0.3,0.3-0.1,0.1-0.2,0.2l0,0l-0.2,0.2l-0.9,0.7
				c-0.4,0.3-0.8,0.6-1.1,0.9c-1.3,1-2.6,1.7-3.9,2.4c-1.3,0.7-2.5,1.2-3.7,1.7c-2.3,1-4.5,1.9-6.6,2.8c-2,0.8-3.8,1.7-5.3,2.6
				c-1.5,0.9-2.7,1.9-3.5,2.8c-0.8,1-0.7,2.2-0.9,2.9c-0.2,0.7-0.4,1.3-0.7,1.7c-0.3,0.4-0.6,0.7-0.6,0.7l-0.8,0.7
				c-1.4,1.2-3.5,1-4.7-0.4c-0.1-0.1-0.2-0.2-0.3-0.3c0,0-0.3-0.4-0.5-1.2c-0.2-0.8-0.2-2.1,0.3-3.5c0.3-0.7,0.7-1.5,1.2-2.2
				c0.6-0.7,1.2-1.4,1.7-2.2c1.1-1.6,2.5-3.2,4.1-4.8c1.6-1.5,3.4-3,5.3-4.5c1.8-1.4,3.8-2.8,5.8-4.4c1.9-1.5,3.7-2.9,5.1-4.3
				c0.2-0.2,0.2-0.3,0.4-0.4l0.5-0.6l0.2-0.2l0,0c-0.1,0.1,0.1-0.2-0.1,0.1l0,0l-0.1,0c-0.1,0.1-0.1,0.1-0.2,0.2
				c-0.1,0.1-0.2,0.2-0.2,0.3c-0.2,0.4-0.1-0.1-0.2-0.8c-0.3-1.5-1.1-3.6-2-5.6c-0.9-2.1-2.1-4.1-3.2-6.1c-2.3-4-4.7-7.7-6.9-10.9
				c-2.1-3.2-4-5.8-5.3-7.6c-1.3-1.8-2-2.8-2-2.8l-0.1-0.1c-2.5-3.5-1.7-8.4,1.7-10.9C1833.9,329.6,1838.7,330.3,1841.2,333.8z"/>
			<path class="st16" d="M1818.8,288.5c-10-7.4-56.9-14.8-69.7,20.6c20.7,0,57.6,5.3,57.6,5.3l12.1-1.1
				C1818.8,313.4,1840.8,304.8,1818.8,288.5z"/>
			<path class="st14" d="M1791,289.7c0,0-0.5-1.4-1.4-3.9c-0.9-2.5-2.2-6.1-3.8-10.4c-1.6-4.3-3.5-9.3-5.7-14.5
				c-1.1-2.6-2.3-5.3-3.5-7.9c-1.2-2.7-2.6-5.3-4-7.7c-0.7-1.2-1.4-2.4-2.1-3.5c-0.7-1-1.5-2-2-2.6c-0.3-0.3-0.5-0.5-0.5-0.5
				c0,0,0.1,0,0.3,0.1c0.2,0,0.6,0.1,1,0l0.2,0c0,0,0.3,0,0.1,0l0,0l-0.1,0l-0.3,0l-0.6,0l-0.7,0.1c-0.6,0.1-1.2,0.2-1.8,0.3
				c-2.5,0.4-5.2,1.1-7.8,1.7c-2.6,0.7-5.2,1.3-7.6,1.8c-1.2,0.3-2.4,0.5-3.6,0.7c-1.2,0.2-2.3,0.3-3.3,0.4c-0.5,0-1.1,0.1-1.6,0.1
				c-0.5,0-1,0.1-1.5,0.2c-0.9,0.2-1.8,0.4-2.7,0.4c-1.7,0.1-3-0.4-3.8-0.9c-0.8-0.5-1.1-1-1.1-1c-1.1-1.6-0.7-3.8,0.9-4.8
				c0.1-0.1,0.2-0.1,0.3-0.2l0.8-0.4c0,0,0.4-0.2,1-0.3c0.6-0.1,1.4-0.1,2.4,0.2c0.5,0.1,1.1,0.4,1.8,0.4c0.7,0.1,1.5-0.1,2.3-0.3
				c1.6-0.4,3.5-1.1,5.5-2.1c2-1,4.1-2.2,6.5-3.5c2.4-1.3,4.9-2.8,8.1-4c0.8-0.3,1.6-0.6,2.4-0.8c0.5-0.1,1-0.3,1.4-0.4l0.5-0.1
				l0.3-0.1l0.1,0l0,0c-0.1,0,0.2,0,0.2,0l0.4-0.1c1.2-0.1,2.3,0,3.3,0.2c1,0.2,1.8,0.5,2.5,0.9c1.4,0.7,2.4,1.4,3.3,2.2
				c1.7,1.5,3,2.9,4.1,4.3c1.1,1.4,2.1,2.8,3.1,4.3c1.9,2.9,3.5,5.7,5,8.5c1.5,2.8,2.9,5.6,4.2,8.3c2.6,5.4,4.8,10.6,6.6,15
				c1.8,4.4,3.2,8.1,4.1,10.7c0.9,2.6,1.5,4.2,1.5,4.2c1.4,4.1-0.7,8.5-4.8,9.9s-8.5-0.7-9.9-4.8L1791,289.7z"/>
			<g>
				<g>
					<defs>
						<path id="XMLID_12_" d="M1823,336.7c7.6,5.2,15,3.9,21.8-4c4.1-4.7,5.2-11.2,3.4-17.1l-0.3-0.9c-1.5-4.9-6.2-10-10.9-12.2
							l-12.9-2l-9.1-9.5c0,0-11,5.5-7.8,12.4l6.4,5.1c0,0-5.6,2.9-6.8,7.6C1806.4,318.7,1807.5,326.2,1823,336.7z"/>
					</defs>
					<use xlink:href="#XMLID_12_"  style="overflow:visible;fill:#E89A49;"/>
					<clipPath id="XMLID_3_">
						<use xlink:href="#XMLID_12_"  style="overflow:visible;"/>
					</clipPath>
					<path class="st17" d="M1818,328.7c-1-0.6-2.4,0-3.1,1.3c-0.7,1.3-0.5,2.8,0.5,3.3c1,0.6,2.4,0,3.1-1.3
						C1819.2,330.8,1819,329.3,1818,328.7z"/>
				</g>
				<path class="st12" d="M1817.5,318.8c0.3-0.5-0.1-1.1-0.6-1c-1.6,0.1-3.1,1-4,2.5c-0.8,1.5-0.9,3.2-0.2,4.6
					c0.2,0.5,1,0.6,1.3,0.1L1817.5,318.8z"/>
				<path class="st13" d="M1824.5,316.9c-0.9-0.7-2.4-0.2-3.2,1c-0.9,1.2-0.8,2.7,0.1,3.4c0.9,0.7,2.4,0.2,3.2-1
					C1825.4,319.1,1825.4,317.5,1824.5,316.9z"/>
				<path class="st18" d="M1827.7,321c-0.5-0.5-1.3-0.4-1.8,0.1c-0.5,0.5-0.4,1.3,0.1,1.8c0.5,0.5,1.3,0.4,1.8-0.1
					C1828.3,322.2,1828.3,321.4,1827.7,321z"/>
				<path class="st18" d="M1822.4,331.8c-0.5-0.5-1.3-0.4-1.8,0.1s-0.4,1.3,0.1,1.8c0.5,0.5,1.3,0.4,1.8-0.1
					S1822.9,332.2,1822.4,331.8z"/>
			</g>
			<path class="st18" d="M1869.5,411.1c6.2-5.9,10.6-13.6,11.5-22.1c1-8.5-0.1-17.2,0.1-25.7c0.2-7.1,1.2-14.2,0.9-21.3
				c-0.3-7.1-4.9-38.2-42.7-41.1c0,0,0,0,0,0c-2.9-0.3-5.9,0.1-8.7,0.7c0,0,4.5,0.3,8.5,4.1c6.2,5.9-4.5,6.5,1.8,18.5
				c-1.7,1.7-4.2,2.6-5.3,4.9c-2.9,6-5.7,17-1.5,22.7c4.2,5.7,13.9-2.8,13.4,11c-0.4,13.8-14.1,30.6-4,40.3
				c10.1,9.8,7.3,22,14.8,22.2C1865.7,425.3,1864.2,416.1,1869.5,411.1z"/>
		</g>
		<g>
			<g>
				<rect x="1603.2" y="447" class="st19" width="112" height="28.1"/>
				<path class="st20" d="M1595.1,470.2h128.1c7,0,12.8,5.7,12.8,12.8l0,0l0,0h-153.6l0,0l0,0
					C1582.4,475.9,1588.1,470.2,1595.1,470.2z"/>
				<path class="st18" d="M1801.9,436h-285.4V257.3c0-7.7,6.3-14,14-14h257.4c7.7,0,14,6.3,14,14V436z"/>
				<path class="st20" d="M1516.4,427.7v11.2c0,7.2,5.8,13,13,13h259.4c7.2,0,13-5.8,13-13v-11.2H1516.4z"/>
				<path class="st21" d="M1661.3,254.3c0,1.2-1,2.1-2.1,2.1c-1.2,0-2.1-1-2.1-2.1c0-1.2,1-2.1,2.1-2.1
					C1660.3,252.2,1661.3,253.2,1661.3,254.3z"/>
				<rect id="XMLID_1_" x="1533.3" y="262.3" class="st12" width="251.8" height="124"/>
				<path class="st15" d="M1533.3,381.6l43.2-27.8c6.9-4.4,15.8-4.4,22.7,0l43.2,27.8H1533.3z"/>
				<path class="st15" d="M1604.4,381.6l43.2-27.8c6.9-4.4,15.8-4.4,22.7,0l43.2,27.8H1604.4z"/>
				<path class="st15" d="M1676,381.6l43.2-27.8c6.9-4.4,15.8-4.4,22.7,0l43.2,27.8H1676z"/>
				<rect id="XMLID_20_" x="1533.3" y="380.7" class="st22" width="251.8" height="33.8"/>
				<path class="st23" d="M1618.2,325.2c0,0,0-0.1,0-0.1c0.3-1.2,0.8-2.3,1.6-3.2c0.5-0.4,0.9-0.8,1.4-1.2c1-0.7,2.1-1,3.4-1.1
					c0.9-0.1,1.8,0.1,2.6,0.4c0.9,0.2,1.7,0.7,2.4,1.3c0.4,0.3,0.7,0.7,1,1.1c0.3-0.9,0.7-1.6,1.3-2.3c0.4-0.4,0.9-0.7,1.3-1.1
					c0.9-0.6,2-0.9,3.1-1c0.8-0.1,1.6,0.1,2.4,0.4c0.5,0.1,1,0.4,1.5,0.7c0-0.3,0-0.6,0.1-1c0.2-1.1,0.8-2.2,1.5-3
					c0.4-0.4,0.9-0.8,1.3-1.1c1-0.6,2-1,3.2-1c0.9-0.1,1.7,0.1,2.5,0.4c0.9,0.2,1.6,0.6,2.2,1.3c0.7,0.6,1.2,1.3,1.5,2.1
					c0.4,0.7,0.6,1.5,0.7,2.4c0,0.3,0,0.6-0.1,0.9c0.5-0.2,1-0.3,1.6-0.3c0.8-0.1,1.5,0.1,2.2,0.4c0.8,0.2,1.4,0.6,2,1.1
					c0.6,0.5,1.1,1.1,1.3,1.9c0.1,0.2,0.2,0.4,0.3,0.6c0.7-0.3,1.4-0.5,2.1-0.5c0.8-0.1,1.5,0.1,2.2,0.4c0.8,0.2,1.4,0.6,2,1.1
					c0.2,0.2,0.4,0.3,0.5,0.5H1618.2z"/>
				<ellipse class="st15" cx="1659.2" cy="397.5" rx="16.8" ry="3.4"/>
				<g>
					<path class="st10" d="M1659.2,279.1c-23.8,0-43.1,19.3-43.1,43.1c0,31.2,43.1,75.3,43.1,75.3s43.1-43.3,43.1-75.3
						C1702.2,298.4,1682.9,279.1,1659.2,279.1z M1659.2,352.3c-16.9,0-30.6-13.7-30.6-30.6c0-16.9,13.7-30.6,30.6-30.6
						c16.9,0,30.6,13.7,30.6,30.6C1689.7,338.7,1676,352.3,1659.2,352.3z"/>
					<path class="st24" d="M1632.7,321.8c0-16.2,12.6-29.4,28.5-30.5c-0.7,0-1.4-0.1-2-0.1c-16.9,0-30.6,13.7-30.6,30.6
						s13.7,30.6,30.6,30.6c0.7,0,1.4,0,2-0.1C1645.3,351.2,1632.7,338,1632.7,321.8z"/>
				</g>
				<ellipse class="st25" cx="279" cy="467.1" rx="34" ry="6.9"/>
				<g>
					<path class="st10" d="M279,228.1c-48,0-86.9,38.9-86.9,86.9c0,62.9,86.9,152,86.9,152s86.9-87.5,86.9-152
						C365.9,267,327,228.1,279,228.1z M279,375.9c-34,0-61.6-27.6-61.6-61.6c0-34,27.6-61.6,61.6-61.6s61.6,27.6,61.6,61.6
						C340.7,348.3,313.1,375.9,279,375.9z"/>
					<path class="st24" d="M225.6,314.2c0-32.7,25.4-59.4,57.5-61.5c-1.4-0.1-2.7-0.2-4.1-0.2c-34,0-61.6,27.6-61.6,61.6
						s27.6,61.6,61.6,61.6c1.4,0,2.8-0.1,4.1-0.2C251,373.6,225.6,346.9,225.6,314.2z"/>
				</g>
			</g>
			<path class="st26" d="M1719.7,309.3c0.1-0.2,0.3-0.3,0.4-0.5c0.5-0.4,1.1-0.9,1.6-1.3c1.2-0.7,2.4-1.1,3.8-1.2
				c1-0.1,2,0.1,2.9,0.5c0.9,0.2,1.7,0.7,2.4,1.3c0-0.1,0-0.2,0-0.3c0.2-1,0.7-2,1.4-2.7c0.4-0.3,0.8-0.7,1.2-1
				c0.9-0.6,1.8-0.9,2.9-0.9c0.8-0.1,1.5,0.1,2.2,0.4c0.3,0.1,0.6,0.2,0.8,0.3c0.4-3.3,3.2-6.4,6.7-6.4c3.8,0,7.3,2.7,7.5,6.7
				c0,0.8-0.1,1.5-0.3,2.2c0.1,0,0.3,0,0.4,0c0.8-0.1,1.5,0,2.2,0.4c0.7,0.2,1.4,0.6,2,1.1c0.5,0.5,0.9,1,1.2,1.6H1719.7z"/>
			<path class="st26" d="M1588.4,298.1h-23.7c0.3-1,0.7-1.9,1.5-2.7c0.4-0.4,0.9-0.8,1.3-1.1c1-0.6,2-1,3.2-1
				c0.9-0.1,1.7,0.1,2.5,0.4c0.1,0,0.3,0.1,0.4,0.1c0.2-2.6,2.4-5.1,5.2-5.1c2.9,0,5.6,2.1,5.7,5.2c0,0.7-0.1,1.4-0.3,2.1
				c0,0,0,0,0,0C1586.2,295.8,1587.6,296.8,1588.4,298.1z"/>
			<g>
				<circle class="st27" cx="1610.4" cy="374.5" r="12.9"/>
				<line class="st28" x1="1610.4" y1="396.2" x2="1610.4" y2="376.4"/>
			</g>
			<g>
				<polygon class="st10" points="1547,372.3 1584.6,376.2 1591.7,361.1 1556.3,361.1 				"/>
				<rect x="1546.6" y="372.4" class="st29" width="38.5" height="23.9"/>
				<polygon class="st30" points="1601,396.2 1582.5,396.2 1582.5,372.4 1591.7,360.8 1601,372.4 				"/>
				<path class="st12" d="M1588.9,376.2c0-1.6,1.3-2.8,2.8-2.8s2.8,1.3,2.8,2.8c0,1.6-1.3,2.8-2.8,2.8S1588.9,377.7,1588.9,376.2z"
					/>
				<g>
					<rect x="1552.6" y="379.5" class="st12" width="9.8" height="4.8"/>
					<rect x="1566.8" y="379.5" class="st12" width="9.8" height="4.8"/>
				</g>
				<rect x="1588.9" y="385.2" class="st12" width="5.7" height="11.1"/>
			</g>
			<g>
				<polygon class="st10" points="1714.5,372.3 1752.2,376.2 1759.3,361.1 1723.8,361.1 				"/>
				<rect x="1714.2" y="372.4" class="st29" width="38.5" height="23.9"/>
				<polygon class="st30" points="1768.5,396.2 1750,396.2 1750,372.4 1759.3,360.8 1768.5,372.4 				"/>
				<path class="st12" d="M1756.4,376.2c0-1.6,1.3-2.8,2.8-2.8s2.8,1.3,2.8,2.8c0,1.6-1.3,2.8-2.8,2.8S1756.4,377.7,1756.4,376.2z"
					/>
				<g>
					<rect x="1720.1" y="379.5" class="st12" width="9.8" height="4.8"/>
					<rect x="1734.4" y="379.5" class="st12" width="9.8" height="4.8"/>
				</g>
				<rect x="1756.4" y="385.2" class="st12" width="5.7" height="11.1"/>
			</g>
			<g>
				<circle class="st27" cx="1706.1" cy="374.5" r="12.9"/>
				<line class="st28" x1="1706.1" y1="396.2" x2="1706.1" y2="376.4"/>
			</g>
		</g>
		<g>
			<path class="st16" d="M1529.3,265.4c6.4,2,11,8.1,12.3,14.6c1.3,6.5-0.3,13.4-3.2,19.4c-1.9,3.9-4.7,7.8-8.8,9.1
				c-3.9,1.2-8.2-0.2-11.4-2.6c-3.2-2.4-5.6-5.8-7.9-9.1"/>
			<g>
				<path class="st20" d="M1542.1,349.3l-0.3-0.2c-1.5-1.1-1.8-3.2-0.7-4.6l9.1-12.1l5.6,4.2l-9.1,12.1
					C1545.7,350.1,1543.6,350.4,1542.1,349.3z"/>
				<path class="st19" d="M1543.1,341.8l-1.9,2.5c-1.2,1.5-0.9,3.8,0.7,4.9c1.5,1.2,3.8,0.9,4.9-0.7l1.9-2.5L1543.1,341.8z"/>
				
					<ellipse transform="matrix(0.9901 -0.1406 0.1406 0.9901 -30.2353 222.5948)" class="st31" cx="1560" cy="325.2" rx="12.6" ry="12.6"/>
				<path class="st12" d="M1567.2,330.7c-3,4-8.7,4.8-12.7,1.8c-4-3-4.8-8.7-1.8-12.7c3-4,8.7-4.8,12.7-1.8
					S1570.2,326.7,1567.2,330.7z"/>
				<path class="st20" d="M1561,333.3c-9.4,0-10.5-11.6-4.6-16.4c-1.4,0.6-2.6,1.6-3.6,2.8c-3,4-2.2,9.7,1.8,12.7
					c3.6,2.7,8.5,2.3,11.6-0.7C1564.8,332.7,1563,333.3,1561,333.3z"/>
			</g>
			<path class="st8" d="M1473.7,468.6l3.9-6.2l8.6,4.5c-1.1,2.9-2.1,9.8,2.3,12.2c0.5,0.1,0.9,0.1,1.4,0.1l1.5,0
				c0.8,0,1.6,0.6,1.9,1.4c0.5,1.4-0.5,2.8-2,2.8l-6.3,0l-9.8-7.8C1472.9,474.1,1472.2,471,1473.7,468.6z"/>
			<path class="st8" d="M1407.6,468.6l8.4-10.3l4.1,8.5c-1.1,2.9-2.1,9.8,2.3,12.2c0.5,0.1,0.9,0.1,1.4,0.1l1.5,0
				c0.8,0,1.6,0.6,1.9,1.4c0.5,1.4-0.5,2.8-2,2.8l-6.3,0l-9.8-7.8C1406.9,474.1,1406.1,471,1407.6,468.6z"/>
			<path class="st18" d="M1522.2,404.4l-0.3-0.2l-50.5-37.9c-2.5,11.7-4.2,23.5-5.1,35.4l37.6,14c-0.9,1.3-1.8,2.6-2.6,3.9
				c-2.9,4.4-5.7,8.8-8.3,13.3c-2.7,4.5-16.7,29.8-16.7,29.8c0,0,6.2,6.2,10.9,7.1c5.1-4.8,26.1-35.6,29.1-39.9
				c1.5-2.1,3-4.3,4.4-6.5c1.4-2.2,2.8-4.4,4.1-6.7C1527.2,412.4,1526,407.2,1522.2,404.4z"/>
			<path class="st8" d="M1508.5,323.7c0,0-0.3,1.4-0.8,3.8c-0.5,2.4-1.2,5.9-2,10.1c-0.8,4.2-1.6,9-2.4,14.2c-0.4,2.6-0.7,5.3-1,7.9
				c-0.3,2.7-0.4,5.4-0.5,7.9c0,1.3,0,2.5,0.1,3.6c0.1,1.1,0.3,2.1,0.4,2.7c0.1,0.3,0.2,0.4,0.1,0.4c-0.1-0.1-0.4-0.4-1.2-0.7
				c0.5,0.3,1,0.5,1.5,0.8c0.5,0.2,1,0.4,1.5,0.6c2.1,0.8,4.5,1.6,6.9,2.2c2.4,0.7,4.8,1.3,7,2.1c2.2,0.7,4.3,1.5,6.2,2.4
				c0.9,0.5,1.7,1,2.6,1.3c0.8,0.4,1.7,0.6,2.4,1c1.4,0.8,2.2,1.8,2.6,2.6c0.4,0.8,0.4,1.3,0.4,1.3c0,2-1.5,3.6-3.5,3.6
				c-0.1,0-0.1,0-0.2,0l-0.9,0c0,0-0.5,0-1-0.2c-0.6-0.2-1.1-0.6-1.8-1.3c-0.3-0.4-0.7-0.8-1.2-1.2c-0.5-0.4-1.1-0.6-1.9-0.8
				c-0.7-0.2-1.5-0.4-2.4-0.5c-0.9-0.1-1.8-0.2-2.8-0.3c-2-0.1-4.3-0.1-6.8-0.1c-2.5,0-5.3,0-8.5-0.5c-0.8-0.1-1.6-0.3-2.4-0.5
				c-0.4-0.1-0.9-0.2-1.4-0.4l-1-0.3c-2.1-0.8-3.5-2.2-4.4-3.4c-0.9-1.2-1.5-2.4-1.9-3.4c-0.8-2.1-1.2-3.9-1.5-5.6
				c-0.3-1.7-0.5-3.4-0.6-5c-0.2-3.2-0.2-6.3-0.1-9.3c0.1-3,0.3-5.9,0.6-8.7c0.5-5.6,1.2-10.7,1.9-15.1c0.7-4.4,1.4-8,1.9-10.5
				c0.5-2.6,0.8-4,0.8-4c0.9-4.2,5-6.9,9.2-6c4.2,0.9,6.9,5,6,9.2L1508.5,323.7z"/>
			<path class="st31" d="M1462.6,440.8c-5,1.5-10,3.1-14.9,4.8c-4.9,1.8-31.9,12.1-31.9,12.1c0,0,0.8,8.8,3.8,12.5
				c7-0.4,42.9-10.5,47.9-11.8c2.5-0.7,5-1.4,7.5-2.1c2.5-0.8,5-1.5,7.4-2.5c4.5-1.7,7-6.5,5.9-11.1l-0.1-0.4l-15.7-67.6
				c-0.4-1.6,8.3-8.9,8.3-8.9l-30-13.5c0,0-10,12.7-12.5,16.8c-2.5,4.1-3.5,9.1-2.3,14.2c0.4,1.7,1,3.3,1.8,4.8l29.3,51.5
				C1465.6,440,1464.1,440.4,1462.6,440.8z"/>
			<path class="st32" d="M1479.9,370.7c0,0,10-20.6,16.2-27c1.5-1.5,2.6-3.2,3-4.5c0,0,2.3-16.4,10-18.7c0.5-3.5-1.3-6.9-7.4-10.1
				l-7-5.8c-6.2-2.9-8.5-4.1-14.1-4.1c-6,0-9.6,4.7-14.4,15.6c-4.9,10.9-3.9,6.2-9.9,22.3c-1.8,4.7-4.2,8.5-7,12.1
				C1455.8,358.3,1465.5,369.8,1479.9,370.7z"/>
			<g>
				<defs>
					<path id="XMLID_13_" d="M1535.1,292.7c4-8.4,1.7-15.5-7.2-21.2c-5.3-3.4-12-3.6-17.6-0.9l-0.8,0.4c-4.7,2.2-9.1,7.7-10.5,12.7
						l-0.1,13.2l-7,9.3c0,0,5.9,11.4,12.4,7.2l4.1-7.2c0,0,3.7,5.2,8.6,5.6C1519.6,312,1526.9,309.8,1535.1,292.7z"/>
				</defs>
				<use xlink:href="#XMLID_13_"  style="overflow:visible;fill:#FFC0A9;"/>
				<clipPath id="XMLID_4_">
					<use xlink:href="#XMLID_13_"  style="overflow:visible;"/>
				</clipPath>
				<path class="st33" d="M1527.9,299c-0.4,1.1,0.4,2.4,1.7,2.9c1.4,0.5,2.8,0.1,3.3-1c0.4-1.1-0.4-2.4-1.7-2.9
					C1529.8,297.5,1528.3,297.9,1527.9,299z"/>
			</g>
			<path class="st12" d="M1518,301c-0.5-0.2-1.1,0.3-0.9,0.8c0.4,1.6,1.6,2.9,3.2,3.5c1.6,0.6,3.3,0.3,4.6-0.6
				c0.5-0.3,0.4-1.1-0.1-1.3L1518,301z"/>
			<path class="st13" d="M1515.1,294.2c-0.5,1,0.1,2.4,1.4,3.1c1.3,0.7,2.8,0.4,3.3-0.6c0.5-1-0.1-2.4-1.4-3.1
				C1517.2,292.9,1515.7,293.2,1515.1,294.2z"/>
			<path class="st18" d="M1518.7,290.3c-0.4,0.6-0.2,1.4,0.4,1.8c0.6,0.4,1.4,0.2,1.8-0.4c0.4-0.6,0.2-1.4-0.4-1.8
				C1519.9,289.6,1519.1,289.8,1518.7,290.3z"/>
			<path class="st18" d="M1530.6,293.8c-0.4,0.6-0.2,1.4,0.4,1.8c0.6,0.4,1.4,0.2,1.8-0.4c0.4-0.6,0.2-1.4-0.4-1.8
				C1531.8,293,1531,293.2,1530.6,293.8z"/>
			<path class="st8" d="M1488.4,310.4c0,0,0.7,1.3,1.9,3.7c1.2,2.4,3,5.8,5.3,9.8c1.1,2,2.3,4.2,3.6,6.5c1.3,2.3,2.7,4.7,4.2,7.1
				c1.5,2.4,3.1,4.8,4.7,7.2c1.7,2.3,3.4,4.6,5.2,6.4c0.8,0.9,1.7,1.6,2.1,1.8c0.2,0.1,0.2,0.1-0.4,0.1c-0.2,0-0.6,0.1-1,0.2
				c-0.4,0.1-0.1,0-0.2,0.1l0,0l0.1,0l0.1,0l0.3-0.1l0.5-0.1l0.3-0.1c0.1,0,0.2,0,0.3-0.1c0.3-0.1,0.5-0.2,0.8-0.3
				c0.6-0.2,1.1-0.5,1.7-0.8c1.2-0.6,2.4-1.2,3.7-1.9c2.5-1.4,5-2.8,7.5-4.2c2.5-1.4,4.9-2.6,7.2-3.6c2.3-1,4.5-1.9,6.6-2.5
				c2-0.6,3.7-1.7,5.3-2c1.6-0.4,2.8-0.3,3.7,0c0.9,0.2,1.3,0.5,1.3,0.5c1.6,1,2,3.1,1,4.7c-0.2,0.3-0.4,0.5-0.6,0.7l-0.4,0.4
				c0,0-0.4,0.3-1,0.6c-0.6,0.3-1.5,0.5-2.7,0.6c-1.1,0.1-2.7-0.1-4.3,0.6c-1.6,0.7-3.3,1.7-5.1,2.9c-1.8,1.2-3.7,2.8-5.7,4.6
				c-2,1.7-4.1,3.7-6.4,5.7c-1.2,1-2.4,2-3.8,3c-0.7,0.5-1.4,1-2.2,1.5c-0.4,0.2-0.8,0.5-1.2,0.7c-0.2,0.1-0.4,0.2-0.7,0.4l-0.8,0.4
				l-0.6,0.3l-0.3,0.1l-0.1,0.1l-0.1,0l0,0c-0.1,0,0.2-0.1-0.2,0.1c-1.1,0.4-2.3,0.5-3.3,0.5c-2.1,0-3.6-0.6-4.9-1.1
				c-2.5-1.1-4.1-2.4-5.6-3.7c-2.9-2.5-5.2-5.1-7.3-7.7c-2.1-2.6-4-5.1-5.8-7.7c-3.5-5-6.5-9.8-9-14c-2.5-4.2-4.4-7.7-5.7-10.2
				c-0.7-1.3-1.2-2.2-1.5-2.9c-0.4-0.7-0.5-1.1-0.5-1.1c-2-3.8-0.4-8.5,3.4-10.5c3.8-1.9,8.5-0.4,10.5,3.3L1488.4,310.4z"/>
			<path class="st16" d="M1464.9,263.9c5.1,3.2,11.4,5.9,13.3,11.7c1.1,3.4,0.4,7.3,1.9,10.6c2.2,4.8,6.9,9.9,14,8.3
				c8.2-1.8,8.9-8.9,14-10.2c5.6-1.4,11.8,0.4,17.5-0.3c7.4-0.9,13.1-5.4,12.2-11.1c-0.6-4-6.9-8.8-10.7-10.2
				c-3.9-1.3-8.1-1.2-12.1-1c-7.7,0.4-15.8,1.1-22.6-2.4c-3.6-1.8-6.5-4.6-9.5-7.3c-4.9-4.3-13.9-9.9-20.2-4.7
				C1456.5,252.3,1459.1,260.3,1464.9,263.9z"/>
			<path class="st16" d="M1538,290.3c0.6-2.2,1.3-4.5,1.4-6.8c0.1-2.3-2-10.6-4.9-6C1532.2,281.2,1535.8,287.3,1538,290.3z"/>
		</g>
	</g>
	<g>
		<path class="st29" d="M583.3,183.8c0-0.1,0-0.3,0-0.4c-0.9-4.3-2.8-8.1-5.7-11.3c-1.7-1.4-3.3-2.8-5-4.2
			c-3.6-2.3-7.5-3.5-11.8-3.8c-3.2-0.3-6.3,0.2-9.2,1.5c-3.2,0.8-6,2.4-8.4,4.7c-1.4,1.2-2.6,2.5-3.5,3.9c-1-3-2.5-5.8-4.7-8.2
			c-1.5-1.3-3.1-2.6-4.6-3.9c-3.3-2.1-7-3.3-10.9-3.5c-3-0.3-5.8,0.2-8.5,1.4c-1.9,0.5-3.7,1.3-5.3,2.4c-0.1-1.1-0.2-2.3-0.3-3.4
			c-0.9-4-2.7-7.6-5.4-10.7c-1.6-1.3-3.1-2.7-4.7-4c-3.4-2.2-7.1-3.3-11.1-3.6c-3-0.3-5.9,0.2-8.6,1.4c-3,0.8-5.6,2.2-7.9,4.4
			c-2.4,2-4.2,4.5-5.2,7.4c-1.5,2.6-2.3,5.4-2.3,8.5c0.1,1,0.2,2,0.2,3c-1.8-0.6-3.6-0.9-5.5-1.1c-2.7-0.2-5.3,0.2-7.8,1.3
			c-2.7,0.7-5.1,2-7.1,4c-2.2,1.8-3.8,4-4.7,6.6c-0.4,0.7-0.8,1.5-1.1,2.3c-2.3-1.1-4.8-1.7-7.4-1.8c-2.7-0.2-5.3,0.2-7.8,1.3
			c-2.7,0.7-5.1,2-7.1,4c-0.7,0.6-1.3,1.2-1.9,1.9H583.3z"/>
		<path class="st29" d="M1372,206.7c-0.5-0.6-1-1.2-1.5-1.8c-2-1.7-3.9-3.3-5.9-5c-4.3-2.7-8.9-4.2-13.9-4.5
			c-3.8-0.3-7.4,0.2-10.8,1.8c-3.3,0.8-6.2,2.4-8.8,4.7c0-0.3,0-0.7-0.1-1c-0.8-3.8-2.5-7.2-5.1-10.2c-1.5-1.3-3-2.5-4.4-3.8
			c-3.2-2-6.8-3.2-10.6-3.4c-2.9-0.3-5.6,0.2-8.2,1.3c-1.1,0.3-2,0.7-3,1.1c-1.4-12.3-11.8-23.7-24.7-23.7
			c-14.2,0-26.9,10.2-27.6,24.9c-0.1,2.8,0.2,5.6,1,8.2c-0.5-0.1-1-0.1-1.5-0.2c-2.8-0.3-5.5,0.2-8,1.3c-2.8,0.7-5.2,2.1-7.3,4.1
			c-2,1.7-3.5,3.7-4.5,6H1372z"/>
		<path class="st29" d="M985.8,150.6h87.8c-1-3.8-2.8-7.1-5.4-10.1c-1.7-1.4-3.3-2.8-5-4.2c-3.6-2.3-7.6-3.6-11.9-3.8
			c-3.2-0.3-6.3,0.2-9.2,1.5c-0.5,0.1-1,0.3-1.4,0.5c-0.7-9.8-8.9-19.1-19.1-19.1c-10.9,0-20.7,7.8-21.3,19.2
			c-0.1,2.6,0.3,5.3,1.2,7.8c0,0,0,0-0.1,0C994.1,142.3,988.9,145.8,985.8,150.6z"/>
	</g>
</g>
<g id="Layer_2" class="st0">
	<rect x="141" class="st34" width="294" height="149"/>
	<rect x="541" y="218" class="st34" width="837" height="221"/>
	<rect x="1209" y="63" class="st34" width="578" height="86"/>
</g>
</svg>
