<?xml version="1.0" encoding="utf-8"?>
<!-- Generator: Adobe Illustrator 23.0.3, SVG Export Plug-In . SVG Version: 6.00 Build 0)  -->
<svg version="1.1" xmlns="http://www.w3.org/2000/svg" xmlns:xlink="http://www.w3.org/1999/xlink" x="0px" y="0px"
	 viewBox="0 0 1920 506" style="enable-background:new 0 0 1920 506;" xml:space="preserve">
<style type="text/css">
	.st0{display:none;}
	.st1{fill:#A6CAE2;}
	.st2{fill:#719D61;}
	.st3{fill:#223E44;}
	.st4{fill:none;stroke:#9BC190;stroke-width:0.5;stroke-miterlimit:10;}
	.st5{fill:#B5CCAD;}
	.st6{fill:none;}
	.st7{fill:#ECE8E5;}
	.st8{fill:none;stroke:#322532;stroke-width:0.5;stroke-miterlimit:10;}
	.st9{fill:#AFAFAF;}
	.st10{fill:#EFECE7;}
	.st11{fill:#FFFFFF;stroke:#ECE8E5;stroke-miterlimit:10;}
	.st12{fill:none;stroke:#ECE8E5;stroke-miterlimit:10;}
	.st13{fill:#F9F8F6;stroke:#ECE8E5;stroke-miterlimit:10;}
	.st14{fill:#DA755D;}
	.st15{fill:#999999;}
	.st16{fill:#EFD3C2;}
	.st17{fill:#6186A2;}
	.st18{fill:#E2AF96;}
	.st19{fill:#7A9EBC;}
	.st20{fill:#C07000;}
	.st21{fill:#FFFFFF;}
	.st22{fill:#FFBC3A;}
	.st23{fill:#E69771;}
	.st24{clip-path:url(#SVGID_2_);}
	.st25{fill:none;stroke:#F2C9B5;stroke-width:0.5;stroke-miterlimit:10;}
	.st26{fill:none;stroke:#A1BBD5;stroke-miterlimit:10;}
	.st27{fill:none;stroke:#FFFFFF;stroke-width:0.5;stroke-linecap:round;stroke-linejoin:round;stroke-miterlimit:10;}
	.st28{fill:none;stroke:#322532;stroke-width:0.5;stroke-linecap:round;stroke-linejoin:round;stroke-miterlimit:10;}
	.st29{display:inline;fill:#00E9D2;}
</style>
<g id="Layer_1" class="st0">
	
		<image style="display:inline;overflow:visible;" width="793" height="209" xlink:href="6EC41494.jpg"  transform="matrix(2.4212 0 0 2.4212 0 0)">
	</image>
</g>
<g id="Layer_3">
	<rect x="-19" y="-5" class="st1" width="1950" height="417"/>
	<g>
		<g>
			<g>
				<path class="st2" d="M1900.2,237.2L1885,233l11.8,8.7c-7.9,10.4-16.1,21.6-16.8,34.9c-0.3,4.3-0.8,8.4-1.7,12.3l-18,3.9l-4.7,1
					l6,0.5l14.8,1.2c-1,3.1-2.3,5.9-3.7,8.6c-6.6,12.5-18.3,48.7-31,50.8c0,0,0,0,0,0c-0.4-0.8-18.6-36.5-1.8-91.2
					c2.2-7.3,5.2-14,8.6-20.2c0.1-0.2,0.2-0.4,0.3-0.6c20.4-36.4,57.3-54.1,62.4-35.5C1914.1,217.4,1907.8,227,1900.2,237.2z"/>
				<path class="st3" d="M1872.7,304.1c-10,32.2-18.3,48.7-31,50.8c0,0,0,0,0,0c-0.5,0-28.3-0.4-4.1-87.8c2-7.3,7.4-17.2,11-23.7
					c0.1-0.2,0.2-0.4,0.3-0.6c-1.1,9.2-1.6,22.9,2.4,35.4c0,0,2.8,7,8.9,14.6l-4.7,1l6,0.5C1864.6,297.7,1868.3,301.2,1872.7,304.1z
					"/>
				<path class="st4" d="M1841.6,396.8c-0.9-124.9,43.5-184.8,67-194.1"/>
			</g>
			<g>
				<path class="st2" d="M1841.5,278.4l-8.4,7.5l8.6-2.6c0.6,26.2-4.1,51.1-16.8,53.4c-16.9,3.1-26.3-41.9-26.9-73.6l12.1,3.1
					l-12-7.9c0.1-2,0.2-7.7,0.3-9.4c1.7-18.6,7.9-37.7,19.2-49.5c7,11.6,13,24.9,17.2,38.1C1838.3,248.6,1840.7,263.5,1841.5,278.4z
					"/>
				<path class="st3" d="M1798.4,248.9l36.4-11.4c-4.2-13.2-10.2-26.5-17.2-38.1C1806.3,211.3,1800,230.3,1798.4,248.9z"/>
				<path class="st4" d="M1819.6,205.8c5,52.6,7.1,152.7,4.1,188.8"/>
				<path class="st5" d="M1798.3,248.9c5.9-11.2,15.3-16.5,25.5-20.1l-3.1-17.1l7.4,15.6c15.1-4.8,31-7.2,38.8-20.9
					c1.8-3.2,0.4-7.3-2.3-9.9c-2.5-2.4-5.9-4.6-10-6.1l-18,5.4l10-7.4C1827.8,186.3,1803.3,198.4,1798.3,248.9z"/>
			</g>
			<path class="st3" d="M1808.3,355c-9.6,3.9-25.8-17-38.2-44.4c-0.7-1.6-1.4-3.2-2.1-4.8c-1.3-3.1-2.6-6.4-3.8-9.6l7.8-1.3
				l-10.1-5.3c-5.4-16.2-9-33-9-47.3l37.2,7.4c8.9,14.5,16.1,34.7,20.3,53.6l-3.8,11l5.4-3.7C1816.1,332.9,1815.7,351.9,1808.3,355z
				"/>
			<path class="st4" d="M1763.8,250.5c27.3,57.2,54.6,120.7,52.4,147.7"/>
			<path class="st5" d="M1790,249.6c0,0-8.1-1.5-16.5,3.5l-13-7.1l10,9.2c-2.3,1.9-4.7,4.3-6.8,7.5c-0.2,0.4-0.5,0.7-0.7,1.1
				c-3-2.3-7-5.2-7.4-5.4l4.7,9.3c-14.9,18.9-34.2,23-29.6,4.7c0.9-3.8,1.8-8.1,3.3-13l9.2-6.4l-7.5,1.2c0.5-1.5,0.7-1.9,1.2-2.8
				c4.4-7.4,12.8-11.5,21.4-11.1C1769,240.8,1784.7,242.7,1790,249.6z"/>
			<path class="st6" d="M1839.6,285.3c0.1,1.6,0.2,3.3,0.3,4.9"/>
		</g>
		<path class="st7" d="M1853.1,382H1807l-4.6,72c-0.6,8.7,6.3,16,15,16h25.6c8.7,0,15.6-7.4,15-16.1L1853.1,382z"/>
		<rect x="1800.1" y="375.8" class="st7" width="60.4" height="12.4"/>
		<g>
			<line class="st8" x1="1806.2" y1="388.2" x2="1837.6" y2="388.2"/>
			<line class="st8" x1="1840.4" y1="388.2" x2="1845.5" y2="388.2"/>
		</g>
	</g>
	<rect x="-5" y="348" class="st9" width="1936" height="168"/>
	<g>
		<path class="st10" d="M884.2-92L884.2-92L884.2-92c-76.4,0-138.3,62.1-138.3,138.8v138.7h138.3h138.3V46.8
			C1022.5-29.9,960.6-92,884.2-92z"/>
		<g>
			<g>
				<path class="st11" d="M752.5,185.5h131.8V-77.9h-52.5c-43.8,0-79.2,35.5-79.2,79.2V185.5z"/>
				<path class="st11" d="M884.2,185.5H1016V1.3c0-43.8-35.5-79.2-79.2-79.2h-52.5V185.5z"/>
				<polyline class="st12" points="867.3,3.9 884.2,3.9 990.4,3.9 				"/>
				<line class="st12" x1="762.2" y1="3.9" x2="863" y2="3.9"/>
				<line class="st12" x1="899.5" y1="102.1" x2="1016" y2="102.1"/>
				<polyline class="st12" points="772.6,102.1 884.2,102.1 895.2,102.1 				"/>
			</g>
			<rect x="714.5" y="184.5" class="st13" width="339.4" height="12.5"/>
		</g>
		<g>
			<g>
				<g>
					<path class="st2" d="M1006.4,173.3c-5.7-50.4-7.8-82.6-30.3-85.8c0,0,23.5,7.5,28.8,85.6L1006.4,173.3z"/>
					<path class="st2" d="M1002.7,175.2c1.5-87.7-38.2-72.7-38.2-72.7s39.7-3.9,37.3,72.7H1002.7z"/>
					<path class="st2" d="M1001.1,155.8c10.1-87.1-30.8-76.2-30.8-76.2s39.9,0,29.9,76.1L1001.1,155.8z"/>
					<path class="st2" d="M1006.3,154.9c-4.7-50.5-9.1-82.5,12.2-90.2c0,0-21.4,12.1-10.8,89.7L1006.3,154.9z"/>
					<path class="st2" d="M1006.5,149.8c-9.2-87.2,31.6-75.8,31.6-75.8s-39.9-0.4-30.8,75.8L1006.5,149.8z"/>
					<path class="st2" d="M1006.9,173.3c-9.8-87.1,31.1-76.1,31.1-76.1s-39.9-0.1-30.2,76L1006.9,173.3z"/>
					<path class="st2" d="M1002.7,172.3c4.5-87.6,43-70,43-70s-39.3-6.6-42.2,70.1L1002.7,172.3z"/>
					<path class="st2" d="M1001.4,154.9c5.2-87.5,43.6-69.7,43.6-69.7s-39.3-6.9-42.7,69.7L1001.4,154.9z"/>
				</g>
				<path class="st7" d="M1010.4,140.7h-14.2V181c0,2.4,1.9,4.3,4.3,4.3h5.7c2.4,0,4.3-1.9,4.3-4.3V140.7z"/>
				<line class="st8" x1="996.2" y1="146.9" x2="1010.4" y2="146.9"/>
			</g>
			<g>
				<g>
					<path class="st3" d="M775.9,112.5c-0.1-2.8-0.7-5.7-1.9-8.5c-14.7,5.2-10.4-0.9-1.5-3c-2.4-4-6-7.3-10.8-8.8
						c-5.8-1.8-12.6,2.3-17,8.5c6.9,2.9,5.5,12.1-1.7,2.7c-1.4,2.6-2.4,5.4-2.8,8.2c-0.8,6.8,2.3,13.5,12.5,16.5
						C769.1,133,776.2,123.2,775.9,112.5z M765.6,109c4.3,0.1-1.7,5-5,2.6C758.6,110.1,761.2,108.9,765.6,109z"/>
					<path class="st4" d="M748.7,182.3c-0.7-55.4,13-90.1,13-90.1"/>
					<path class="st2" d="M747.1,118.2c-2.3,9.6-4.8,4.2-2.1-2.1c-4.4-3.8-11-5.8-18.2-3.7c-5.8,1.7-8.6,5.9-9.1,10.5
						c9.3-0.4,11.6,5.5,0,2.2c0.6,10.4,11.5,22,25.2,14.9C753.1,134.9,752.8,124.9,747.1,118.2z M733.6,131c-5,1.3-5.2-2.3-0.9-2.8
						C735.8,127.8,738.5,129.7,733.6,131z"/>
					<path class="st4" d="M744.5,164.8c2.3-34.8-17.6-52.3-17.6-52.3"/>
					<path class="st2" d="M781.2,137.1c4.8-6.3,4.9-16.6,1.2-19.7c-3.5-2.9-8-3.3-12.3-2.1c1.1,6.5-4.2,9.4-3,1.1
						c-10,4.5-17.5,16.7-6.4,22.7c8.5,4.6,14.6,3.5,18.5,0C765,138.2,772.3,134.3,781.2,137.1z M777.5,126.5c4.2,1.2,3.6,2.6-1,2.9
						C771.8,129.8,772,124.9,777.5,126.5z"/>
					<path class="st4" d="M756.7,164.5c-1.4-34.5,25.7-47.1,25.7-47.1"/>
				</g>
				<path class="st7" d="M773.1,159.9h-45l6.3,17.7c1.6,4.6,6,7.7,10.8,7.7h10.8c4.9,0,9.2-3.1,10.8-7.7L773.1,159.9z"/>
				<line class="st8" x1="738.8" y1="164.8" x2="771.5" y2="164.8"/>
				<line class="st8" x1="729.9" y1="164.8" x2="735.5" y2="164.8"/>
			</g>
			<g>
				<g>
					<g>
						<g>
							<g>
								<path class="st2" d="M886.7,174.6c-5-12.9-12.4-24-7.3-29.6c5.2-5.6,17.9,3.3,11.1,29L886.7,174.6z"/>
								<path class="st2" d="M889.8,161.2c4.7,0.1,4.8-8.5,9.3-7.8c4.5,0.6,5.4,13.5-8.3,11L889.8,161.2z"/>
								<path class="st2" d="M883.7,157.6c-9.1-0.4-8.9-8.4-12.8-6.4c-7.3,3.8,2.8,15.8,12.8,9.1V157.6z"/>
							</g>
							<line class="st4" x1="880.2" y1="148.8" x2="880.5" y2="150.9"/>
							<line class="st4" x1="883" y1="150.3" x2="883.3" y2="151.1"/>
							<line class="st4" x1="886.4" y1="147.2" x2="887.1" y2="148.8"/>
							<line class="st4" x1="886.8" y1="151.9" x2="887.6" y2="153.3"/>
							<line class="st4" x1="884.1" y1="155.3" x2="884.7" y2="156.6"/>
							<line class="st4" x1="881.7" y1="154.8" x2="881.7" y2="156"/>
							<line class="st4" x1="886.8" y1="161.4" x2="886.8" y2="163.3"/>
							<line class="st4" x1="888.5" y1="157.7" x2="888.7" y2="159.4"/>
							<line class="st4" x1="890.5" y1="155.3" x2="891.4" y2="156.6"/>
							<line class="st4" x1="883.7" y1="160.3" x2="884.4" y2="161.8"/>
							<line class="st4" x1="889.4" y1="165.9" x2="889.8" y2="167.4"/>
							<line class="st4" x1="891" y1="161.7" x2="891.5" y2="163.2"/>
							<line class="st4" x1="886.8" y1="167.4" x2="887.2" y2="169.3"/>
							<line class="st4" x1="899.4" y1="155.3" x2="900.3" y2="156.6"/>
							<line class="st4" x1="897.6" y1="155.6" x2="897.1" y2="157.7"/>
							<line class="st4" x1="899.3" y1="157.7" x2="899" y2="159.6"/>
							<line class="st4" x1="895.5" y1="160.4" x2="896.5" y2="158.7"/>
							<line class="st4" x1="897.4" y1="162.4" x2="897.4" y2="161.1"/>
							<line class="st4" x1="872.8" y1="154.1" x2="873.7" y2="156"/>
							<line class="st4" x1="871" y1="156" x2="872" y2="157.7"/>
							<line class="st4" x1="876.1" y1="159" x2="876.8" y2="160.2"/>
							<line class="st4" x1="876.9" y1="157.7" x2="878.4" y2="158.5"/>
							<line class="st4" x1="880.8" y1="160" x2="881.7" y2="160.1"/>
						</g>
						<path class="st14" d="M880,145.3c-3.9-1.4-3.1-6.4,0.9-2.9c-1-3.5,2.9-4.4,3.2-0.5c2.1-2.4,4.9-0.7,2.8,1.7
							C884.4,146.3,880.8,145.5,880,145.3z"/>
						<path class="st14" d="M898.4,154.4c-3.8,1-3.5-3.8-1-1.8C898.4,149,902.5,153.3,898.4,154.4z"/>
					</g>
					<path class="st7" d="M905,170.7h-32.8l1.4,8.3c0.6,3.8,2.4,6.3,4.4,6.3h21c1.9,0,3.5-2.3,4.3-5.8L905,170.7z"/>
				</g>
				<line class="st8" x1="872.7" y1="173.2" x2="898.7" y2="173.2"/>
				<line class="st8" x1="904.5" y1="173.2" x2="900.2" y2="173.2"/>
			</g>
			<g>
				<g>
					<g>
						<g>
							<path class="st2" d="M979.2,156.8l-13.5,3.7l12.5-0.4c-0.3,0.9-0.7,1.9-1.2,2.7c-1.5,3.2-3.8,6.2-6.9,9
								c-3.1,2.8-7,5.3-11.8,7.6l-6.2-0.7c-1.2-1.7-2-3.6-2.6-5.6c-0.1-0.4-0.2-0.9-0.3-1.3c0-0.1,0-0.1,0-0.2
								c-0.1-0.5-0.2-1-0.3-1.5c-0.4-2.3-0.4-4.7-0.2-7.3c0-0.5,0.1-1,0.1-1.5c0.1-1,0.2-1.9,0.4-2.9c0-0.2,0.1-0.4,0.1-0.6
								c0.5-2.7,1.3-5.4,2.3-8.1c1-2.7,2.2-5.4,3.6-8.1c0.1-0.2,0.2-0.5,0.4-0.7c1.8-3.3,3.8-6.5,6.1-9.4c0.1-0.1,0.2-0.2,0.2-0.3
								c0.5-0.6,1-1.2,1.5-1.8l4.2,7.2l-3.2-8.3c2.3-2.6,4.8-5,7.5-7c2.2,4.9,4.2,9.7,5.6,14.5l-11.3,5.6l11.9-3.3
								c0.3,1.3,0.6,2.6,0.9,3.8l-8.2,2.8l8.6-0.9c0.2,1.3,0.4,2.6,0.5,3.9l-15,4.5l-1.9,0.6l1.9-0.3l15.1-2.6
								C979.9,152.1,979.7,154.5,979.2,156.8z"/>
							<path class="st3" d="M956.5,172.1l-3.4,0.5l-3.6,0.5c-0.3-1-0.5-1.9-0.7-3c-1.8-11.6-7.6-24.2,13-39
								C966.2,145.7,967.2,158.9,956.5,172.1z"/>
							<path class="st2" d="M962.1,145.3l-5.4,1.6h5.2c-0.2,2.2-0.6,4.3-1.1,6.3l-14.1,5.4l13.1-2c-2,5.4-5.4,10.4-10.9,15l-3.4-0.2
								l-2.6-0.1l-2.8-0.1c-7.7-16.2-8.1-29.6,5.5-43.9c0.3-0.3,0.6-0.6,0.9-1l6.3,11.6l-4.8-13.1c0.6-0.6,1.3-1.2,1.9-1.8l2.8,4.8
								l-1.3-6.1c2.3-2,4.9-3.9,7.8-6c0.5,3.3,1,6.6,1.5,9.7l-3,1.8l3.2-0.4c0.5,4,0.9,7.8,1.1,11.5l-10.5,3.6l10.6-1.9
								C962.3,142,962.2,143.7,962.1,145.3z"/>
							<path class="st3" d="M950.7,155.8c-1.4,5.5-4.2,10.4-7.7,15.6l-2.8-0.1c-8.9-16-8.1-29.6,5.5-43.9
								C951.8,139.3,952.7,148.1,950.7,155.8z"/>
							<path class="st2" d="M934.6,155.3l0.4-0.1l1.3-0.4l10.7-3.5c0.4-1.9,0.6-3.8,0.6-5.9l-8.2,0.8l8.1-2.4c0-1.2-0.2-2.4-0.3-3.7
								l-11,5c0.4-0.3,6.7-4.8,10.6-7.7c-0.5-2.6-1.3-5.5-2.3-8.6c-0.9-2.6-1.9-5.3-3.2-8.2c-1.9,2-3.6,3.9-5.1,6l1.6,9.2l-3.4-6.7
								c-0.6,0.8-1.1,1.7-1.7,2.5l3.4,4.7l-4.2-3.4c0,0.1-0.1,0.1-0.1,0.2c-0.6,1-1.1,2-1.6,3c-0.4,0.8-0.8,1.6-1.1,2.5
								c-0.2,0.4-0.3,0.8-0.5,1.2c-0.2,0.5-0.4,1.1-0.6,1.6c-0.4,1.1-0.7,2.2-1,3.3c-0.1,0.5-0.3,1.1-0.4,1.7
								c-0.3,1.4-0.5,2.8-0.7,4.2c0,0.3-0.1,0.6-0.1,0.9c-0.1,1.1-0.2,2.3-0.2,3.5c0,0.5,0,1,0,1.5c0,0.5,0.1,1,0.1,1.6
								c0,0.4,0.1,0.8,0.1,1.2c0,0.1,0,0.2,0,0.4c0.1,0.7,0.2,1.3,0.3,2c0.1,0.4,0.1,0.9,0.2,1.3c0.1,0.3,0.1,0.6,0.2,0.9
								c0.2,0.7,0.3,1.4,0.5,2.1c0.1,0.3,0.2,0.7,0.3,1c0.1,0.2,0.1,0.4,0.2,0.6c0.1,0.3,0.2,0.6,0.3,0.9c0.3,1,0.6,1.9,1,2.9v0
								c0.1,0.2,0.1,0.3,0.2,0.5c0.1,0.2,0.1,0.4,0.2,0.6l2,0.5h0l2.5,0.6c0.5-0.5,1-1.1,1.5-1.6l0.3-0.4c0.1-0.1,0.2-0.2,0.3-0.3
								c0.5-0.5,0.9-1,1.4-1.6c0.4-0.5,0.9-1,1.3-1.6c0,0,0.1-0.1,0.1-0.1c0,0,0-0.1,0.1-0.1c0,0,0.1-0.1,0.1-0.1
								c0.2-0.3,0.4-0.5,0.6-0.8c0.3-0.4,0.5-0.7,0.8-1.1c0.8-1,1.5-2,2.1-3c0.3-0.5,0.7-1.1,1-1.6c0.8-1.3,1.4-2.6,2-4
								c0.4-1,0.8-2.1,1.1-3.2l-9.8,1.3l-1.4,0.2l-0.4,0l-0.2,0h0l-1.5,0.2l1.4-0.5L934.6,155.3z"/>
							<path class="st3" d="M940.1,165.8c-0.3,0.4-0.5,0.7-0.8,1.1c-0.2,0.3-0.4,0.5-0.6,0.8c0,0-0.1,0.1-0.1,0.1c0,0,0,0.1-0.1,0.1
								c0,0-0.1,0.1-0.1,0.1c-0.4,0.5-0.9,1-1.3,1.6c-0.4,0.5-0.9,1-1.4,1.6c-0.1,0.1-0.2,0.2-0.3,0.3l-0.3,0.4
								c-0.5,0.5-1,1.1-1.5,1.6l-2.5-0.6h0l-2-0.5c-0.1-0.2-0.2-0.4-0.2-0.6c-0.1-0.2-0.1-0.3-0.2-0.5v0c-0.4-1-0.7-1.9-1-2.9
								c-0.1-0.3-0.2-0.6-0.3-0.9c-0.1-0.2-0.1-0.4-0.2-0.6c-0.1-0.3-0.2-0.7-0.3-1c-0.2-0.7-0.4-1.4-0.5-2.1
								c-0.1-0.3-0.1-0.6-0.2-0.9c-0.1-0.4-0.2-0.9-0.2-1.3c-0.1-0.7-0.2-1.3-0.3-2c0-0.1,0-0.2,0-0.4c0-0.4-0.1-0.8-0.1-1.2
								c0-0.5-0.1-1-0.1-1.6c0-0.5,0-1,0-1.5c0-1.2,0.1-2.3,0.2-3.5c0-0.3,0-0.6,0.1-0.9c0.2-1.4,0.4-2.8,0.7-4.2
								c0.1-0.6,0.3-1.1,0.4-1.7c0.3-1.1,0.6-2.2,1-3.3c0.2-0.5,0.4-1.1,0.6-1.6c0.2-0.4,0.3-0.8,0.5-1.2c2,3.6,3.8,7.5,5.4,11.3
								c0,0,0,0.1,0.1,0.1c0.1,0.3,0.3,0.6,0.4,0.9c0.5,1.3,1,2.5,1.5,3.8l-1.3,0.4l-0.4,0.1l-0.1,0l-1.4,0.5l1.5-0.2h0l0.2,0l0.4,0
								l1.4-0.2c1,2.6,1.9,5.1,2.6,7.5C939.5,163.8,939.8,164.9,940.1,165.8z"/>
							<line class="st4" x1="941.2" y1="120.5" x2="929.7" y2="170.2"/>
							<path class="st2" d="M939.9,173.2l-3.4,2.4c-1.9-0.9-3.7-1.8-5.3-2.8h0c-0.6-0.3-1.1-0.7-1.7-1c-0.3-0.2-0.5-0.3-0.8-0.5v0
								c-4.1-2.6-7.3-5.5-9.7-8.5c-1.2-1.4-2.1-2.8-3-4.2l9.6-0.6l-10.8-1.6c-0.8-1.7-1.5-3.4-2-5.1l11.8,2.8l-12.4-5.6
								c-0.7-3.6-0.7-7.1-0.3-10.3l9.3,3.3l-8.8-6.1c0.3-1.8,0.8-3.5,1.3-5l8.2,3.9L914,129c1.1-3.1,2.4-5.4,3.2-6.7
								c4.3,4.5,8,10.8,11.2,17.5c0.5,1.1,1,2.2,1.5,3.3l-2.2,6.7l3.2-4.4c1.1,2.5,2,5,2.9,7.5c0.2,0.7,0.5,1.3,0.7,1.9
								c0.1,0.2,0.1,0.4,0.2,0.6c0,0.1,0.1,0.2,0.1,0.3c0.2,0.7,0.4,1.3,0.7,1.9c0.6,1.9,1.2,3.7,1.7,5.3c0.5,1.6,0.9,3.1,1.3,4.4
								c0.1,0.2,0.1,0.4,0.2,0.7c0.1,0.2,0.1,0.5,0.2,0.7c0,0,0,0,0,0c0.4,1.3,0.6,2.4,0.8,3.2C939.8,172.6,939.9,173.1,939.9,173.2
								z"/>
							<path class="st3" d="M977.1,162.8c-1.5,3.2-3.8,6.2-6.9,9h-41.3c-0.1-0.2-0.1-0.3-0.2-0.5v0c-4.1-2.6-7.3-5.5-9.7-8.5H977.1z
								"/>
							<line class="st4" x1="971.8" y1="121.1" x2="957.2" y2="173"/>
							<line class="st4" x1="959.4" y1="115.8" x2="942.9" y2="171.4"/>
							<line class="st4" x1="917.3" y1="122.3" x2="936.5" y2="173"/>
						</g>
						<path class="st7" d="M979.9,165.5h-67.2v7c0,5.9,4.7,10.6,10.6,10.6h46c5.9,0,10.6-4.7,10.6-10.6V165.5z"/>
					</g>
					<line class="st8" x1="969.2" y1="169.3" x2="979.9" y2="169.3"/>
					<line class="st8" x1="913" y1="169.3" x2="966" y2="169.3"/>
				</g>
				<rect x="908.7" y="179.4" class="st7" width="74.1" height="5.9"/>
				<g>
					<line class="st8" x1="925.7" y1="179.4" x2="978.2" y2="179.4"/>
					<line class="st8" x1="914.4" y1="179.4" x2="922.5" y2="179.4"/>
				</g>
			</g>
		</g>
	</g>
	<g>
		<path class="st10" d="M1607.2,17L1607.2,17L1607.2,17c-76.4,0-138.3,62.1-138.3,138.8v138.7h138.3h138.3V155.8
			C1745.5,79.1,1683.6,17,1607.2,17z"/>
		<g>
			<g>
				<path class="st11" d="M1475.5,294.5h131.8V31.1h-52.5c-43.8,0-79.2,35.5-79.2,79.2V294.5z"/>
				<path class="st11" d="M1607.2,294.5H1739V110.3c0-43.8-35.5-79.2-79.2-79.2h-52.5V294.5z"/>
				<polyline class="st12" points="1590.3,112.9 1607.2,112.9 1713.4,112.9 				"/>
				<line class="st12" x1="1485.2" y1="112.9" x2="1586" y2="112.9"/>
				<line class="st12" x1="1622.5" y1="211.1" x2="1739" y2="211.1"/>
				<polyline class="st12" points="1495.6,211.1 1607.2,211.1 1618.2,211.1 				"/>
			</g>
			<rect x="1437.5" y="293.5" class="st13" width="339.4" height="12.5"/>
		</g>
		<g>
			<g>
				<g>
					<path class="st2" d="M1729.4,282.3c-5.7-50.4-7.8-82.6-30.3-85.8c0,0,23.5,7.5,28.8,85.6L1729.4,282.3z"/>
					<path class="st2" d="M1725.7,284.2c1.5-87.7-38.2-72.7-38.2-72.7s39.7-3.9,37.3,72.7H1725.7z"/>
					<path class="st2" d="M1724.1,264.8c10.1-87.1-30.8-76.2-30.8-76.2s39.9,0,29.9,76.1L1724.1,264.8z"/>
					<path class="st2" d="M1729.3,263.9c-4.7-50.5-9.1-82.5,12.2-90.2c0,0-21.4,12.1-10.8,89.7L1729.3,263.9z"/>
					<path class="st2" d="M1729.5,258.8c-9.2-87.2,31.6-75.8,31.6-75.8s-39.9-0.4-30.8,75.8L1729.5,258.8z"/>
					<path class="st2" d="M1729.9,282.3c-9.8-87.1,31.1-76.1,31.1-76.1s-39.9-0.1-30.2,76L1729.9,282.3z"/>
					<path class="st2" d="M1725.7,281.3c4.5-87.6,43-70,43-70s-39.3-6.6-42.2,70.1L1725.7,281.3z"/>
					<path class="st2" d="M1724.4,263.9c5.2-87.5,43.6-69.7,43.6-69.7s-39.3-6.9-42.7,69.7L1724.4,263.9z"/>
				</g>
				<path class="st7" d="M1733.4,249.7h-14.2V290c0,2.4,1.9,4.3,4.3,4.3h5.7c2.4,0,4.3-1.9,4.3-4.3V249.7z"/>
				<line class="st8" x1="1719.2" y1="255.9" x2="1733.4" y2="255.9"/>
			</g>
			<g>
				<g>
					<path class="st3" d="M1498.9,221.5c-0.1-2.8-0.7-5.7-1.9-8.5c-14.7,5.2-10.4-0.9-1.5-3c-2.4-4-6-7.3-10.8-8.8
						c-5.8-1.8-12.6,2.3-17,8.5c6.9,2.9,5.5,12.1-1.7,2.7c-1.4,2.6-2.4,5.4-2.8,8.2c-0.8,6.8,2.3,13.5,12.5,16.5
						C1492.1,242,1499.2,232.2,1498.9,221.5z M1488.6,218c4.3,0.1-1.7,5-5,2.6C1481.6,219.1,1484.2,217.9,1488.6,218z"/>
					<path class="st4" d="M1471.7,291.3c-0.7-55.4,13-90.1,13-90.1"/>
					<path class="st2" d="M1470.1,227.2c-2.3,9.6-4.8,4.2-2.1-2.1c-4.4-3.8-11-5.8-18.2-3.7c-5.8,1.7-8.6,5.9-9.1,10.5
						c9.3-0.4,11.6,5.5,0,2.2c0.6,10.4,11.5,22,25.2,14.9C1476.1,243.9,1475.8,233.9,1470.1,227.2z M1456.6,240
						c-5,1.3-5.2-2.3-0.9-2.8C1458.8,236.8,1461.5,238.7,1456.6,240z"/>
					<path class="st4" d="M1467.5,273.8c2.3-34.8-17.6-52.3-17.6-52.3"/>
					<path class="st2" d="M1504.2,246.1c4.8-6.3,4.9-16.6,1.2-19.7c-3.5-2.9-8-3.3-12.3-2.1c1.1,6.5-4.2,9.4-3,1.1
						c-10,4.5-17.5,16.7-6.4,22.7c8.5,4.6,14.6,3.5,18.5,0C1488,247.2,1495.3,243.3,1504.2,246.1z M1500.5,235.5
						c4.2,1.2,3.6,2.6-1,2.9C1494.8,238.8,1495,233.9,1500.5,235.5z"/>
					<path class="st4" d="M1479.7,273.5c-1.4-34.5,25.7-47.1,25.7-47.1"/>
				</g>
				<path class="st7" d="M1496.1,268.9h-45l6.3,17.7c1.6,4.6,6,7.7,10.8,7.7h10.8c4.9,0,9.2-3.1,10.8-7.7L1496.1,268.9z"/>
				<line class="st8" x1="1461.8" y1="273.8" x2="1494.5" y2="273.8"/>
				<line class="st8" x1="1452.9" y1="273.8" x2="1458.5" y2="273.8"/>
			</g>
			<g>
				<g>
					<g>
						<g>
							<g>
								<path class="st2" d="M1609.7,283.6c-5-12.9-12.4-24-7.3-29.6c5.2-5.6,17.9,3.3,11.1,29L1609.7,283.6z"/>
								<path class="st2" d="M1612.8,270.2c4.7,0.1,4.8-8.5,9.3-7.8s5.4,13.5-8.3,11L1612.8,270.2z"/>
								<path class="st2" d="M1606.7,266.6c-9.1-0.4-8.9-8.4-12.8-6.4c-7.3,3.8,2.8,15.8,12.8,9.1V266.6z"/>
							</g>
							<line class="st4" x1="1603.2" y1="257.8" x2="1603.5" y2="259.9"/>
							<line class="st4" x1="1606" y1="259.3" x2="1606.3" y2="260.1"/>
							<line class="st4" x1="1609.4" y1="256.2" x2="1610.1" y2="257.8"/>
							<line class="st4" x1="1609.8" y1="260.9" x2="1610.6" y2="262.3"/>
							<line class="st4" x1="1607.1" y1="264.3" x2="1607.7" y2="265.6"/>
							<line class="st4" x1="1604.7" y1="263.8" x2="1604.7" y2="265"/>
							<line class="st4" x1="1609.8" y1="270.4" x2="1609.8" y2="272.3"/>
							<line class="st4" x1="1611.5" y1="266.7" x2="1611.7" y2="268.4"/>
							<line class="st4" x1="1613.5" y1="264.3" x2="1614.4" y2="265.6"/>
							<line class="st4" x1="1606.7" y1="269.3" x2="1607.4" y2="270.8"/>
							<line class="st4" x1="1612.4" y1="274.9" x2="1612.8" y2="276.4"/>
							<line class="st4" x1="1614" y1="270.7" x2="1614.5" y2="272.2"/>
							<line class="st4" x1="1609.8" y1="276.4" x2="1610.2" y2="278.3"/>
							<line class="st4" x1="1622.4" y1="264.3" x2="1623.3" y2="265.6"/>
							<line class="st4" x1="1620.6" y1="264.6" x2="1620.1" y2="266.7"/>
							<line class="st4" x1="1622.3" y1="266.7" x2="1622" y2="268.6"/>
							<line class="st4" x1="1618.5" y1="269.4" x2="1619.5" y2="267.7"/>
							<line class="st4" x1="1620.4" y1="271.4" x2="1620.4" y2="270.1"/>
							<line class="st4" x1="1595.8" y1="263.1" x2="1596.7" y2="265"/>
							<line class="st4" x1="1594" y1="265" x2="1595" y2="266.7"/>
							<line class="st4" x1="1599.1" y1="268" x2="1599.8" y2="269.2"/>
							<line class="st4" x1="1599.9" y1="266.7" x2="1601.4" y2="267.5"/>
							<line class="st4" x1="1603.8" y1="269" x2="1604.7" y2="269.1"/>
						</g>
						<path class="st14" d="M1603,254.3c-3.9-1.4-3.1-6.4,0.9-2.9c-1-3.5,2.9-4.4,3.2-0.5c2.1-2.4,4.9-0.7,2.8,1.7
							C1607.4,255.3,1603.8,254.5,1603,254.3z"/>
						<path class="st14" d="M1621.4,263.4c-3.8,1-3.5-3.8-1-1.8C1621.4,258,1625.5,262.3,1621.4,263.4z"/>
					</g>
					<path class="st7" d="M1628,279.7h-32.8l1.4,8.3c0.6,3.8,2.4,6.3,4.4,6.3h21c1.9,0,3.5-2.3,4.3-5.8L1628,279.7z"/>
				</g>
				<line class="st8" x1="1595.7" y1="282.2" x2="1621.7" y2="282.2"/>
				<line class="st8" x1="1627.5" y1="282.2" x2="1623.2" y2="282.2"/>
			</g>
			<g>
				<g>
					<g>
						<g>
							<path class="st2" d="M1702.2,265.8l-13.5,3.7l12.5-0.4c-0.3,0.9-0.7,1.9-1.2,2.7c-1.5,3.2-3.8,6.2-6.9,9
								c-3.1,2.8-7,5.3-11.8,7.6l-6.2-0.7c-1.2-1.7-2-3.6-2.6-5.6c-0.1-0.4-0.2-0.9-0.3-1.3c0-0.1,0-0.1,0-0.2
								c-0.1-0.5-0.2-1-0.3-1.5c-0.4-2.3-0.4-4.7-0.2-7.3c0-0.5,0.1-1,0.1-1.5c0.1-1,0.2-1.9,0.4-2.9c0-0.2,0.1-0.4,0.1-0.6
								c0.5-2.7,1.3-5.4,2.3-8.1c1-2.7,2.2-5.4,3.6-8.1c0.1-0.2,0.2-0.5,0.4-0.7c1.8-3.3,3.8-6.5,6.1-9.4c0.1-0.1,0.2-0.2,0.2-0.3
								c0.5-0.6,1-1.2,1.5-1.8l4.2,7.2l-3.2-8.3c2.3-2.6,4.8-5,7.5-7c2.2,4.9,4.2,9.7,5.6,14.5l-11.3,5.6l11.9-3.3
								c0.3,1.3,0.6,2.6,0.9,3.8l-8.2,2.8l8.6-0.9c0.2,1.3,0.4,2.6,0.5,3.9l-15,4.5l-1.9,0.6l1.9-0.3l15.1-2.6
								C1702.9,261.1,1702.7,263.5,1702.2,265.8z"/>
							<path class="st3" d="M1679.5,281.1l-3.4,0.5l-3.6,0.5c-0.3-1-0.5-1.9-0.7-3c-1.8-11.6-7.6-24.2,13-39
								C1689.2,254.7,1690.2,267.9,1679.5,281.1z"/>
							<path class="st2" d="M1685.1,254.3l-5.4,1.6h5.2c-0.2,2.2-0.6,4.3-1.1,6.3l-14.1,5.4l13.1-2c-2,5.4-5.4,10.4-10.9,15
								l-3.4-0.2l-2.6-0.1l-2.8-0.1c-7.7-16.2-8.1-29.6,5.5-43.9c0.3-0.3,0.6-0.6,0.9-1l6.3,11.6l-4.8-13.1c0.6-0.6,1.3-1.2,1.9-1.8
								l2.8,4.8l-1.3-6.1c2.3-2,4.9-3.9,7.8-6c0.5,3.3,1,6.6,1.5,9.7l-3,1.8l3.2-0.4c0.5,4,0.9,7.8,1.1,11.5l-10.5,3.6l10.6-1.9
								C1685.3,251,1685.2,252.7,1685.1,254.3z"/>
							<path class="st3" d="M1673.7,264.8c-1.4,5.5-4.2,10.4-7.7,15.6l-2.8-0.1c-8.9-16-8.1-29.6,5.5-43.9
								C1674.8,248.3,1675.7,257.1,1673.7,264.8z"/>
							<path class="st2" d="M1657.6,264.3l0.4-0.1l1.3-0.4l10.7-3.5c0.4-1.9,0.6-3.8,0.6-5.9l-8.2,0.8l8.1-2.4
								c0-1.2-0.2-2.4-0.3-3.7l-11,5c0.4-0.3,6.7-4.8,10.6-7.7c-0.5-2.6-1.3-5.5-2.3-8.6c-0.9-2.6-1.9-5.3-3.2-8.2
								c-1.9,2-3.6,3.9-5.1,6l1.6,9.2l-3.4-6.7c-0.6,0.8-1.1,1.7-1.7,2.5l3.4,4.7l-4.2-3.4c0,0.1-0.1,0.1-0.1,0.2
								c-0.6,1-1.1,2-1.6,3c-0.4,0.8-0.8,1.6-1.1,2.5c-0.2,0.4-0.3,0.8-0.5,1.2c-0.2,0.5-0.4,1.1-0.6,1.6c-0.4,1.1-0.7,2.2-1,3.3
								c-0.1,0.5-0.3,1.1-0.4,1.7c-0.3,1.4-0.5,2.8-0.7,4.2c0,0.3-0.1,0.6-0.1,0.9c-0.1,1.1-0.2,2.3-0.2,3.5c0,0.5,0,1,0,1.5
								c0,0.5,0.1,1,0.1,1.6c0,0.4,0.1,0.8,0.1,1.2c0,0.1,0,0.2,0,0.4c0.1,0.7,0.2,1.3,0.3,2c0.1,0.4,0.1,0.9,0.2,1.3
								c0.1,0.3,0.1,0.6,0.2,0.9c0.2,0.7,0.3,1.4,0.5,2.1c0.1,0.3,0.2,0.7,0.3,1c0.1,0.2,0.1,0.4,0.2,0.6c0.1,0.3,0.2,0.6,0.3,0.9
								c0.3,1,0.6,1.9,1,2.9v0c0.1,0.2,0.1,0.3,0.2,0.5c0.1,0.2,0.1,0.4,0.2,0.6l2,0.5h0l2.5,0.6c0.5-0.5,1-1.1,1.5-1.6l0.3-0.4
								c0.1-0.1,0.2-0.2,0.3-0.3c0.5-0.5,0.9-1,1.4-1.6c0.4-0.5,0.9-1,1.3-1.6c0,0,0.1-0.1,0.1-0.1c0,0,0-0.1,0.1-0.1
								c0,0,0.1-0.1,0.1-0.1c0.2-0.3,0.4-0.5,0.6-0.8c0.3-0.4,0.5-0.7,0.8-1.1c0.8-1,1.5-2,2.1-3c0.3-0.5,0.7-1.1,1-1.6
								c0.8-1.3,1.4-2.6,2-4c0.4-1,0.8-2.1,1.1-3.2l-9.8,1.3l-1.4,0.2l-0.4,0l-0.2,0h0l-1.5,0.2l1.4-0.5L1657.6,264.3z"/>
							<path class="st3" d="M1663.1,274.8c-0.3,0.4-0.5,0.7-0.8,1.1c-0.2,0.3-0.4,0.5-0.6,0.8c0,0-0.1,0.1-0.1,0.1
								c0,0,0,0.1-0.1,0.1c0,0-0.1,0.1-0.1,0.1c-0.4,0.5-0.9,1-1.3,1.6c-0.4,0.5-0.9,1-1.4,1.6c-0.1,0.1-0.2,0.2-0.3,0.3l-0.3,0.4
								c-0.5,0.5-1,1.1-1.5,1.6l-2.5-0.6h0l-2-0.5c-0.1-0.2-0.2-0.4-0.2-0.6c-0.1-0.2-0.1-0.3-0.2-0.5v0c-0.4-1-0.7-1.9-1-2.9
								c-0.1-0.3-0.2-0.6-0.3-0.9c-0.1-0.2-0.1-0.4-0.2-0.6c-0.1-0.3-0.2-0.7-0.3-1c-0.2-0.7-0.4-1.4-0.5-2.1
								c-0.1-0.3-0.1-0.6-0.2-0.9c-0.1-0.4-0.2-0.9-0.2-1.3c-0.1-0.7-0.2-1.3-0.3-2c0-0.1,0-0.2,0-0.4c0-0.4-0.1-0.8-0.1-1.2
								c0-0.5-0.1-1-0.1-1.6c0-0.5,0-1,0-1.5c0-1.2,0.1-2.3,0.2-3.5c0-0.3,0-0.6,0.1-0.9c0.2-1.4,0.4-2.8,0.7-4.2
								c0.1-0.6,0.3-1.1,0.4-1.7c0.3-1.1,0.6-2.2,1-3.3c0.2-0.5,0.4-1.1,0.6-1.6c0.2-0.4,0.3-0.8,0.5-1.2c2,3.6,3.8,7.5,5.4,11.3
								c0,0,0,0.1,0.1,0.1c0.1,0.3,0.3,0.6,0.4,0.9c0.5,1.3,1,2.5,1.5,3.8l-1.3,0.4l-0.4,0.1l-0.1,0l-1.4,0.5l1.5-0.2h0l0.2,0l0.4,0
								l1.4-0.2c1,2.6,1.9,5.1,2.6,7.5C1662.5,272.8,1662.8,273.9,1663.1,274.8z"/>
							<line class="st4" x1="1664.2" y1="229.5" x2="1652.7" y2="279.2"/>
							<path class="st2" d="M1662.9,282.2l-3.4,2.4c-1.9-0.9-3.7-1.8-5.3-2.8h0c-0.6-0.3-1.1-0.7-1.7-1c-0.3-0.2-0.5-0.3-0.8-0.5v0
								c-4.1-2.6-7.3-5.5-9.7-8.5c-1.2-1.4-2.1-2.8-3-4.2l9.6-0.6l-10.8-1.6c-0.8-1.7-1.5-3.4-2-5.1l11.8,2.8l-12.4-5.6
								c-0.7-3.6-0.7-7.1-0.3-10.3l9.3,3.3l-8.8-6.1c0.3-1.8,0.8-3.5,1.3-5l8.2,3.9l-7.7-5.2c1.1-3.1,2.4-5.4,3.2-6.7
								c4.3,4.5,8,10.8,11.2,17.5c0.5,1.1,1,2.2,1.5,3.3l-2.2,6.7l3.2-4.4c1.1,2.5,2,5,2.9,7.5c0.2,0.7,0.5,1.3,0.7,1.9
								c0.1,0.2,0.1,0.4,0.2,0.6c0,0.1,0.1,0.2,0.1,0.3c0.2,0.7,0.4,1.3,0.7,1.9c0.6,1.9,1.2,3.7,1.7,5.3c0.5,1.6,0.9,3.1,1.3,4.4
								c0.1,0.2,0.1,0.4,0.2,0.7c0.1,0.2,0.1,0.5,0.2,0.7c0,0,0,0,0,0c0.4,1.3,0.6,2.4,0.8,3.2
								C1662.8,281.6,1662.9,282.1,1662.9,282.2z"/>
							<path class="st3" d="M1700.1,271.8c-1.5,3.2-3.8,6.2-6.9,9h-41.3c-0.1-0.2-0.1-0.3-0.2-0.5v0c-4.1-2.6-7.3-5.5-9.7-8.5
								H1700.1z"/>
							<line class="st4" x1="1694.8" y1="230.1" x2="1680.2" y2="282"/>
							<line class="st4" x1="1682.4" y1="224.8" x2="1665.9" y2="280.4"/>
							<line class="st4" x1="1640.3" y1="231.3" x2="1659.5" y2="282"/>
						</g>
						<path class="st7" d="M1702.9,274.5h-67.2v7c0,5.9,4.7,10.6,10.6,10.6h46c5.9,0,10.6-4.7,10.6-10.6V274.5z"/>
					</g>
					<line class="st8" x1="1692.2" y1="278.3" x2="1702.9" y2="278.3"/>
					<line class="st8" x1="1636" y1="278.3" x2="1689" y2="278.3"/>
				</g>
				<rect x="1631.7" y="288.4" class="st7" width="74.1" height="5.9"/>
				<g>
					<line class="st8" x1="1648.7" y1="288.4" x2="1701.2" y2="288.4"/>
					<line class="st8" x1="1637.4" y1="288.4" x2="1645.5" y2="288.4"/>
				</g>
			</g>
		</g>
	</g>
	<g>
		<path class="st10" d="M269.2,17L269.2,17L269.2,17c-76.4,0-138.3,62.1-138.3,138.8v138.7h138.3h138.3V155.8
			C407.5,79.1,345.6,17,269.2,17z"/>
		<g>
			<g>
				<path class="st11" d="M137.5,294.5h131.8V31.1h-52.5c-43.8,0-79.2,35.5-79.2,79.2V294.5z"/>
				<path class="st11" d="M269.2,294.5H401V110.3c0-43.8-35.5-79.2-79.2-79.2h-52.5V294.5z"/>
				<polyline class="st12" points="252.3,112.9 269.2,112.9 375.4,112.9 				"/>
				<line class="st12" x1="147.2" y1="112.9" x2="248" y2="112.9"/>
				<line class="st12" x1="284.5" y1="211.1" x2="401" y2="211.1"/>
				<polyline class="st12" points="157.6,211.1 269.2,211.1 280.2,211.1 				"/>
			</g>
			<rect x="99.5" y="293.5" class="st13" width="339.4" height="12.5"/>
		</g>
		<g>
			<g>
				<g>
					<path class="st2" d="M391.4,282.3c-5.7-50.4-7.8-82.6-30.3-85.8c0,0,23.5,7.5,28.8,85.6L391.4,282.3z"/>
					<path class="st2" d="M387.7,284.2c1.5-87.7-38.2-72.7-38.2-72.7s39.7-3.9,37.3,72.7H387.7z"/>
					<path class="st2" d="M386.1,264.8c10.1-87.1-30.8-76.2-30.8-76.2s39.9,0,29.9,76.1L386.1,264.8z"/>
					<path class="st2" d="M391.3,263.9c-4.7-50.5-9.1-82.5,12.2-90.2c0,0-21.4,12.1-10.8,89.7L391.3,263.9z"/>
					<path class="st2" d="M391.5,258.8c-9.2-87.2,31.6-75.8,31.6-75.8s-39.9-0.4-30.8,75.8L391.5,258.8z"/>
					<path class="st2" d="M391.9,282.3c-9.8-87.1,31.1-76.1,31.1-76.1s-39.9-0.1-30.2,76L391.9,282.3z"/>
					<path class="st2" d="M387.7,281.3c4.5-87.6,43-70,43-70s-39.3-6.6-42.2,70.1L387.7,281.3z"/>
					<path class="st2" d="M386.4,263.9c5.2-87.5,43.6-69.7,43.6-69.7s-39.3-6.9-42.7,69.7L386.4,263.9z"/>
				</g>
				<path class="st7" d="M395.4,249.7h-14.2V290c0,2.4,1.9,4.3,4.3,4.3h5.7c2.4,0,4.3-1.9,4.3-4.3V249.7z"/>
				<line class="st8" x1="381.2" y1="255.9" x2="395.4" y2="255.9"/>
			</g>
			<g>
				<g>
					<path class="st3" d="M160.9,221.5c-0.1-2.8-0.7-5.7-1.9-8.5c-14.7,5.2-10.4-0.9-1.5-3c-2.4-4-6-7.3-10.8-8.8
						c-5.8-1.8-12.6,2.3-17,8.5c6.9,2.9,5.5,12.1-1.7,2.7c-1.4,2.6-2.4,5.4-2.8,8.2c-0.8,6.8,2.3,13.5,12.5,16.5
						C154.1,242,161.2,232.2,160.9,221.5z M150.6,218c4.3,0.1-1.7,5-5,2.6C143.6,219.1,146.2,217.9,150.6,218z"/>
					<path class="st4" d="M133.7,291.3c-0.7-55.4,13-90.1,13-90.1"/>
					<path class="st2" d="M132.1,227.2c-2.3,9.6-4.8,4.2-2.1-2.1c-4.4-3.8-11-5.8-18.2-3.7c-5.8,1.7-8.6,5.9-9.1,10.5
						c9.3-0.4,11.6,5.5,0,2.2c0.6,10.4,11.5,22,25.2,14.9C138.1,243.9,137.8,233.9,132.1,227.2z M118.6,240c-5,1.3-5.2-2.3-0.9-2.8
						C120.8,236.8,123.5,238.7,118.6,240z"/>
					<path class="st4" d="M129.5,273.8c2.3-34.8-17.6-52.3-17.6-52.3"/>
					<path class="st2" d="M166.2,246.1c4.8-6.3,4.9-16.6,1.2-19.7c-3.5-2.9-8-3.3-12.3-2.1c1.1,6.5-4.2,9.4-3,1.1
						c-10,4.5-17.5,16.7-6.4,22.7c8.5,4.6,14.6,3.5,18.5,0C150,247.2,157.3,243.3,166.2,246.1z M162.5,235.5c4.2,1.2,3.6,2.6-1,2.9
						C156.8,238.8,157,233.9,162.5,235.5z"/>
					<path class="st4" d="M141.7,273.5c-1.4-34.5,25.7-47.1,25.7-47.1"/>
				</g>
				<path class="st7" d="M158.1,268.9h-45l6.3,17.7c1.6,4.6,6,7.7,10.8,7.7h10.8c4.9,0,9.2-3.1,10.8-7.7L158.1,268.9z"/>
				<line class="st8" x1="123.8" y1="273.8" x2="156.5" y2="273.8"/>
				<line class="st8" x1="114.9" y1="273.8" x2="120.5" y2="273.8"/>
			</g>
			<g>
				<g>
					<g>
						<g>
							<g>
								<path class="st2" d="M271.7,283.6c-5-12.9-12.4-24-7.3-29.6c5.2-5.6,17.9,3.3,11.1,29L271.7,283.6z"/>
								<path class="st2" d="M274.8,270.2c4.7,0.1,4.8-8.5,9.3-7.8s5.4,13.5-8.3,11L274.8,270.2z"/>
								<path class="st2" d="M268.7,266.6c-9.1-0.4-8.9-8.4-12.8-6.4c-7.3,3.8,2.8,15.8,12.8,9.1V266.6z"/>
							</g>
							<line class="st4" x1="265.2" y1="257.8" x2="265.5" y2="259.9"/>
							<line class="st4" x1="268" y1="259.3" x2="268.3" y2="260.1"/>
							<line class="st4" x1="271.4" y1="256.2" x2="272.1" y2="257.8"/>
							<line class="st4" x1="271.8" y1="260.9" x2="272.6" y2="262.3"/>
							<line class="st4" x1="269.1" y1="264.3" x2="269.7" y2="265.6"/>
							<line class="st4" x1="266.7" y1="263.8" x2="266.7" y2="265"/>
							<line class="st4" x1="271.8" y1="270.4" x2="271.8" y2="272.3"/>
							<line class="st4" x1="273.5" y1="266.7" x2="273.7" y2="268.4"/>
							<line class="st4" x1="275.5" y1="264.3" x2="276.4" y2="265.6"/>
							<line class="st4" x1="268.7" y1="269.3" x2="269.4" y2="270.8"/>
							<line class="st4" x1="274.4" y1="274.9" x2="274.8" y2="276.4"/>
							<line class="st4" x1="276" y1="270.7" x2="276.5" y2="272.2"/>
							<line class="st4" x1="271.8" y1="276.4" x2="272.2" y2="278.3"/>
							<line class="st4" x1="284.4" y1="264.3" x2="285.3" y2="265.6"/>
							<line class="st4" x1="282.6" y1="264.6" x2="282.1" y2="266.7"/>
							<line class="st4" x1="284.3" y1="266.7" x2="284" y2="268.6"/>
							<line class="st4" x1="280.5" y1="269.4" x2="281.5" y2="267.7"/>
							<line class="st4" x1="282.4" y1="271.4" x2="282.4" y2="270.1"/>
							<line class="st4" x1="257.8" y1="263.1" x2="258.7" y2="265"/>
							<line class="st4" x1="256" y1="265" x2="257" y2="266.7"/>
							<line class="st4" x1="261.1" y1="268" x2="261.8" y2="269.2"/>
							<line class="st4" x1="261.9" y1="266.7" x2="263.4" y2="267.5"/>
							<line class="st4" x1="265.8" y1="269" x2="266.7" y2="269.1"/>
						</g>
						<path class="st14" d="M265,254.3c-3.9-1.4-3.1-6.4,0.9-2.9c-1-3.5,2.9-4.4,3.2-0.5c2.1-2.4,4.9-0.7,2.8,1.7
							C269.4,255.3,265.8,254.5,265,254.3z"/>
						<path class="st14" d="M283.4,263.4c-3.8,1-3.5-3.8-1-1.8C283.4,258,287.5,262.3,283.4,263.4z"/>
					</g>
					<path class="st7" d="M290,279.7h-32.8l1.4,8.3c0.6,3.8,2.4,6.3,4.4,6.3h21c1.9,0,3.5-2.3,4.3-5.8L290,279.7z"/>
				</g>
				<line class="st8" x1="257.7" y1="282.2" x2="283.7" y2="282.2"/>
				<line class="st8" x1="289.5" y1="282.2" x2="285.2" y2="282.2"/>
			</g>
			<g>
				<g>
					<g>
						<g>
							<path class="st2" d="M364.2,265.8l-13.5,3.7l12.5-0.4c-0.3,0.9-0.7,1.9-1.2,2.7c-1.5,3.2-3.8,6.2-6.9,9
								c-3.1,2.8-7,5.3-11.8,7.6l-6.2-0.7c-1.2-1.7-2-3.6-2.6-5.6c-0.1-0.4-0.2-0.9-0.3-1.3c0-0.1,0-0.1,0-0.2
								c-0.1-0.5-0.2-1-0.3-1.5c-0.4-2.3-0.4-4.7-0.2-7.3c0-0.5,0.1-1,0.1-1.5c0.1-1,0.2-1.9,0.4-2.9c0-0.2,0.1-0.4,0.1-0.6
								c0.5-2.7,1.3-5.4,2.3-8.1c1-2.7,2.2-5.4,3.6-8.1c0.1-0.2,0.2-0.5,0.4-0.7c1.8-3.3,3.8-6.5,6.1-9.4c0.1-0.1,0.2-0.2,0.2-0.3
								c0.5-0.6,1-1.2,1.5-1.8l4.2,7.2l-3.2-8.3c2.3-2.6,4.8-5,7.5-7c2.2,4.9,4.2,9.7,5.6,14.5l-11.3,5.6l11.9-3.3
								c0.3,1.3,0.6,2.6,0.9,3.8l-8.2,2.8l8.6-0.9c0.2,1.3,0.4,2.6,0.5,3.9l-15,4.5l-1.9,0.6l1.9-0.3l15.1-2.6
								C364.9,261.1,364.7,263.5,364.2,265.8z"/>
							<path class="st3" d="M341.5,281.1l-3.4,0.5l-3.6,0.5c-0.3-1-0.5-1.9-0.7-3c-1.8-11.6-7.6-24.2,13-39
								C351.2,254.7,352.2,267.9,341.5,281.1z"/>
							<path class="st2" d="M347.1,254.3l-5.4,1.6h5.2c-0.2,2.2-0.6,4.3-1.1,6.3l-14.1,5.4l13.1-2c-2,5.4-5.4,10.4-10.9,15l-3.4-0.2
								l-2.6-0.1l-2.8-0.1c-7.7-16.2-8.1-29.6,5.5-43.9c0.3-0.3,0.6-0.6,0.9-1l6.3,11.6l-4.8-13.1c0.6-0.6,1.3-1.2,1.9-1.8l2.8,4.8
								l-1.3-6.1c2.3-2,4.9-3.9,7.8-6c0.5,3.3,1,6.6,1.5,9.7l-3,1.8l3.2-0.4c0.5,4,0.9,7.8,1.1,11.5l-10.5,3.6l10.6-1.9
								C347.3,251,347.2,252.7,347.1,254.3z"/>
							<path class="st3" d="M335.7,264.8c-1.4,5.5-4.2,10.4-7.7,15.6l-2.8-0.1c-8.9-16-8.1-29.6,5.5-43.9
								C336.8,248.3,337.7,257.1,335.7,264.8z"/>
							<path class="st2" d="M319.6,264.3l0.4-0.1l1.3-0.4l10.7-3.5c0.4-1.9,0.6-3.8,0.6-5.9l-8.2,0.8l8.1-2.4c0-1.2-0.2-2.4-0.3-3.7
								l-11,5c0.4-0.3,6.7-4.8,10.6-7.7c-0.5-2.6-1.3-5.5-2.3-8.6c-0.9-2.6-1.9-5.3-3.2-8.2c-1.9,2-3.6,3.9-5.1,6l1.6,9.2l-3.4-6.7
								c-0.6,0.8-1.1,1.7-1.7,2.5l3.4,4.7l-4.2-3.4c0,0.1-0.1,0.1-0.1,0.2c-0.6,1-1.1,2-1.6,3c-0.4,0.8-0.8,1.6-1.1,2.5
								c-0.2,0.4-0.3,0.8-0.5,1.2c-0.2,0.5-0.4,1.1-0.6,1.6c-0.4,1.1-0.7,2.2-1,3.3c-0.1,0.5-0.3,1.1-0.4,1.7
								c-0.3,1.4-0.5,2.8-0.7,4.2c0,0.3-0.1,0.6-0.1,0.9c-0.1,1.1-0.2,2.3-0.2,3.5c0,0.5,0,1,0,1.5c0,0.5,0.1,1,0.1,1.6
								c0,0.4,0.1,0.8,0.1,1.2c0,0.1,0,0.2,0,0.4c0.1,0.7,0.2,1.3,0.3,2c0.1,0.4,0.1,0.9,0.2,1.3c0.1,0.3,0.1,0.6,0.2,0.9
								c0.2,0.7,0.3,1.4,0.5,2.1c0.1,0.3,0.2,0.7,0.3,1c0.1,0.2,0.1,0.4,0.2,0.6c0.1,0.3,0.2,0.6,0.3,0.9c0.3,1,0.6,1.9,1,2.9v0
								c0.1,0.2,0.1,0.3,0.2,0.5c0.1,0.2,0.1,0.4,0.2,0.6l2,0.5h0l2.5,0.6c0.5-0.5,1-1.1,1.5-1.6l0.3-0.4c0.1-0.1,0.2-0.2,0.3-0.3
								c0.5-0.5,0.9-1,1.4-1.6c0.4-0.5,0.9-1,1.3-1.6c0,0,0.1-0.1,0.1-0.1c0,0,0-0.1,0.1-0.1c0,0,0.1-0.1,0.1-0.1
								c0.2-0.3,0.4-0.5,0.6-0.8c0.3-0.4,0.5-0.7,0.8-1.1c0.8-1,1.5-2,2.1-3c0.3-0.5,0.7-1.1,1-1.6c0.8-1.3,1.4-2.6,2-4
								c0.4-1,0.8-2.1,1.1-3.2l-9.8,1.3l-1.4,0.2l-0.4,0l-0.2,0h0l-1.5,0.2l1.4-0.5L319.6,264.3z"/>
							<path class="st3" d="M325.1,274.8c-0.3,0.4-0.5,0.7-0.8,1.1c-0.2,0.3-0.4,0.5-0.6,0.8c0,0-0.1,0.1-0.1,0.1c0,0,0,0.1-0.1,0.1
								c0,0-0.1,0.1-0.1,0.1c-0.4,0.5-0.9,1-1.3,1.6c-0.4,0.5-0.9,1-1.4,1.6c-0.1,0.1-0.2,0.2-0.3,0.3l-0.3,0.4
								c-0.5,0.5-1,1.1-1.5,1.6l-2.5-0.6h0l-2-0.5c-0.1-0.2-0.2-0.4-0.2-0.6c-0.1-0.2-0.1-0.3-0.2-0.5v0c-0.4-1-0.7-1.9-1-2.9
								c-0.1-0.3-0.2-0.6-0.3-0.9c-0.1-0.2-0.1-0.4-0.2-0.6c-0.1-0.3-0.2-0.7-0.3-1c-0.2-0.7-0.4-1.4-0.5-2.1
								c-0.1-0.3-0.1-0.6-0.2-0.9c-0.1-0.4-0.2-0.9-0.2-1.3c-0.1-0.7-0.2-1.3-0.3-2c0-0.1,0-0.2,0-0.4c0-0.4-0.1-0.8-0.1-1.2
								c0-0.5-0.1-1-0.1-1.6c0-0.5,0-1,0-1.5c0-1.2,0.1-2.3,0.2-3.5c0-0.3,0-0.6,0.1-0.9c0.2-1.4,0.4-2.8,0.7-4.2
								c0.1-0.6,0.3-1.1,0.4-1.7c0.3-1.1,0.6-2.2,1-3.3c0.2-0.5,0.4-1.1,0.6-1.6c0.2-0.4,0.3-0.8,0.5-1.2c2,3.6,3.8,7.5,5.4,11.3
								c0,0,0,0.1,0.1,0.1c0.1,0.3,0.3,0.6,0.4,0.9c0.5,1.3,1,2.5,1.5,3.8l-1.3,0.4l-0.4,0.1l-0.1,0l-1.4,0.5l1.5-0.2h0l0.2,0l0.4,0
								l1.4-0.2c1,2.6,1.9,5.1,2.6,7.5C324.5,272.8,324.8,273.9,325.1,274.8z"/>
							<line class="st4" x1="326.2" y1="229.5" x2="314.7" y2="279.2"/>
							<path class="st2" d="M324.9,282.2l-3.4,2.4c-1.9-0.9-3.7-1.8-5.3-2.8h0c-0.6-0.3-1.1-0.7-1.7-1c-0.3-0.2-0.5-0.3-0.8-0.5v0
								c-4.1-2.6-7.3-5.5-9.7-8.5c-1.2-1.4-2.1-2.8-3-4.2l9.6-0.6l-10.8-1.6c-0.8-1.7-1.5-3.4-2-5.1l11.8,2.8l-12.4-5.6
								c-0.7-3.6-0.7-7.1-0.3-10.3l9.3,3.3l-8.8-6.1c0.3-1.8,0.8-3.5,1.3-5l8.2,3.9L299,238c1.1-3.1,2.4-5.4,3.2-6.7
								c4.3,4.5,8,10.8,11.2,17.5c0.5,1.1,1,2.2,1.5,3.3l-2.2,6.7l3.2-4.4c1.1,2.5,2,5,2.9,7.5c0.2,0.7,0.5,1.3,0.7,1.9
								c0.1,0.2,0.1,0.4,0.2,0.6c0,0.1,0.1,0.2,0.1,0.3c0.2,0.7,0.4,1.3,0.7,1.9c0.6,1.9,1.2,3.7,1.7,5.3c0.5,1.6,0.9,3.1,1.3,4.4
								c0.1,0.2,0.1,0.4,0.2,0.7c0.1,0.2,0.1,0.5,0.2,0.7c0,0,0,0,0,0c0.4,1.3,0.6,2.4,0.8,3.2C324.8,281.6,324.9,282.1,324.9,282.2
								z"/>
							<path class="st3" d="M362.1,271.8c-1.5,3.2-3.8,6.2-6.9,9h-41.3c-0.1-0.2-0.1-0.3-0.2-0.5v0c-4.1-2.6-7.3-5.5-9.7-8.5H362.1z
								"/>
							<line class="st4" x1="356.8" y1="230.1" x2="342.2" y2="282"/>
							<line class="st4" x1="344.4" y1="224.8" x2="327.9" y2="280.4"/>
							<line class="st4" x1="302.3" y1="231.3" x2="321.5" y2="282"/>
						</g>
						<path class="st7" d="M364.9,274.5h-67.2v7c0,5.9,4.7,10.6,10.6,10.6h46c5.9,0,10.6-4.7,10.6-10.6V274.5z"/>
					</g>
					<line class="st8" x1="354.2" y1="278.3" x2="364.9" y2="278.3"/>
					<line class="st8" x1="298" y1="278.3" x2="351" y2="278.3"/>
				</g>
				<rect x="293.7" y="288.4" class="st7" width="74.1" height="5.9"/>
				<g>
					<line class="st8" x1="310.7" y1="288.4" x2="363.2" y2="288.4"/>
					<line class="st8" x1="299.4" y1="288.4" x2="307.5" y2="288.4"/>
				</g>
			</g>
		</g>
	</g>
	<g>
		<path class="st2" d="M24.9,284.8c-11.5,20.6-19.7,41.8-24.8,59.5V255c0,0,5.3,5.3,13.4,15.3c-13.6,14.7-7.2,17.2,5.2,6.5
			C20.7,279.3,22.7,282,24.9,284.8z"/>
		<path class="st2" d="M104.8,469.3c-32.8,19.8-54.9,40.1-54.6,31.3c0.3-8.6,22.5-29.4,52.6-41.9c-2.6-13.2-6.2-27.5-10.3-41.1
			c-19.7,11.2-25,69.7-45.8,54.7c-14.7-10.6,7.5-51.8,42.7-64.6c-4.3-13-9.1-25.3-14.3-36.9c-27.4,17.7-19.5-0.8-4.4-9.6
			c-2.8-6-5.7-11.7-8.6-17.2c-28.9,23.7-34.4,76.2-49.7,62.2c-14.7-13.5,6.1-58.9,41.7-76.9c-7.8-13.2-17.7-28.4-24.8-38.2
			C16.2,322.3,6.2,355,0.1,372.4V508h107.5C109.4,501.8,108.9,490.8,104.8,469.3z M24.9,473.1c-4.6,6.1-20.7,0.6-12.5-3.6
			C21.5,464.9,29.5,467,24.9,473.1z M12.5,442.3c-1.3-26.1,19.7-33,24.4-18.1C41.6,439.1,13.7,466.5,12.5,442.3z"/>
	</g>
	<ellipse class="st15" cx="314.5" cy="468.5" rx="146.5" ry="13.5"/>
	<ellipse class="st15" cx="1635.5" cy="461.5" rx="257.5" ry="29.5"/>
	<g>
		<g>
			<g>
				<g>
					<path class="st2" d="M388.2,237.2L373,233l11.8,8.7c-7.9,10.4-16.1,21.6-16.8,34.9c-0.3,4.3-0.8,8.4-1.7,12.3l-18,3.9l-4.7,1
						l6,0.5l14.8,1.2c-1,3.1-2.3,5.9-3.7,8.6c-6.6,12.5-18.3,48.7-31,50.8c0,0,0,0,0,0c-0.4-0.8-18.6-36.5-1.8-91.2
						c2.2-7.3,5.2-14,8.6-20.2c0.1-0.2,0.2-0.4,0.3-0.6c20.4-36.4,57.3-54.1,62.4-35.5C402.1,217.4,395.8,227,388.2,237.2z"/>
					<path class="st3" d="M360.7,304.1c-10,32.2-18.3,48.7-31,50.8c0,0,0,0,0,0c-0.5,0-28.3-0.4-4.1-87.8c2-7.3,7.4-17.2,11-23.7
						c0.1-0.2,0.2-0.4,0.3-0.6c-1.1,9.2-1.6,22.9,2.4,35.4c0,0,2.8,7,8.9,14.6l-4.7,1l6,0.5C352.6,297.7,356.3,301.2,360.7,304.1z"
						/>
					<path class="st4" d="M329.6,396.8c-0.9-124.9,43.5-184.8,67-194.1"/>
				</g>
				<g>
					<path class="st2" d="M329.5,278.4l-8.4,7.5l8.6-2.6c0.6,26.2-4.1,51.1-16.8,53.4c-16.9,3.1-26.3-41.9-26.9-73.6l12.1,3.1
						l-12-7.9c0.1-2,0.2-7.7,0.3-9.4c1.7-18.6,7.9-37.7,19.2-49.5c7,11.6,13,24.9,17.2,38.1C326.3,248.6,328.7,263.5,329.5,278.4z"
						/>
					<path class="st3" d="M286.4,248.9l36.4-11.4c-4.2-13.2-10.2-26.5-17.2-38.1C294.3,211.3,288,230.3,286.4,248.9z"/>
					<path class="st4" d="M307.6,205.8c5,52.6,7.1,152.7,4.1,188.8"/>
					<path class="st5" d="M286.3,248.9c5.9-11.2,15.3-16.5,25.5-20.1l-3.1-17.1l7.4,15.6c15.1-4.8,31-7.2,38.8-20.9
						c1.8-3.2,0.4-7.3-2.3-9.9c-2.5-2.4-5.9-4.6-10-6.1l-18,5.4l10-7.4C315.8,186.3,291.3,198.4,286.3,248.9z"/>
				</g>
				<path class="st3" d="M296.3,355c-9.6,3.9-25.8-17-38.2-44.4c-0.7-1.6-1.4-3.2-2.1-4.8c-1.3-3.1-2.6-6.4-3.8-9.6l7.8-1.3
					l-10.1-5.3c-5.4-16.2-9-33-9-47.3l37.2,7.4c8.9,14.5,16.1,34.7,20.3,53.6l-3.8,11l5.4-3.7C304.1,332.9,303.7,351.9,296.3,355z"
					/>
				<path class="st4" d="M251.8,250.5c27.3,57.2,54.6,120.7,52.4,147.7"/>
				<path class="st5" d="M278,249.6c0,0-8.1-1.5-16.5,3.5l-13-7.1l10,9.2c-2.3,1.9-4.7,4.3-6.8,7.5c-0.2,0.4-0.5,0.7-0.7,1.1
					c-3-2.3-7-5.2-7.4-5.4l4.7,9.3c-14.9,18.9-34.2,23-29.6,4.7c0.9-3.8,1.8-8.1,3.3-13l9.2-6.4l-7.5,1.2c0.5-1.5,0.7-1.9,1.2-2.8
					c4.4-7.4,12.8-11.5,21.4-11.1C257,240.8,272.7,242.7,278,249.6z"/>
				<path class="st6" d="M327.6,285.3c0.1,1.6,0.2,3.3,0.3,4.9"/>
			</g>
			<path class="st7" d="M341.1,382H295l-4.6,72c-0.6,8.7,6.3,16,15,16H331c8.7,0,15.6-7.4,15-16.1L341.1,382z"/>
			<rect x="288.1" y="375.8" class="st7" width="60.4" height="12.4"/>
			<g>
				<line class="st8" x1="294.2" y1="388.2" x2="325.6" y2="388.2"/>
				<line class="st8" x1="328.4" y1="388.2" x2="333.5" y2="388.2"/>
			</g>
		</g>
		<g>
			<g>
				<g>
					<path class="st2" d="M416.4,409c1.4-13.7,13-10.8,13-10.8C430.1,409.8,416.4,409,416.4,409z"/>
					<path class="st2" d="M391.9,430c-14,2.8-12.9-10.9-12.9-10.9C392.3,417.3,391.9,430,391.9,430z"/>
					<path class="st8" d="M402.2,447.8c-16.7-15.4-11.5-33.7,1.8-41.5c13.4-7.9,17.9,4.5,5.3,7c-17.6,3.6-24.3-18.2-5.3-25.7"/>
				</g>
			</g>
			<path class="st3" d="M374,443.5c18.4-15.7,37.8-15,54.6,0.8L374,443.5z"/>
			<path class="st7" d="M432.6,439.7H370v19.1c0,6.3,5.1,11.3,11.3,11.3h39.9c6.3,0,11.3-5.1,11.3-11.3V439.7z"/>
			<line class="st8" x1="390" y1="449.2" x2="432.6" y2="449.2"/>
			<line class="st8" x1="370" y1="449.2" x2="385.5" y2="449.2"/>
		</g>
		<g>
			<g>
				<g>
					<path class="st2" d="M252.4,409c1.4-13.7,13-10.8,13-10.8C266.1,409.8,252.4,409,252.4,409z"/>
					<path class="st2" d="M227.9,430c-14,2.8-12.9-10.9-12.9-10.9C228.3,417.3,227.9,430,227.9,430z"/>
					<path class="st8" d="M238.2,447.8c-16.7-15.4-11.5-33.7,1.8-41.5c13.4-7.9,17.9,4.5,5.3,7c-17.6,3.6-24.3-18.2-5.3-25.7"/>
				</g>
			</g>
			<path class="st3" d="M210,443.5c18.4-15.7,37.8-15,54.6,0.8L210,443.5z"/>
			<path class="st7" d="M268.6,439.7H206v19.1c0,6.3,5.1,11.3,11.3,11.3h39.9c6.3,0,11.3-5.1,11.3-11.3V439.7z"/>
			<line class="st8" x1="226" y1="449.2" x2="268.6" y2="449.2"/>
			<line class="st8" x1="206" y1="449.2" x2="221.5" y2="449.2"/>
		</g>
	</g>
	<g>
		<g>
			<g>
				<path class="st3" d="M1649.5,445.1c-24.4-0.9-20.2,10.8-29,12.6c-8.8,1.8-11.1,6.9,16.7,7.9c27.8,1,33.6-6.5,49.1-7.1
					c15.5-0.6,6.8-10.8-7.4-10.4S1663.7,445.6,1649.5,445.1z"/>
				<path class="st3" d="M1679.8,464.4h19.1c0,0-2.1-4-6.8-2C1687.5,464.4,1683.2,455.1,1679.8,464.4z"/>
				<path class="st3" d="M1670.3,444.5h14.5c0,0,0.8-6.5-5-2.2S1675.8,438.3,1670.3,444.5z"/>
			</g>
			<g>
				<path class="st14" d="M1676.4,451.3c0-0.1-0.1-0.1-0.1-0.2c-0.1-0.1-0.1-0.1-0.2-0.1c-0.1,0-0.2-0.1-0.2-0.1c-0.1,0-0.1,0-0.2,0
					c-0.1,0-0.2,0.1-0.3,0.2c0,0-0.1,0.1-0.1,0.1c-0.1,0.1-0.1,0.2-0.1,0.3v0.1c0,0.1,0,0.2,0.1,0.2c0,0.1,0.1,0.1,0.1,0.2
					c0.1,0.1,0.1,0.1,0.2,0.1c0.1,0,0.2,0.1,0.2,0.1c0.1,0,0.1,0,0.2,0c0.1,0,0.2-0.1,0.3-0.2c0,0,0.1-0.1,0.1-0.1
					c0.1-0.1,0.1-0.2,0.1-0.3v-0.1C1676.4,451.5,1676.4,451.4,1676.4,451.3z"/>
				<path class="st14" d="M1635,457.5c-0.8,0-0.8,1.2,0,1.2C1635.8,458.7,1635.8,457.5,1635,457.5z"/>
				<path class="st14" d="M1654,461.2c-0.8,0-0.8,1.2,0,1.2C1654.8,462.5,1654.8,461.2,1654,461.2z"/>
				<path class="st14" d="M1670.5,453.7c-0.8,0-0.8,1.2,0,1.2C1671.3,454.9,1671.3,453.7,1670.5,453.7z"/>
				<path class="st14" d="M1688.7,455c0-0.1-0.1-0.2-0.2-0.3c0,0-0.1-0.1-0.1-0.1c-0.1-0.1-0.2-0.1-0.3-0.1h-0.2
					c-0.1,0-0.2,0-0.2,0.1c-0.1,0-0.1,0.1-0.2,0.1c-0.1,0.1-0.1,0.1-0.1,0.2c0,0.1-0.1,0.2-0.1,0.2c0,0.1,0,0.1,0,0.2
					c0,0.1,0.1,0.2,0.2,0.3c0,0,0.1,0.1,0.1,0.1c0.1,0.1,0.2,0.1,0.3,0.1h0.2c0.1,0,0.2,0,0.2-0.1c0.1,0,0.1-0.1,0.2-0.1
					c0.1-0.1,0.1-0.1,0.1-0.2c0-0.1,0.1-0.1,0.1-0.2C1688.7,455.1,1688.7,455,1688.7,455z"/>
				<path class="st14" d="M1641.1,462.6c-0.8,0-0.8,1.2,0,1.2C1641.9,463.8,1641.9,462.6,1641.1,462.6z"/>
				<path class="st14" d="M1622.5,460c-0.8,0-0.8,1.2,0,1.2C1623.3,461.3,1623.3,460,1622.5,460z"/>
				<path class="st14" d="M1683,461.8c-0.8,0-0.8,1.2,0,1.2C1683.8,463.1,1683.8,461.8,1683,461.8z"/>
				<path class="st14" d="M1682.6,442.2c-0.8,0-0.8,1.2,0,1.2C1683.4,443.4,1683.4,442.2,1682.6,442.2z"/>
			</g>
		</g>
		<g>
			<g>
				<g>
					<g>
						<polygon class="st16" points="1436.4,401.2 1464.2,401.6 1463.8,427.1 1424.6,425.1 						"/>
						<path class="st14" d="M1450.6,451.8c0,0.9-0.1,1.4-0.1,1.4c-28.8,6.9-35.6-5.2-35.6-5.2c-3.2-28,4.2-47.4,4.2-47.4l4.1,0.1
							l13.2,0.4c-4.9,16.6,6.3,24.8,6.3,24.8l-0.7,14.3C1449.9,442.3,1450.7,448.9,1450.6,451.8z"/>
						<path class="st3" d="M1450.6,451.8c0,0.9-0.1,1.4-0.1,1.4c-28.8,6.9-35.6-5.2-35.6-5.2c-3.2-28,4.2-47.4,4.2-47.4l4.1,0.1
							c-2.5,8-7.5,26.9-4.9,45.9C1418.3,446.7,1426.9,454.9,1450.6,451.8L1450.6,451.8z"/>
					</g>
					<path class="st17" d="M1546,448.3c0,0-51.6-4.5-100.7-14.5l0.3-34l31.7,0.9l23.7,0.7L1546,448.3z"/>
					<path class="st17" d="M1461.5,355.9c0,0,68.3,25.9,84.5,91.9c0,0-43.3-17.6-97.8-36.8L1461.5,355.9z"/>
				</g>
				<g>
					<g>
						<polygon class="st18" points="1613.5,428.2 1625.9,427.8 1623.5,421.2 1613.2,421.2 						"/>
						<polygon class="st3" points="1613.5,403.1 1639,435.4 1635.8,438.4 1604.9,411.8 1605.1,404.8 						"/>
						<path class="st17" d="M1654.5,458.4l-38-22.8l24.3-13.5c0,0,23.5,19.4,26.3,30C1668.3,456.8,1665.5,459.8,1654.5,458.4z"/>
						<polygon class="st3" points="1626.3,430.2 1626.7,440.4 1631.8,437.4 1632.3,426.9 						"/>
						<path class="st19" d="M1667.1,452.1l-27.6-17.3l1.3-12.7C1640.8,422.1,1664.3,441.6,1667.1,452.1z"/>
						<path class="st19" d="M1616.5,435.7l38,22.8c0,0-18.3-1.5-39-9.4L1616.5,435.7z"/>
					</g>
					<g>
						<path class="st18" d="M1548.6,377.6l-16.9,19.1c-11.2-17.6-23.1-55.7-12.4-91.7c1.9-6.5,8.2-10.6,14.8-9.1l0,0
							c5.4,1.2,9.3,5.8,9.7,11.3L1548.6,377.6z"/>
						<path class="st18" d="M1535.4,366.6l68.6,51.1l2,6.7c0,0-37.9-5.9-74.3-27.8L1535.4,366.6z"/>
						<g>
							<path class="st18" d="M1596.5,420.5c9.4,7.5,17.1,7.7,17.1,7.7l5.4-21.1l-21.5,6L1596.5,420.5z"/>
							<polygon class="st18" points="1617.3,409.8 1630,411.8 1631.8,416.8 1628.9,419.2 1627.1,416.1 1612.4,418 							"/>
							<polygon class="st18" points="1610,423.5 1626.6,419.8 1629.2,422.9 1631,421.2 1629.2,411.8 1611.2,414 							"/>
						</g>
						<polygon class="st18" points="1619,407.1 1626.8,408.4 1628.2,413.5 1617.1,411.8 						"/>
					</g>
				</g>
				<g>
					<path d="M1513.5,283.7c21.5-1.6,55.6-20.5,65-57.5c0,0,0,0,0,0C1520.9,251.4,1513.5,283.7,1513.5,283.7z"/>
					<path class="st20" d="M1513.5,283.7c21.5-1.6,55.6-20.5,65-57.5c0,0,0,0,0,0C1578.2,227,1555.1,274.8,1513.5,283.7z"/>
					<path class="st3" d="M1565.5,232.5l-18.1-2.9c-14.5-2.1-26.8,9.1-25.9,23.8c0.5,8.7,10.5,22.7,18.9,23.5L1565.5,232.5z"/>
					<polygon class="st16" points="1565.1,273.6 1559.4,280.7 1551,291.1 1538.7,308.5 1529.9,276.8 1552.5,249.9 					"/>
					<path class="st18" d="M1559.4,280.7l-7.4,9.3c0,0-7.7-7.8-7.4-19.8L1559.4,280.7z"/>
					<path class="st16" d="M1542.4,242.2l0.2,8.8l0.1,4l0.3,10.8c0.2,5.8,3.3,11.1,8.4,14l7.8,4.5c6.8,3.9,15.4,0.5,17.8-6.9
						c1.7-5.5,3.2-12,2.6-19.4c-0.7-8.6-5.7-16.3-12.9-20.6l0,0l-1.3-0.7l-0.1-0.1c-0.6-0.3-1.3-0.6-2-0.9c-1.6-0.7-3.3-1.2-5-1.5
						l-5.5-1.1C1547.4,232.1,1542.3,236.5,1542.4,242.2z"/>
					<path class="st21" d="M1570.8,273.9c-6.2,5.3-8.6,2.6-7.1-3.9L1570.8,273.9z"/>
					<path class="st16" d="M1579.8,260.6c0.3,5,2.9,6.9,5,7.7c1.3,0.5,2,1.9,1.7,3.3l0,0c-0.5,1.8-2,3.1-3.8,3.4l-6.5,1
						c-3.4-0.1-6-3-5.7-6.4l1.3-11.5L1579.8,260.6z"/>
					<path class="st3" d="M1541,241.8l-1,19c5.9-1.3,22.2-13.3,24.6-26.2c-1.8-0.7-3.7-1.3-5.6-1.7l-6.2-1.2
						C1546.6,230.5,1540.8,235.4,1541,241.8z"/>
					<g>
						<path class="st3" d="M1548.7,255.3c3.9,0.6,7.8-0.4,10.9-2.9c5.1-4,7-11.2,5.1-19.1l-2,0.5c1.7,7.3,0.1,13.5-4.4,17
							c-3.8,3-9.2,3.4-13.9,1l-0.9,1.9C1545.2,254.5,1546.9,255,1548.7,255.3z"/>
					</g>
					<path class="st16" d="M1545,259.1l-3.4,11.5c-4-0.6-7.1-1.8-9.5-3.4c-12.1-8.1-4.2-25.2,10.8-10.4
						C1543.5,257.5,1544.2,258.2,1545,259.1z"/>
					<path class="st18" d="M1542.8,256.8c-3.2,2.8-6.4,5.8-9.5,8.9c-0.5,0.5-0.9,1-1.4,1.5C1519.9,259.1,1527.8,242,1542.8,256.8z"
						/>
					<path class="st22" d="M1578.5,226.2c0,0-6.8,3.1-16.2,8.7c-3,1.8-6.2,3.8-9.6,6.2c-7.6,5.2-15.9,11.8-23.1,19.4
						c-2.7,2.8-5.3,5.8-7.6,9c-3.3,4.5-6.2,9.2-8.4,14.2c0,0,0.3-9,5.9-19.9c1.4-2.8,3.2-5.8,5.5-8.7c4.8-6.4,12.4-12.4,22.1-18.2
						c3.1-1.9,7.1-3.8,11.4-5.6C1565,228.6,1572.3,226.5,1578.5,226.2z"/>
					<path class="st22" d="M1521.7,261.6c2.5-2.3,5.3-4.8,8.4-7.3c7-5.7,15.4-11.6,24.5-16.3c3.4-1.8,6.6-3.6,10.2-4.9l-4.4-3.7
						l-0.5-0.4l-3.2-2.7c-2.5-2.2-5.6-3.7-8.9-4.1c-4.7-0.7-9.5,0-13.8,2.1l-8.8,4.2c-4.1,1.9-7.1,5.2-8.7,9.1
						c-2.1,4.8-1.7,10.4,0.7,15.1l2.2,4.3l0.7,1.4L1521.7,261.6z"/>
					<path class="st3" d="M1571.9,261.4c-0.8,2.3-2.3,3.8-3.3,3.5c-1-0.4-1.2-2.5-0.4-4.8c0.8-2.3,2.3-3.8,3.3-3.5
						C1572.5,257,1572.7,259.2,1571.9,261.4z"/>
					<path class="st3" d="M1567.6,247.6c3.9-3.4,5.9-1.4,3.3,1.6C1568.1,252.4,1562.8,251.8,1567.6,247.6z"/>
				</g>
				<g>
					<g>
						<path class="st3" d="M1474,321.7c-0.2-1.2-5.6-28.8,6-38.9c5.2-4.5,11.7-4.3,18.7-4.1c6.5,0.2,13.3,0.4,20.1-2.9l1.1,2.2
							c-7.4,3.6-14.7,3.4-21.2,3.2c-6.7-0.2-12.6-0.4-17,3.5c-10.5,9.2-5.3,36.3-5.2,36.6L1474,321.7z"/>
					</g>
					<path class="st3" d="M1529.9,268.7c0,0-12.1,11.4-28.3,11.5c-0.2,0-0.3,0-0.5,0c-16.3,0.2-28.8,14.4-27,30.6l0.9,8.3l57.9-46.3
						L1529.9,268.7z"/>
				</g>
				<path class="st23" d="M1546,305.8l-23.3,37.5l-45.2,14.4l-32.6,0.8c2.2-3.8,4.5-7.5,7-11.1c15.4-22.5,36.1-41.3,52.7-54.3
					c16.1-12.6,28.3-19.9,28.3-19.9L1546,305.8z"/>
				<g>
					<defs>
						<path id="SVGID_1_" d="M1546,305.8l-23.3,37.5l-45.2,14.4l-32.6,0.8c2.2-3.8,4.5-7.5,7-11.1c15.4-22.5,36.1-41.3,52.7-54.3
							c16.1-12.6,28.3-19.9,28.3-19.9L1546,305.8z"/>
					</defs>
					<clipPath id="SVGID_2_">
						<use xlink:href="#SVGID_1_"  style="overflow:visible;"/>
					</clipPath>
					<g class="st24">
						<line class="st25" x1="1445.2" y1="351.7" x2="1543" y2="259.4"/>
						<line class="st25" x1="1450.8" y1="357.3" x2="1548.6" y2="265"/>
						<line class="st25" x1="1456.4" y1="362.9" x2="1554.3" y2="270.6"/>
						<line class="st25" x1="1462.1" y1="368.5" x2="1559.9" y2="276.2"/>
						<line class="st25" x1="1467.7" y1="374.1" x2="1565.5" y2="281.8"/>
						<line class="st25" x1="1521.9" y1="266.7" x2="1546.1" y2="314"/>
						<line class="st25" x1="1503.4" y1="286.8" x2="1537" y2="330.9"/>
						<line class="st25" x1="1491.9" y1="294.4" x2="1525.4" y2="339.1"/>
						<line class="st25" x1="1479.2" y1="302.7" x2="1520.9" y2="345.5"/>
						<line class="st25" x1="1465.6" y1="314" x2="1513.3" y2="352.8"/>
						<line class="st25" x1="1456.7" y1="324.1" x2="1511" y2="357.8"/>
						<line class="st25" x1="1447" y1="333.4" x2="1494.1" y2="363.1"/>
					</g>
				</g>
				<path class="st19" d="M1535.4,325c11.6-20.1-2.6-41.8-17.7-41.8l-8.2,6C1509.5,289.2,1534.4,289.8,1535.4,325z"/>
				<polygon class="st19" points="1466.7,351.6 1529.9,328.1 1534.4,355.9 1477.5,357.7 				"/>
				<path class="st19" d="M1454,344.4c0,0-26.3,25.8-22.8,49c4,26.4,51.1,42.6,51.1,42.6l-4.8-78.3L1454,344.4z"/>
				<g>
					<g>
						<polygon class="st16" points="1417.3,431 1445,433.5 1442.5,458.9 1403.7,453.8 						"/>
						<path class="st14" d="M1427.5,482.5c-0.1,0.9-0.2,1.4-0.2,1.4c-29.2,4.6-35.1-7.9-35.1-7.9c-1-28.2,7.9-46.9,7.9-46.9l4.1,0.4
							l13.1,1.4c-6.2,16.2,4.3,25.2,4.3,25.2l-1.8,14.2C1427.5,473,1427.8,479.6,1427.5,482.5z"/>
						<path class="st3" d="M1427.5,482.5c-0.1,0.9-0.2,1.4-0.2,1.4c-29.2,4.6-35.1-7.9-35.1-7.9c-1-28.2,7.9-46.9,7.9-46.9l4.1,0.4
							c-3.1,7.8-9.6,26.2-8.5,45.4C1395.6,474.9,1403.5,483.8,1427.5,482.5L1427.5,482.5z"/>
					</g>
					<path class="st19" d="M1543.5,474.6c0,0-71.4,2.8-119.9-10.1l2.4-33.9l31.5,2.9l23.7,2.2l38.1,3.5L1543.5,474.6z"/>
					<polygon points="1492.4,450.1 1447.6,432.5 1497.1,437 					"/>
				</g>
				<path class="st19" d="M1472.4,364.3c0,0,64.4,59.2,71.1,110.3c0,0-46.4-12.9-102.1-62.9L1472.4,364.3z"/>
				<path class="st26" d="M1425,445l76.2,10.4c0,0-35.7-29.6-50.7-54.1s16.2-49.6,16.2-49.6l49.3-18.3"/>
				<g>
					<g>
						<path class="st16" d="M1556.8,366.6l-10.1,23.4c-16.1-13.2-39.3-45.7-40.4-83.2c-0.2-6.7,4.5-12.6,11.2-13.2h0
							c5.5-0.5,10.7,2.6,12.7,7.7L1556.8,366.6z"/>
						<path class="st16" d="M1528.7,368l72.9-30.8l7.8,4.4c0,0-25.1,28.9-62.9,48.2L1528.7,368z"/>
					</g>
					<g>
						<g>
							<g>
								<path class="st19" d="M1626.4,374.4c-17.3-8.9-20.3-19-17.3-25.5c3.2-7,14.4-11.4,28.8-5.7l-2,5c-10.9-4.2-19.7-1.8-21.9,3
									c-1.9,4.1,0.9,11.4,14.8,18.5L1626.4,374.4z"/>
							</g>
							<g>
								<polygon class="st19" points="1672.8,351.8 1658.7,398.4 1612.9,375.6 1639.5,335.7 								"/>
								<path class="st3" d="M1639.5,335.7l33.2,16.1C1672.8,351.8,1650.1,361.5,1639.5,335.7z"/>
								<polygon class="st19" points="1664.7,375.2 1704.8,353.1 1703,350.8 1667.3,366.1 								"/>
								<g>
									<path class="st19" d="M1707.6,342.6c-14.6,8.1-5.8,18.7,6.5,14.9L1707.6,342.6z"/>
									<path class="st3" d="M1707.6,342.6l6.5,14.9C1714.1,357.5,1702.6,353.9,1707.6,342.6z"/>
								</g>
							</g>
						</g>
						<g>
							<polygon class="st16" points="1601.6,337.3 1619.9,335.4 1625.5,338.4 1625.7,340.6 1621.5,340.9 1612.6,348 							"/>
							<path class="st16" d="M1593.5,344.3c7.9,11.4,16.2,14.2,16.2,14.2l11.3-18.1l-19.4-3.2L1593.5,344.3z"/>
						</g>
						<polygon class="st16" points="1621.1,340.5 1628.8,347.9 1626.3,351.7 1624.1,350.8 1621.4,354.2 1619.2,353.1 1617.5,355.9 
							1610.2,354.4 						"/>
						<polygon class="st16" points="1608.3,357.9 1614.1,360.6 1616.9,356.4 1611.4,352.4 						"/>
						<polygon class="st16" points="1614.1,360.6 1618.4,360.7 1619.3,357.6 1616.9,356.4 						"/>
						<polygon class="st16" points="1617.5,355.9 1622.2,356.4 1623.2,353.3 1618.4,351.6 						"/>
					</g>
					<g>
						<path class="st19" d="M1712.7,346.1c-0.1-0.3-0.4-0.6-0.7-0.5c-0.9,0.1-1.7,0.3-2.6,0.4c-0.3,0-0.6,0.4-0.5,0.7
							c0.1,0.3,0.4,0.6,0.7,0.5c0.9-0.1,1.7-0.3,2.6-0.4C1712.4,346.7,1712.7,346.4,1712.7,346.1z"/>
						<path class="st19" d="M1716.8,350.3c-1,0-2.1,0-3.1,0c-0.3,0-0.7,0.2-0.7,0.5c0,0.3,0.2,0.7,0.5,0.7c1,0,2.1,0,3.1,0
							c0.3,0,0.7-0.2,0.7-0.5C1717.4,350.7,1717.2,350.3,1716.8,350.3z"/>
						<path class="st19" d="M1720,346.9c-0.1-0.1-0.3-0.2-0.4-0.2c-0.6,0-1.2,0-1.8,0c-0.2,0-0.3,0-0.5,0.1
							c-0.1,0.1-0.2,0.3-0.2,0.4c0,0.2,0,0.3,0.1,0.5c0.1,0.1,0.3,0.2,0.4,0.2c0.6,0,1.2,0,1.8,0c0.2,0,0.3,0,0.5-0.1
							c0.1-0.1,0.2-0.3,0.2-0.4C1720.1,347.2,1720.1,347,1720,346.9z"/>
						<path class="st19" d="M1713.6,354l-1.8-0.2c-0.3,0-0.7,0.2-0.7,0.5c0,0.3,0.2,0.7,0.5,0.7l1.8,0.2c0.3,0,0.7-0.2,0.7-0.5
							C1714.2,354.4,1714,354,1713.6,354z"/>
						<path class="st19" d="M1713.9,362c-0.5-0.7-0.9-1.5-1.4-2.2c-0.2-0.3-0.6-0.3-0.9-0.1c-0.3,0.2-0.3,0.6-0.1,0.9
							c0.5,0.7,0.9,1.5,1.4,2.2c0.2,0.3,0.6,0.3,0.9,0.1C1714,362.6,1714.1,362.3,1713.9,362z"/>
						<path class="st19" d="M1718.4,358.9c-0.4-0.3-0.8-0.5-1.1-0.8c-0.1-0.1-0.1-0.1-0.2-0.1c-0.1,0-0.2,0-0.2,0
							c-0.2,0-0.3,0.1-0.4,0.2c-0.1,0.1-0.2,0.3-0.1,0.5c0,0.2,0.1,0.3,0.2,0.4c0.4,0.3,0.8,0.5,1.1,0.8c0.1,0.1,0.1,0.1,0.2,0.1
							c0.1,0,0.2,0,0.2,0c0.2,0,0.3-0.1,0.4-0.2c0.1-0.1,0.2-0.3,0.1-0.5C1718.6,359.2,1718.5,359,1718.4,358.9z"/>
						<path class="st19" d="M1723.6,351.7c0-0.1,0-0.1,0-0.2c0-0.1-0.1-0.2-0.2-0.3c-0.4-0.4-0.8-0.7-1.1-1.1
							c-0.1-0.1-0.3-0.1-0.5-0.1c-0.2,0-0.3,0.1-0.4,0.2c-0.1,0.1-0.1,0.3-0.1,0.5c0,0.1,0,0.1,0,0.2c0,0.1,0.1,0.2,0.2,0.3
							c0.4,0.4,0.8,0.7,1.1,1.1c0.1,0.1,0.3,0.1,0.5,0.1c0.2,0,0.3-0.1,0.4-0.2C1723.5,352,1723.6,351.9,1723.6,351.7z"/>
						<path class="st19" d="M1719.8,365.4c-0.2-0.7-0.4-1.4-0.6-2.1c0-0.1-0.2-0.3-0.3-0.3c-0.1-0.1-0.3-0.1-0.5,0
							c-0.1,0.1-0.3,0.2-0.3,0.3c-0.1,0.2,0,0.3,0,0.5c0.2,0.7,0.4,1.4,0.6,2.1c0,0.1,0.2,0.3,0.3,0.3c0.1,0.1,0.3,0.1,0.5,0
							c0.1-0.1,0.3-0.2,0.3-0.3C1719.9,365.7,1719.9,365.6,1719.8,365.4z"/>
						<path class="st19" d="M1716.7,341.6c-0.1-0.3-0.4-0.6-0.7-0.5c-0.9,0.1-1.8,0.2-2.8,0.4c-0.3,0-0.6,0.4-0.5,0.7
							c0.1,0.3,0.4,0.6,0.7,0.5c0.9-0.1,1.8-0.2,2.8-0.4C1716.5,342.3,1716.7,342,1716.7,341.6z"/>
						<path class="st19" d="M1723.7,343c-0.8,0-1.7-0.1-2.5-0.1c-0.3,0-0.7,0.2-0.7,0.5c0,0.3,0.2,0.7,0.5,0.7
							c0.8,0,1.7,0.1,2.5,0.1c0.3,0,0.7-0.2,0.7-0.5C1724.3,343.4,1724.1,343,1723.7,343z"/>
						<path class="st19" d="M1723.6,357.6c-0.7-0.6-1.4-1.3-2.1-1.9c-0.1-0.1-0.3-0.1-0.5-0.1c-0.2,0-0.3,0.1-0.4,0.3
							c-0.1,0.1-0.1,0.3-0.1,0.5c0,0.2,0.1,0.3,0.3,0.4c0.7,0.6,1.4,1.3,2.1,1.9c0.1,0.1,0.3,0.1,0.5,0.1c0.2,0,0.3-0.1,0.4-0.3
							c0.1-0.1,0.1-0.3,0.1-0.5C1723.9,357.8,1723.8,357.7,1723.6,357.6z"/>
					</g>
				</g>
			</g>
			<path class="st26" d="M1431.6,395.5l8.2-8.3c0,0,0-14.8,9.4-24.7l-6.8-4"/>
			<polyline class="st26" points="1456.4,362.5 1476.8,357.3 1454,344.4 			"/>
			<line class="st26" x1="1435.1" y1="431.4" x2="1433.8" y2="466.9"/>
			<polyline class="st26" points="1492.4,424.1 1509.5,417.6 1494.6,427.8 1512,423.4 1503.4,429.1 			"/>
		</g>
		<g>
			<g>
				<g>
					<path class="st2" d="M1900.2,237.2L1885,233l11.8,8.7c-7.9,10.4-16.1,21.6-16.8,34.9c-0.3,4.3-0.8,8.4-1.7,12.3l-18,3.9l-4.7,1
						l6,0.5l14.8,1.2c-1,3.1-2.3,5.9-3.7,8.6c-6.6,12.5-18.3,48.7-31,50.8c0,0,0,0,0,0c-0.4-0.8-18.6-36.5-1.8-91.2
						c2.2-7.3,5.2-14,8.6-20.2c0.1-0.2,0.2-0.4,0.3-0.6c20.4-36.4,57.3-54.1,62.4-35.5C1914.1,217.4,1907.8,227,1900.2,237.2z"/>
					<path class="st3" d="M1872.7,304.1c-10,32.2-18.3,48.7-31,50.8c0,0,0,0,0,0c-0.5,0-28.3-0.4-4.1-87.8c2-7.3,7.4-17.2,11-23.7
						c0.1-0.2,0.2-0.4,0.3-0.6c-1.1,9.2-1.6,22.9,2.4,35.4c0,0,2.8,7,8.9,14.6l-4.7,1l6,0.5C1864.6,297.7,1868.3,301.2,1872.7,304.1
						z"/>
					<path class="st4" d="M1841.6,396.8c-0.9-124.9,43.5-184.8,67-194.1"/>
				</g>
				<g>
					<path class="st2" d="M1841.5,278.4l-8.4,7.5l8.6-2.6c0.6,26.2-4.1,51.1-16.8,53.4c-16.9,3.1-26.3-41.9-26.9-73.6l12.1,3.1
						l-12-7.9c0.1-2,0.2-7.7,0.3-9.4c1.7-18.6,7.9-37.7,19.2-49.5c7,11.6,13,24.9,17.2,38.1C1838.3,248.6,1840.7,263.5,1841.5,278.4
						z"/>
					<path class="st3" d="M1798.4,248.9l36.4-11.4c-4.2-13.2-10.2-26.5-17.2-38.1C1806.3,211.3,1800,230.3,1798.4,248.9z"/>
					<path class="st4" d="M1819.6,205.8c5,52.6,7.1,152.7,4.1,188.8"/>
					<path class="st5" d="M1798.3,248.9c5.9-11.2,15.3-16.5,25.5-20.1l-3.1-17.1l7.4,15.6c15.1-4.8,31-7.2,38.8-20.9
						c1.8-3.2,0.4-7.3-2.3-9.9c-2.5-2.4-5.9-4.6-10-6.1l-18,5.4l10-7.4C1827.8,186.3,1803.3,198.4,1798.3,248.9z"/>
				</g>
				<path class="st3" d="M1808.3,355c-9.6,3.9-25.8-17-38.2-44.4c-0.7-1.6-1.4-3.2-2.1-4.8c-1.3-3.1-2.6-6.4-3.8-9.6l7.8-1.3
					l-10.1-5.3c-5.4-16.2-9-33-9-47.3l37.2,7.4c8.9,14.5,16.1,34.7,20.3,53.6l-3.8,11l5.4-3.7C1816.1,332.9,1815.7,351.9,1808.3,355
					z"/>
				<path class="st4" d="M1763.8,250.5c27.3,57.2,54.6,120.7,52.4,147.7"/>
				<path class="st5" d="M1790,249.6c0,0-8.1-1.5-16.5,3.5l-13-7.1l10,9.2c-2.3,1.9-4.7,4.3-6.8,7.5c-0.2,0.4-0.5,0.7-0.7,1.1
					c-3-2.3-7-5.2-7.4-5.4l4.7,9.3c-14.9,18.9-34.2,23-29.6,4.7c0.9-3.8,1.8-8.1,3.3-13l9.2-6.4l-7.5,1.2c0.5-1.5,0.7-1.9,1.2-2.8
					c4.4-7.4,12.8-11.5,21.4-11.1C1769,240.8,1784.7,242.7,1790,249.6z"/>
				<path class="st6" d="M1839.6,285.3c0.1,1.6,0.2,3.3,0.3,4.9"/>
			</g>
			<path class="st7" d="M1853.1,382H1807l-4.6,72c-0.6,8.7,6.3,16,15,16h25.6c8.7,0,15.6-7.4,15-16.1L1853.1,382z"/>
			<rect x="1800.1" y="375.8" class="st7" width="60.4" height="12.4"/>
			<g>
				<line class="st8" x1="1806.2" y1="388.2" x2="1837.6" y2="388.2"/>
				<line class="st8" x1="1840.4" y1="388.2" x2="1845.5" y2="388.2"/>
			</g>
		</g>
		<g>
			<g>
				<g>
					<path class="st2" d="M1746.4,388.5c1.4-13.7,13-10.8,13-10.8C1760.1,389.3,1746.4,388.5,1746.4,388.5z"/>
					<path class="st2" d="M1721.9,409.5c-14,2.8-12.9-10.9-12.9-10.9C1722.3,396.8,1721.9,409.5,1721.9,409.5z"/>
					<path class="st8" d="M1732.2,427.3c-16.7-15.4-11.5-33.7,1.8-41.5c13.4-7.9,17.9,4.5,5.3,7c-17.6,3.6-24.3-18.2-5.3-25.7"/>
				</g>
			</g>
			<path class="st3" d="M1704,423c18.4-15.7,37.8-15,54.6,0.8L1704,423z"/>
			<path class="st7" d="M1762.6,419.2H1700v19.1c0,6.3,5.1,11.3,11.3,11.3h39.9c6.3,0,11.3-5.1,11.3-11.3V419.2z"/>
			<line class="st8" x1="1720" y1="428.7" x2="1762.6" y2="428.7"/>
			<line class="st8" x1="1700" y1="428.7" x2="1715.5" y2="428.7"/>
		</g>
	</g>
	<g>
		<path class="st2" d="M1921,347v-63.4c-9.6,8.3-15.4,17.7-18.9,27.4L1921,347z"/>
		<path class="st2" d="M1899.6,319.9c-1.7,7.6-2.3,15.3-2.6,22.9l16.7,19.5l-16.8-10.5c-0.1,18.1,0.3,35-8.1,47.5l18.1,22.2
			l-27.3-13c-2.2,1.5-4.7,2.9-7.6,4.2c-9,3.9-16.6,8.4-23,13.3l35.7,46.7l-49.6-32.9c-6.1,8.1-9.7,16.8-11.1,26l25.4,17.5l-25.9-5
			c0.6,9.7,3.4,19.7,8.2,29.7l89.4,0V353.2L1899.6,319.9z"/>
	</g>
	<g>
		<circle class="st10" cx="1897.3" cy="105.3" r="64.5"/>
		<circle class="st11" cx="1906.3" cy="106.3" r="64.5"/>
		<line class="st12" x1="1906.3" y1="41.8" x2="1906.3" y2="170.8"/>
		<line class="st12" x1="1841.8" y1="106.3" x2="1970.8" y2="106.3"/>
	</g>
	<g>
		<g>
			<g>
				<g>
					<path class="st2" d="M1085.7,71.8c2.4,3.3,4.2,7,5.1,11c1,4,1,8.1,0.9,12.1c-0.1,4-0.4,8-0.3,12c0.1,3.9,0.7,7.8,2.1,11.4
						c0.3,0.9,0.8,1.8,1.2,2.7c0.4,0.9,0.8,1.8,1.4,2.6l1.6,2.5l1.7,2.5c2.3,3.4,4.3,6.9,6,10.6c3.4,7.4,5.9,15.3,5.8,23.6l-1.3,0
						c-0.2-3.9-1-7.8-2.1-11.6c-1.1-3.8-2.6-7.5-4.3-11c-0.9-1.8-1.8-3.5-2.8-5.2c-1-1.7-2-3.4-3.2-5l-1.7-2.5l-1.7-2.6
						c-0.6-0.8-1-1.8-1.4-2.7c-0.4-0.9-0.9-1.9-1.2-2.9c-1.5-3.9-2-8.1-2-12.1c-0.1-4.1,0.3-8.1,0.6-12.1c0.3-4,0.3-7.9-0.4-11.8
						c-0.7-3.9-2.3-7.5-4.4-10.9L1085.7,71.8z"/>
					<path class="st2" d="M1114.6,152.7c-1.1-8.3-2.6-16.5-4.3-24.7c-1.7-8.2-3.7-16.4-5.3-24.6l-1.2-6.2c-0.3-2.1-0.7-4.2-1-6.2
						c-0.6-4.2-1.2-8.4-1.5-12.6c-0.7-8.4-0.6-16.8,0-25.3l1.3,0.1c-1.2,8.3-1.2,16.7-0.5,25.1c0.4,4.2,1.1,8.3,1.8,12.4
						c0.4,2.1,0.9,4.1,1.3,6.1l1.5,6.1c2.1,8.1,4.3,16.2,6,24.5c1.7,8.3,2.9,16.7,3.3,25.1L1114.6,152.7z"/>
					<path class="st2" d="M1108.5,117.3c-0.4-5.5,1.3-11,3.7-15.9c2.4-4.9,5.5-9.4,8.6-13.8c3.1-4.4,6.2-8.8,8.6-13.5
						c2.3-4.7,4.1-10,3.7-15.3h1.3c-0.2,1.4-0.3,2.7-0.5,4.1l-0.8,4c-0.4,1.3-0.8,2.6-1.2,3.9l-1.6,3.8c-2.3,4.9-5.4,9.4-8.4,13.9
						c-3,4.5-6,8.9-8.2,13.7c-2.3,4.8-3.4,10-3.9,15.2L1108.5,117.3z"/>
					<path class="st2" d="M1089.8,109.7c-0.9-2.5-1.8-5-3.2-7.2c-1.3-2.3-2.9-4.4-4.8-6.3c-1.8-1.9-3.8-3.7-6-5.3
						c-2.1-1.5-4.5-3-6.8-4l0.5-1.2c2.6,1.1,4.9,2.5,7.2,4.1c2.2,1.6,4.3,3.4,6.2,5.4c1.9,2,3.6,4.2,5.1,6.5
						c1.5,2.3,2.5,4.9,3.5,7.5L1089.8,109.7z"/>
					<path class="st2" d="M1117.1,149.1c0.8-6.3,2.7-12.4,5.4-18.1c2.6-5.8,5.8-11.1,9-16.5c3.2-5.3,6.4-10.7,8.8-16.4
						c2.4-5.7,4.2-11.7,4.5-17.9l1.3,0.1c-1.1,6.2-2.5,12.4-4.9,18.2c-2.3,5.9-5.2,11.4-8.3,16.9c-3.1,5.4-6.2,10.8-8.8,16.4
						c-1.3,2.8-2.4,5.7-3.4,8.6c-0.4,1.5-0.9,2.9-1.3,4.4l-1.1,4.5L1117.1,149.1z"/>
					<path class="st2" d="M1126.6,123.3c2.3-3,5.2-5.8,8.5-7.8c3.3-2.1,6.9-3.3,10.6-4.5c3.6-1.1,7.3-2.1,10.6-3.9
						c3.3-1.7,6.2-4.2,8.4-7.3l0.2,0.1c-2,3.2-4.8,6-8.2,7.8c-3.4,1.9-7,3-10.6,4.3c-3.6,1.2-7,2.6-10.1,4.6c-3.1,2-5.8,4.5-8.2,7.4
						L1126.6,123.3z"/>
					<g>
						<path class="st23" d="M1103,51.2c0,0-2.8-3.6-3.6-6c-0.8-2.1,1.4-2,1.4-2s-0.2-1.7,1.5-1.9c1.5-0.2,2,1.5,2,1.5
							c1.1-0.4,1.8,0.3,1.3,2.6C1105,47.4,1103,51.2,1103,51.2z"/>
						<path class="st23" d="M1103.2,51.4c0,0,2.4-3.9,4.3-5.5c1.7-1.5,2.4,0.6,2.4,0.6s1.5-0.8,2.3,0.7c0.7,1.4-0.7,2.4-0.7,2.4
							c0.8,0.9,0.3,1.8-1.9,2.2C1107.5,51.9,1103.2,51.4,1103.2,51.4z"/>
						<path class="st23" d="M1103.2,51.7c0,0,4.5,0.8,6.7,2c2,1,0.3,2.4,0.3,2.4s1.3,1.1,0.1,2.4c-1,1.2-2.5,0.2-2.5,0.2
							c-0.6,1.1-1.6,1-2.7-1C1104.2,55.9,1103.2,51.7,1103.2,51.7z"/>
						<path class="st23" d="M1102.9,51.8c0,0,0.8,4.5,0.5,7c-0.3,2.2-2.1,1.2-2.1,1.2s-0.6,1.6-2.2,1c-1.4-0.5-1.1-2.2-1.1-2.2
							c-1.2-0.2-1.5-1.1,0-2.9C1099.3,54.2,1102.9,51.8,1102.9,51.8z"/>
						<path class="st23" d="M1102.7,51.5c0,0-3.9,2.4-6.3,3c-2.1,0.5-1.9-1.6-1.9-1.6s-1.7,0-1.7-1.7c0-1.5,1.7-1.8,1.7-1.8
							c-0.3-1.2,0.5-1.8,2.7-1.1C1099.2,49.1,1102.7,51.5,1102.7,51.5z"/>
						<path class="st22" d="M1104.8,51.5c0,1-0.8,1.8-1.8,1.8s-1.8-0.8-1.8-1.8c0-1,0.8-1.8,1.8-1.8S1104.8,50.5,1104.8,51.5z"/>
					</g>
					<g>
						<path class="st23" d="M1134,59.1c0,0,1.9-5.1,3.7-7.4c1.6-2.1,2.9,0.1,2.9,0.1s1.5-1.3,2.8,0.3c1.1,1.4-0.3,2.9-0.3,2.9
							c1.1,0.9,0.8,2-1.7,3C1139.1,58.7,1134,59.1,1134,59.1z"/>
						<path class="st23" d="M1134,59.4c0,0,5.4-0.1,8.2,0.8c2.5,0.7,0.9,2.7,0.9,2.7s1.7,1,0.7,2.7c-0.9,1.6-2.8,0.8-2.8,0.8
							c-0.4,1.4-1.6,1.5-3.4-0.5C1136.2,64.1,1134,59.4,1134,59.4z"/>
						<path class="st23" d="M1133.7,59.6c0,0,2,5,2.2,7.9c0.2,2.6-2.2,1.9-2.2,1.9s-0.3,2-2.3,1.6c-1.8-0.3-1.8-2.4-1.8-2.4
							c-1.4,0.1-2-1-0.7-3.3C1130.1,63.3,1133.7,59.6,1133.7,59.6z"/>
						<path class="st23" d="M1133.4,59.3c0,0-4,3.7-6.6,4.9c-2.4,1.1-2.5-1.4-2.5-1.4s-1.9,0.4-2.4-1.5c-0.4-1.8,1.6-2.5,1.6-2.5
							c-0.6-1.3,0.2-2.2,2.9-1.9C1128.7,57.3,1133.4,59.3,1133.4,59.3z"/>
						<path class="st23" d="M1133.6,59c0,0-4.8-2.4-7-4.4c-1.9-1.8,0.4-2.8,0.4-2.8s-1.1-1.6,0.6-2.8c1.5-1,2.9,0.6,2.9,0.6
							c1-1,2.1-0.6,2.8,2C1133.7,53.9,1133.6,59,1133.6,59z"/>
						<path class="st22" d="M1134.9,61.1c-1,0.6-2.3,0.3-3-0.7c-0.6-1-0.3-2.3,0.7-3c1-0.6,2.3-0.3,3,0.7
							C1136.2,59.1,1135.9,60.5,1134.9,61.1z"/>
					</g>
					<g>
						<path class="st23" d="M1071,87.1c0,0,5.4-1.3,8.4-1.2c2.7,0.2,1.6,2.5,1.6,2.5s2,0.6,1.4,2.5c-0.5,1.8-2.6,1.5-2.6,1.5
							c-0.1,1.5-1.3,1.9-3.5,0.2C1074.3,91.2,1071,87.1,1071,87.1z"/>
						<path class="st23" d="M1070.8,87.3c0,0,3.2,4.5,4.1,7.4c0.8,2.6-1.8,2.4-1.8,2.4s0.2,2-1.9,2.2c-1.9,0.1-2.3-1.9-2.3-1.9
							c-1.4,0.4-2.2-0.5-1.5-3.2C1068,91.8,1070.8,87.3,1070.8,87.3z"/>
						<path class="st23" d="M1070.4,87.1c0,0-3.1,4.6-5.5,6.5c-2.1,1.7-2.8-0.8-2.8-0.8s-1.8,0.9-2.7-1c-0.8-1.7,1-2.9,1-2.9
							c-0.9-1.2-0.3-2.2,2.4-2.5C1065.3,86.2,1070.4,87.1,1070.4,87.1z"/>
						<path class="st23" d="M1070.5,86.8c0,0-5.4-1.2-8-2.8c-2.3-1.3-0.3-2.9-0.3-2.9s-1.5-1.4-0.1-2.9c1.3-1.3,3-0.1,3-0.1
							c0.8-1.3,2-1.1,3.2,1.4C1069.5,81.6,1070.5,86.8,1070.5,86.8z"/>
						<path class="st23" d="M1070.8,86.7c0,0-0.8-5.5-0.3-8.5c0.4-2.7,2.6-1.3,2.6-1.3s0.8-1.9,2.7-1.1c1.7,0.7,1.2,2.8,1.2,2.8
							c1.5,0.3,1.7,1.4-0.1,3.5C1075.3,83.9,1070.8,86.7,1070.8,86.7z"/>
						<path class="st22" d="M1069.8,89c-1.1-0.5-1.6-1.8-1.1-2.9c0.5-1.1,1.8-1.6,2.9-1.1c1.1,0.5,1.6,1.8,1.1,2.9
							C1072.3,89,1071,89.5,1069.8,89z"/>
					</g>
					<g>
						<path class="st23" d="M1145.6,79.9c0,0,3.9-1,6.1-0.8c1.9,0.1,1.1,1.8,1.1,1.8s1.4,0.4,1,1.8c-0.4,1.3-1.9,1.1-1.9,1.1
							c-0.1,1.1-0.9,1.4-2.5,0.2C1147.9,82.9,1145.6,79.9,1145.6,79.9z"/>
						<path class="st23" d="M1145.4,80.1c0,0,2.3,3.3,3,5.4c0.6,1.9-1.3,1.7-1.3,1.7s0.1,1.5-1.4,1.6c-1.3,0.1-1.7-1.4-1.7-1.4
							c-1,0.3-1.6-0.4-1.1-2.3C1143.4,83.3,1145.4,80.1,1145.4,80.1z"/>
						<path class="st23" d="M1145.2,79.9c0,0-2.2,3.3-4,4.7c-1.5,1.2-2.1-0.6-2.1-0.6s-1.3,0.6-2-0.7c-0.6-1.2,0.7-2.1,0.7-2.1
							c-0.7-0.8-0.2-1.6,1.8-1.8C1141.4,79.3,1145.2,79.9,1145.2,79.9z"/>
						<path class="st23" d="M1145.2,79.7c0,0-3.9-0.9-5.8-2c-1.7-1-0.2-2.1-0.2-2.1s-1.1-1,0-2.1c0.9-1,2.2-0.1,2.2-0.1
							c0.6-0.9,1.4-0.8,2.3,1C1144.5,75.9,1145.2,79.7,1145.2,79.7z"/>
						<path class="st23" d="M1145.5,79.6c0,0-0.6-4-0.2-6.1c0.3-1.9,1.9-1,1.9-1s0.6-1.4,1.9-0.8c1.2,0.5,0.9,2,0.9,2
							c1.1,0.2,1.3,1-0.1,2.5C1148.7,77.6,1145.5,79.6,1145.5,79.6z"/>
						<path class="st22" d="M1144.7,81.3c-0.8-0.4-1.2-1.3-0.8-2.1c0.4-0.8,1.3-1.2,2.1-0.8c0.8,0.4,1.2,1.3,0.8,2.1
							S1145.5,81.7,1144.7,81.3z"/>
					</g>
					<g>
						<g>
							<path class="st23" d="M1083.8,71.5c-4.1-5-2.6-8-2.1-8.7c0.5-0.6,6,3.9,4.7,9.3L1083.8,71.5z"/>
							<path class="st23" d="M1087.7,72.5c0.9-8.1-2.4-11.1-2.7-10.7c-2.1,3.5-0.2,11.1-0.2,11.1L1087.7,72.5z"/>
						</g>
						<path class="st2" d="M1087,75.1c-5.1-3.7-7.3-7.3-2.8-5.1c-0.8-4.4,1.2-3.1,2.4,0.1C1087.2,66.6,1089.8,67.7,1087,75.1z"/>
					</g>
					<g>
						<g>
							<path class="st23" d="M1161.6,100.5c2.2-6.1,5.6-6.4,6.3-6.3c0.8,0.1-0.2,7.1-5.5,8.8L1161.6,100.5z"/>
							<path class="st23" d="M1162.7,104.3c7.4-3.4,8.3-7.8,7.7-7.8c-4.1,0-9.6,5.6-9.6,5.6L1162.7,104.3z"/>
						</g>
						<path class="st2" d="M1160.2,105c0.5-6.3,2.5-10,2.9-5c3.3-3,3.3-0.5,1.1,2.2C1167.5,100.8,1167.9,103.6,1160.2,105z"/>
					</g>
					<path class="st2" d="M1090.8,97.7c2.7-8.4,0.3-10,7-12.6C1098.8,91.1,1094,92.8,1090.8,97.7z"/>
					<path class="st2" d="M1102,80.3c0.7-6.5,0.4-10.3,7.1-12.9C1110.1,73.5,1107,77,1102,80.3z"/>
					<path class="st2" d="M1138.7,103.8c-6.2-9.1-4.8-9.9-3.8-16.6C1139.6,92,1139.9,96.1,1138.7,103.8z"/>
					<path class="st2" d="M1126.2,126c-6.2-9.1-4.8-9.9-3.8-16.6C1127.1,114.1,1127.4,118.3,1126.2,126z"/>
					<path class="st2" d="M1081.3,118.7c11.1-0.3,8.8,0.4,13.9,4.9C1088.6,125,1087.1,124,1081.3,118.7z"/>
					<path class="st2" d="M1094.6,95.6c10.6,3.3,8.2,3.2,11.6,9C1099.5,103.9,1098.4,102.5,1094.6,95.6z"/>
					<path class="st2" d="M1135.2,79.7c-7.1,8.5-6.1,6.3-12.8,7.1C1125.6,81,1127.4,80.5,1135.2,79.7z"/>
					<path class="st2" d="M1150.2,99.3c-7.1,8.5-6.1,6.3-12.8,7.1C1140.7,100.7,1142.4,100.2,1150.2,99.3z"/>
					<path class="st2" d="M1148.8,110.5c10.9-2.2,8.7-1.1,14.5,2.4C1157.1,115.4,1155.4,114.7,1148.8,110.5z"/>
					<path class="st2" d="M1118.3,92.8c-2.8-5.9-5-9-0.5-14.7C1121.6,82.8,1120.8,87.4,1118.3,92.8z"/>
					<path class="st2" d="M1119,104.7c-3.2,10.6-3.1,8.2-9,11.6C1110.8,109.7,1112.2,108.5,1119,104.7z"/>
				</g>
				<path class="st22" d="M1146.6,127.6l-1.4,8.3l-1.5,9.1l-3.6,22.1c-0.3,1.7-0.8,3.4-1.4,4.9c-1.2,2.9-2.9,5.5-5.1,7.7
					c-4.2,4.3-10.1,6.9-16.5,6.9c-6.4,0-12.2-2.6-16.5-6.9c-2.2-2.2-3.9-4.8-5.1-7.7c-0.6-1.6-1.1-3.2-1.4-4.9l-3.6-22.1l-1.5-9.1
					l-1.4-8.3H1146.6z"/>
				<line class="st27" x1="1089.3" y1="138.6" x2="1144.6" y2="138.6"/>
				<line class="st27" x1="1094.6" y1="169.6" x2="1139.5" y2="169.6"/>
				<line class="st27" x1="1096.8" y1="174.7" x2="1137.3" y2="174.7"/>
				<line class="st27" x1="1088.4" y1="132.4" x2="1145.8" y2="132.4"/>
				<polygon class="st28" points="1092.6,157 1104.9,127.6 1117.2,157 1131.6,127.6 1141.8,157 1128.3,183.7 1117.2,157 
					1105.9,183.6 				"/>
				<polyline class="st8" points="1104.9,127.6 1117.2,67.8 1131.6,127.6 				"/>
				<polyline class="st8" points="1092.6,127.6 1117.2,67.8 1141.8,127.6 				"/>
			</g>
			<line class="st8" x1="1117.2" y1="67.8" x2="1117.2" y2="-78"/>
		</g>
		<g>
			<g>
				<g>
					<path class="st2" d="M1670.7,71.8c2.4,3.3,4.2,7,5.1,11c1,4,1,8.1,0.9,12.1c-0.1,4-0.4,8-0.3,12c0.1,3.9,0.7,7.8,2.1,11.4
						c0.3,0.9,0.8,1.8,1.2,2.7c0.4,0.9,0.8,1.8,1.4,2.6l1.6,2.5l1.7,2.5c2.3,3.4,4.3,6.9,6,10.6c3.4,7.4,5.9,15.3,5.8,23.6l-1.3,0
						c-0.2-3.9-1-7.8-2.1-11.6c-1.1-3.8-2.6-7.5-4.3-11c-0.9-1.8-1.8-3.5-2.8-5.2c-1-1.7-2-3.4-3.2-5l-1.7-2.5l-1.7-2.6
						c-0.6-0.8-1-1.8-1.4-2.7c-0.4-0.9-0.9-1.9-1.2-2.9c-1.5-3.9-2-8.1-2-12.1c-0.1-4.1,0.3-8.1,0.6-12.1c0.3-4,0.3-7.9-0.4-11.8
						c-0.7-3.9-2.3-7.5-4.4-10.9L1670.7,71.8z"/>
					<path class="st2" d="M1699.6,152.7c-1.1-8.3-2.6-16.5-4.3-24.7c-1.7-8.2-3.7-16.4-5.3-24.6l-1.2-6.2c-0.3-2.1-0.7-4.2-1-6.2
						c-0.6-4.2-1.2-8.4-1.5-12.6c-0.7-8.4-0.6-16.8,0-25.3l1.3,0.1c-1.2,8.3-1.2,16.7-0.5,25.1c0.4,4.2,1.1,8.3,1.8,12.4
						c0.4,2.1,0.9,4.1,1.3,6.1l1.5,6.1c2.1,8.1,4.3,16.2,6,24.5c1.7,8.3,2.9,16.7,3.3,25.1L1699.6,152.7z"/>
					<path class="st2" d="M1693.5,117.3c-0.4-5.5,1.3-11,3.7-15.9c2.4-4.9,5.5-9.4,8.6-13.8c3.1-4.4,6.2-8.8,8.6-13.5
						c2.3-4.7,4.1-10,3.7-15.3h1.3c-0.2,1.4-0.3,2.7-0.5,4.1l-0.8,4c-0.4,1.3-0.8,2.6-1.2,3.9l-1.6,3.8c-2.3,4.9-5.4,9.4-8.4,13.9
						c-3,4.5-6,8.9-8.2,13.7c-2.3,4.8-3.4,10-3.9,15.2L1693.5,117.3z"/>
					<path class="st2" d="M1674.8,109.7c-0.9-2.5-1.8-5-3.2-7.2c-1.3-2.3-2.9-4.4-4.8-6.3c-1.8-1.9-3.8-3.7-6-5.3
						c-2.1-1.5-4.5-3-6.8-4l0.5-1.2c2.6,1.1,4.9,2.5,7.2,4.1c2.2,1.6,4.3,3.4,6.2,5.4c1.9,2,3.6,4.2,5.1,6.5
						c1.5,2.3,2.5,4.9,3.5,7.5L1674.8,109.7z"/>
					<path class="st2" d="M1702.1,149.1c0.8-6.3,2.7-12.4,5.4-18.1c2.6-5.8,5.8-11.1,9-16.5c3.2-5.3,6.4-10.7,8.8-16.4
						c2.4-5.7,4.2-11.7,4.5-17.9l1.3,0.1c-1.1,6.2-2.5,12.4-4.9,18.2c-2.3,5.9-5.2,11.4-8.3,16.9c-3.1,5.4-6.2,10.8-8.8,16.4
						c-1.3,2.8-2.4,5.7-3.4,8.6c-0.4,1.5-0.9,2.9-1.3,4.4l-1.1,4.5L1702.1,149.1z"/>
					<path class="st2" d="M1711.6,123.3c2.3-3,5.2-5.8,8.5-7.8c3.3-2.1,6.9-3.3,10.6-4.5c3.6-1.1,7.3-2.1,10.6-3.9
						c3.3-1.7,6.2-4.2,8.4-7.3l0.2,0.1c-2,3.2-4.8,6-8.2,7.8c-3.4,1.9-7,3-10.6,4.3c-3.6,1.2-7,2.6-10.1,4.6c-3.1,2-5.8,4.5-8.2,7.4
						L1711.6,123.3z"/>
					<g>
						<path class="st23" d="M1688,51.2c0,0-2.8-3.6-3.6-6c-0.8-2.1,1.4-2,1.4-2s-0.2-1.7,1.5-1.9c1.5-0.2,2,1.5,2,1.5
							c1.1-0.4,1.8,0.3,1.3,2.6C1690,47.4,1688,51.2,1688,51.2z"/>
						<path class="st23" d="M1688.2,51.4c0,0,2.4-3.9,4.3-5.5c1.7-1.5,2.4,0.6,2.4,0.6s1.5-0.8,2.3,0.7c0.7,1.4-0.7,2.4-0.7,2.4
							c0.8,0.9,0.3,1.8-1.9,2.2C1692.5,51.9,1688.2,51.4,1688.2,51.4z"/>
						<path class="st23" d="M1688.2,51.7c0,0,4.5,0.8,6.7,2c2,1,0.3,2.4,0.3,2.4s1.3,1.1,0.1,2.4c-1,1.2-2.5,0.2-2.5,0.2
							c-0.6,1.1-1.6,1-2.7-1C1689.2,55.9,1688.2,51.7,1688.2,51.7z"/>
						<path class="st23" d="M1687.9,51.8c0,0,0.8,4.5,0.5,7c-0.3,2.2-2.1,1.2-2.1,1.2s-0.6,1.6-2.2,1c-1.4-0.5-1.1-2.2-1.1-2.2
							c-1.2-0.2-1.5-1.1,0-2.9C1684.3,54.2,1687.9,51.8,1687.9,51.8z"/>
						<path class="st23" d="M1687.7,51.5c0,0-3.9,2.4-6.3,3c-2.1,0.5-1.9-1.6-1.9-1.6s-1.7,0-1.7-1.7c0-1.5,1.7-1.8,1.7-1.8
							c-0.3-1.2,0.5-1.8,2.7-1.1C1684.2,49.1,1687.7,51.5,1687.7,51.5z"/>
						<path class="st22" d="M1689.8,51.5c0,1-0.8,1.8-1.8,1.8s-1.8-0.8-1.8-1.8c0-1,0.8-1.8,1.8-1.8S1689.8,50.5,1689.8,51.5z"/>
					</g>
					<g>
						<path class="st23" d="M1719,59.1c0,0,1.9-5.1,3.7-7.4c1.6-2.1,2.9,0.1,2.9,0.1s1.5-1.3,2.8,0.3c1.1,1.4-0.3,2.9-0.3,2.9
							c1.1,0.9,0.8,2-1.7,3C1724.1,58.7,1719,59.1,1719,59.1z"/>
						<path class="st23" d="M1719,59.4c0,0,5.4-0.1,8.2,0.8c2.5,0.7,0.9,2.7,0.9,2.7s1.7,1,0.7,2.7c-0.9,1.6-2.8,0.8-2.8,0.8
							c-0.4,1.4-1.6,1.5-3.4-0.5C1721.2,64.1,1719,59.4,1719,59.4z"/>
						<path class="st23" d="M1718.7,59.6c0,0,2,5,2.2,7.9c0.2,2.6-2.2,1.9-2.2,1.9s-0.3,2-2.3,1.6c-1.8-0.3-1.8-2.4-1.8-2.4
							c-1.4,0.1-2-1-0.7-3.3C1715.1,63.3,1718.7,59.6,1718.7,59.6z"/>
						<path class="st23" d="M1718.4,59.3c0,0-4,3.7-6.6,4.9c-2.4,1.1-2.5-1.4-2.5-1.4s-1.9,0.4-2.4-1.5c-0.4-1.8,1.6-2.5,1.6-2.5
							c-0.6-1.3,0.2-2.2,2.9-1.9C1713.7,57.3,1718.4,59.3,1718.4,59.3z"/>
						<path class="st23" d="M1718.6,59c0,0-4.8-2.4-7-4.4c-1.9-1.8,0.4-2.8,0.4-2.8s-1.1-1.6,0.6-2.8c1.5-1,2.9,0.6,2.9,0.6
							c1-1,2.1-0.6,2.8,2C1718.7,53.9,1718.6,59,1718.6,59z"/>
						<path class="st22" d="M1719.9,61.1c-1,0.6-2.3,0.3-3-0.7c-0.6-1-0.3-2.3,0.7-3c1-0.6,2.3-0.3,3,0.7
							C1721.2,59.1,1720.9,60.5,1719.9,61.1z"/>
					</g>
					<g>
						<path class="st23" d="M1656,87.1c0,0,5.4-1.3,8.4-1.2c2.7,0.2,1.6,2.5,1.6,2.5s2,0.6,1.4,2.5c-0.5,1.8-2.6,1.5-2.6,1.5
							c-0.1,1.5-1.3,1.9-3.5,0.2C1659.3,91.2,1656,87.1,1656,87.1z"/>
						<path class="st23" d="M1655.8,87.3c0,0,3.2,4.5,4.1,7.4c0.8,2.6-1.8,2.4-1.8,2.4s0.2,2-1.9,2.2c-1.9,0.1-2.3-1.9-2.3-1.9
							c-1.4,0.4-2.2-0.5-1.5-3.2C1653,91.8,1655.8,87.3,1655.8,87.3z"/>
						<path class="st23" d="M1655.4,87.1c0,0-3.1,4.6-5.5,6.5c-2.1,1.7-2.8-0.8-2.8-0.8s-1.8,0.9-2.7-1c-0.8-1.7,1-2.9,1-2.9
							c-0.9-1.2-0.3-2.2,2.4-2.5C1650.3,86.2,1655.4,87.1,1655.4,87.1z"/>
						<path class="st23" d="M1655.5,86.8c0,0-5.4-1.2-8-2.8c-2.3-1.3-0.3-2.9-0.3-2.9s-1.5-1.4-0.1-2.9c1.3-1.3,3-0.1,3-0.1
							c0.8-1.3,2-1.1,3.2,1.4C1654.5,81.6,1655.5,86.8,1655.5,86.8z"/>
						<path class="st23" d="M1655.8,86.7c0,0-0.8-5.5-0.3-8.5c0.4-2.7,2.6-1.3,2.6-1.3s0.8-1.9,2.7-1.1c1.7,0.7,1.2,2.8,1.2,2.8
							c1.5,0.3,1.7,1.4-0.1,3.5C1660.3,83.9,1655.8,86.7,1655.8,86.7z"/>
						<path class="st22" d="M1654.8,89c-1.1-0.5-1.6-1.8-1.1-2.9c0.5-1.1,1.8-1.6,2.9-1.1c1.1,0.5,1.6,1.8,1.1,2.9
							C1657.3,89,1656,89.5,1654.8,89z"/>
					</g>
					<g>
						<path class="st23" d="M1730.6,79.9c0,0,3.9-1,6.1-0.8c1.9,0.1,1.1,1.8,1.1,1.8s1.4,0.4,1,1.8c-0.4,1.3-1.9,1.1-1.9,1.1
							c-0.1,1.1-0.9,1.4-2.5,0.2C1732.9,82.9,1730.6,79.9,1730.6,79.9z"/>
						<path class="st23" d="M1730.4,80.1c0,0,2.3,3.3,3,5.4c0.6,1.9-1.3,1.7-1.3,1.7s0.1,1.5-1.4,1.6c-1.3,0.1-1.7-1.4-1.7-1.4
							c-1,0.3-1.6-0.4-1.1-2.3C1728.4,83.3,1730.4,80.1,1730.4,80.1z"/>
						<path class="st23" d="M1730.2,79.9c0,0-2.2,3.3-4,4.7c-1.5,1.2-2.1-0.6-2.1-0.6s-1.3,0.6-2-0.7c-0.6-1.2,0.7-2.1,0.7-2.1
							c-0.7-0.8-0.2-1.6,1.8-1.8C1726.4,79.3,1730.2,79.9,1730.2,79.9z"/>
						<path class="st23" d="M1730.2,79.7c0,0-3.9-0.9-5.8-2c-1.7-1-0.2-2.1-0.2-2.1s-1.1-1,0-2.1c0.9-1,2.2-0.1,2.2-0.1
							c0.6-0.9,1.4-0.8,2.3,1C1729.5,75.9,1730.2,79.7,1730.2,79.7z"/>
						<path class="st23" d="M1730.5,79.6c0,0-0.6-4-0.2-6.1c0.3-1.9,1.9-1,1.9-1s0.6-1.4,1.9-0.8c1.2,0.5,0.9,2,0.9,2
							c1.1,0.2,1.3,1-0.1,2.5C1733.7,77.6,1730.5,79.6,1730.5,79.6z"/>
						<path class="st22" d="M1729.7,81.3c-0.8-0.4-1.2-1.3-0.8-2.1c0.4-0.8,1.3-1.2,2.1-0.8c0.8,0.4,1.2,1.3,0.8,2.1
							S1730.5,81.7,1729.7,81.3z"/>
					</g>
					<g>
						<g>
							<path class="st23" d="M1668.8,71.5c-4.1-5-2.6-8-2.1-8.7c0.5-0.6,6,3.9,4.7,9.3L1668.8,71.5z"/>
							<path class="st23" d="M1672.7,72.5c0.9-8.1-2.4-11.1-2.7-10.7c-2.1,3.5-0.2,11.1-0.2,11.1L1672.7,72.5z"/>
						</g>
						<path class="st2" d="M1672,75.1c-5.1-3.7-7.3-7.3-2.8-5.1c-0.8-4.4,1.2-3.1,2.4,0.1C1672.2,66.6,1674.8,67.7,1672,75.1z"/>
					</g>
					<g>
						<g>
							<path class="st23" d="M1746.6,100.5c2.2-6.1,5.6-6.4,6.3-6.3c0.8,0.1-0.2,7.1-5.5,8.8L1746.6,100.5z"/>
							<path class="st23" d="M1747.7,104.3c7.4-3.4,8.3-7.8,7.7-7.8c-4.1,0-9.6,5.6-9.6,5.6L1747.7,104.3z"/>
						</g>
						<path class="st2" d="M1745.2,105c0.5-6.3,2.5-10,2.9-5c3.3-3,3.3-0.5,1.1,2.2C1752.5,100.8,1752.9,103.6,1745.2,105z"/>
					</g>
					<path class="st2" d="M1675.8,97.7c2.7-8.4,0.3-10,7-12.6C1683.8,91.1,1679,92.8,1675.8,97.7z"/>
					<path class="st2" d="M1687,80.3c0.7-6.5,0.4-10.3,7.1-12.9C1695.1,73.5,1692,77,1687,80.3z"/>
					<path class="st2" d="M1723.7,103.8c-6.2-9.1-4.8-9.9-3.8-16.6C1724.6,92,1724.9,96.1,1723.7,103.8z"/>
					<path class="st2" d="M1711.2,126c-6.2-9.1-4.8-9.9-3.8-16.6C1712.1,114.1,1712.4,118.3,1711.2,126z"/>
					<path class="st2" d="M1666.3,118.7c11.1-0.3,8.8,0.4,13.9,4.9C1673.6,125,1672.1,124,1666.3,118.7z"/>
					<path class="st2" d="M1679.6,95.6c10.6,3.3,8.2,3.2,11.6,9C1684.5,103.9,1683.4,102.5,1679.6,95.6z"/>
					<path class="st2" d="M1720.2,79.7c-7.1,8.5-6.1,6.3-12.8,7.1C1710.6,81,1712.4,80.5,1720.2,79.7z"/>
					<path class="st2" d="M1735.2,99.3c-7.1,8.5-6.1,6.3-12.8,7.1C1725.7,100.7,1727.4,100.2,1735.2,99.3z"/>
					<path class="st2" d="M1733.8,110.5c10.9-2.2,8.7-1.1,14.5,2.4C1742.1,115.4,1740.4,114.7,1733.8,110.5z"/>
					<path class="st2" d="M1703.3,92.8c-2.8-5.9-5-9-0.5-14.7C1706.6,82.8,1705.8,87.4,1703.3,92.8z"/>
					<path class="st2" d="M1704,104.7c-3.2,10.6-3.1,8.2-9,11.6C1695.8,109.7,1697.2,108.5,1704,104.7z"/>
				</g>
				<path class="st22" d="M1731.6,127.6l-1.4,8.3l-1.5,9.1l-3.6,22.1c-0.3,1.7-0.8,3.4-1.4,4.9c-1.2,2.9-2.9,5.5-5.1,7.7
					c-4.2,4.3-10.1,6.9-16.5,6.9c-6.4,0-12.2-2.6-16.5-6.9c-2.2-2.2-3.9-4.8-5.1-7.7c-0.6-1.6-1.1-3.2-1.4-4.9l-3.6-22.1l-1.5-9.1
					l-1.4-8.3H1731.6z"/>
				<line class="st27" x1="1674.3" y1="138.6" x2="1729.6" y2="138.6"/>
				<line class="st27" x1="1679.6" y1="169.6" x2="1724.5" y2="169.6"/>
				<line class="st27" x1="1681.8" y1="174.7" x2="1722.3" y2="174.7"/>
				<line class="st27" x1="1673.4" y1="132.4" x2="1730.8" y2="132.4"/>
				<polygon class="st28" points="1677.6,157 1689.9,127.6 1702.2,157 1716.6,127.6 1726.8,157 1713.3,183.7 1702.2,157 
					1690.9,183.6 				"/>
				<polyline class="st8" points="1689.9,127.6 1702.2,67.8 1716.6,127.6 				"/>
				<polyline class="st8" points="1677.6,127.6 1702.2,67.8 1726.8,127.6 				"/>
			</g>
			<line class="st8" x1="1702.2" y1="67.8" x2="1702.2" y2="-78"/>
		</g>
		<g>
			<g>
				<g>
					<g>
						<g>
							<g>
								<path class="st2" d="M570.4,56.3c-1.9,3.7-3.8,7.4-5.6,11.1l-2.5,5.7c-0.8,1.9-1.7,3.8-2.4,5.7c-1.5,3.9-3,7.7-4.3,11.7
									c-0.6,2-1.3,3.9-1.9,5.9l-1.7,6c-2.1,8-3.9,16.1-5,24.3c-0.5,4.1-1,8.2-1.1,12.3c-0.2,4.1-0.2,8.3,0.2,12.3l-1,0.2
									c-0.7-4.2-0.8-8.4-0.7-12.5c0-4.2,0.4-8.3,0.9-12.5c1-8.3,2.9-16.5,5.3-24.4l1.9-6c0.7-2,1.4-3.9,2.1-5.9
									c1.4-3.9,3-7.7,4.6-11.6c0.7-1.9,1.7-3.8,2.5-5.7l2.6-5.7l5.6-11.1L570.4,56.3z"/>
							</g>
							<g>
								<path class="st2" d="M531.7,151.9c-0.3-6.8-1.1-13.7-2.9-20.3c-1.8-6.6-4.6-12.9-7.6-19c-3.1-6.1-6.4-12.2-9-18.6
									c-0.7-1.6-1.2-3.3-1.8-4.9c-0.5-1.7-0.9-3.3-1.3-5l-0.9-5.1l-0.4-5.2l0.4,0l0.5,5.1l1,5.1c0.5,1.6,0.9,3.3,1.4,4.9l0.9,2.4
									c0.3,0.8,0.6,1.6,0.9,2.4c2.7,6.3,6.2,12.2,9.4,18.4c3.2,6.1,5.9,12.6,7.7,19.3c0.5,1.7,0.8,3.4,1.2,5.1
									c0.2,0.9,0.4,1.7,0.5,2.6l0.3,2.6c0.5,3.4,0.5,6.9,0.7,10.4L531.7,151.9z"/>
							</g>
							<g>
								<path class="st2" d="M547.2,116.3c2.2-3.5,4.7-6.9,7.6-9.9c2.9-3,6.2-5.6,9.6-7.9c3.4-2.3,7-4.5,9.9-7.3
									c0.8-0.7,1.4-1.5,2.1-2.3c0.6-0.8,1.2-1.7,1.8-2.5c0.5-0.9,1-1.8,1.5-2.7l1.2-2.8l0.5,0.2c-1.5,3.9-3.6,7.6-6.6,10.5
									c-3,2.9-6.5,5.2-9.8,7.6c-3.4,2.4-6.5,5-9.3,8c-2.7,3-5,6.4-7.1,10L547.2,116.3z"/>
							</g>
							<g>
								<path class="st2" d="M546.8,144.6c1-4.7,2.7-9.2,5-13.5c1.2-2.1,2.5-4.1,4-6c1.5-1.9,3.1-3.6,4.8-5.3
									c3.5-3.2,7.5-6,11.7-8.1c4.2-2.1,8.7-3.7,13.4-4.6l0.1,0.3c-4.6,1-9,2.8-13.1,4.9c-4.1,2.2-7.9,5-11.3,8.3
									c-1.7,1.6-3.2,3.4-4.6,5.3c-1.4,1.9-2.6,3.9-3.7,5.9c-2.1,4.1-3.5,8.6-4.4,13.1L546.8,144.6z"/>
							</g>
							<g>
								<path class="st2" d="M523,116.2c-0.9-1.2-1.7-2.4-2.7-3.6l-1.4-1.7l-0.7-0.9l-0.8-0.8l-1.5-1.6c-0.5-0.5-1.1-1-1.6-1.5
									c-1.1-1-2.2-1.9-3.4-2.9c-2.4-1.8-4.9-3.4-7.5-4.8c-2.6-1.3-5.4-2.5-8.3-3.1l0.1-0.5c3,0.6,5.8,1.7,8.5,3
									c2.7,1.3,5.3,2.9,7.7,4.7c1.2,0.9,2.4,1.8,3.5,2.9c0.6,0.5,1.1,1,1.7,1.5l1.6,1.6l0.8,0.8l0.7,0.9l1.5,1.7
									c1,1.2,1.8,2.4,2.8,3.6L523,116.2z"/>
							</g>
							<g>
								<path class="st2" d="M537.7,141.8c0.4-7.5,0.4-15.1-0.5-22.6c-0.9-7.5-2.9-14.8-5.2-22c-2.3-7.2-5.1-14.3-6.9-21.7
									c-0.3-0.9-0.4-1.9-0.6-2.8l-0.6-2.8c-0.3-1.9-0.5-3.8-0.7-5.7c-0.1-1.9-0.2-3.8-0.2-5.7l0.3-5.7l0.5,0l-0.2,5.7
									c0.1,1.9,0.2,3.8,0.3,5.6c0.3,1.9,0.5,3.7,0.8,5.6l0.6,2.8c0.2,0.9,0.4,1.8,0.6,2.8c1.9,7.3,4.7,14.4,7.1,21.6
									c0.6,1.8,1.2,3.6,1.7,5.4c0.6,1.8,1,3.7,1.5,5.5c0.5,1.9,0.8,3.7,1.2,5.6c0.4,1.9,0.6,3.8,0.9,5.7
									c0.9,7.6,0.9,15.2,0.3,22.8L537.7,141.8z"/>
							</g>
							<g>
								<path class="st2" d="M540.7,136.4c-0.5-4.1-0.8-8.3-0.5-12.5c0.3-4.2,1.2-8.3,2.3-12.2c1.2-4,2.5-7.9,2.9-12
									c0.2-1,0.1-2,0.2-3.1c0-1-0.1-2-0.2-3.1c-0.2-1-0.4-2-0.6-3l-0.9-2.9l0.5-0.2c1.4,3.9,2.1,8.1,1.6,12.3
									c-0.4,4.2-1.7,8.1-2.7,12.1c-1.1,4-1.8,8-2,12.1c-0.2,4.1,0.3,8.2,0.9,12.2L540.7,136.4z"/>
							</g>
						</g>
						<path class="st2" d="M528.4,85.1c-1.9-8.3,0.1-15.4,3.8-20.1L528.4,85.1z"/>
						<path class="st2" d="M532.2,96c-6.9-10-12.7-8.7-12.7-8.7L532.2,96z"/>
						<path class="st2" d="M533.7,100.7c-2.8-12.9,2.8-17.9,2.8-17.9L533.7,100.7z"/>
						<path class="st2" d="M558.9,80.1c2.2-13.5-3.6-16.7-3.6-16.7L558.9,80.1z"/>
						<path class="st2" d="M555.3,89.5c7.8-11,16.7-10.2,16.7-10.2L555.3,89.5z"/>
						<path class="st2" d="M537.1,95.7c8.1,8.9,5.6,16.5,5.6,16.5L537.1,95.7z"/>
						<path class="st2" d="M567.7,96.6c10.4-2.4,15.1,2.2,15.1,2.2L567.7,96.6z"/>
						<path class="st2" d="M562.8,100c7.2-8.7,4.9-13.9,4.9-13.9L562.8,100z"/>
						<path class="st2" d="M565.9,116.6c8.8-8.2,7.5-13.8,7.5-13.8L565.9,116.6z"/>
						<path class="st2" d="M575.5,118.8l-17.5,4.1C558,122.9,568,115.5,575.5,118.8z"/>
						<path class="st2" d="M516.1,101.6c-3.6-12.3,1.4-18.8,1.4-18.8L516.1,101.6z"/>
						<path class="st2" d="M516.8,107.9c-12.1-5.4-19.4,0-19.4,0H516.8z"/>
						<path class="st2" d="M526.8,123c-8.4-8-16-2.4-16-2.4L526.8,123z"/>
					</g>
					<g>
						<path class="st19" d="M508.6,76.2c-3.2-2.5-3.1-7.5,0.3-10.8C512.6,70.3,511.4,72.3,508.6,76.2z"/>
						<g>
							<path class="st2" d="M508.6,79c-3.9-5.4-4.8-9.9-1-6c0.7-4.7,2.3-2.7,2.4,1C511.7,70.6,514,72.6,508.6,79z"/>
						</g>
						<path class="st19" d="M508.9,67.1l2.8-1.3c0,0-0.1-1.9-1.8-0.7c-0.6-1.8-1.3-1.4-1.9-0.3c-1.3-1-1.8,0.2-1.8,0.2L508.9,67.1z"
							/>
					</g>
					<g>
						<path class="st19" d="M577.6,87c-1.5-3.8,1.1-8.1,5.6-9.2C584.1,83.8,581.9,85,577.6,87z"/>
						<g>
							<path class="st2" d="M576.2,89.4c-0.7-6.7,0.7-11,2.1-5.8c2.9-3.7,3.3-1.2,1.6,2C583.1,83.6,584.1,86.5,576.2,89.4z"/>
						</g>
						<path class="st19" d="M582.4,79.2l3,0.3c0,0,0.9-1.7-1.2-1.5c0.4-1.8-0.4-1.9-1.5-1.2c-0.6-1.5-1.7-0.7-1.7-0.7L582.4,79.2z"
							/>
					</g>
					<g>
						<path class="st19" d="M545.2,95.6c-3.5-2-4.1-7-1.2-10.7C548.4,89.1,547.4,91.4,545.2,95.6z"/>
						<g>
							<path class="st2" d="M545.7,98.4c-4.6-4.8-6.2-9.1-1.9-5.8c0-4.7,1.9-3,2.5,0.6C547.6,89.6,550.1,91.2,545.7,98.4z"/>
						</g>
						<path class="st19" d="M544.3,86.5l2.5-1.7c0,0-0.4-1.9-1.9-0.4c-0.8-1.7-1.5-1.2-1.9,0c-1.4-0.8-1.7,0.5-1.7,0.5L544.3,86.5z"
							/>
					</g>
					<g>
						<path class="st19" d="M523.3,53.1c-3.2-2.5-3.1-7.5,0.3-10.8C526.3,46.8,526.1,49.2,523.3,53.1z"/>
						<path class="st19" d="M523.3,53.1c1.4-3.8,6.2-5.3,10.3-3.2C530.2,54,527.9,54.5,523.3,53.1z"/>
						<path class="st19" d="M523.3,53.1c4.1,0.1,7,4.1,6.3,8.7C524.7,59.9,523.5,57.9,523.3,53.1z"/>
						<path class="st19" d="M523.3,53.1c1.2,3.9-1.6,8-6.2,8.8C517.3,56.6,518.8,54.8,523.3,53.1z"/>
						<path class="st19" d="M523.3,53.1c-3.3,2.4-8.1,1-10.3-3.1C518,48.5,520.2,49.4,523.3,53.1z"/>
						<path class="st22" d="M522.8,54.6c-0.9-0.4-1.3-1.4-0.9-2.2c0.4-0.9,1.4-1.3,2.2-0.9c0.9,0.4,1.3,1.4,0.9,2.2
							C524.6,54.6,523.6,55,522.8,54.6z"/>
					</g>
					<g>
						<path class="st19" d="M496.6,94c-4-0.5-6.6-4.8-5.4-9.3C495.9,87,496.9,89.2,496.6,94z"/>
						<path class="st19" d="M496.6,94c-0.9-4,2.4-7.8,7.1-8.1C502.9,91.1,501.2,92.7,496.6,94z"/>
						<path class="st19" d="M496.6,94c3.5-2.1,8.1-0.2,10,4.1C501.4,99,499.3,97.9,496.6,94z"/>
						<path class="st19" d="M496.6,94c3.1,2.6,2.9,7.6-0.6,10.8C493.4,100.2,493.7,97.8,496.6,94z"/>
						<path class="st19" d="M496.6,94c-1.5,3.8-6.3,5.2-10.4,2.9C489.7,92.9,492.1,92.5,496.6,94z"/>
						<path class="st22" d="M497,95.6c-0.9,0.1-1.8-0.5-1.9-1.4c-0.1-0.9,0.5-1.8,1.4-1.9c0.9-0.1,1.8,0.5,1.9,1.4
							C498.6,94.6,497.9,95.4,497,95.6z"/>
					</g>
					<g>
						<path class="st19" d="M570.8,56.8c-3.9-1.2-5.6-5.9-3.6-10.1C571.3,49.9,571.9,52.2,570.8,56.8z"/>
						<path class="st19" d="M570.8,56.8c-0.1-4.1,3.8-7.2,8.4-6.7C577.5,55.1,575.6,56.4,570.8,56.8z"/>
						<path class="st19" d="M570.8,56.8c3.8-1.4,8.1,1.2,9.1,5.8C574.6,62.7,572.7,61.2,570.8,56.8z"/>
						<path class="st19" d="M570.8,56.8c2.6,3.1,1.4,8-2.6,10.5C566.5,62.3,567.3,60.1,570.8,56.8z"/>
						<path class="st19" d="M570.8,56.8c-2.1,3.4-7.1,3.9-10.7,0.9C564.2,54.5,566.6,54.5,570.8,56.8z"/>
						<path class="st22" d="M570.9,58.4c-0.9,0-1.7-0.8-1.6-1.8c0-0.9,0.8-1.7,1.8-1.6c0.9,0,1.7,0.8,1.6,1.8S571.8,58.5,570.9,58.4
							z"/>
					</g>
					<g>
						<path class="st19" d="M585.6,108.4c-1.6-3.7,0.9-8.1,5.4-9.3C591.2,104.4,589.9,106.3,585.6,108.4z"/>
						<path class="st19" d="M585.6,108.4c3-2.7,8-1.8,10.6,2.1C591.2,112.5,588.9,111.8,585.6,108.4z"/>
						<path class="st19" d="M585.6,108.4c3.5,2,4.2,7,1.4,10.7C583.5,115.1,583.4,112.7,585.6,108.4z"/>
						<path class="st19" d="M585.6,108.4c-0.7,4-5.2,6.3-9.7,4.8C578.6,108.6,580.8,107.8,585.6,108.4z"/>
						<path class="st19" d="M585.6,108.4c-4,0.6-7.6-2.9-7.6-7.6C583.1,101.9,584.6,103.7,585.6,108.4z"/>
						<path class="st22" d="M584.4,109.5c-0.6-0.7-0.5-1.8,0.3-2.4c0.7-0.6,1.8-0.5,2.4,0.3c0.6,0.7,0.5,1.8-0.3,2.4
							C586,110.4,585,110.3,584.4,109.5z"/>
					</g>
				</g>
				<path class="st23" d="M543.2,186.5L543.2,186.5c-11.4,0-21.1-8.2-23-19.5l-6.5-39.4h58.9l-6.5,39.4
					C564.3,178.3,554.6,186.5,543.2,186.5z"/>
				<line class="st27" x1="515.4" y1="138.6" x2="570.7" y2="138.6"/>
				<line class="st27" x1="520.8" y1="169.6" x2="565.6" y2="169.6"/>
				<line class="st27" x1="522.9" y1="174.7" x2="563.5" y2="174.7"/>
				<line class="st27" x1="514.5" y1="132.4" x2="571.9" y2="132.4"/>
				<polygon class="st28" points="518.6,157 530.9,127.6 543.2,157 557.6,127.6 567.8,157 554.3,183.7 543.2,157 532,183.6 				"/>
				<polyline class="st8" points="530.9,127.6 543.2,67.8 557.6,127.6 				"/>
				<polyline class="st8" points="518.6,127.6 543.2,67.8 567.8,127.6 				"/>
			</g>
			<line class="st8" x1="543.2" y1="67.8" x2="543.2" y2="-78"/>
		</g>
		<g>
			<g>
				<g>
					<g>
						<g>
							<g>
								<path class="st2" d="M107.4,56.3c-1.9,3.7-3.8,7.4-5.6,11.1l-2.5,5.7c-0.8,1.9-1.7,3.8-2.4,5.7c-1.5,3.9-3,7.7-4.3,11.7
									c-0.6,2-1.3,3.9-1.9,5.9l-1.7,6c-2.1,8-3.9,16.1-5,24.3c-0.5,4.1-1,8.2-1.1,12.3c-0.2,4.1-0.2,8.3,0.2,12.3l-1,0.2
									c-0.7-4.2-0.8-8.4-0.7-12.5c0-4.2,0.4-8.3,0.9-12.5c1-8.3,2.9-16.5,5.3-24.4l1.9-6c0.7-2,1.4-3.9,2.1-5.9
									c1.4-3.9,3-7.7,4.6-11.6c0.7-1.9,1.7-3.8,2.5-5.7l2.6-5.7l5.6-11.1L107.4,56.3z"/>
							</g>
							<g>
								<path class="st2" d="M68.7,151.9c-0.3-6.8-1.1-13.7-2.9-20.3c-1.8-6.6-4.6-12.9-7.6-19c-3.1-6.1-6.4-12.2-9-18.6
									c-0.7-1.6-1.2-3.3-1.8-4.9c-0.5-1.7-0.9-3.3-1.3-5L45.2,79l-0.4-5.2l0.4,0l0.5,5.1l1,5.1c0.5,1.6,0.9,3.3,1.4,4.9l0.9,2.4
									c0.3,0.8,0.6,1.6,0.9,2.4c2.7,6.3,6.2,12.2,9.4,18.4c3.2,6.1,5.9,12.6,7.7,19.3c0.5,1.7,0.8,3.4,1.2,5.1
									c0.2,0.9,0.4,1.7,0.5,2.6l0.3,2.6c0.5,3.4,0.5,6.9,0.7,10.4L68.7,151.9z"/>
							</g>
							<g>
								<path class="st2" d="M84.2,116.3c2.2-3.5,4.7-6.9,7.6-9.9c2.9-3,6.2-5.6,9.6-7.9c3.4-2.3,7-4.5,9.9-7.3
									c0.8-0.7,1.4-1.5,2.1-2.3c0.6-0.8,1.2-1.7,1.8-2.5c0.5-0.9,1-1.8,1.5-2.7l1.2-2.8l0.5,0.2c-1.5,3.9-3.6,7.6-6.6,10.5
									c-3,2.9-6.5,5.2-9.8,7.6c-3.4,2.4-6.5,5-9.3,8c-2.7,3-5,6.4-7.1,10L84.2,116.3z"/>
							</g>
							<g>
								<path class="st2" d="M83.8,144.6c1-4.7,2.7-9.2,5-13.5c1.2-2.1,2.5-4.1,4-6c1.5-1.9,3.1-3.6,4.8-5.3c3.5-3.2,7.5-6,11.7-8.1
									c4.2-2.1,8.7-3.7,13.4-4.6l0.1,0.3c-4.6,1-9,2.8-13.1,4.9c-4.1,2.2-7.9,5-11.3,8.3c-1.7,1.6-3.2,3.4-4.6,5.3
									c-1.4,1.9-2.6,3.9-3.7,5.9c-2.1,4.1-3.5,8.6-4.4,13.1L83.8,144.6z"/>
							</g>
							<g>
								<path class="st2" d="M60,116.2c-0.9-1.2-1.7-2.4-2.7-3.6l-1.4-1.7l-0.7-0.9l-0.8-0.8l-1.5-1.6c-0.5-0.5-1.1-1-1.6-1.5
									c-1.1-1-2.2-1.9-3.4-2.9c-2.4-1.8-4.9-3.4-7.5-4.8c-2.6-1.3-5.4-2.5-8.3-3.1l0.1-0.5c3,0.6,5.8,1.7,8.5,3
									c2.7,1.3,5.3,2.9,7.7,4.7c1.2,0.9,2.4,1.8,3.5,2.9c0.6,0.5,1.1,1,1.7,1.5l1.6,1.6l0.8,0.8l0.7,0.9l1.5,1.7
									c1,1.2,1.8,2.4,2.8,3.6L60,116.2z"/>
							</g>
							<g>
								<path class="st2" d="M74.7,141.8c0.4-7.5,0.4-15.1-0.5-22.6c-0.9-7.5-2.9-14.8-5.2-22c-2.3-7.2-5.1-14.3-6.9-21.7
									c-0.3-0.9-0.4-1.9-0.6-2.8L60.9,70c-0.3-1.9-0.5-3.8-0.7-5.7c-0.1-1.9-0.2-3.8-0.2-5.7l0.3-5.7l0.5,0l-0.2,5.7
									c0.1,1.9,0.2,3.8,0.3,5.6c0.3,1.9,0.5,3.7,0.8,5.6l0.6,2.8c0.2,0.9,0.4,1.8,0.6,2.8c1.9,7.3,4.7,14.4,7.1,21.6
									c0.6,1.8,1.2,3.6,1.7,5.4c0.6,1.8,1,3.7,1.5,5.5c0.5,1.9,0.8,3.7,1.2,5.6c0.4,1.9,0.6,3.8,0.9,5.7
									c0.9,7.6,0.9,15.2,0.3,22.8L74.7,141.8z"/>
							</g>
							<g>
								<path class="st2" d="M77.7,136.4c-0.5-4.1-0.8-8.3-0.5-12.5c0.3-4.2,1.2-8.3,2.3-12.2c1.2-4,2.5-7.9,2.9-12
									c0.2-1,0.1-2,0.2-3.1c0-1-0.1-2-0.2-3.1c-0.2-1-0.4-2-0.6-3l-0.9-2.9l0.5-0.2c1.4,3.9,2.1,8.1,1.6,12.3
									c-0.4,4.2-1.7,8.1-2.7,12.1c-1.1,4-1.8,8-2,12.1c-0.2,4.1,0.3,8.2,0.9,12.2L77.7,136.4z"/>
							</g>
						</g>
						<path class="st2" d="M65.4,85.1c-1.9-8.3,0.1-15.4,3.8-20.1L65.4,85.1z"/>
						<path class="st2" d="M69.2,96c-6.9-10-12.7-8.7-12.7-8.7L69.2,96z"/>
						<path class="st2" d="M70.7,100.7c-2.8-12.9,2.8-17.9,2.8-17.9L70.7,100.7z"/>
						<path class="st2" d="M95.9,80.1c2.2-13.5-3.6-16.7-3.6-16.7L95.9,80.1z"/>
						<path class="st2" d="M92.3,89.5c7.8-11,16.7-10.2,16.7-10.2L92.3,89.5z"/>
						<path class="st2" d="M74.1,95.7c8.1,8.9,5.6,16.5,5.6,16.5L74.1,95.7z"/>
						<path class="st2" d="M104.7,96.6c10.4-2.4,15.1,2.2,15.1,2.2L104.7,96.6z"/>
						<path class="st2" d="M99.8,100c7.2-8.7,4.9-13.9,4.9-13.9L99.8,100z"/>
						<path class="st2" d="M102.9,116.6c8.8-8.2,7.5-13.8,7.5-13.8L102.9,116.6z"/>
						<path class="st2" d="M112.5,118.8L95,122.9C95,122.9,105,115.5,112.5,118.8z"/>
						<path class="st2" d="M53.1,101.6c-3.6-12.3,1.4-18.8,1.4-18.8L53.1,101.6z"/>
						<path class="st2" d="M53.8,107.9c-12.1-5.4-19.4,0-19.4,0H53.8z"/>
						<path class="st2" d="M63.8,123c-8.4-8-16-2.4-16-2.4L63.8,123z"/>
					</g>
					<g>
						<path class="st19" d="M45.6,76.2c-3.2-2.5-3.1-7.5,0.3-10.8C49.6,70.3,48.4,72.3,45.6,76.2z"/>
						<g>
							<path class="st2" d="M45.6,79c-3.9-5.4-4.8-9.9-1-6c0.7-4.7,2.3-2.7,2.4,1C48.7,70.6,51,72.6,45.6,79z"/>
						</g>
						<path class="st19" d="M45.9,67.1l2.8-1.3c0,0-0.1-1.9-1.8-0.7c-0.6-1.8-1.3-1.4-1.9-0.3c-1.3-1-1.8,0.2-1.8,0.2L45.9,67.1z"/>
					</g>
					<g>
						<path class="st19" d="M114.6,87c-1.5-3.8,1.1-8.1,5.6-9.2C121.1,83.8,118.9,85,114.6,87z"/>
						<g>
							<path class="st2" d="M113.2,89.4c-0.7-6.7,0.7-11,2.1-5.8c2.9-3.7,3.3-1.2,1.6,2C120.1,83.6,121.1,86.5,113.2,89.4z"/>
						</g>
						<path class="st19" d="M119.4,79.2l3,0.3c0,0,0.9-1.7-1.2-1.5c0.4-1.8-0.4-1.9-1.5-1.2c-0.6-1.5-1.7-0.7-1.7-0.7L119.4,79.2z"
							/>
					</g>
					<g>
						<path class="st19" d="M82.2,95.6c-3.5-2-4.1-7-1.2-10.7C85.4,89.1,84.4,91.4,82.2,95.6z"/>
						<g>
							<path class="st2" d="M82.7,98.4c-4.6-4.8-6.2-9.1-1.9-5.8c0-4.7,1.9-3,2.5,0.6C84.6,89.6,87.1,91.2,82.7,98.4z"/>
						</g>
						<path class="st19" d="M81.3,86.5l2.5-1.7c0,0-0.4-1.9-1.9-0.4c-0.8-1.7-1.5-1.2-1.9,0c-1.4-0.8-1.7,0.5-1.7,0.5L81.3,86.5z"/>
					</g>
					<g>
						<path class="st19" d="M60.3,53.1c-3.2-2.5-3.1-7.5,0.3-10.8C63.3,46.8,63.1,49.2,60.3,53.1z"/>
						<path class="st19" d="M60.3,53.1c1.4-3.8,6.2-5.3,10.3-3.2C67.2,54,64.9,54.5,60.3,53.1z"/>
						<path class="st19" d="M60.3,53.1c4.1,0.1,7,4.1,6.3,8.7C61.7,59.9,60.5,57.9,60.3,53.1z"/>
						<path class="st19" d="M60.3,53.1c1.2,3.9-1.6,8-6.2,8.8C54.3,56.6,55.8,54.8,60.3,53.1z"/>
						<path class="st19" d="M60.3,53.1c-3.3,2.4-8.1,1-10.3-3.1C55,48.5,57.2,49.4,60.3,53.1z"/>
						<path class="st22" d="M59.8,54.6c-0.9-0.4-1.3-1.4-0.9-2.2s1.4-1.3,2.2-0.9c0.9,0.4,1.3,1.4,0.9,2.2
							C61.6,54.6,60.6,55,59.8,54.6z"/>
					</g>
					<g>
						<path class="st19" d="M33.6,94c-4-0.5-6.6-4.8-5.4-9.3C32.9,87,33.9,89.2,33.6,94z"/>
						<path class="st19" d="M33.6,94c-0.9-4,2.4-7.8,7.1-8.1C39.9,91.1,38.2,92.7,33.6,94z"/>
						<path class="st19" d="M33.6,94c3.5-2.1,8.1-0.2,10,4.1C38.4,99,36.3,97.9,33.6,94z"/>
						<path class="st19" d="M33.6,94c3.1,2.6,2.9,7.6-0.6,10.8C30.4,100.2,30.7,97.8,33.6,94z"/>
						<path class="st19" d="M33.6,94c-1.5,3.8-6.3,5.2-10.4,2.9C26.7,92.9,29.1,92.5,33.6,94z"/>
						<path class="st22" d="M34,95.6c-0.9,0.1-1.8-0.5-1.9-1.4c-0.1-0.9,0.5-1.8,1.4-1.9c0.9-0.1,1.8,0.5,1.9,1.4
							C35.6,94.6,34.9,95.4,34,95.6z"/>
					</g>
					<g>
						<path class="st19" d="M107.8,56.8c-3.9-1.2-5.6-5.9-3.6-10.1C108.3,49.9,108.9,52.2,107.8,56.8z"/>
						<path class="st19" d="M107.8,56.8c-0.1-4.1,3.8-7.2,8.4-6.7C114.5,55.1,112.6,56.4,107.8,56.8z"/>
						<path class="st19" d="M107.8,56.8c3.8-1.4,8.1,1.2,9.1,5.8C111.6,62.7,109.7,61.2,107.8,56.8z"/>
						<path class="st19" d="M107.8,56.8c2.6,3.1,1.4,8-2.6,10.5C103.5,62.3,104.3,60.1,107.8,56.8z"/>
						<path class="st19" d="M107.8,56.8c-2.1,3.4-7.1,3.9-10.7,0.9C101.2,54.5,103.6,54.5,107.8,56.8z"/>
						<path class="st22" d="M107.9,58.4c-0.9,0-1.7-0.8-1.6-1.8c0-0.9,0.8-1.7,1.8-1.6c0.9,0,1.7,0.8,1.6,1.8
							C109.6,57.7,108.8,58.5,107.9,58.4z"/>
					</g>
					<g>
						<path class="st19" d="M122.6,108.4c-1.6-3.7,0.9-8.1,5.4-9.3C128.2,104.4,126.9,106.3,122.6,108.4z"/>
						<path class="st19" d="M122.6,108.4c3-2.7,8-1.8,10.6,2.1C128.2,112.5,125.9,111.8,122.6,108.4z"/>
						<path class="st19" d="M122.6,108.4c3.5,2,4.2,7,1.4,10.7C120.5,115.1,120.4,112.7,122.6,108.4z"/>
						<path class="st19" d="M122.6,108.4c-0.7,4-5.2,6.3-9.7,4.8C115.6,108.6,117.8,107.8,122.6,108.4z"/>
						<path class="st19" d="M122.6,108.4c-4,0.6-7.6-2.9-7.6-7.6C120.1,101.9,121.6,103.7,122.6,108.4z"/>
						<path class="st22" d="M121.4,109.5c-0.6-0.7-0.5-1.8,0.3-2.4c0.7-0.6,1.8-0.5,2.4,0.3c0.6,0.7,0.5,1.8-0.3,2.4
							C123,110.4,122,110.3,121.4,109.5z"/>
					</g>
				</g>
				<path class="st23" d="M80.2,186.5L80.2,186.5c-11.4,0-21.1-8.2-23-19.5l-6.5-39.4h58.9l-6.5,39.4
					C101.3,178.3,91.6,186.5,80.2,186.5z"/>
				<line class="st27" x1="52.4" y1="138.6" x2="107.7" y2="138.6"/>
				<line class="st27" x1="57.8" y1="169.6" x2="102.6" y2="169.6"/>
				<line class="st27" x1="59.9" y1="174.7" x2="100.5" y2="174.7"/>
				<line class="st27" x1="51.5" y1="132.4" x2="108.9" y2="132.4"/>
				<polygon class="st28" points="55.6,157 67.9,127.6 80.2,157 94.6,127.6 104.8,157 91.3,183.7 80.2,157 69,183.6 				"/>
				<polyline class="st8" points="67.9,127.6 80.2,67.8 94.6,127.6 				"/>
				<polyline class="st8" points="55.6,127.6 80.2,67.8 104.8,127.6 				"/>
			</g>
			<line class="st8" x1="80.2" y1="67.8" x2="80.2" y2="-78"/>
		</g>
	</g>
</g>
<g id="Layer_2" class="st0">
	<rect x="141" class="st29" width="294" height="149"/>
	<rect x="541" y="218" class="st29" width="837" height="221"/>
	<rect x="1209" y="63" class="st29" width="578" height="86"/>
</g>
</svg>
