<?xml version="1.0" encoding="utf-8"?>
<!-- Generator: Adobe Illustrator 23.0.3, SVG Export Plug-In . SVG Version: 6.00 Build 0)  -->
<svg version="1.1" xmlns="http://www.w3.org/2000/svg" xmlns:xlink="http://www.w3.org/1999/xlink" x="0px" y="0px"
	 viewBox="0 0 1920 506" style="enable-background:new 0 0 1920 506;" xml:space="preserve">
<style type="text/css">
	.st0{display:none;}
	.st1{fill:#F4E8B3;}
	.st2{fill:#DB9A67;}
	.st3{fill:#54937F;}
	.st4{fill:#427262;}
	.st5{fill:#FFFFFF;}
	.st6{fill:#625894;}
	.st7{fill:#503F61;}
	.st8{fill:#524263;}
	.st9{fill:#ED934E;}
	.st10{fill:#D46A3C;}
	.st11{fill:#D46B3C;}
	.st12{fill:#D56B3C;}
	.st13{fill:#D35E48;}
	.st14{fill:#A44A3B;}
	.st15{fill:#A44B3B;}
	.st16{fill:#A95647;}
	.st17{fill:#F6CA72;}
	.st18{fill:#B47B3C;}
	.st19{fill:#B57B3D;}
	.st20{fill:#51849E;}
	.st21{fill:#305B72;}
	.st22{fill:#305C72;}
	.st23{fill:#366177;}
	.st24{fill:#315C73;}
	.st25{fill:#D35F4A;}
	.st26{fill:#FFE1BA;}
	.st27{fill:#F4B690;}
	.st28{fill:#F4B58F;}
	.st29{fill:#FCFCFC;}
	.st30{fill:url(#SVGID_1_);}
	.st31{fill:#FFBFA6;}
	.st32{fill:#BD6950;}
	.st33{fill:#FFDC88;}
	.st34{fill:#BB644A;}
	.st35{fill:#FFDC89;}
	.st36{fill:#FFBFA7;}
	.st37{fill:#C64938;}
	.st38{fill:#D75742;}
	.st39{fill:#BD664D;}
	.st40{fill:#C36E56;}
	.st41{fill:#E56A5A;}
	.st42{fill:#3B454F;}
	.st43{fill:#525B65;}
	.st44{fill:#E48367;}
	.st45{fill:#894E3E;}
	.st46{fill:#854A39;}
	.st47{fill:#8E5748;}
	.st48{fill:#C97960;}
	.st49{fill:#A14F45;}
	.st50{fill:#3B444C;}
	.st51{fill:#CB7D65;}
	.st52{fill:#A24F45;}
	.st53{fill:#505964;}
	.st54{fill:#783A29;}
	.st55{fill:#E29233;}
	.st56{fill:#CE7C4C;}
	.st57{fill:#FFA52F;}
	.st58{fill:#FFC0A8;}
	.st59{fill:#FFAC48;}
	.st60{fill:#504368;}
	.st61{fill:#37627C;}
	.st62{fill:#514368;}
	.st63{fill:#447194;}
	.st64{fill:#CE856E;}
	.st65{fill:#367763;}
	.st66{fill:#469981;}
	.st67{fill:#59AA91;}
	.st68{fill:#D3933F;}
	.st69{fill:#68362E;}
	.st70{fill:#512621;}
	.st71{fill:#69372F;}
	.st72{fill:#65342C;}
	.st73{fill:#D56B42;}
	.st74{fill:#598DAD;}
	.st75{fill:#527998;}
	.st76{fill:#6193B9;}
	.st77{fill:#6DA6C9;}
	.st78{fill:#FFFEE9;}
	.st79{display:inline;fill:#00E9D2;}
</style>
<g id="Layer_1" class="st0">
	
		<image style="display:inline;overflow:visible;" width="793" height="209" xlink:href="434BF1B4.jpg"  transform="matrix(2.4212 0 0 2.4212 0 0)">
	</image>
</g>
<g id="Layer_3">
	<rect x="-15" y="-11" class="st1" width="1951" height="390"/>
	<g>
		<polygon class="st2" points="541,466 830.1,466 711.3,164.7 		"/>
		<polygon class="st2" points="713.1,466 910,466 829.1,260.7 		"/>
		<polygon class="st2" points="926,466 1215.1,466 1096.4,164.7 		"/>
		<polygon class="st2" points="876.3,466 1073.3,466 992.4,260.7 		"/>
		<polygon class="st2" points="480.6,466 723.2,466 623.5,213.3 		"/>
	</g>
	<g>
		<polygon class="st2" points="1204,348 1493.1,348 1374.3,46.7 		"/>
		<polygon class="st2" points="1376.1,348 1573,348 1492.1,142.7 		"/>
		<polygon class="st2" points="1589,348 1878.1,348 1759.4,46.7 		"/>
		<polygon class="st2" points="1539.3,348 1736.3,348 1655.4,142.7 		"/>
		<polygon class="st2" points="1143.6,348 1386.2,348 1286.5,95.3 		"/>
	</g>
	<g>
		<path class="st3" d="M-3.5,313.8c36.1,0,72.2-0.2,108.3,0.3c8.1,0.1,16.2,0.1,24.4,0.1c36.8,0.1,73.5,0,110.3,0.3
			c47.2,0.4,94.5,0.1,141.7,0.6c44.7,0.4,89.3,0.1,134,0.6c44.9,0.4,89.8,0.1,134.6,0.6c44,0.4,88.1,0.1,132.1,0.6
			c44.2,0.4,88.5,0.2,132.7,0.6c44.2,0.4,88.5,0.1,132.7,0.6c46.2,0.4,92.3,0.2,138.5,0.6c44.7,0.4,89.3,0.1,134,0.6
			c43.8,0.4,87.6,0.1,131.4,0.6c43,0.4,85.9,0.1,128.9,0.6c44,0.4,88.1,0.2,132.1,0.6c43.8,0.4,87.6,0.2,131.4,0.6
			c25.4,0.2,50.9,0.2,76.3,0.4c0,70.5,0,140.9,0,211.4c-638,0-1276,0-1914,0c-10.5,0-9.7,0.6-9.7-4.2c0-70.5,0-140.9,0-211.4
			C-3.7,316.2-3.6,315-3.5,313.8z"/>
	</g>
	<path class="st4" d="M549.4,345.9c-119.6,0-216.6,3.2-216.6,7.2c0,4,97,7.2,216.6,7.2c91.3,0,169.4-1.9,201.3-4.5v-5.3
		C718.8,347.7,640.7,345.9,549.4,345.9z"/>
	<g>
		<path class="st5" d="M1.6,131.3c3.1,0.1,6.1-0.3,9.2,0.5c6.2,1.7,11.1,5.1,13.7,11.2c0.5,1.2,0.7,2.4,1.1,3.6
			c0.7,2.1,0.7,2.1,2.9,2.2c3.8,0.1,7.4,0.9,10.8,2.6c5.7,2.7,7.3,8.1,6.7,13.5c-0.3,2.3-3,4.4-6,4.9c-2.5,0.4-4.9,0.5-7.4,0.5
			c-4.1,0.1-8.3-0.4-12.4,0.4c-0.9,0.2-1.9,0.2-2.7,0c-2.4-0.7-4.8-0.3-7.1,0.1c-2.9,0.6-5.8,0.3-8.7,0.4
			C1.6,157.9,1.6,144.6,1.6,131.3z"/>
		<path class="st5" d="M211.5,98.9c-8.1,0-16.1-0.3-24.2,0.1c-12.1,0.6-24.2,0.4-36.3,0.3c-6.6-0.1-13-1.4-18.6-5.3
			c-4.6-3.2-6.8-10-3.2-15.6c3-4.7,7-8.3,11.9-11.1c4.8-2.7,9.8-4.7,15.2-5.8c2.6-0.5,5.1-1.3,7.8-0.5c1.6,0.4,1.9,0.1,2.6-1.6
			c2.5-6.3,6-11.8,11.2-16.2c3.2-2.7,6.7-4.5,10.7-5.7c6.1-1.9,12.2-2.1,18.3,0.2c6.8,2.6,12.6,6.7,17.2,12.3
			c2.2,2.8,3.7,6.1,4.5,9.6c0.4,2.1,0.6,2.2,2.4,1.4c3.2-1.3,6.5-1,9.8-0.4c6.2,1.3,12.1,3.3,17.5,6.7c1.7,1.1,3.1,2.5,4.3,4.1
			c1.5,1.9,2,4.3,1.8,6.6c-0.3,3.7-1.2,7.4-3.3,10.6c-3.1,4.7-7.5,7.4-12.8,8.8c-4,1.1-8.1,1.6-12.3,1.6
			C227.8,98.9,219.6,98.9,211.5,98.9C211.5,98.9,211.5,98.9,211.5,98.9z"/>
		<path class="st5" d="M633.7,62.3c-0.1-5.8,2.8-10.2,6.3-14.1c3-3.3,6.8-5.7,11.1-7.3c9-3.3,18-3.5,26.7,0.8
			c5.2,2.6,9.4,6.2,11.5,11.8c0.6,1.6,1.1,3.1,1.2,4.8c0.1,1.7,0.1,1.5,1.7,1.4c4.6-0.3,9.3-0.7,13.9,0.3c4.2,1,7.5,3.5,9.7,7.2
			c1.6,2.6,1.5,5.4,0.8,8.2c-0.8,3.4-2.9,6.1-6.1,7.8c-2.8,1.4-5.7,2.3-8.7,2.7c-5,0.7-10,1.2-15,1.6c-3.6,0.3-7.1,0.4-10.7,0.4
			c-17.5,0-35.1,0-52.6,0c-4.6,0-9.1-0.7-13.3-2.6c-2.3-1-4.3-2.5-5.6-4.7c-2.4-4.1-1.3-7.9,1.2-11.4c3.7-5.1,8.7-7.9,14.9-8.8
			c3.7-0.6,7,0.2,10.4,1.3C631.9,62,632.6,62.3,633.7,62.3z"/>
		<path class="st5" d="M334.5,154.7c-4.5,0-9,0-13.5,0c-5.1,0.1-10.3-0.4-15.4-0.7c-3.7-0.2-7.4-0.1-11.1-0.8
			c-3.7-0.8-7.3-2-9.6-5.2c-2.1-2.7-2.8-5.8-1.2-9.1c1.8-3.7,4.7-6.2,8.1-8.1c3.4-2,7.2-3.1,11.1-3c1.9,0.1,3.7-0.8,5.6-0.1
			c0.9,0.3,1.4-0.5,1.6-1.5c0.4-2.8,1.4-5.4,2.9-7.8c1.7-2.8,4-5.1,6.7-6.9c4.5-3.1,9.4-4.9,14.9-4.6c5.7,0.3,10.9,2,15.3,5.7
			c4.1,3.4,7.5,7.5,9.1,12.7c0.3,1,0.8,1.4,1.9,1.6c4.6,0.7,9.1,1.8,13.3,3.8c1.7,0.8,3,2.1,4.2,3.4c1.8,2.1,1.9,4.7,1.3,7.1
			c-1.2,4.6-3.7,8.4-8.4,10.4c-3.7,1.5-7.6,2.2-11.6,2.6C351.4,155,342.9,154.6,334.5,154.7z"/>
		<path class="st5" d="M662.5,149.3c-4.3-1.2-8.8,0.1-13.1-1.1c-1.4-0.4-2.8-0.9-4-1.9c-3.4-2.7-2.6-7.4-0.3-9.7
			c2.3-2.3,5.1-3.2,8.2-3.8c2.8-0.6,5.6-0.5,8.4-0.5c1.3,0,1.8-0.3,2.1-1.7c0.9-4.9,3.4-8.9,7.6-11.7c2.1-1.4,4.5-2,6.9-2.5
			c5.3-1.1,10,0.4,14.5,2.9c2.5,1.4,4.2,3.8,6.1,5.8c0.4,0.5,1,1,1.2,1.6c0.9,2.6,3,3.1,5.3,3.7c3,0.8,5.9,2.2,8.1,4.6
			c1.3,1.5,2.1,3.2,2.4,5.1c0.5,2.8-1.5,4.4-3.6,5.7c-2.3,1.5-5,1.6-7.6,1.9c-5.3,0.7-10.6,0.1-15.9,0.6c-7,0.6-13.9,0.3-20.9,0.4
			C666.2,148.7,664.4,149.5,662.5,149.3z"/>
		<path class="st5" d="M497.3,69c-4.5,0-9,0-13.5,0c-5.1,0.1-10.3-0.4-15.4-0.7c-3.7-0.2-7.4-0.1-11.1-0.8c-3.7-0.8-7.3-2-9.6-5.2
			c-2.1-2.7-2.8-5.8-1.2-9.1c1.8-3.7,4.7-6.2,8.1-8.1c3.4-2,7.2-3.1,11.1-3c1.9,0.1,3.7-0.8,5.6-0.1c0.9,0.3,1.4-0.5,1.6-1.5
			c0.4-2.8,1.4-5.4,2.9-7.8c1.7-2.8,4-5.1,6.7-6.9c4.5-3.1,9.4-4.9,14.9-4.6c5.7,0.3,10.9,2,15.3,5.7c4.1,3.4,7.5,7.5,9.1,12.7
			c0.3,1,0.8,1.4,1.9,1.6c4.6,0.7,9.1,1.8,13.3,3.8c1.7,0.8,3,2.1,4.2,3.4c1.8,2.1,1.9,4.7,1.3,7.1c-1.2,4.6-3.7,8.4-8.4,10.4
			c-3.7,1.5-7.6,2.2-11.6,2.6C514.2,69.3,505.7,69,497.3,69z"/>
	</g>
	<g>
		<path class="st5" d="M931.5,98.9c-8.1,0-16.1-0.3-24.2,0.1c-12.1,0.6-24.2,0.4-36.3,0.3c-6.6-0.1-13-1.4-18.6-5.3
			c-4.6-3.2-6.8-10-3.2-15.6c3-4.7,7-8.3,11.9-11.1c4.8-2.7,9.8-4.7,15.2-5.8c2.6-0.5,5.1-1.3,7.8-0.5c1.6,0.4,1.9,0.1,2.6-1.6
			c2.5-6.3,6-11.8,11.2-16.2c3.2-2.7,6.7-4.5,10.7-5.7c6.1-1.9,12.2-2.1,18.3,0.2c6.8,2.6,12.6,6.7,17.2,12.3
			c2.2,2.8,3.7,6.1,4.5,9.6c0.4,2.1,0.6,2.2,2.4,1.4c3.2-1.3,6.5-1,9.8-0.4c6.2,1.3,12.1,3.3,17.5,6.7c1.7,1.1,3.1,2.5,4.3,4.1
			c1.5,1.9,2,4.3,1.8,6.6c-0.3,3.7-1.2,7.4-3.3,10.6c-3.1,4.7-7.5,7.4-12.8,8.8c-4,1.1-8.1,1.6-12.3,1.6
			C947.8,98.9,939.6,98.9,931.5,98.9C931.5,98.9,931.5,98.9,931.5,98.9z"/>
		<path class="st5" d="M1054.5,154.7c-4.5,0-9,0-13.5,0c-5.1,0.1-10.3-0.4-15.4-0.7c-3.7-0.2-7.4-0.1-11.1-0.8
			c-3.7-0.8-7.3-2-9.6-5.2c-2.1-2.7-2.8-5.8-1.2-9.1c1.8-3.7,4.7-6.2,8.1-8.1c3.4-2,7.2-3.1,11.1-3c1.9,0.1,3.7-0.8,5.6-0.1
			c0.9,0.3,1.4-0.5,1.6-1.5c0.4-2.8,1.4-5.4,2.9-7.8c1.7-2.8,4-5.1,6.7-6.9c4.5-3.1,9.4-4.9,14.9-4.6c5.7,0.3,10.9,2,15.3,5.7
			c4.1,3.4,7.5,7.5,9.1,12.7c0.3,1,0.8,1.4,1.9,1.6c4.6,0.7,9.1,1.8,13.3,3.8c1.7,0.8,3,2.1,4.2,3.4c1.8,2.1,1.9,4.7,1.3,7.1
			c-1.2,4.6-3.7,8.4-8.4,10.4c-3.7,1.5-7.6,2.2-11.6,2.6C1071.4,155,1062.9,154.6,1054.5,154.7z"/>
		<path class="st5" d="M1119.5,79.3c-4.3-1.2-8.8,0.1-13.1-1.1c-1.4-0.4-2.8-0.9-4-1.9c-3.4-2.7-2.6-7.4-0.3-9.7
			c2.3-2.3,5.1-3.2,8.2-3.8c2.8-0.6,5.6-0.5,8.4-0.5c1.3,0,1.8-0.3,2.1-1.7c0.9-4.9,3.4-8.9,7.6-11.7c2.1-1.4,4.5-2,6.9-2.5
			c5.3-1.1,10,0.4,14.5,2.9c2.5,1.4,4.2,3.8,6.1,5.8c0.4,0.5,1,1,1.2,1.6c0.9,2.6,3,3.1,5.3,3.7c3,0.8,5.9,2.2,8.1,4.6
			c1.3,1.5,2.1,3.2,2.4,5.1c0.5,2.8-1.5,4.4-3.6,5.7c-2.3,1.5-5,1.6-7.6,1.9c-5.3,0.7-10.6,0.1-15.9,0.6c-7,0.6-13.9,0.3-20.9,0.4
			C1123.2,78.7,1121.4,79.5,1119.5,79.3z"/>
		<path class="st5" d="M1814.3,221c-4.5,0-9,0-13.5,0c-5.1,0.1-10.3-0.4-15.4-0.7c-3.7-0.2-7.4-0.1-11.1-0.8c-3.7-0.8-7.3-2-9.6-5.2
			c-2.1-2.7-2.8-5.8-1.2-9.1c1.8-3.7,4.7-6.2,8.1-8.1c3.4-2,7.2-3.1,11.1-3c1.9,0.1,3.7-0.8,5.6-0.1c0.9,0.3,1.4-0.5,1.6-1.5
			c0.4-2.8,1.4-5.4,2.9-7.8c1.7-2.8,4-5.1,6.7-6.9c4.5-3.1,9.4-4.9,14.9-4.6c5.7,0.3,10.9,2,15.3,5.7c4.1,3.4,7.5,7.5,9.1,12.7
			c0.3,1,0.8,1.4,1.9,1.6c4.6,0.7,9.1,1.8,13.3,3.8c1.7,0.8,3,2.1,4.2,3.4c1.8,2.1,1.9,4.7,1.3,7.1c-1.2,4.6-3.7,8.4-8.4,10.4
			c-3.7,1.5-7.6,2.2-11.6,2.6C1831.2,221.3,1822.7,221,1814.3,221z"/>
	</g>
	<g>
		<g>
			<path class="st6" d="M0.7,152.6c1.1,0,2.2,0,3.2,0c2.5-0.2,4.3,1,5.6,3.1c1,1.6,1.6,3.3,2.1,5.1c1.4,5.4,2.9,10.7,5,15.9
				c1.6,4.1,1.5,8.6,3.9,12.5c2.3,3.7,3.6,8,5.1,12.2c4.2,12,8.2,24,12.5,36c5.1,14.2,8.8,28.9,13.9,43.1
				c3.5,9.8,7.1,19.7,10.3,29.6c2.2,6.9,4.7,13.7,5.9,20.8c0.7,4,0.1,7.7-1.7,11.5c-3,6.4-7.7,10.7-13.6,14.1
				c-1.3,0.7-2.5,1.6-3.8,2.4c-1.1,0.7-2.2,1.3-3.4,1.6c-3.8,0.8-7.2,2.6-10.5,4.4c-5.9,3.1-12.3,4.5-18.7,5.7
				c-1.5,0.3-2.9,0.6-4.4,0.6c-2.3,0-4-0.9-5.2-2.8c-1.2-1.9-2-4-2.7-6.1c-0.8-2.7-1.6-5.4-2.4-8.1c-0.2-0.7-0.4-1.4-1.1-1.9
				C0.7,285.5,0.7,219.1,0.7,152.6z"/>
			<g>
				<path class="st7" d="M0.8,255.8c0.7,0.6,1.2-0.1,1.7-0.4c2.9-1.7,6-2.7,9.2-3.8c2.1-0.7,3-0.2,3.5,1.8c0.7,3,1.8,5.9,2.9,8.7
					c2.7,6.8,4.3,13.9,6.1,21c1.4,5.6,3.2,11,5.2,16.4c3.2,9,6.3,18,8.3,27.4c0.3,1.6,0.8,3.2,1.3,4.8c0.3,1,0.5,1.9,0.5,2.9
					c0,1.1-0.5,1.6-1.5,2c-6.4,2.3-12.9,4.4-18.9,7.5c-2.2,1.1-3.1,0.8-3.9-1.6c-2-5.5-3.9-11.1-5.8-16.7
					c-2.4-6.9-4.8-13.8-7.2-20.7c-0.2-0.7-0.1-1.8-1.3-1.9C0.8,287.4,0.8,271.6,0.8,255.8z"/>
				<path class="st8" d="M0.8,208.5c0.6,0.4,0.8,1,1,1.6c1.3,3.6,2.3,7.3,2.8,11.1c0.5,3.2,1.3,6.3,2.4,9.4c1.2,3.4,2.1,7,3,10.5
					c0.5,2.1,0.3,2.5-1.7,3.5c-2.5,1.1-4.8,2.6-7.4,3.4c0.4-0.1,0-9,0-9.9c0-3.4,0-6.8,0-10.2C0.8,221.3,0.8,214.9,0.8,208.5z"/>
			</g>
		</g>
		<g>
			<path class="st9" d="M124.3,320.6c0.2,5.2-2.1,9.3-5.3,13.1c-2.5,2.9-5.4,5.4-8.3,7.8c-4,3.3-8.3,6.2-12.2,9.4
				c-6.5,5.4-14.2,8.1-22,10.8c-5.2,1.8-10.5,3.5-16,4.6c-2.4,0.5-4.8,0.4-7.2,0c-2.5-0.4-4-1.8-4.7-4.2c-1-3.8-2.1-7.7-3.1-11.5
				c-4.3-16.4-8.7-32.9-12.9-49.4c-2.6-10.2-4.9-20.5-7.4-30.7c-3.1-12.5-6.4-24.9-9.4-37.4c-1.7-7-3.1-14.1-4.6-21.2
				c-0.7-3.3-0.9-6.6-0.3-9.9c0.2-1.1,0.5-2.2,0.3-3.4c-0.3-1.4,0.9-2.2,1.8-3.1c5-4.8,10.8-8,17.6-9.2c2.9-0.5,5.9-1.2,8.8-1.4
				c0.7,0,1.3-0.1,2,0c18.1,1.3,34.6,7.2,49.7,17.2c4.4,2.9,7.3,6.6,9.1,11.5c2.9,8.1,5.4,16.4,7.6,24.7c1.9,7.1,4,14.2,5.8,21.4
				c2.1,8.5,3.3,17.3,5,25.9c1.3,6.6,2.6,13.2,3.7,19.8C123.3,310.4,124,315.5,124.3,320.6z"/>
			<g>
				<path class="st10" d="M18.2,205.5c-0.6-1.5,0.6-2.5,2.3-3.5c3.7-2.1,7.5-3.9,11.9-3.9c0.7,0,1.3,0,2,0c3,0.2,3,0.3,3.7,3.2
					c2.9,11.3,5.8,22.6,8.7,34c1,4.1,2,8.2,3,12.3c0.2,0.7,0.2,1.5,0.3,2.2c0,1-0.5,1.5-1.4,1.7c-5.2,1-9.9,3.2-14.7,5.2
					c-1.2,0.5-1.8,0.3-2.4-0.9c-0.4-0.7-0.6-1.5-0.8-2.3c-2.5-9.5-5.8-18.7-8.5-28.1C20.4,219.1,19.1,212.8,18.2,205.5z"/>
				<path class="st11" d="M60.5,305.9c1.6-0.2,2.6,0.5,3.1,1.9c0.3,0.8,0.7,1.5,0.9,2.3c2.1,6.6,4.3,13.1,5.7,19.8
					c1.2,6,2.6,12,4.7,17.8c1.3,3.8,0.8,4-3.1,4.9c-3.4,0.8-6.8,1.1-10.1,2.5c-1.8,0.8-2.8,0.2-3.6-1.5c-1.1-2.3-1.7-4.7-1.9-7.2
					c-0.2-2.1-0.8-4.1-1.4-6c-1.9-5.9-3.7-11.9-5.4-17.9c-0.9-3.3-1.8-6.7-1.8-10.3c0-2.6,0.3-3.1,2.8-4.1
					C53.6,306.9,57.1,306.5,60.5,305.9z"/>
				<path class="st12" d="M47.6,261c3.6,0,3.7-0.1,4.5,2.4c0.5,1.3,0.9,2.7,1.2,4c2.2,8.2,4.3,16.3,6.5,24.5c0.1,0.3,0.2,0.6,0.3,1
					c0.6,2.7,0.2,3.4-2.5,4c-2.1,0.5-4.3,0.7-6.3,1.5c-1.5,0.6-3.1,1.2-4.4,2.2c-1.4,1-2.1,0.8-2.6-0.7c-1.4-3.9-2.7-7.8-3.6-11.9
					c-1.2-5.5-2.7-10.9-4.1-16.4c-0.4-1.5-0.7-3.1-0.8-4.6c-0.1-1.3,0.4-2.2,1.6-2.8C40.8,262.2,44.6,261.2,47.6,261z"/>
			</g>
		</g>
		<g>
			<path class="st13" d="M142,349.7c-0.3,0.6-0.6,1.2-0.9,1.8c-4.2,6.7-17.8,6.9-24.6,8.6c-6.2,1.6-12.5,2.5-18.8,3.6
				c-0.6,0.1-1.2,0.1-1.7,0.1c-4,0.2-5.8-1-7-4.9c-1-3.4-1.6-7-2.7-10.4c-3.3-10.5-6.1-21-8.9-31.6c-2.1-7.9-3.5-16-5.8-23.9
				c-4-14.2-6.8-28.7-10.5-43c-2.1-8-4.6-15.9-6.2-24.1c-1.9-9.8-3.8-19.5-5.6-29.3c-0.6-3.3-0.8-6.6-1-9.9
				c-0.2-3.7-0.8-7.4-1.3-11.1c-0.3-2.4-0.5-4.8,0-7.2c0.1-0.4,0.2-0.8,0.1-1.2c-0.3-1.4,0.4-2.4,1.4-3.2c1.5-1.3,3.3-2.3,5-3.2
				c8.4-4.3,17.4-7,26.9-7.6c2.3-0.1,4.6,0.2,6.9,0.7c6,1.2,11.5,3.6,17.2,5.8c3.3,1.3,6.6,2.6,9.9,4.1c4.9,2.2,10.1,3.6,15.1,5.7
				c1.1,0.5,2.3,1,3.4,1.6c1.4,0.7,2.4,1.7,2.4,3.5c0,0.6,0.4,1.1,0.7,1.6c5.1,9.5,7.9,19.7,9.5,30.2c3.2,20.8,4.1,41.6,3.3,62.6
				c-0.3,9-1.1,17.9-1.7,26.8c-0.4,5.7-0.7,11.4-1.1,17.1c-0.7,8.9-1,17.9-2,26.8C143.6,342.8,143.3,346.7,142,349.7z"/>
			<g>
				<path class="st14" d="M54.2,176.3c0.1-0.5,0.1-1.2,0.2-1.8c0.1-1.2,0.7-1.8,1.7-2.4c4.7-2.8,10.1-3.8,15.2-5.3
					c0.5-0.1,1-0.2,1.5-0.1c1,0.1,2-0.1,2.8,0.6c0.8,0.8,0.3,1.7,0.4,2.6c0.2,1.5,0.5,2.9,0.9,4.4c1.5,6,2,12.1,2.9,18.2
					c1.6,10.5,3.9,20.9,6.3,31.2c1.9,8.2,4.4,16.3,6,24.6c0.8,4,1.3,8,2.3,12c0.8,3.3-1.7,4.8-3.9,5.1c-5.2,0.7-10.2,2.1-14.9,4.3
					c-1.7,0.8-2.5,0.2-3-1.6c-2-6.6-2.5-13.5-4.1-20.2c-1.4-6-3.4-11.8-4.5-17.8c-1.9-10.4-4.5-20.6-6.4-30.9
					c-1.4-7.1-2.4-14.2-3.2-21.4C54.2,177.3,54.2,176.9,54.2,176.3z"/>
				<path class="st15" d="M92.8,276.4c0.4,0,0.8,0.1,1.2,0.1c2.4-0.1,2.3-0.2,3.1,1.9c1.4,3.7,2,7.5,2.7,11.4
					c2.3,12.2,5.4,24.1,8.5,36.1c1,3.7,2,7.4,2.7,11.1c0.4,2.6,0.2,2.7-2.3,3.2c-5,1-10.1,1.9-14.6,4.6c-1.3,0.8-2.5,0.3-2.9-1.1
					c-1.1-4.3-3.3-8.3-3.8-12.8c-0.1-1.1-0.5-2.1-0.9-3.1c-2.2-5.5-3.4-11.3-4.6-17c-1.4-6.3-3.3-12.5-4.5-18.9
					c-0.5-2.4-0.9-4.9-1.1-7.4c-0.2-2.1,0.5-3.4,2.5-4.1c3.6-1.2,7.1-2.7,10.8-3.6C90.6,276.5,91.7,276.4,92.8,276.4z"/>
				<path class="st16" d="M89.7,184.6c0,0.8-0.2,1.3-0.9,1.5c-0.6,0.1-1-0.3-1.2-0.7c-0.2-0.4-0.4-0.9-0.5-1.4
					c-1.9-7.6-3.8-15.3-5.7-22.9c-0.2-0.8-0.4-1.6-0.3-2.5c0.1-0.4,0.3-0.8,0.7-0.9c0.5-0.1,0.8,0.2,1,0.6c0.3,0.6,0.5,1.2,0.7,1.8
					c1.8,4.8,2.6,9.9,3.9,14.9c0.7,2.8,1.3,5.6,2,8.5C89.6,183.9,89.6,184.3,89.7,184.6z"/>
			</g>
		</g>
		<path class="st14" d="M168.4,227.1c0.1-0.1,0.1-0.3,0.2-0.4c0.3-0.1,0.5,0.1,0.5,0.3c0,0.1-0.1,0.3-0.2,0.4
			C168.6,227.6,168.5,227.4,168.4,227.1z"/>
		<g>
			<path class="st17" d="M128.3,171.7c2.5-0.2,4.8,0.3,7,1.1c1.9,0.8,2.3,1.6,2.1,3.8c0,0.4,0,0.8,0.1,1.2c1.8,6.6,2.2,13.4,3.9,20
				c1.8,7.3,3.6,14.5,5.8,21.6c4.1,13.3,8.6,26.5,12.4,39.9c3.9,13.4,7.4,26.8,9.3,40.7c1.2,8.4,3.2,16.6,5,24.8
				c1.5,6.8,3.2,13.6,4,20.5c0.1,1,0.3,2.1,0.9,3.1c0.8,1.3,0.4,2.4-1.1,2.9c-0.8,0.3-1.6,0.4-2.4,0.5c-9.5,2-19,3.9-28,7.6
				c-4.2,1.7-8.5,2.9-12.9,3.7c-3.3,0.6-6-0.7-7.7-3.7c-1.7-3.1-2.5-6.5-3.2-9.9c-2.5-11.5-5.7-22.9-7.7-34.4
				c-1.8-10.1-4.7-20-6.8-30.1c-3.2-15.1-6.7-30.1-10-45.1c-2-9.1-4.4-18.2-6.1-27.4c-1-5.5-1.5-11-2.3-16.5
				c-0.4-2.6-0.4-5.1-0.6-7.7c-0.1-2.3,0.7-3.9,2.3-5.2c3.2-2.4,6.5-4.6,10.3-6c7.5-2.9,15.4-4.6,23.4-5.5
				C126.8,171.6,127.7,171.7,128.3,171.7z"/>
			<g>
				<path class="st18" d="M153.7,306.6c-2.2,0.1-4.3,0.4-6.4,0.9c-6,1.4-11.9,3.1-17.6,5.4c-1.2,0.5-2.5,1-3.8,1.2
					c-2.5,0.5-3.1,0.1-3.7-2.3c-1.1-4.7-2.3-9.3-3-14.1c-0.7-4.9-1.7-9.8-3.2-14.6c-4-13.6-7.7-27.3-9.7-41.4
					c-0.5-3.4-1.4-6.7-2.1-10c-0.6-2.8-0.6-2.6,2.1-3.9c2.7-1.3,5.4-2.4,8.3-3.4c5.8-2,11.7-3.1,17.7-3.6c3-0.3,3.7,0.2,4.4,3
					c1.7,6.9,3.3,13.9,4.4,20.9c2.8,17.1,7.2,33.7,12.8,50.1c0.9,2.7,1.8,5.5,2.3,8.4C156.8,306.2,156.5,306.6,153.7,306.6z"/>
				<path class="st19" d="M156,313.8c1.6,0.1,2.8,0.4,3.2,2c0.6,1.9,1.4,3.7,1.9,5.6c1.3,4.5,2.4,9.1,4.1,13.6
					c0.3,0.7,0.4,1.4,0.5,2.2c0.3,2.1-0.4,3.2-2.4,3.7c-2.5,0.6-5,1.2-7.5,1.6c-2.4,0.4-4.7,0.9-7,1.8c-4.6,1.9-9.5,3-14,5.1
					c-2.1,1-3.3,0.4-3.9-1.9c-1.7-6.7-3.3-13.3-4.9-20.1c-0.9-4-0.8-4,3-5.8c6.5-3.1,13.3-5,20.4-6.3c1.6-0.3,3.2-0.7,4.9-1.1
					C154.8,314,155.5,313.9,156,313.8z"/>
				<path class="st19" d="M123.5,190.7c0.8,0.1,1.9,0.2,3,0.4c1.3,0.3,2.4,1,2.7,2.3c1.3,5.4,3.7,10.5,4.5,16c0.4,2.6,0.2,3-2.6,3.3
					c-7.5,0.7-14.8,2.1-21.8,4.6c-1.8,0.6-3.6,1.2-5.3,2.1c-1.5,0.8-1.8,0.7-2.5-1c-2.3-5.2-3.6-10.7-4.8-16.2
					c-0.5-2.6-0.3-2.7,2.1-4.2c7-4.4,14.7-6.3,22.8-7.3C122.1,190.8,122.7,190.8,123.5,190.7z"/>
			</g>
		</g>
		<g>
			<path class="st20" d="M120.6,155c-0.2-5.6,2.1-8.9,6.5-11.1c6.5-3.1,13.2-5.4,20.1-7.4c2.1-0.6,4.2-1.2,6.2-1.7
				c3.8-1,7.5-0.8,11.2,0.7c10.3,4.1,20.9,7.7,31.5,10.9c2.6,0.8,4.2,2.3,5.4,4.7c2,4.1,3.3,8.3,4.5,12.6c3,10.5,6.9,20.6,10,31
				c3,9.9,6.8,19.4,9.5,29.4c2.4,9,5.9,17.6,8.6,26.5c3.1,10.2,6.4,20.3,9.6,30.4c3.2,10,6.5,20,9.1,30.2c0.6,2.4,0.9,4.9,1.4,7.3
				c0.2,0.9,0.1,1.9-0.4,2.7c-1.4,2.1-2.6,4.4-4.8,5.9c-8.4,5.9-16.6,11.9-25.3,17.3c-3.3,2.1-6.7,3.8-10.8,4.2
				c-2.8,0.3-5.5,1.4-8.1,2.5c-6,2.6-12.3,4.1-18.5,5.8c-2.1,0.6-4.3,0.7-6.4,0.8c-2.5,0.1-4.4-0.8-5.6-3.3c-1.1-2.4-1.7-5-2.2-7.6
				c-2.5-10.8-5.2-21.4-8.5-32c-2.7-8.6-4.3-17.6-7-26.2c-3.4-10.8-5.2-21.9-8.5-32.7c-4.9-16.4-9.4-32.9-14.8-49.1
				c-4.3-12.8-7.2-25.9-10-39c-0.7-3.1-1.4-6.1-2.2-9.2C120.6,157.2,120.6,155.8,120.6,155z"/>
			<g>
				<path class="st21" d="M173.9,240.2c-3.4,0.1-6.7,0.7-9.7,2.5c-1.9,1.2-2.5,1-3.2-1.1c-3.6-10.5-7.7-20.8-10.4-31.6
					c-1.7-6.7-4.3-13.2-5.9-20c-1.7-7.1-3.2-14.2-5-21.3c-0.8-3.3,0.1-5.6,2.7-7.6c3.6-2.8,7.6-3.9,12.1-2.9
					c0.8,0.2,1.3,0.5,1.7,1.2c0.7,1.3,1.3,2.7,1.6,4.2c1.5,5.9,2.9,11.9,4.5,17.9c3.7,13.4,7.5,26.8,10.6,40.4
					c0.3,1.2,0.6,2.4,1,3.6c1.5,4.2,2.6,8.6,3.7,12.9c0.3,1-0.1,1.7-1.1,1.8C175.6,240.3,174.8,240.2,173.9,240.2z M168.4,227.1
					c0.1,0.3,0.3,0.4,0.5,0.3c0.1,0,0.2-0.3,0.2-0.4c0-0.3-0.2-0.4-0.5-0.3C168.5,226.8,168.5,227,168.4,227.1z"/>
				<path class="st22" d="M186,284.9c4.4,0,4.8,0.2,6.1,3.7c1.4,3.6,2.3,7.4,3.1,11.3c1.8,8.2,3.9,16.3,6.5,24.2
					c1.5,4.6,2.5,9.3,4.4,13.7c1.3,3.2,0.7,4-2.6,4.9c-4.1,1.2-8.1,2.4-12.2,3.5c-0.7,0.2-1.4,0.4-2.2,0.5c-0.8,0.1-1.2-0.3-1.7-1.1
					c-1.5-2.8-1.8-6-2.8-9c-1.8-5-3.1-10.2-4.8-15.2c-2-5.7-3.7-11.5-4.7-17.5c-0.7-4.2-1.9-8.2-2.9-12.3c-0.5-2.3-0.4-2.6,1.8-3.6
					C178,286.3,182.2,285.1,186,284.9z"/>
				<path class="st23" d="M219.8,342.2c0,1.4-0.5,2.2-1.6,2.5c-1.1,0.3-2.2-0.2-2.6-1.4c-0.4-1.1-0.6-2.2-0.9-3.4
					c-7.9-30.3-15.7-60.6-23.7-90.8c-7.7-29.1-14.8-58.4-22.2-87.6c-1.1-4.4-2.2-8.9-3.2-13.3c-0.2-0.6-0.2-1.3-0.2-2
					c0-0.7,0.4-1.1,1-1.2c0.5-0.1,1,0.1,1.3,0.6c0.4,0.7,0.7,1.5,0.9,2.3c2.9,10.8,5.8,21.6,8.8,32.4
					c14.4,52.6,27.8,105.4,41.5,158.2C219.1,339.9,219.5,341.1,219.8,342.2z"/>
				<path class="st24" d="M175.4,246.8c3.2,0,4.1,0.5,5.3,3.4c1.7,4.1,2.4,8.4,3.6,12.7c0.5,1.7-0.5,3-2.2,3.2
					c-3.6,0.5-7.2,1.2-10.7,2.4c-1.6,0.5-3.3-0.6-4.1-2.7c-1.4-3.5-2.6-7-3.2-10.7c-0.6-3.6-0.4-4.1,2.9-5.8
					C169.7,247.7,172.6,246.9,175.4,246.8z"/>
			</g>
		</g>
	</g>
	<g>
		<path class="st13" d="M302.3,296.3c-0.7-13.4-0.7-26.7,0.2-40.1c0.5-7.8,0.6-15.6,0.6-23.4c0-13.9,0.7-27.7,1.5-41.6
			c0.4-6.4,0.4-12.8,1.5-19.1c0.3-1.5,0.6-2.9,1-4.4c0.3-1.1,0.9-2.2-0.5-3.2c-0.8-0.6-0.3-1.8,0.8-2.4c1-0.5,2-0.7,3.1-0.8
			c5.8-0.8,11.7-1.1,17.6-1.5c12.6-0.8,25.2-1.7,37.8-2.2c9.6-0.4,19.3-0.5,28.9,0.1c2.1,0.1,4.2,0.2,6.2,0
			c4.7-0.4,9.5-0.2,14.2-0.4c5.5-0.2,11-0.4,16.4-0.6c3.6-0.1,7.1,0.2,10.7,0.7c2.4,0.4,4.1,1.8,4.9,4.1c0.3,0.9,0.4,1.8,0.5,2.7
			c1.1,13.8,1.1,27.7,0.8,41.6c-0.2,12.9-0.7,25.7-1.1,38.6c-0.1,4.7,0.2,9.5,0.4,14.2c0.5,10.2,1.1,20.4,0.8,30.6
			c-0.2,7.1-0.4,14.3-0.4,21.4c0,4.9,0.6,9.8,0.5,14.7c-0.1,3.4-0.2,6.8,0.3,10.2c0.5,3.3-1.2,5.3-4.7,5.6
			c-3.4,0.3-6.8,0.3-10.2,0.4c-14.9,0.7-29.9,1-44.8,0.6c-4.7-0.1-9.5,0.2-14.2,0.4c-8.8,0.5-17.6,0.2-26.3-0.9
			c-6.7-0.8-13.4-1-20.1-1c-6.8,0-13.6-0.4-20.4-1.1c-0.8-0.1-1.4-0.2-2.1,0.3c-1,0.7-1.9,0.1-2.6-0.7c-0.5-0.6-0.8-1.4-1-2.3
			c-0.3-1.6-0.4-3.1-0.4-4.7c0-8.1,0.1-16.3,0.1-24.4C302.3,303.9,302.3,300.1,302.3,296.3z"/>
		<path class="st25" d="M241.7,177.7c0.2,10.5-0.3,21.1-0.8,31.6c-0.3,6.6-0.4,13.1-0.7,19.7c-0.5,13.1-1,26.2-0.5,39.3
			c0.8,18.4,0.5,36.9,0.6,55.3c0,8.5-0.4,16.9-2,25.3c-0.1,0.5-0.3,1.1-0.1,1.4c1.6,2.2-0.1,3.6-1.4,4.9c-2,1.9-4.3,3.4-6.8,4.5
			c-4.9,2.2-8.4-0.6-9.3-4.9c-0.7-3.3-1.1-6.7-1-10.1c0.3-18.2,0.6-36.4,0.9-54.5c0.1-5.4,0.8-10.8,1.6-16.1
			c1-6.8,0.9-13.6,0.6-20.4c0-0.7-0.1-1.3-0.1-2c0.3-13-0.8-25.9-1.1-38.8c-0.1-4.4-0.1-8.8-0.1-13.2c-0.1-8.1-0.3-16.1-0.3-24.2
			c0-4.5,0-9,0.2-13.4c0.2-4.1,0.2-8.3-0.2-12.4c-0.4-4.5-0.6-9,0.7-13.4c1-3.5,3.3-5,6.9-4.5c3.6,0.5,6.4,2.6,9.5,4.1
			c0.4,0.2,0.7,0.5,0.7,1c0.3,3.4,2.1,6.5,2.3,9.9c0.2,3.5,0.4,7,0.5,10.4C241.8,164.1,241.7,170.9,241.7,177.7z"/>
		<g>
			<path class="st26" d="M234.7,215.7c0-5.8-0.3-11.6,0.1-17.4c0.8-13.8,0-27.5,0.5-41.3c0.2-5,0.2-9.9,0.4-14.9
				c0-1.5,0.6-2.9,0.5-4.4c-0.1-0.8,0.5-1.1,1.3-1.2c6.1-0.2,12.1-1.7,18.2-2.1c2.5-0.2,5-0.3,7.4-0.4c3.6-0.1,7.1-0.4,10.6-0.9
				c1.1-0.2,2.3-0.1,3.5-0.1c1.9-0.1,3.3,0.3,4,2.5c0.6,1.7,2.3,2.8,3.7,3.9c5.7,4.7,12,8.6,18.1,12.6c4.6,3.1,9.5,5.8,13.9,9.2
				c1.3,1,2.7,1.9,3.9,3c1.5,1.3,3.2,1.6,5,1.7c5.5,0.3,10.9-0.3,16.4-0.6c5-0.3,10.1-0.6,15.1-1c8.9-0.7,17.9-0.7,26.8-1.1
				c4.8-0.2,9.6,0,14.4-0.4c11.5-0.9,23.1-0.1,34.6-0.5c2.8-0.1,5.6-0.6,8.4-0.5c1.4,0,2.6,0.5,3.7,1.2c0.6,0.4,1,1.1,0.4,1.7
				c-0.8,0.9-0.4,1.8-0.3,2.8c0.2,2.1,0.3,4.3-0.2,6.4c-0.5,1.9-0.4,3.9-0.6,5.9c-0.8,7.1-0.9,14.3-0.5,21.4
				c0.4,6.1,0.3,12.1,0.3,18.1c0,5.6,0.5,11.3,0.7,16.9c0.1,3.7-0.1,7.5,0.4,11.2c0.6,4.4-0.1,8.8,0.8,13.1c0.2,0.7,0,1.5,0,2.2
				c0,13.2-0.1,26.4,0.1,39.6c0,3.5,0.3,7.1,0.8,10.6c0.3,2.3,0.1,4.6,0.2,7c0,2.6,0,5.1,0,7.7c0,2.3-0.9,3.1-3.2,3.1
				c-1.2,0-2.5,0-3.7,0c-12.4,0.6-24.9,0.2-37.3,0.6c-7.4,0.3-14.8-0.1-22.1,0.5c-5.1,0.4-10.1-0.1-15.1,0.5
				c-6.7,0.8-13.4,1.1-20.1,0.8c-4.1-0.2-8.3-0.2-12.4-0.8c-2.1-0.3-4.3,0.2-6.4-0.4c-0.5-0.1-0.8,0.2-1.1,0.5
				c-0.6,0.6-1.2,0.8-2,0.4c-0.6-0.3-1.3,0-1.9,0.3c-6.6,3-13.2,5.9-19.7,8.9c-4,1.8-7.6,4.4-11.4,6.5c-3.8,2.2-7.7,4.2-12.1,4.9
				c-0.3,0.1-0.6,0.1-1,0.2c-8.4,0.7-16.9,0.8-25.4,0.4c-4.8-0.3-9.5-1-14.3-0.9c-0.7,0-1.5,0-2.2,0.1c-1.4,0.3-2-0.1-2.2-1.5
				c-0.1-0.5,0-1,0-1.5c0-20.9-0.3-41.9,0.1-62.8c0.3-13.4-0.1-26.7,0.5-40.1c0.5-10,0.1-19.9,0.4-29.8
				C235.4,217,235.4,216.3,234.7,215.7z"/>
			<g>
				<path class="st27" d="M278.4,245.2c0,24-0.2,48,0.1,72c0.1,9.6,0.2,19.2,0.3,28.9c0,0.7,0.2,1.3-0.1,2c-0.4,0.9-1.1,1.4-2.2,1.3
					c-1-0.1-1.5-0.7-1.5-1.7c0-1,0-2,0-3c0-16,0.2-32-0.1-48.1c-0.7-35.4,0-70.9-0.5-106.3c-0.2-15.6-0.1-31.2-0.2-46.8
					c0-3.1,0.3-6.3,0.4-9.4c0-0.9,0.2-1.7,1.3-1.8c1.2-0.1,1.5,0.8,1.6,1.8c0.2,1.4,0.4,2.8,0.4,4.2c0,3.7,0,7.3,0.1,11
					C278.3,181.2,278.2,213.2,278.4,245.2z"/>
				<path class="st28" d="M325.7,310.3c0,3.2,0,7.3,0,11.4c0,1.1,0,2.1,0.3,3.2c0.4,1.8-0.3,3-1.6,3c-1.2,0.1-1.9-0.9-1.9-2.6
					c0-4.6,0.1-9.1-0.1-13.7c-0.4-7.3-0.2-14.6-0.6-21.9c-0.3-6.6-0.1-13.1-0.4-19.7c-0.5-9.2-0.1-18.4-0.6-27.6
					c-0.4-8.3-0.2-16.6-0.4-24.9c-0.3-9.2-0.3-18.4-0.6-27.6c-0.3-6.8-0.2-13.6-0.3-20.4c0-0.8-0.1-1.7,0.2-2.5
					c0.3-0.7,0.7-1.1,1.5-1c0.7,0.1,1,0.5,1.1,1.2c0.1,1.1,0.4,2.1,0.4,3.2c0.2,5.9,0.4,11.8,0.5,17.7c0.2,11.9,0.2,23.7,0.7,35.6
					c0.3,6.8,0.1,13.6,0.5,20.4c0.4,7.1,0.1,14.1,0.5,21.1c0.5,9,0.1,18.1,0.6,27.1C325.6,298,325.4,303.7,325.7,310.3z"/>
				<path class="st27" d="M253.6,316.7c0-8.1-0.1-16.3,0-24.4c0.8-50.6,0.1-101.3,0.4-151.9c0-0.7,0-1.5,0.1-2.2
					c0.1-0.6,0.6-1,1.2-1c0.7,0,1,0.6,1,1.2c0,0.7,0,1.3,0,2c0,14-0.3,28.1,0.1,42.1c0.3,13.3,0.4,26.6,0.2,39.8
					c-0.4,20.6-0.4,41.2-0.2,61.7c0.1,12.9,0.2,25.9,0.2,38.8c0,6.4,0.2,12.8,0.1,19.1c0,0.7,0,1.5-0.2,2.2
					c-0.2,0.8-0.7,1.3-1.6,1.2c-0.8-0.1-1.2-0.5-1.3-1.3c-0.1-0.7-0.1-1.3-0.1-2C253.6,333.6,253.6,325.2,253.6,316.7
					C253.6,316.7,253.6,316.7,253.6,316.7z"/>
				<path class="st27" d="M242,335c0.7-17.4,0.3-34.3,0.7-51.1c0.5-22.3,0-44.7,0.5-67c0.5-22.3,0.2-44.7,0.5-67
					c0-3.1,0.3-6.3,0.3-9.4c0-0.3,0-0.7,0.1-1c0.1-0.6,0.5-1.1,1.1-1.1c0.8,0,1.1,0.6,1.2,1.4c0.1,1.7,0.4,3.3,0.3,5
					c-0.3,7.5-0.3,14.9-0.3,22.4c0,8.6,0.1,17.3-0.2,25.9c-0.5,15.4-0.1,30.7-0.5,46.1c-0.5,17.3,0,34.7-0.5,52
					c-0.4,16.1-0.1,32.2-0.4,48.3c0,1.3,0,2.7,0.1,4c0,1-0.3,1.9-1.5,1.9c-1.2,0-1.5-0.9-1.5-1.9C242,340.4,242,337.4,242,335z"/>
				<path class="st27" d="M266.8,171.7c0,11,0.3,22.1-0.1,33.1c-0.3,10.3-0.4,20.6-0.2,30.9c0.1,5.7,0.5,11.4,0.2,17.2
					c-0.6,14-0.4,28.1-0.2,42.1c0.1,9.6,0.2,19.3,0.2,28.9c0,4.1-0.3,8.1-0.3,12.2c0,2.8,0.5,5.5,0.4,8.2c0,2.1-0.6,3.1-1.7,3
					c-1-0.1-1.3-1-1.2-3.1c0.1-2.1,0.1-4.2,0.1-6.2c0-14.1-0.2-28.2,0.1-42.4c0.6-26.2,0.3-52.5,0.4-78.7c0-26.1,0.1-52.2,0-78.2
					c0-1,0-2,0.1-3c0.1-0.5,0.4-0.9,1-0.9c0.6,0,0.9,0.4,1,0.9c0.1,0.7,0.1,1.5,0.1,2.2C266.8,149.1,266.8,160.4,266.8,171.7
					C266.8,171.7,266.8,171.7,266.8,171.7z"/>
			</g>
		</g>
	</g>
	<g>
		<path class="st29" d="M292.9,348.2c0.5-4.9-4-150.5,1.7-159.6c5.7-9.2,11.5-17.2,15.6-2.3l4.4,145.9L292.9,348.2z"/>
		<linearGradient id="SVGID_1_" gradientUnits="userSpaceOnUse" x1="292.1113" y1="165.5" x2="1920" y2="165.5">
			<stop  offset="0" style="stop-color:#F4F192;stop-opacity:0.3"/>
			<stop  offset="1" style="stop-color:#FFFFFF;stop-opacity:0"/>
		</linearGradient>
		<path class="st30" d="M1918-87L336.2,178.9c-12.5,1.3-35.4,12.2-35.4,12.2c-12.3,4.7-7.9,83-7.9,86.6c0,3.5,3.7,72.6,3.7,72.6
			L1920,418L1918-87z"/>
	</g>
	<g>
		<g>
			<g>
				<g>
					<path class="st31" d="M1594.7,341.2c0,1.2,0.1,2.2-1,2.6c-1,0.4-1.8,0.1-2.5-0.7c-0.8-0.9-1.7-1.6-2.3-2.6
						c-3.6-5.5-6.6-11.3-8.8-17.5c-1.5-4.4-1.8-8.9-1.2-13.4c0.3-2.4,1.8-3.9,3.6-5.1c1.5-1,3.8,0.1,4.5,2.3
						c0.6,1.8,1.1,3.7,1.2,5.6c0.4,5.2,1.6,10.3,2.6,15.4c0.7,3.6,2,7,3.3,10.4C1594.3,339.2,1594.8,340.3,1594.7,341.2z"/>
					<path class="st32" d="M1587.1,313.2c0.4-0.9-0.6-2.6,0.9-2.6c0.9,0,0.4,1.7,0.5,2.6c0.8,9.2,2.8,18.2,6.5,26.7
						c0.2,0.5,1.1,1.3,0.4,1.7c-0.9,0.5-1.2-0.6-1.5-1.2c-3.2-7-5-14.4-6.1-22C1587.4,316.7,1587.3,315,1587.1,313.2z"/>
				</g>
				<path class="st33" d="M1588.3,354.4c-3.2,0-4-0.7-3-2.3c1-1.6,2.5-3,4.4-4.1c1.6-1,2.1-2.1,1-3.5c-0.3-0.4-0.5-0.9-0.7-1.4
					c-0.5-2,1.2-3.4,4-3.4c1,0,1.4,0.5,1.8,1c2.5,3,3.8,6.4,5.7,9.6c0.4,0.7,0.3,1.4-0.8,1.6C1596.4,352.8,1592,353.7,1588.3,354.4z
					"/>
			</g>
			<g>
				<path class="st31" d="M1559.4,347.1c0.4-3.7,0.9-6.9,0.9-10.1c0-3.9,0-7.8,0.1-11.7c0.1-5.5,0.3-10.9,1.5-16.3
					c0.2-1.1,0.6-2.2,1.4-3.2c1.2-1.7,3.2-2.2,5.1-1.4c1.4,0.6,2.8,3,2.4,4.5c-0.5,1.6-0.4,3.1-0.4,4.7c0,3.2-0.4,6.3-0.8,9.4
					c-0.3,2.2-0.3,4.5-0.6,6.7c-0.7,5.2-1.3,10.3-2.5,15.4c-0.2,1.1-0.7,2.1-1.1,3c-0.9,1.8-2.2,2.5-3.5,2.2
					C1560.3,350,1559.4,348.5,1559.4,347.1z"/>
				<path class="st34" d="M1569.9,317c0.6,1.8,0.1,3.2,0,4.6c-0.7,6.5-1.5,13-2.3,19.5c-0.1,0.7-0.2,1.3-0.3,2
					c-0.1,0.5-0.2,1.1-0.8,1.1c-0.8,0-0.7-0.8-0.7-1.3c0-0.6,0.1-1.2,0.1-1.7c1-7.2,2-14.5,3-21.7
					C1568.9,318.7,1568.9,317.8,1569.9,317z"/>
			</g>
			<path class="st35" d="M1555.3,354.2c-2.3,0-4.1,0-5.9,0c-0.8,0-1.5,0-2.3-0.3c-0.7-0.3-1.5-0.5-1.6-1.3c-0.1-0.8,0.6-1.2,1.3-1.5
				c2.8-1.2,5.8-1.8,8.7-2.4c3.4-0.7,3.6-0.9,3.7-3.9c0-0.9,0-1.8-0.1-2.7c-0.1-1.5,0-1.7,1.8-1.7c1,0,1.9,0.2,2.8,0.4
				c4.2,0.6,3.9,1.9,3.4,4.3c-0.4,2-0.5,3.9-1,5.9c-0.6,2.4-0.8,2.6-3.6,3.1C1560,354.4,1557.4,354,1555.3,354.2z"/>
		</g>
		<g>
			<g>
				<path class="st36" d="M1595.2,270.4c-0.4,1.4-0.6,2.8-1.4,4c-0.7,1.2-2.1,1.3-3.3,0.5c-0.7-0.5-1.2-1.2-1.5-2
					c-0.6-1.5-1.3-2.9-1.6-4.4c-2.4-9.8-6.7-18.7-12.3-27c-0.7-1.1-1.5-2.2-2-3.4c-1.2-2.8,1-5.8,3.7-5.4c1.2,0.1,1.9,1,2.5,1.9
					c2.6,3.4,4.9,6.9,6.7,10.7c2.4,5,4.7,10.1,6.4,15.3c0.9,2.8,1.6,5.7,2.4,8.6C1595,269.6,1595.1,270,1595.2,270.4z"/>
				<path class="st37" d="M1564.1,224c0-4,4.3-6.7,8-5c1.8,0.8,3.2,2.1,4.4,3.5c2.4,2.8,4.5,5.9,6.7,8.9c0.3,0.5,0.6,1,0.8,1.5
					c0.4,0.8,0.1,1.5-0.8,1.7c-3.4,1-6.3,2.9-9.4,4.4c-0.9,0.4-1.6,0.5-2.1-0.4c-2.4-3.6-5.1-6.9-6.7-11
					C1564.5,226.6,1564,225.4,1564.1,224z"/>
			</g>
			<path class="st38" d="M1550.7,318.2c0.3-2.5,0.6-4.9,0.9-7.4c1.5-14.4,2.9-28.9,2.9-43.4c0.1-13.2,0.3-26.4,2.4-39.5
				c0.3-1.8,0.5-3.6,1-5.4c1.7-6.1,6.6-8,11.9-4.7c1.4,0.8,2.4,2,3.3,3.4c1.7,2.7,3.2,5.5,4,8.5c2.8,9.9,5.6,19.8,8.2,29.7
				c2.1,8,3.3,16.3,4.9,24.4c1.4,7,3.1,13.9,5.3,20.7c1.1,3.2,2,6.5,2.8,9.8c0.6,2.3-0.2,3.1-2.6,2.5c-1.6-0.4-3.1-1.3-4.5-2.1
				c-2.7-1.4-3.8-1.3-6,0.8c-1.1,1-2.1,2.2-3.1,3.3c-3.4,3.6-5.6,4.2-10.2,2.3c-1.7-0.7-3.3-1.5-4.9-2.3c-0.8-0.4-1.6-0.9-2.4-1.3
				c-3.3-1.8-6.4-1.3-9.2,1.2c-0.7,0.6-1.3,1.2-2.1,1.8c-1.5,1.2-2.4,0.8-2.7-1.1C1550.7,319,1550.8,318.6,1550.7,318.2
				C1550.8,318.2,1550.7,318.2,1550.7,318.2z"/>
			<g>
				<g>
					<path class="st36" d="M1570.9,240.6c-0.3-3.1,1.2-4.4,3.9-4c1.5,0.2,2.3,1.3,2.7,2.6c2.2,6.8,5.9,12.8,9,19.1
						c1.6,3.3,3.3,6.7,5.8,9.6c2.3,2.6,4.1,5.7,7.3,7.4c1.5,0.8,1.3,2.6,2.1,3.7c0.2,0.3-0.1,0.9-0.5,1c-1.3,0.5-2.6,1.4-3.9,0.2
						c-0.6-0.5-1.1-0.6-1.9,0c-0.9,0.7-1.8,0-2.6-0.7c-2.1-1.9-3.6-4.2-5.1-6.4c-6.4-9.2-11.5-19.2-16.1-29.4
						C1571,242.7,1570.8,241.6,1570.9,240.6z"/>
					<g>
						<path class="st39" d="M1597.6,275.2c-5.4-4.2-8.6-10-11.7-15.9c-2.7-5-5.1-10.3-7.6-15.4c-0.6-1.3-1.2-2.7-1.3-4.2
							c0.7-0.2,0.9,0.2,1.1,0.5c2.8,6.3,5.7,12.5,9.1,18.5c2.5,4.5,5.1,8.9,8.7,12.6c1.1,1.1,2.2,2,3.5,2.8c0.5,0.3,1.1,0.7,0.6,1.4
							c-0.3,0.5-0.9,0.2-1.4,0c-0.3-0.1-0.6-0.3-0.9-0.4C1597.7,275.2,1597.7,275.2,1597.6,275.2z"/>
						<path class="st40" d="M1596.9,275c0.1,0,0.1,0,0.2,0c0,1.2,0.9,1.7,1.6,2.3c0.5,0.4,1.2,0.6,1.3,1.3c-0.5,0.7-0.9,0.2-1.3,0.1
							c-0.3-0.1-0.8-0.2-0.9,0.1c-0.6,2.4-1.7,0.6-2.3,0.2c-1.3-1-2.5-2.2-3.3-3.8c1.1-0.2,1.3,0.6,1.8,0.9c0.3,0.2,0.7,0.6,1.1,0.4
							c0.5-0.2,0.3-0.7,0.2-1.1c-0.1-0.3,0-0.5,0.1-0.7C1595.8,274.8,1596.3,274.9,1596.9,275z"/>
					</g>
				</g>
				<path class="st41" d="M1566.9,219.9c0.9,0.1,1.8,0.5,2.5,1c0.9,0.6,1.7,1.3,2.3,2.3c2.3,3.8,4.5,7.7,6.4,11.8
					c1.5,3.4,0.9,4.7-2.5,6.2c-1.9,0.8-3.7,1.9-5.4,3c-1.9,1.3-2.4,1.1-3.5-0.8c-2.2-3.7-3.9-7.7-5.5-11.7c-1-2.4-1.1-4.9-0.3-7.3
					C1561.5,222,1564.5,219.8,1566.9,219.9z"/>
			</g>
		</g>
		<g>
			<path class="st42" d="M1590.4,218.1c-4.7,0.2-9.3-3.4-10-7.4c-0.3-1.3,0-2.6,0.5-3.9c0.7-2,0.6-2.2-1.3-3c-2.1-1-2.8-2.2-2.4-4.6
				c0.3-1.8,0.2-1.8-1.5-2c-5.7-0.6-8.2-6.1-5.1-10.9c1.8-2.7,4.1-4.6,7.2-5.4c3.3-0.9,5.5,0.5,6.2,3.8c0.2,0.9,0.3,1.8,0.5,2.7
				c0.5,1.5,1.3,2,2.8,1.7c1.3-0.2,2.6-0.6,3.9-0.7c4-0.4,6.5,2.3,5.8,6.3c-0.2,0.9-0.5,1.8-0.6,2.7c-0.3,1.5,0.1,2.1,1.5,2.7
				c0.8,0.3,1.6,0.6,2.3,0.9c3.1,1.4,4.4,4,3.5,7.3c-0.7,2.9-2.5,5.1-4.9,6.7C1596.1,217,1593.1,218.1,1590.4,218.1z"/>
			<g>
				<path class="st31" d="M1565.7,187.6c5.4-0.2,9.4,4,10,10c0.1,0.7,0.1,1.5,0,2.2c-0.1,1.3,0.2,2.1,1.4,2.8
					c1.6,0.8,2.3,2.9,1.9,4.5c-0.6,2.4-3.5,3.7-5.8,2.9c-0.3,0.7-0.9,1.2-1.5,1.6c-0.6,0.4-1.3,0.7-1.9,1.1
					c-0.4,0.3-0.8,0.6-1.3,0.8c-0.4,0.2-0.6,0.3-0.9,0.6c-0.5,0.7-0.8,1.6-0.8,2.5c0,0.6-0.2,1.4-0.9,1.7c-0.8,0.4-1.3,1.5-2.4,1
					c-1.1-0.4-0.9-1.5-0.9-2.4c0.1-1.4-0.3-2.1-1.9-2.6c-4.1-1.1-7.3-5.5-7.5-10.2c-0.2-6.4,1.9-11.7,7.6-15.2
					C1562.5,188.1,1564,187.6,1565.7,187.6z"/>
				<path class="st43" d="M1560,191.9c-3.9,3.3-6.8,6.5-6.4,11.6c0,0.6,0.2,1.3-0.6,1.4c-0.7,0.1-0.9-0.6-1.2-1.1
					c-1.5-2.7-1.9-5.5-0.9-8.4c1.9-5.7,6.3-8.8,11.9-10.3c2.1-0.6,4.3,0.2,6.3,0.9c5.4,2.1,9.6,7,9.1,13.2c-0.1,1.8-0.3,3.6-2.5,4.3
					c-1.1,0.3-1.7,1.5-2.3,2.5c-0.3,0.5-0.5,1.1-1.3,0.9c-0.8-0.2-0.5-0.9-0.5-1.5c0.2-1.8,0.1-3.6-0.5-5.4c-0.4-1-0.9-1.3-2.1-1.1
					c-5.1,1.1-7.7-0.6-8.7-5.7C1560.2,193,1560.2,192.7,1560,191.9z"/>
				<path class="st32" d="M1566.2,213.9c0.1,0.8-0.3,1-0.6,1.2c-0.8,0.4-1.6,0.5-2.4,0.1c-0.1-0.1-0.2-0.3-0.2-0.4
					c0.4-0.9,1.3-0.8,2.1-0.9C1565.5,213.8,1565.8,213.8,1566.2,213.9z"/>
				<path class="st40" d="M1574.6,208.3c-0.2-0.6,0.1-0.9,0.4-1.2c0.5-0.5,1.3-1.2,1.9-0.4c0.5,0.7-0.5,1-0.9,1.4
					C1575.6,208.4,1575.2,208.5,1574.6,208.3z"/>
				<g>
					<path class="st44" d="M1560.5,205.6c0-1.1,0-1.5,0-2c0-0.6,0.2-1.2,1-1.2c0.6,0,1.2,0.2,1.3,0.9c0.4,1.5,0.5,2.9,0,4.4
						c-0.2,0.5-0.5,0.8-1.1,0.8c-0.4,0-0.7-0.3-0.9-0.7C1560.4,206.9,1560.5,206,1560.5,205.6z"/>
					<path class="st39" d="M1566.4,209c0,2-1,2.6-2.2,2.9c-1.2,0.3-2.3,0.2-3.2-0.7c-0.4-0.4-0.3-0.9,0.3-1.1c0.3-0.1,0.7-0.1,1,0
						C1563.7,210.4,1564.9,210.1,1566.4,209z"/>
					<path class="st45" d="M1568.4,199.2c-1.5-0.1-2.8-0.1-4.1,0.4c-0.3,0.1-0.7,0-0.8-0.4c-0.1-0.2-0.1-0.5,0.1-0.7
						c0.7-0.9,1.7-0.9,2.7-0.9C1567.3,197.6,1568.2,197.8,1568.4,199.2z"/>
					<path class="st45" d="M1559.4,199.4c-1.4,0.5-2.6,0.3-3.6,0.9c-0.3,0.2-0.8,0.1-1-0.4c-0.1-0.4,0.1-0.8,0.5-1
						C1556.4,198,1557.8,198.2,1559.4,199.4z"/>
					<path class="st46" d="M1566.4,204.6c-0.8,0-1-0.5-1-1.2c0-0.7-0.1-1.4,0.8-1.5c0.8-0.1,0.9,0.5,0.9,1.1
						C1567.1,203.7,1567.2,204.4,1566.4,204.6z"/>
					<path class="st47" d="M1557.3,205.3c-0.6-0.1-0.8-0.5-0.8-1c0-0.5,0.2-1,0.8-1c0.6,0,0.8,0.5,0.8,1
						C1558.1,204.8,1557.9,205.3,1557.3,205.3z"/>
				</g>
			</g>
		</g>
	</g>
	<g>
		<g>
			<g>
				<g>
					<g>
						<path class="st36" d="M421.2,332.1c2.5-0.6,3.9,0.8,4.8,3.1c0.6,1.7,1.4,3.4,2,5.1c0.6,1.9,0.6,3.9-1.2,5.2
							c-1.7,1.3-3.5,0.3-5.1-0.6c-1-0.6-1.8-1.5-2.4-2.5c-0.7-1.1-1.4-2.3-2.1-3.4c-1-1.6-1.3-3.3-0.5-4.9
							C417.6,332.4,419.2,331.7,421.2,332.1z"/>
						<path class="st48" d="M424.7,333.6c0.4,0,0.6,0.2,0.8,0.5c1.2,2.3,2.5,4.7,3.7,7c0.2,0.3,0.2,0.6-0.2,0.9
							c-0.3,0.2-0.7,0.1-0.9-0.1c-1.9-2.1-3.2-4.6-4-7.3C424,334.1,424.4,333.6,424.7,333.6z"/>
					</g>
					<path class="st49" d="M414.2,354.4c-1.5,0-2-0.9-1.4-2.2c0.6-1.1,1.5-1.9,2.5-2.7c4-3.1,8.4-5.6,13.1-7.5
						c1-0.4,1.7-0.3,2.5,0.5c1.3,1.2,2.2,2.7,3.2,4.1c0.5,0.8,0.3,1.4-0.6,1.8c-0.5,0.2-1.1,0.4-1.6,0.6c-5.3,1.2-10.3,3.2-15.4,4.8
						C415.8,354.1,415,354.5,414.2,354.4z"/>
				</g>
				<path class="st50" d="M386.7,278.2c0.2-4.1,0.4-7.5,1.1-10.9c0.7-3.4,2.4-6.3,4.6-9c3.9-4.6,13.2-3.2,16.1,0.6
					c1.9,2.5,2.5,5.4,2.3,8.5c-0.2,3.6-0.8,7.2-1.2,10.9c-0.7,7.5-0.1,14.9,2.2,22.1c2.4,7.8,5.6,15.2,9.6,22.3
					c1.5,2.6,2.8,5.3,4.2,7.9c0.9,1.8,0.9,2.1-1,3.1c-2.1,1.2-3.9,2.8-5.8,4.2c-2.3,1.8-3.1,1.8-4.9-0.6c-2.5-3.4-4.8-7-7.2-10.5
					c-5-7.5-9.2-15.3-13.3-23.3C389.4,295.5,387.2,286.7,386.7,278.2z"/>
			</g>
			<g>
				<g>
					<g>
						<path class="st31" d="M346.1,316.6c-0.6,3-1.3,6.5-3,9.7c-0.2,0.4-0.5,0.7-0.7,1c-1.7,2-3.2,2.6-4.6,1.9
							c-2.2-1.1-3.3-3.4-3.1-5.7c0.3-2.4,0.7-4.7,1.5-7c0.4-1.1,0.9-2.1,1.6-3.1c1.4-2,3.4-3,5.2-2.4
							C345.1,311.7,346.2,313.6,346.1,316.6z"/>
						<path class="st51" d="M341.8,326.6c0.6-3.2,1.7-6.5,3.1-9.7c0.2-0.5,0.5-1.3,1.2-0.9c0.7,0.3,0.3,1,0.1,1.5
							c-1.1,3.4-2.3,6.7-3,10.2c-0.1,0.5-0.3,1.1-0.8,1c-0.6-0.1-0.6-0.7-0.5-1.2C341.8,327.3,341.8,327,341.8,326.6z"/>
					</g>
					<path class="st52" d="M340.1,333.3c-5.3-0.9-10.9-1.9-16.5-3.3c-0.6-0.2-1.3-0.4-1.8-0.7c-0.6-0.3-1.4-0.7-1.2-1.6
						c0.2-0.8,0.9-0.9,1.6-1c2.6-0.4,5.2-0.7,7.8-1c0.7-0.1,1.5,0,2.2-0.1c3.6-0.6,6.7,1.1,9.9,2.3c0.9,0.3,1.2,1,1,1.9
						c-0.2,1-0.5,1.9-1,2.8C341.7,333.2,341.2,333.6,340.1,333.3z"/>
				</g>
				<path class="st53" d="M403.3,258.9c1.3,0,2.6,0.2,3.9,0.6c3.8,1.3,5.3,5.2,3.2,8.6c-1.9,3-4.3,5.6-7.4,7.6
					c-7.4,4.8-15.2,8.5-23.5,11.4c-4.7,1.7-9.3,3.7-13.7,6.1c-9,4.8-15.3,11.8-18.3,21.8c-0.6,1.9-1.4,2.4-3.2,2
					c-2.3-0.5-4.5-1.6-6.8-2c-0.6-0.1-0.9-0.7-0.7-1.4c1.3-3.6,1.9-7.4,3.4-10.9c4-9.8,10.6-17.5,18.6-24.1
					c8.3-6.8,17.6-12,27.6-15.6c4.8-1.7,9.8-3.2,15-4C402,259,402.7,259,403.3,258.9z"/>
			</g>
		</g>
		<g>
			<g>
				<path class="st31" d="M396.6,214.9c-2.2-0.6-4.5-0.8-6.3-2.6c-1.6-1.6-2.6-3.5-3.1-5.6c-0.3-1.6-0.8-2.8-2.5-3.6
					c-2.1-1-2.7-3.3-2-5.6c0.7-2,2.3-3.2,4.4-2.6c1.4,0.4,2-0.1,2.6-1c1.9-3.1,4.9-4.8,8.2-6.2c6.7-2.8,13.5,1.5,13.9,8.7
					c0.1,1.7,0,3.3,0,5c0,0.9,0.3,1.5,1.2,1.9c3.3,1.7,3.7,4.4,1.1,7c-2,2-4.3,3.1-7.2,1.7c-0.6-0.3-1.1-0.3-1.6,0.1
					c-0.6,0.4-1.3,0.8-1.9,1.1c-1.2,0.5-1.6,1.2-1.5,2.5c0.1,1.4-0.3,2.8-1,4.1c-0.5,1.1-1.4,1.6-2.6,1.5c-1.1-0.1-1.7-0.6-1.8-1.7
					C396.6,218.1,396.6,216.6,396.6,214.9z"/>
				<g>
					<path class="st32" d="M386.9,202.7c-0.8-0.4-0.6-1-0.6-1.5c0-0.6,0.1-1.1-0.8-1.1c-0.6,0-1-0.5-1.3-1.1c-0.3-0.7-0.8-1.6,0-2
						c0.9-0.6,1.2,0.6,1.5,1.1c0.4,0.6,0.4,1.5,1.5,1.3c0.5-0.1,0.7,0.4,0.6,0.9C387.6,201.2,387.6,202,386.9,202.7z"/>
					<path class="st40" d="M411.2,209.1c-0.1,0-0.5,0-0.7-0.2c-0.8-0.7-1.1-0.2-1.5,0.4c-0.2,0.3-0.5,0.7-0.8,1
						c-0.2,0.3-0.6,0.4-0.9,0.2c-0.5-0.2-0.4-0.7-0.2-1c0.4-0.6,0.9-1.2,1.4-1.7c0.2-0.3,0.7-0.4,0.9-0.2c0.6,1,1.3,0.5,2.1,0.2
						c0.6-0.2,1.3-0.3,1.8,0.3c0.1,0.1,0,0.3,0,0.4C412.7,209,412.1,209,411.2,209.1z"/>
					<path class="st39" d="M399.2,216.1c-0.4-0.1-0.9-0.1-1.4-0.3c-0.4-0.1-0.5-0.4-0.5-0.8c0-0.2,0.3-0.4,0.6-0.4
						c0.5-0.1,1-0.1,1.5-0.1c0.7,0,1.7-0.4,1.7,0.7C401,216.2,399.9,215.9,399.2,216.1z"/>
					<g>
						<path class="st44" d="M396,205.8c-1,0.1-1.5-0.3-1.5-1.1c0.1-2.1,0.9-4,2.2-5.6c0.6-0.8,1.8-0.4,1.8,0.6
							c0.1,2.1-0.6,4-1.9,5.7C396.5,205.7,396.1,205.7,396,205.8z"/>
						<path class="st34" d="M392.4,207.6c0.6,0,0.8,0.2,1,0.5c1.7,1.6,1.7,1.6,3.7,0.5c0.4-0.2,0.7-0.5,1.1-0.1
							c0.3,0.4,0,0.8-0.3,1.1c-0.9,1-2,1.8-3.4,1.3C393.2,210.4,392.5,209.3,392.4,207.6z"/>
						<path class="st46" d="M406.5,200.7c-1.7-0.5-3.1-0.9-4.5-1.3c-0.5-0.1-0.9-0.4-0.8-1c0.1-0.5,0.5-0.6,0.9-0.7
							C403.9,197.4,405.7,198.4,406.5,200.7z"/>
						<path class="st46" d="M395.7,197.2c-1.5,0.5-2.6-0.1-3.8-0.5c-0.5-0.2-1-0.7-0.8-1.4c0.2-0.8,0.9-1,1.6-0.7
							C394,195,395.3,195.5,395.7,197.2z"/>
						<path class="st47" d="M402.4,201.8c0.7,0.1,1,0.5,1,1.2c-0.1,0.7-0.3,1.4-1.1,1.4c-0.7,0-1-0.5-0.9-1.2
							C401.4,202.5,401.6,201.9,402.4,201.8z"/>
						<path class="st47" d="M392.1,199.6c0.6,0.1,0.8,0.5,0.8,1c-0.1,0.7-0.3,1.3-1.1,1.4c-0.7,0.1-0.9-0.5-0.9-1.1
							C391,200.2,391.4,199.8,392.1,199.6z"/>
					</g>
				</g>
			</g>
			<path class="st54" d="M422.3,193.1c0,1.1-0.5,2-1.5,2.6c-1,0.6-1.9,1.3-3,1.8c-1.3,0.6-1.7,1.5-1.5,2.8c0.1,0.7,0.2,1.5,0.1,2.2
				c-0.2,2.2-1.3,3.3-3.4,2.9c-2-0.4-3.6-0.3-4.6,1.7c-0.1,0.3-0.5,0.4-0.8,0.6c-0.4,0.2-0.8,0.4-1.1,0c-0.3-0.2-0.4-0.6-0.2-0.9
				c0.9-1.4,0.1-2.3-0.9-3.3c-1.5-1.4-2-3.4-2.1-5.4c-0.1-1.4-0.1-2.8-0.4-4.2c-0.4-2.1-2-2.8-3.7-1.4c-1.5,1.3-2.8,1.5-4.7,1.1
				c-2-0.4-4.5,1.6-5.3,3.8c-0.2,0.4-0.2,0.8-0.3,1.2c-0.2,0.4-0.6,0.6-1,0.5c-0.3-0.1-0.5-0.4-0.6-0.7c0-0.2-0.1-0.3,0-0.5
				c0.6-2.7,0.6-5.6,1.6-8.3c0.9-2.4,2.5-4.4,5.5-4c0.9,0.1,1.1-0.6,1.5-1.1c2.2-2.9,5.1-4.7,8.7-5.3c4.7-0.9,7.8,0.8,9.2,5.4
				c0.4,1.4,1,1.7,2.3,1.8C419.9,186.9,421.9,189.8,422.3,193.1z"/>
		</g>
		<g>
			<g>
				<g>
					<path class="st36" d="M363.3,220.7c0,0.2,0,0.3,0,0.5c-0.1,2.2-0.7,4.2-3,5c-2.1,0.8-3.8-0.5-5.1-1.7c-1.4-1.3-2.5-2.9-3.6-4.4
						c-1.1-1.5-1.4-3.1-0.6-4.9c0.8-1.8,1.2-3.8,2.6-5.3c1.2-1.3,2.9-1.6,4.2-0.6C360,211.1,363.3,217.8,363.3,220.7z"/>
					<g>
						<path class="st39" d="M355.3,210.5c0,0,3.6,1.2,3.8,2.9C359.1,213.4,356.4,213.5,355.3,210.5z"/>
						<path class="st39" d="M357.6,215.4c0,0-2.7,0.1-3.8-2.9C353.8,212.6,357.4,213.7,357.6,215.4"/>
						<path class="st39" d="M356.1,217.7c0,0-2.7,0.1-3.8-2.9C352.3,214.9,355.9,216,356.1,217.7"/>
						<path class="st39" d="M359.7,213.5c0,0-3.4,2.9-0.5,4.9C359.2,218.4,358.3,215.7,359.7,213.5z"/>
					</g>
				</g>
				<g>
					<path class="st55" d="M377.7,238.3c-4.2,0.3-8.4-1.5-12.3-4.2c-3.1-2.1-6.1-4.2-8.4-7.3c-1.3-1.8-1.3-2,0.3-3.5
						c1.2-1.1,2.5-2.2,3.7-3.3c0.8-0.7,1.5-0.6,2.2,0c1.1,1.1,2.1,2.3,3.2,3.5c2.5,2.5,5.6,3.8,9.1,4c1.9,0.1,3.6-0.5,5.2-1.5
						c2-1.2,3.8-2.6,5.5-4.3c2.2-2.2,4.7-3.6,8-3.4c2.7,0.2,4.1,1.5,4.3,4.1c0.1,1.3-0.3,2.5-0.8,3.6
						C394.3,233.5,386.6,238.4,377.7,238.3z"/>
					<path class="st56" d="M360.5,220.1c0.4-0.1,0.8-0.5,1.2-0.1c0.3,0.4,0,0.8-0.3,1c-1,0.9-2,1.8-3,2.6c-0.7,0.6-0.8,1.1-0.3,1.9
						c5.2,7.7,12.5,11.5,21.7,11.3c2.6-0.1,4.9-1.4,7.3-2.4c0.7-0.3,1.7-1.2,2.2-0.3c0.5,0.9-0.7,1.3-1.3,1.7
						c-10.4,6.6-24.9,0.8-29.5-6.7c-0.6-1-1.3-1.9-1.9-2.9c-1.2-1.9-1.1-2.2,0.7-3.4c0.8-0.6,1.6-1.1,2.4-1.7
						C359.9,220.8,360.2,220.5,360.5,220.1z"/>
				</g>
			</g>
			<g>
				<path class="st57" d="M411.2,245.3c-0.2,5.3,0.4,11.4-0.5,17.4c-0.1,0.4,0,0.8-0.1,1.2c-0.5,2.5-1.5,3.1-3.8,2.1
					c-0.7-0.3-1.4-0.5-2.1-0.5c-3.5-0.1-6.9-0.5-10.4-0.9c-2-0.2-4-0.1-6,0.2c-2.9,0.4-3.9-0.5-4-3.5c-0.2-7.3,0.4-14.6,1.3-21.8
					c0.4-3.5,0.9-7.1,1.3-10.6c0.3-2.6,0.9-5.2,2.1-7.6c0.6-1.3,1.5-2.3,2.9-2.9c3.4-1.3,7-2,10.7-2c2.7,0,4.7,1.1,5.9,3.7
					c1,2.3,1.6,4.7,1.8,7.2C410.6,233,410.9,238.7,411.2,245.3z"/>
				<path class="st56" d="M408.7,222.2c1.5,0.4,1.6,1.4,1.7,2.1c1.1,4.3,1.9,8.8,1.9,13.3c0,8.2,0,16.4-0.3,24.6
					c-0.1,1.3-0.2,2.5-0.6,3.7c-0.2,0.6-0.5,1.1-1.2,1c-0.7-0.2-0.8-0.8-0.6-1.4c1.5-5.1,0.6-10.2,0.6-15.3c0-2.9-0.1-5.8,0-8.7
					c0.3-5.1-0.1-10.1-1-15.1C409,225.1,408.9,223.8,408.7,222.2z"/>
			</g>
			<g>
				<g>
					<path class="st58" d="M418.1,265.1c-0.1,0-0.1,0.1-0.2,0.1c-0.4,0.3-0.7,0.5-1.2,0.7c-0.6,0.2-1.2,0.2-1.5-0.3
						c-0.8-1.2,0.4-1.9,1.1-2.7c1.9-2.1,3.6-4.3,4.9-6.9c0.5-0.9,1.1-1.6,1.8-2.3c1.1-1.1,2.4-1.8,4-1.2c1.6,0.6,2.5,1.9,2.7,3.6
						c0.2,1.4,0.2,2.8-0.1,4.2c-0.5,3.2-0.8,6.4,0.6,9.5c0.1,0.3,0.2,0.6,0.3,0.9c0.1,0.6-0.3,0.9-0.7,1.2c-0.4,0.3-1.1,0-1.4-0.4
						c-0.1-0.1-0.2-0.3-0.3-0.5c-0.3-0.8-0.6-1.7-0.7-2.6c-0.1,0.6-0.1,1.1-0.2,1.7c0,0.4,0,0.9-0.2,1.3c-0.3,0.6-0.7,1.1-1.5,1
						c-1.7-0.2-1.2-2.4-1-3.6c-0.2,0.9-0.7,1.7-1,2.5c-0.2,0.7-0.7,1.1-1.4,1c-0.4,0-0.8-0.2-1-0.4c-0.3-0.3-0.3-0.8-0.2-1.2
						c0.1-0.8,0.2-1.6,0.3-2.4c-0.5,1.2-1.5,4-3.3,2.9c-0.9-0.6-0.7-1.6-0.4-2.5c0.3-1,0.7-1.9,1-2.9c0.1-0.3,0.3-1.3-0.3-0.8
						C418.3,265,418.2,265.1,418.1,265.1z"/>
					<g>
						<path class="st39" d="M423.2,265.2c-0.1,0.2-0.2,0.4-0.2,0.5c-0.1,0.2-0.3,0.4-0.4,0.6c-0.2,0.3-0.4,0.7-0.6,1.1
							c-0.4,0.7-0.7,1.5-1.2,2.2c-0.4,0.7-0.9,1.4-1.7,1.8c-0.2,0.1-0.5,0.1-0.7,0c-0.2-0.1-0.3-0.4-0.1-0.6
							c1.6-1.8,2.3-4.2,3.4-6.3c0.3-0.5,0.5-1.2,1.2-1.1C423.8,263.5,423.5,264.5,423.2,265.2z"/>
						<path class="st34" d="M424.1,265.3c0,0,0,0.1,0,0.1c0.3-0.4,1-1.2,1.1-0.2c0.3,2.4-0.4,4.7-1.9,6.7c-0.2,0.3-0.7,0.6-1.1,0.3
							c-0.5-0.4,0-0.7,0.2-1C423.4,269.4,423.7,267.3,424.1,265.3z"/>
						<path class="st39" d="M420.7,261.8c-0.1,1.7-3.1,4.4-4.7,4.3c-0.4,0-0.8-0.1-0.9-0.7c0-0.4,0.2-0.7,0.5-0.7
							c1.9-0.2,2.7-1.7,3.7-3c0.2-0.3,0.5-0.7,1-0.4C420.6,261.3,420.7,261.6,420.7,261.8z"/>
						<path class="st34" d="M420.7,257.8c0,0,7.8,1.1,8.1,1.4c0.3,0.3-1.6,7.9,1.8,11.5c0,0-2.3-5.9-0.6-10.8l0.2-1.4l-9.9-1.4
							C420.2,257.1,419,257.6,420.7,257.8z"/>
						<path class="st34" d="M427.4,264.1c0,0,0.7,5.9-0.2,7.2c0,0-1.3-5.9-0.1-7.6L427.4,264.1z"/>
					</g>
				</g>
				<g>
					<path class="st59" d="M430.2,254c0,0.8,0,1.5-0.1,2.3c0,0.4,0,1.6-0.5,1.8c-0.2,0.1-0.4,0.1-0.6,0.1c-2.1-0.2-4.2-0.4-6.2-0.6
						c-1-0.1-2.1-0.2-3.1-0.3c-0.5-0.1-0.4-0.4-0.4-0.8c0-0.3,0.1-0.7,0.1-1c1.4-7.8-1.4-14.3-6.2-20.2c-1-1.2-2.4-2-3.9-2.7
						c-1.1-0.5-2.3-1-3.4-1.6c-3.3-1.6-4.6-4.4-4.9-7.8c-0.1-1.6,0.7-4.3,2-5.3c1.8-1.4,4.2-1.1,6.1-0.1c4,2,7.3,4.9,10.4,8
						c3.9,3.9,6.2,8.8,7.8,13.9C428.9,244.3,430,249,430.2,254z"/>
					<path class="st56" d="M431.5,250.1c0.4,1.1,0.4,2.2,0.5,3.3c0,0,0,0,0,0c0,0.9-0.1,1.7-0.3,2.6c-0.1,0.7-0.2,1.6-0.5,2.2
						c0,0,0,0.1-0.1,0.1c0,0-0.1,0-0.1,0c-0.5,0-1.5,0.2-1.8-0.2c-0.4-0.5,0.3-1.2,0.4-1.8c0.4-1.3,0.2-2.7,0.1-4
						c-0.7-6.4-2-12.6-4.8-18.4c-3.2-6.9-8.4-11.8-15.4-14.8c-0.8-0.3-1.8-0.5-2.3-1.3c0.4-0.8,1.1-0.6,1.7-0.4
						c4.9,1.4,9.3,3.5,12.7,7.4c3.8,4.3,6.6,9.1,7.7,14.8c0.4,2.4,1.1,4.7,1.7,7c0,0.2,0,0.3,0,0.5c0.2,0.9,0.3,1.7,0.5,2.6
						C431.5,249.8,431.5,249.9,431.5,250.1z"/>
				</g>
			</g>
		</g>
	</g>
	<g>
		<g>
			<g>
				<g>
					<g>
						<path class="st58" d="M513.7,322.4c0.9-0.1,1.7,0.2,2.4,1c0.9,1,1.9,1.9,2.6,3c1.3,1.7,2.5,3.5,3.9,5.2c0.9,1,1,2.1,0.4,3.2
							c-0.6,1.1-1.7,1.2-2.8,1.1c-4-0.5-9.2-5.7-9.7-9.7C510.1,323.9,511.4,322.3,513.7,322.4z"/>
						<path class="st48" d="M516,324.2c0.6-0.1,1,0.2,1.2,0.5c1.2,1.3,2.4,2.6,3.6,3.9c0.3,0.4,0.7,0.8,0.2,1.3
							c-0.4,0.4-0.8,0.2-1.1-0.1c-1.7-1.3-3-2.8-4.1-4.6C515.5,324.7,515.6,324.3,516,324.2z"/>
					</g>
					<path class="st60" d="M517.2,350.4c0.3-3.8,0.7-7.3,1.6-10.7c0.4-1.5,0.3-2.7-0.8-3.9c-1-1.1-1.2-2.1,0-3.2
						c0.5-0.5,0.9-1.1,1.2-1.6c1.6-2.2,1.7-2.2,3.9-0.4c0.7,0.6,1.2,1.3,2,1.6c1.9,0.9,2.1,2.2,1.6,3.9c-1.4,5.5-3.4,10.8-5.8,16
						c-0.5,1-0.9,2.5-2.4,2.3c-1.8-0.3-1.2-2-1.4-3.1C517.2,350.9,517.2,350.5,517.2,350.4z"/>
				</g>
				<path class="st61" d="M482.5,260.9c-0.1,0.4-0.3,0.8-0.4,1.3c-1.3-1.9-1.3-3.7,0.2-5.4c1.3-1.4,2.6-2.8,4.1-3.9
					c3.2-2.5,7.4-1.8,9.9,1.3c2.1,2.7,2.9,5.6,3.2,9c0.5,7.4,1.3,14.7,2.7,22c1.2,6.2,2.1,12.4,3.9,18.5c1.4,4.8,3.6,9.3,5.6,13.8
					c0.9,2,2.6,3.4,4,5c1.4,1.5,1.4,1.7-0.1,3.2c-0.9,1-1.8,1.9-2.7,2.9c-0.8,1-1.6,1-2.6,0.3c-0.6-0.4-1.2-0.9-1.7-1.4
					c-2.3-2.4-4.7-4.7-6.9-7.2c-3.1-3.5-5.4-7.5-7.6-11.6c-3.5-6.5-5.9-13.5-8.3-20.5c-1.6-4.5-1.7-9.3-2.6-13.9
					C482.6,270,483,265.5,482.5,260.9z"/>
			</g>
			<g>
				<g>
					<g>
						<path class="st36" d="M454.3,342.6c0.3-3.3,0.6-6.6,1-9.8c0.2-1.7,1.1-3,2.2-4.2c0.7-0.8,1.6-0.8,2.5-0.5
							c1.5,0.5,3.1,3.3,2.6,5c-0.5,1.7-0.4,3.4-0.7,5.1c-0.4,2.6-1.2,4.9-2.6,7c-0.8,1.2-1.6,2.3-3,1.9c-1.2-0.3-1.8-1.5-1.9-3.5
							C454.4,343.2,454.4,342.9,454.3,342.6C454.3,342.6,454.3,342.6,454.3,342.6z"/>
						<path class="st39" d="M460.1,341.9c0.5-2.1,1-4.6,1.6-7.1c0.1-0.4,0.4-0.7,0.9-0.6c0.5,0.2,0.5,0.7,0.4,1
							c-0.2,1.3-0.6,2.6-0.8,3.9c-0.3,1.1-0.5,2.3-0.8,3.4c-0.1,0.4-0.2,1.1-0.9,0.9C460.1,343.2,460.2,342.6,460.1,341.9z"/>
					</g>
					<path class="st62" d="M453.1,342.7c0.7-1.5,0.5-3,1-4.4c0.3-0.9,0.6-1.2,1.6-0.7c1.9,1,3.7,2.3,5.9,2.6
						c0.8,0.1,0.8,0.8,0.6,1.4c-0.9,3-2.1,6-3.7,8.7c-0.7,1.1-1.6,1.6-3,1.1c-1.6-0.6-3.1-1.1-4.6-2c-3.3-2-6.2-4.5-8.9-7.2
						c-0.8-0.8-1.6-1.7-1.8-2.9c-0.3-1.5,0.3-2.1,1.7-1.7c0.9,0.2,1.7,0.7,2.5,1C447.4,339.9,450.2,341.3,453.1,342.7z"/>
				</g>
				<path class="st63" d="M455.4,329.5c-0.1-3.2,0.8-6,1-8.9c0.4-4.8,0.6-9.6,1.3-14.4c1.4-10.6,5.4-20.3,9.7-29.9
					c2.4-5.5,5.3-10.7,8.4-15.8c1.6-2.7,3.6-5,6-7c2.2-1.9,4.8-2.5,7.7-1.7c2.5,0.7,4.8,2,6.4,4c1,1.3,2,2.7,0.6,4.5
					c-0.4,0.5-0.3,1.3-0.2,1.9c0.1,4.9-1.2,9.5-3.8,13.7c-5.4,8.7-10.6,17.4-16,26.1c-4.2,6.7-7.2,14-9.5,21.6
					c-1.1,3.5-2.4,6.9-3.1,10.5c-0.2,1-0.9,1.2-1.7,1c-2-0.5-4-1.1-6-1.7c-0.8-0.2-1-0.8-0.9-1.6
					C455.3,330.9,455.4,330.1,455.4,329.5z"/>
			</g>
		</g>
		<g>
			<g>
				<g>
					<path class="st58" d="M447.3,191.5c-0.1-0.1-0.1-0.2-0.2-0.3c-0.2-0.5-0.3-1.2-0.4-1.8c-0.1-0.6,0-1.2,0.6-1.4
						c0.5-0.2,0.9,0.2,1.2,0.6c0.4,0.6,0.5,1.3,0.7,2c0.1,0.3,0.5,1.4,0.7,1.5c0.1,0,0.2-0.1,0.2-0.1c0-0.1,0.1-0.2,0.1-0.3
						c0.1-0.8,0-1.6-0.2-2.4c-0.2-0.8-0.1-1.6-0.1-2.4c0-0.4,0.1-0.8,0.6-1c0.6-0.2,0.9,0.2,1.1,0.7c0.4,1.2,0.8,2.5,1.3,4.1
						c0.4-1.1,0.2-2.1,0.8-2.8c0.3-0.4,0.7-0.7,1.2-0.6c0.5,0.1,0.9,0.4,1,1c0.1,0.5,0.1,1,0.1,1.5c0,5.6,0.1,11.3,0.1,16.9
						c0,2.4-0.5,3.3-1.9,3.5c-1.5,0.3-2.7-0.4-3.3-2.5c-1.2-3.9-4-6.5-6.4-9.5c-0.5-0.6-1.1-1.2-1.4-2c-0.2-0.5-0.5-1.1-0.1-1.6
						c0.9-1,1.9,0.9,2.4,1.4c0,0,0.1,0.1,0.1,0.1c0,0,0.1,0,0.1,0c0.2-0.2,0.2-0.5,0.1-0.7c-0.1-0.5-0.3-1-0.5-1.4
						c-0.2-0.4-0.6-0.8-0.7-1.2c-0.2-0.6-0.5-1.2,0-1.6c0.6-0.6,1.1-0.2,1.6,0.3c0.6,0.6,1.1,1.5,1.6,2.2c0.3-0.3,0.2-0.8,0-1.1
						C447.7,192.1,447.5,191.8,447.3,191.5z"/>
					<g>
						<path class="st64" d="M453.8,200.1c-2.3,0.3-3.3-0.9-2.8-3c0.5-2.1,0.4-2.1-0.2-4.3c-0.6-2.3-1.2-4.6-0.6-7
							c1,0,0.7,0.7,0.7,1.1c0,2.3,0.5,4.4,1.1,6.6c0.1,0.4,0.3,0.8,0.8,0.8c0.5,0,0.5-0.5,0.6-0.9c0-1.4-0.1-2.8,0-4.2
							c0.1-0.8,0.2-1.3,0.8-1.9c0.1-0.1,0.3-0.2,0.4-0.2c0.5,0,0.1,1,0,1.2c-0.1,0.6-0.2,1.2-0.3,1.8c-0.1,1.2-0.1,2.4,0,3.6
							c0,0.7,0,1.2-0.6,1.7C451.8,197.2,451.8,197.8,453.8,200.1z"/>
						<path class="st51" d="M443.1,194.4c0.2,0,0.4,0.1,0.5,0.2c0.2,0.2,0.3,0.5,0.3,0.8c0.4,1.2,1.1,2.2,1.9,3.2
							c0.3,0.3,0.5,0.5,0.9,0.8c0.4,0.3,0.7,0.8,1.1,1.1c1.5,1.3,2.3,3.1,3.1,4.9c0.1,0.3,0.2,0.6-0.2,1c-0.9-0.2-1-1.2-1.4-1.9
							c-0.7-1.3-1.3-2.5-2.6-3.4c-1.1-0.7-1.9-1.8-2.6-2.9c-0.3-0.6-0.6-1.2-0.9-1.8c-0.2-0.4-0.7-1.4-0.4-1.8
							C442.9,194.5,443,194.4,443.1,194.4z"/>
						<path class="st64" d="M447,195.9c0,0.1,0,0.2,0,0.4c0,0.1,0,0.2-0.1,0.3c-0.1,0.2-0.4,0.1-0.5,0c-0.3-0.2-0.5-0.7-0.6-1.1
							c-0.1-0.5-0.2-0.9-0.4-1.3c-0.2-0.4-0.4-0.8-0.7-1.2c-0.1-0.1-0.2-0.3-0.3-0.4c-0.1-0.2-0.1-0.4-0.1-0.6c0-0.3,0-0.6,0.2-0.9
							c0.6-0.9,1,0.8,1.1,1.2c0.2,0.8,0.5,1.5,0.8,2.3C446.6,195,446.9,195.4,447,195.9z"/>
						<path class="st64" d="M448.3,194.8c-0.4-0.5-0.4-1.2-0.6-1.9c-0.3-1.1-0.8-2.1-1-3.2c-0.1-0.4-0.1-0.8,0-1.1
							c0.1-0.3,0.2-0.5,0.5-0.6c0.1,0,0.2-0.1,0.3-0.1c0.1,0,0.1,0.1,0.1,0.2c0,0.1,0.1,0.3,0.1,0.4c0.1,0.3,0.2,0.6,0.2,0.9
							c0.2,0.6,0.3,1.2,0.5,1.7c0.3,1.1,0.6,2.2,0.8,3.4c0,0.2,0.2,0.7-0.1,0.8C448.9,195.4,448.5,195,448.3,194.8
							C448.4,194.9,448.4,194.8,448.3,194.8z"/>
					</g>
				</g>
				<path class="st65" d="M471.6,234.8c-2.3,0.2-4.2-0.9-6-2.2c-7.3-5.2-11.5-12.4-14.1-20.8c-0.4-1.5-0.6-3.1-1-4.6
					c-0.3-1.2,0.1-1.9,1-2.5c0.7-0.4,1.4-0.9,2.1-1.3c1.8-1,2.3-0.9,3,1c1,2.5,2.3,4.8,3.6,7.1c1.4,2.6,3.2,5,5.4,7.1
					c0.5,0.5,1.1,1,1.7,1.4c3.4,2.4,5.1,2.3,8-0.8c1.6-1.8,3.2-3.6,4.7-5.4c0.7-0.8,1.5-1.5,2.7-1.6c1.8-0.2,3.1,0.6,3.6,2.4
					c0.3,1,0.4,2.1,0.3,3.2c-0.4,3.7-1.3,7.2-3.3,10.3C480.7,232.5,476.6,234.5,471.6,234.8z"/>
			</g>
			<path class="st66" d="M487.6,261.7c-3.4,0-6.8,0.1-10.2,0c-2.5-0.1-3.2-0.8-3.3-3.4c-0.2-10.4,0-20.7,1.5-31
				c0.5-3.3,1.2-6.6,2.4-9.6c1.7-4.1,4.7-6.7,9.4-7.1c1.1-0.1,2.1,0.2,3.1,0.7c3.9,2.1,6.2,5.5,7.5,9.6c1.6,5,2.4,10.2,2.9,15.4
				c0.7,6.9,0.8,13.7,0.3,20.6c0,0.5-0.1,1-0.1,1.5c-0.3,2.4-0.9,3.1-3.3,3.1c-3.4,0.1-6.8,0-10.2,0
				C487.6,261.6,487.6,261.7,487.6,261.7z"/>
			<g>
				<g>
					<path class="st58" d="M505.5,264.4c-1.2-0.1-1.5,0.7-2.2,1c-0.7,0.3-1.3,0.3-1.8-0.2c-0.5-0.5-0.1-1.1,0.2-1.6
						c0.3-0.6,0.9-0.9,1.4-1.4c3.4-2.8,6.9-5.4,9.9-8.7c0.9-1,1.8-2.1,3.3-1.7c1.6,0.4,1.9,1.9,2.3,3.3c0.3,0.9,0.2,1.8,0,2.7
						c-0.8,3.6-1.9,7.2-2.3,10.9c-0.1,0.7-0.4,1.4-0.7,2.1c-0.7,1.7-0.9,1.7-2.6,0.8c-0.5-0.3-0.8-0.1-1.1,0c-0.6,0.1-1.2,0-1.5-0.6
						c-0.4-0.8-0.8-0.7-1.2,0c-0.3,0.4-0.9,0.8-1.3,0.5c-1.2-0.7-2.3-1.5-3.9-1.7c-0.7-0.1-0.4-1.1-0.1-1.7
						C504.3,267,505.2,265.9,505.5,264.4z M505.7,263.5l-0.1,0.1l0.1,0L505.7,263.5z"/>
					<g>
						<path class="st64" d="M514.3,272.6c-0.1-0.4-0.2-0.6-0.2-0.8c1.7-3.9,1.9-8.1,3-12c0.2-0.7,0.1-1.9,1-1.7
							c1,0.2,0.4,1.3,0.2,1.9c-1,3.3-1.6,6.6-2.3,9.9C515.8,270.9,515.7,272.2,514.3,272.6z"/>
						<path class="st64" d="M508.9,262.5c-0.4,2.7-1.5,5.1-3,7.3c-0.2,0.3-0.5,0.5-0.9,0.3c-0.3-0.2-0.3-0.6-0.1-0.9
							C506.5,267.2,507.3,264.6,508.9,262.5z"/>
						<path class="st64" d="M511.5,271.8c0.7-2.5,0.7-5.2,2.2-7.4C513.9,267.2,513.3,269.7,511.5,271.8z"/>
						<path class="st64" d="M508.3,271.2c1.2-2.5,1-5.5,2.9-7.6C510.8,266.3,510.2,269,508.3,271.2z"/>
						<path class="st64" d="M501.6,265.4c2.1-1.6,3.7-2.7,5.4-4.1C506.6,263.5,504.4,265.3,501.6,265.4z"/>
					</g>
				</g>
				<path class="st67" d="M491.3,212.7c0.3-0.2,0.6-0.3,0.9-0.3c0.4-0.1,0.7-0.1,1.1,0c1.6,0.1,3,0.4,4.4,1.3
					c1.4,0.9,2.8,1.8,4.1,2.9c2.5,2.1,4.8,4.6,6.9,7.1c5.3,6.6,8.9,14,10.3,22.3c0.6,3.5,0.9,7.1,0.4,10.6c-0.4,2.4-0.6,2.6-2.8,1.8
					c-1.8-0.6-3.6-0.5-5.4-0.9c-1.8-0.4-1.9-0.6-1.4-2.3c0.6-2,0.3-3.9-0.4-5.8c-2.1-5.9-4.6-11.5-8.4-16.6
					c-1.9-2.5-3.9-4.7-6.4-6.6c-2-1.6-4-3.2-4.9-5.8c-0.5-1.4-1-3-0.6-4.6C489.3,214.7,490.2,213.3,491.3,212.7z"/>
			</g>
		</g>
		<g>
			<g>
				<path class="st31" d="M485,182.4c4.6,0,8.9,3.6,10.2,8.3c0.1,0.3,0.1,0.7,0.2,1c0.5,2,0.5,2,2.6,2.3c2.3,0.3,3.5,3,2,4.9
					c-1.2,1.5-2.7,2.5-4.5,2.8c-1.1,0.2-1.8,0.6-2.3,1.6c-0.7,1.4-1.8,2.3-3,3.3c-1.1,0.9-1.6,2-1.5,3.5c0.1,0.7,0,1.5-0.1,2.2
					c-0.2,0.9-0.7,1.7-1.6,2.1c-1.1,0.5-1.7,0.4-2.2-0.7c-0.3-0.7-0.5-1.4-0.5-2.2c0-1.5-0.3-2.1-2-2.4c-3.8-0.5-6.5-2.8-7.9-6.4
					c-0.3-0.9-0.8-1.4-1.7-1.5c-1-0.1-1.6-0.8-2.2-1.5c-2-2.3-1.3-5.1,1.6-5.8c1.2-0.3,1.6-0.7,1.9-1.8c1.2-3.7,3.2-6.9,6.8-8.8
					C482.3,182.8,483.7,182.3,485,182.4z"/>
				<g>
					<path class="st44" d="M484.3,198.2c-0.1,1.7-0.3,3.1-0.8,4.4c-0.2,0.6-0.6,1.3-1.4,1.2c-0.8-0.1-1-0.7-1.1-1.4
						c-0.2-2.1,0.5-4.1,1.2-6c0.2-0.4,0.5-0.6,1-0.6c0.5,0,0.8,0.4,0.8,0.8C484.2,197.1,484.2,197.8,484.3,198.2z"/>
					<path class="st45" d="M491.7,193.8c-1.8-0.3-3.2-0.5-4.5-0.7c-0.2,0-0.4-0.3-0.5-0.5c-0.1-0.4,0.2-0.6,0.5-0.7
						C488.5,191.2,490.2,191.8,491.7,193.8z"/>
					<path class="st47" d="M477.8,193.7c-0.4-0.1-1.5,0.4-1.5-0.7c0-1,1.1-1,1.9-1.1c0.4,0,0.8,0.2,1.2,0.3c0.4,0.2,0.7,0.5,0.6,1
						c-0.1,0.5-0.6,0.5-1,0.5C478.7,193.7,478.4,193.7,477.8,193.7z"/>
					<path class="st32" d="M486.3,204c0.4,1.6-0.6,2.1-1.5,2.6c-0.8,0.4-1.7,0.6-2.6,0c-0.3-0.2-0.5-0.5-0.3-0.8
						c0.1-0.2,0.4-0.4,0.6-0.4C484,206,485.1,205,486.3,204z"/>
					<path class="st47" d="M479.1,198c-0.1,0.6-0.1,1.2-0.9,1.2c-0.7,0-0.9-0.6-0.8-1.2c0.1-0.6,0.3-1.1,1-1.1
						C479,197,479,197.6,479.1,198z"/>
					<path class="st47" d="M488.9,198.1c0,0.6-0.1,1.2-0.9,1.1c-0.6-0.1-0.8-0.5-0.8-1.1c0-0.6,0.2-1.2,0.9-1.2
						C488.9,197,488.9,197.6,488.9,198.1z"/>
					<path class="st64" d="M474.2,196.7c0.2,0.3,0.4,0.5,0.4,0.7c0,0.9,0.3,1.8-0.2,2.7c-0.1,0.2-0.5,0.1-0.6-0.1c-0.6-1-0.7-2,0-3
						C473.8,196.9,473.9,196.9,474.2,196.7z"/>
					<path class="st34" d="M496.4,199.2c-0.2-1.6,0.5-2.3,1.4-2.9c0.2-0.1,0.5,0.1,0.5,0.3C498.3,197.8,497.6,198.5,496.4,199.2z"/>
					<path class="st48" d="M472.5,197.8c0.2,0.5,0,0.8-0.2,0.8c-0.9,0.1-1.2-0.6-1.4-1.4c-0.1-0.4,0-0.9,0.5-0.9
						C472.3,196.4,472.3,197.3,472.5,197.8z"/>
					<path class="st64" d="M495.3,199.8c-0.1,0.4-0.1,1-0.8,0.9c-0.4,0-0.4-0.4-0.4-0.8c0.1-0.5,0.1-1.1,0.8-1
						C495.3,199.1,495.3,199.5,495.3,199.8z"/>
				</g>
			</g>
			<path class="st68" d="M468.8,188.4c-0.4-0.2-0.7-0.3-1-0.4c-1.1-0.5-2.1-1.1-2.1-2.5c0-1.3,1-2,2-2.7c1.2-0.8,2.6-1,3.9-1.4
				c0.5-0.7-0.2-1.1-0.4-1.6c-1.2-3.2,0.1-6.2,3.3-7.5c4.4-1.7,9.6-0.1,12.7,3.8c2.1,2.8,4.1,5.6,6.1,8.5c2.5,3.6,3.1,7.6,2.4,11.9
				c-0.1,0.5-0.3,1-0.5,1.4c-0.2,0.3-0.5,0.4-0.9,0.4c-0.5,0-0.7-0.3-0.9-0.8c0-0.2,0-0.3,0-0.5c-0.6-4.2-2.8-6.2-7-6.4
				c-0.8,0-1.7,0-2.5,0c-0.7,0-1.3-0.1-2-0.1c-1-0.1-1.8-1.3-3-0.5c-1.5,1-3.1,2-3.7,3.8c-0.2,0.5-0.3,1.1-0.5,1.7
				c-0.2,0.4-0.5,0.7-0.9,0.7c-0.3,0-0.7-0.2-0.7-0.6c-0.3-1.7-1.5-2.1-3-2.4c-2.7-0.5-3.1-1.9-1.4-4.2
				C468.5,188.9,468.6,188.7,468.8,188.4z"/>
		</g>
	</g>
	<g>
		<g>
			<g>
				<g>
					<g>
						<path class="st31" d="M1483.1,313.5c2.6-0.6,4.1,1.1,5.2,3.5c1.1,2.4,2.3,4.8,3.3,7.2c2.2,4.9,5.6,8.9,8.8,13.2
							c1.7,2.3,3.6,4.5,4.9,7.1c0.9,1.8,0.9,2.4-0.2,3.6c-0.9,1-2.8,1.4-3.9,0.6c-1.3-0.9-2.8-1.3-4.1-2.3
							c-4.7-3.5-9.2-7.3-13.1-11.7c-3.7-4.2-7.5-8.4-9-14c-0.8-3.1,2.6-6.9,6.1-7.2C1481.7,313.4,1482.2,313.5,1483.1,313.5z"/>
						<path class="st48" d="M1486.3,313.1c0.7,0.2,0.8,0.8,1,1.3c1.6,3.3,3.3,6.5,5,9.7c3.3,6.2,7.3,11.8,11.3,17.5
							c0.4,0.6,0.8,1.2,1.2,1.9c0.1,0.2,0.1,0.5-0.1,0.7c-0.2,0.2-0.4,0.2-0.7,0.1c-0.6-0.2-0.9-0.7-1.3-1.1
							c-6-8.3-12-16.7-16.1-26.2c-0.4-1-1-1.9-1-3C1485.5,313.4,1485.8,313.1,1486.3,313.1z"/>
					</g>
					<path class="st69" d="M1486.2,354.4c-0.9-0.1-1.8-0.1-2.1-1.1c-0.3-0.8,0.3-1.4,0.8-1.9c1.1-1,2.4-1.7,3.8-2.2
						c5.1-1.8,10.3-3.5,15.3-5.7c0.8-0.3,1.4-0.2,1.7,0.5c0.9,1.8,1.7,3.6,2.4,5.4c0.5,1.3-0.2,2.3-1.9,2.6
						c-3.2,0.7-6.3,1.4-9.6,1.4c-3.2,0-6.4,0.2-9.6,0.8C1486.8,354.4,1486.5,354.4,1486.2,354.4z"/>
				</g>
				<path class="st70" d="M1480.8,280.5c-0.2,8.7,1.1,17.5,4,26.1c0.7,1.5,0.9,3.3,1.4,4.9c0.5,1.7,1.3,3.1,2.2,4.6
					c-2.3,1.6-4.7,2.9-7.3,3.9c-0.9,0.4-1.9,0.7-2.7,1.3c-0.9,0.7-1.6,1.6-2.6,2.2c-0.4-0.7-0.7-1.5-1.1-2.2c-0.3-0.5-0.7-0.9-1-1.5
					c-2-3.6-4-7.3-5.6-11.1c-3.3-7.9-5.5-16.1-7-24.5c-1.1-6.2,0.3-11.8,3.6-17.1c1-1.6,2.5-2.9,4.2-3.8c2.6-1.4,5-0.6,7.3,0.9
					c3.1,2,4.4,5.1,4.6,8.7C1480.9,275.2,1480.8,277.7,1480.8,280.5z"/>
			</g>
			<g>
				<g>
					<g>
						<path class="st31" d="M1431,343.2c0.7-5.8,0.1-11.6,1-17.4c0.6-3.7,1.8-7.1,4.4-9.7c0.7-0.8,1.6-1.3,2.6-1.5
							c3.3-0.6,5.5,2.3,4.5,6c-0.6,2.2-1.3,4.3-1.8,6.6c-1.1,6.1-1.6,12.4-2.9,18.5c-0.3,1.7-0.9,3.2-1.7,4.6
							c-0.9,1.7-2.1,2.4-3.4,2c-1.5-0.4-2.3-1.7-2.6-3.3c-0.2-1.2-0.1-2.6-0.2-3.9C1431,344.5,1431,343.8,1431,343.2z"/>
						<path class="st48" d="M1437.4,344.6c0.8-7,1.6-13.6,3.3-20.1c0.3-1.3,0.8-2.7,1.7-3.7c0.2-0.3,0.6-0.5,0.9-0.4
							c0.6,0.2,0.5,0.7,0.4,1.1c-1.2,2.9-1.7,6-2.3,9.1c-0.9,4.1-1.3,8.2-1.8,12.4c-0.1,0.5-0.1,0.9-0.2,1.4c-0.2,0.7,0,2-1.1,1.9
							C1437.1,346.1,1437.4,345,1437.4,344.6z"/>
					</g>
					<path class="st71" d="M1429,353.3c-2.7,0-5.3,0-8,0c-0.7,0-1.3-0.1-2-0.3c-1.5-0.5-1.8-1.7-0.6-2.7c0.5-0.5,1.2-0.8,1.9-1.1
						c2.3-1,4.8-1.7,7.1-2.7c3.6-1.5,7.1-0.7,10.7-0.4c1,0.1,1.3,0.8,1.3,1.5c0.1,1.4,0.2,2.8,0.2,4.1c0,1.9-0.4,2.2-2.4,2.2
						c-2.8-0.1-5.5-0.2-8.3-0.4C1429,353.4,1429,353.3,1429,353.3z"/>
				</g>
				<path class="st72" d="M1479.8,273.1c-0.3,2.9-1.5,6-4,8.5c-3.5,3.5-7.1,7-10.8,10.4c-8.2,7.7-14.5,16.7-19.2,26.9
					c-1.4,3-1.6,3.1-4.9,2.5c-2.1-0.4-4.2-0.6-6.3-1c-2.5-0.5-2.8-0.9-2.3-3.3c0.7-3.2,1.5-6.3,2.7-9.3c1-2.5,1.8-5.1,2.7-7.6
					c4.6-12.5,12-23.1,22.4-31.4c2.9-2.3,6.2-4,9.9-4.6C1475.5,263.2,1479.9,267,1479.8,273.1z"/>
			</g>
		</g>
		<g>
			<path class="st31" d="M1472.7,226.8c-0.3-0.9,0.9-1.9,0.1-2.7c-0.6-0.6-1.8-0.7-2.7-1.2c-2.7-1.3-4.8-3.3-5.9-6.1
				c-0.5-1.2-0.9-2.1-2.4-2.6c-1.3-0.4-2.2-1.4-2.6-2.8c-0.5-1.8,0.4-3.6,2.3-4.5c0.5-0.3,1.1-0.6,1.6-0.5c1.4,0.1,2-0.7,2.8-1.7
				c3.1-4.3,7.7-6.3,12.7-6.8c4.8-0.5,6.6,1.5,8.3,6.1c0.1,0.4,0.2,0.8,0.3,1.2c0.2,0.9,2.3,4.6,2.9,5.3c1.4,1.7,1.8,3.6,0.1,5.3
				c-1.2,1.2-2.7,1.9-4.3,2.3c-0.6,0.1-1.2-0.1-1.7,0.4c-1.7,1.6-3.4,3.1-5.5,4.2c-0.6,0.3-0.5,1-0.6,1.5c-0.1,1.4-0.6,2.6-1.2,3.8
				c-0.8,1.5-1.5,2-2.6,1.7C1473.1,229.4,1472.6,228.6,1472.7,226.8z"/>
			<path class="st73" d="M1469.6,203.4c-1.9,2.4-3.6,4.7-5.1,7.2c-0.3,0.4-0.4,1-1.1,0.7c-0.5-0.2-0.5-0.7-0.4-1.1
				c0.1-1.3-0.3-2.6-0.3-4c0-4.4,1.1-8.4,5.4-10.7c0.4-0.2,0.6-0.5,0.9-0.9c2.6-3.5,6.2-5.1,10.4-5.7c2.4-0.3,4.6,0.2,6.7,1.4
				c5.5,3.2,9.8,7.3,11.2,13.9c0.4,2,1.2,4,2.1,5.8c0.7,1.4,1.7,2.2,3.1,2.6c3.2,0.9,6.5,1.2,9.8,1.6c5.1,0.7,7.6,3,8.1,8.1
				c0.3,2.9,0.9,5.7,2.3,8.3c1,1.9,2.3,3.2,4.2,4.1c1.4,0.7,2.9,1.3,4.2,2.2c3.2,2,5.4,4.7,6.6,8.1c1.3,3.6,2.3,7.3,2,11.2
				c-0.7,8.4-8.3,13.3-14.1,13.9c-3.9,0.4-7.6-0.5-11-2.3c-3.6-2-5.9-5-6.8-9.1c-0.4-2-0.6-3.9-0.8-5.9c-0.1-1.9-0.3-3.8-1.1-5.6
				c-0.7-1.7-1.7-3-3.6-3.5c-1.4-0.3-2.7-0.8-4.1-1.1c-4.5-1-7.1-3.6-7.9-8.2c-0.3-1.5-0.4-3-0.6-4.4c-0.2-1.9-1-3.5-2.8-4.4
				c-1.9-0.9-2.9-2.9-4.8-3.9c-0.6-0.3-0.5-0.9-0.1-1.3c1.2-1.1,2.1-2.5,4.1-2.5c1.6,0,2.9-1.1,4-2.3c1.3-1.4,1.1-3.2-0.4-4.4
				c-1.2-1-2.2-0.8-3,0.6c-0.6,1-1.1,2.1-1.4,3.2c-0.2,0.5-0.5,0.9-1.1,0.8c-0.6-0.1-0.7-0.6-0.7-1.1c0-0.2,0-0.3,0-0.5
				c0.2-3.7-0.8-5.5-4.2-7c-1.1-0.5-2.3-0.8-3.6-1C1473.4,206,1471.2,205.4,1469.6,203.4z"/>
			<g>
				<path class="st51" d="M1476.4,223.3c0.5,0.1,1-0.1,1,0.5c0.1,0.4-0.1,0.7-0.4,0.9c-0.8,0.6-1.7,0.9-2.7,0.4
					c-0.2-0.1-0.4-0.4-0.3-0.6C1474.5,223.3,1475.6,223.5,1476.4,223.3z"/>
				<path class="st39" d="M1464.4,212.6c-0.2,0.5,0.2,1.5-0.8,1.4c-0.7-0.1-0.8-0.9-0.8-1.6c0-0.3,0-0.7,0.1-1
					c0.1-0.4,0.3-0.8,0.8-0.7c0.5,0,0.7,0.4,0.7,0.9C1464.4,211.9,1464.4,212.2,1464.4,212.6z"/>
				<path class="st40" d="M1489,212.7c-0.1,0.8-1.2,2.3-1.7,2.2c-0.2,0-0.5-0.3-0.5-0.4c-0.2-1,0.4-1.7,1.1-2.4
					c0.2-0.3,0.6-0.3,0.9-0.1C1488.9,212.2,1489,212.5,1489,212.7z"/>
				<g>
					<path class="st44" d="M1471.4,214.4c-0.4-2.1-0.2-4,0.4-5.9c0.1-0.3,0.4-0.6,0.7-0.6c0.5,0,0.8,0.2,1,0.6
						c0.7,1.9,1.1,3.8,0.8,5.8c-0.1,0.7-0.6,1.2-1.3,1.3C1472,215.7,1471.6,215,1471.4,214.4z"/>
					<path class="st32" d="M1472.4,220.1c-0.9-0.1-1.8-0.3-2.5-1.2c-0.1-0.2-0.2-0.5,0-0.7c0.2-0.2,0.4-0.3,0.6-0.3
						c0.2,0,0.5,0.1,0.7,0.2c2.3,0.7,3.1,0.4,4.4-1.4c0.2-0.3,0.3-0.6,0.5-0.8c0.2-0.3,0.5-0.5,0.8-0.3c0.3,0.2,0.4,0.5,0.3,0.9
						C1477,218.2,1474.4,220.1,1472.4,220.1z"/>
					<path class="st46" d="M1481.7,207.9c-1.6,0.2-3.1-0.5-4.6-0.7c-0.3,0-0.6-0.4-0.6-0.7c0-0.5,0.4-0.7,0.8-0.8
						C1479,205.1,1480.7,206,1481.7,207.9z"/>
					<path class="st45" d="M1468.8,207.4c-0.6-0.1-1.3-0.1-1.9-0.2c-0.5-0.1-1.3-0.2-1.2-1c0.1-0.6,0.7-0.8,1.3-0.8
						c1-0.1,2-0.1,2.9,0.5c0.4,0.3,0.9,0.6,0.7,1.2c-0.1,0.5-0.6,0.4-1,0.5C1469.3,207.4,1469,207.4,1468.8,207.4z"/>
					<path class="st46" d="M1469,210.6c0,0.7-0.1,1.4-0.9,1.5c-0.5,0.1-0.8-0.5-0.8-1c0-0.7,0.1-1.4,1-1.3
						C1468.9,209.8,1469,210.2,1469,210.6z"/>
					<path class="st45" d="M1478.7,210c0.7,0,0.9,0.3,0.9,0.9c0,0.6,0.1,1.4-0.8,1.5c-0.6,0.1-0.9-0.3-0.9-0.9
						C1477.9,210.9,1477.9,210.2,1478.7,210z"/>
				</g>
				<path class="st48" d="M1462.3,211.1c-0.1,0.2-0.2,0.5-0.4,0.6c-0.3,0.2-0.6,0-0.8-0.3c-0.2-0.2-0.3-0.6-0.4-0.9
					c-0.2-0.5-0.3-1.1,0.2-1.3c0.7-0.3,0.9,0.4,1.1,0.9C1462.1,210.5,1462.2,210.8,1462.3,211.1z"/>
				<path class="st34" d="M1485.3,215.1c-0.2,0.4-0.3,0.8-0.5,1.1c-0.1,0.3-0.3,0.6-0.7,0.5c-0.6-0.1-0.5-0.6-0.4-1
					c0.1-0.4,0.3-0.8,0.5-1.1c0.1-0.2,0.4-0.3,0.6-0.1C1485.1,214.6,1485.2,214.9,1485.3,215.1z"/>
			</g>
		</g>
		<g>
			<g>
				<g>
					<path class="st58" d="M1492.6,283.4c-0.1,0.2-0.2,0.2-0.3,0.3c-0.3,0.9-0.7,1.9-1.8,1.7c-1.1-0.2-0.6-1.4-0.7-2.1
						c-0.1-0.9,0.2-1.8-0.1-2.9c-1,0.9-0.9,2.2-1.4,3.1c-0.3,0.5-0.7,1-1.3,0.9c-0.8-0.1-1-0.7-1.1-1.4c-0.2-1.1,0.6-2.1,0.4-3.1
						c-0.3-0.1-0.4-0.2-0.5-0.2c-0.7,0.1-1.4,0.8-2.1,0c-0.6-0.7-0.2-1.6,0.2-2.3c0.5-0.9,1.1-1.7,1.6-2.5c1.5-2.5,3.6-4.6,4.6-7.3
						c0.4-1,1.1-2,2.2-2.6c1.9-1,3.8-0.5,4.8,1.4c0.7,1.2,0.8,2.5,0.6,3.9c-0.5,3.5-0.8,6.9,0,10.3c0.3,1.5,0,1.9-1.5,1.9
						c-0.7,0-0.8,0.2-1,0.7C1494.5,284.9,1494.4,284.9,1492.6,283.4z M1486.7,278.3l-0.1,0.1l0.1,0L1486.7,278.3z"/>
					<g>
						<path class="st51" d="M1487.3,284.2c0.1-2.6,2-4.8,1.9-7.6c-1.6-0.1-1.9,1.2-2.7,2c-0.6,0.6-0.8,2.4-2,1.5
							c-0.9-0.6,0.5-1.5,0.9-2.2c0.7-1.2,1.6-2.3,3.1-2.7c1-0.3,1.4-1.1,1.5-2c0.1-0.5,0.3-0.8,0.8-0.7c0.5,0.1,0.6,0.5,0.6,1
							c0,0.1,0,0.2,0,0.2c-1.2,3.3-1.2,7.1-3.2,10.2C1488.2,284.1,1488,284.3,1487.3,284.2z"/>
						<path class="st51" d="M1496.9,269.5c0.3-0.1,0.6-0.1,0.9-0.2c0.2,1.3,0.1,2.6,0,3.9c-0.2,1.9-0.3,3.7,0.6,5.5
							c0.2,0.3,0.3,0.7,0.3,1.1c0,0.7,0.4,1.7-0.5,1.9c-0.9,0.1-0.7-1-1-1.6C1496,276.5,1496.4,273,1496.9,269.5z"/>
						<path class="st64" d="M1491.8,285.2c0-2.3,0.2-4.5,0.3-6.7c0-0.2,0.3-0.4,0.5-0.5c0.4,0,0.6,0.2,0.6,0.6
							C1493.2,280.9,1492.9,283.1,1491.8,285.2z"/>
						<path class="st64" d="M1495.3,283.8c-1-1.8-0.7-3.8-1.1-5.6c0-0.2,0.1-0.5,0.4-0.5c0.2,0,0.5,0.1,0.6,0.3
							C1495.8,279.9,1495.9,281.8,1495.3,283.8z"/>
					</g>
				</g>
				<g>
					<path class="st74" d="M1499,260.7c0,2.8,0.1,4.9-0.4,7.1c-0.4,1.7-0.6,1.8-2.4,1.7c-1.9-0.1-3.8-0.1-5.7-0.3
						c-1.6-0.1-1.8-0.4-1.7-2c0.6-7.7-1.3-14.8-5.7-21.2c-0.6-0.9-1.4-1.6-2.3-2.3c-1.6-1.3-2.8-3.1-3.4-5.1
						c-0.6-2.1-0.4-4.1-0.5-6.3c0-0.4,0-0.7,0-1.1c0.1-1,0.5-1.9,1.2-2.6c0.9-0.8,1.6-0.5,2.6-0.1c3.1,1.4,5.9,3.4,8.2,6
						c2.7,3.2,4.9,6.7,6.8,10.4C1498.3,250.2,1498.8,255.7,1499,260.7z"/>
					<path class="st75" d="M1499.3,258c-0.2-2.4-0.6-4.8-1.3-7.1c-0.8-2.8-2-5.4-3.2-8c-2.4-5-5.7-9.3-9.9-12.9
						c-1-0.8-1.7-1.3-3-1.5c-0.5-0.1-1.1-0.2-1.6-0.3c-0.2,0-0.4,0-0.4,0.1c0.3,0.3,0.7,0.4,1.1,0.7c0.3,0.2,0.5,0.3,0.8,0.5
						c1.3,0.9,2.6,1.8,3.8,2.9c0.8,0.8,1.5,1.6,2.2,2.5c3.2,4.3,6.1,8.8,8,13.8c0.1,0.1,0.1,0.2,0.1,0.4c0,0.4,0.1,0.8,0.4,1.1
						c0.5,0.5,0.6,2,0.8,2.7c0.3,1.1,0.4,2.2,0.6,3.2c0.2,2,0.3,3.9,0.3,5.9c0,1.6-0.3,3.3-0.5,4.9c-0.1,0.8-0.4,1.2-1.3,1.1
						c-1.3-0.1-2.6-0.2-4-0.3c-0.9,0-1.8-0.4-2.7,0.6c2.3,1.2,4.9,0.9,7.2,1.3c0.3-0.1,0.6-0.1,0.9-0.2c0.9-0.3,1.3-0.9,1.5-1.8
						C1499.3,264.6,1499.5,261.3,1499.3,258z"/>
				</g>
			</g>
			<g>
				<path class="st76" d="M1473.1,272.5c-3.7-0.3-7.4-0.5-11.2-0.8c-4.5-0.4-4.9-0.8-4.5-5.4c0.7-9.6,2.8-18.9,5.4-28
					c1.1-3.8,3-7.2,5.9-9.9c3.3-3,8.2-3.4,11.9-0.8c1.5,1.1,2.2,2.7,2.8,4.3c1.1,3.1,1.8,6.4,2,9.7c0.8,10.1-0.8,19.8-3.9,29.4
					c-0.7,2.2-0.7,2.1-3.1,2C1476.7,273,1474.9,272.7,1473.1,272.5z"/>
				<path class="st75" d="M1483.3,231.1c-0.4-0.8-0.8-1.6-1.3-2.3c-0.5-0.7-1-1.3-1.7-1.8c-1.5-1-3.2-1.4-5-1.3
					c0,0.1,0.1,0.2,0.2,0.2c2,0.7,3.3,1.5,4.8,3c2.1,2.4,2.4,5.4,3.1,8.3c0.3,1.2,0.2,2.4,0.4,3.6c0.2,1,0.4,2.1,0.5,3.2
					c0.8,9.3-1.3,18.1-4,26.9c-0.1,0.5-0.4,0.9-0.5,1.4c-0.1,0.4-0.1,0.8,0.4,1.1c0.5,0.3,1,0.1,1.3-0.4c0.4-0.9,0.8-1.8,1.1-2.8
					c0.6-2.2,1.3-4.5,1.8-6.7c0.8-3.4,1.3-6.8,1.6-10.2c0.1-1.7,0-3.3,0.1-5c0-1.7,0-3.4-0.1-5c-0.2-2.8-0.8-5.5-1.5-8.2
					c-0.3-1.1-0.3-2.1-0.8-3.1C1483.6,231.6,1483.4,231.3,1483.3,231.1z"/>
			</g>
			<g>
				<g>
					<path class="st58" d="M1428.3,246.7c-0.2-0.1-0.5-0.1-0.7-0.2c-0.5-0.2-1.5-0.5-1.7-1c-0.2-0.4,0-1.1,0.4-1.3
						c0.4-0.2,0.9-0.1,1.3,0c0.8,0.2,1.6,0.4,2.4,0.5c0.7,0.1,1.4,0.5,2.1,0.5c0,0,0.1,0,0.1,0c0,0,0,0,0,0
						c-0.1-0.4-0.5-0.5-0.9-0.6c-0.6-0.2-1.2-0.5-1.8-0.7c-0.5-0.2-0.8-0.3-1.2-0.7c-0.4-0.3-0.6-0.7-0.3-1.2c0.7-1.2,1.9-0.3,2.9,0
						c1.7,0.5,3.2,1.5,4.3,2.8c1.6,1.8,3.6,2.9,5.8,3.7c0.5,0.2,1.1,0.4,1.6,0.7c1.4,1,1.9,2.3,1.4,3.9c-0.4,1.4-1.9,2.4-3.5,2.1
						c-1.5-0.2-3.1-0.5-4.6-1.1c-1.1-0.5-2.2-0.8-3.4-1.1c-0.5-0.1-0.9-0.1-1.4-0.1c-0.6,0-1.2-0.1-1.7-0.2
						c-0.9-0.1-1.7-0.3-2.6-0.4c-0.3,0-0.6-0.1-0.8-0.3c-0.2-0.2-0.4-0.6-0.2-0.8c0.2-0.2,0.5-0.2,0.7-0.3c1.2,0,2.5-0.1,3.7-0.1
						c0.1,0,0.2,0,0.2-0.1c0,0,0-0.1,0-0.1c-0.1-0.3-0.5-0.5-0.8-0.6c-1.1-0.2-2.1-0.5-3.2-0.7c-0.5-0.1-1-0.2-0.9-0.9
						c0.2-1.1,1.4-0.8,2.2-0.7c0.7,0.1,1.4,0.1,2.1,0.1c0.1,0,1.7,0,1.6-0.1c-0.2-0.2-0.6-0.4-0.8-0.4
						C1429.8,247.1,1429.1,246.9,1428.3,246.7z"/>
					<g>
						<path class="st48" d="M1427.5,252.4C1427.5,252.4,1427.5,252.4,1427.5,252.4c-0.5-0.1-0.9-0.2-1.3-0.4c-0.1,0-0.1-0.1-0.2-0.2
							c0-0.1,0-0.2,0-0.2c0,0,0.1,0,0.2,0c1.8,0,3.6,0,5.5,0c0.5,0,1,0,1.5,0.1c0.4,0.1,0.7,0.3,1.1,0.5c1.2,0.6,2.3,1.3,3.7,1.3
							c0.8,0,1.2,0.5,1.2,1.3c0,0,0,0,0,0c-1.8,0.6-3.4,0.4-4.9-0.8c-0.4-0.3-0.9-0.6-1.4-0.8c-0.5-0.2-1.1-0.2-1.7-0.2
							C1430,252.8,1428.7,252.6,1427.5,252.4z"/>
						<path class="st51" d="M1425.6,249.2c0-0.1,0-0.3-0.1-0.4c2-0.6,3.9-0.4,5.8,0.3c0.4,0.1,0.8,0.4,0.6,0.9
							c-0.2,0.5-0.7,0.5-1.1,0.4C1429.2,249.9,1427.4,249.4,1425.6,249.2z"/>
						<path class="st48" d="M1425.8,245.2c0,0,4.4,0.9,6,1.7c0,0,0.2,0.6-0.4,0.7c0,0-3.2-0.9-3.6-1
							C1427.4,246.5,1425.7,246,1425.8,245.2z"/>
						<path class="st48" d="M1427.8,242.1c0,0,0.7,0.9,1.1,1c0.4,0.1,2.9,1,3.2,1.4c0.3,0.4,0,0.7,0,0.7l-0.5-0.4l-2.2-0.9
							C1429.5,243.8,1427.6,243.2,1427.8,242.1z"/>
					</g>
				</g>
				<g>
					<path class="st77" d="M1444.1,255.7c-1.3,0-2.7,0-4,0c-1.2,0-1.9-0.5-1.9-1.7c0-1.9-0.1-3.8-0.3-5.7c-0.2-1.3,0.3-1.8,1.5-1.7
						c5.1,0.4,9.8-1.4,14.4-3.1c2.1-0.8,4.1-1.8,6.1-2.7c3.5-1.6,6.2-4.1,8.4-7.1c1.1-1.5,2.1-3,3.6-4.1c1.7-1.2,3.4-1.7,5.3-0.7
						c1.9,1.1,2.8,3.1,2.4,5.3c-0.4,2.4-1.3,4.6-3,6.4c-1.7,1.9-3.7,3.6-5.8,5c-3.9,2.6-7.8,5.1-12,7
						C1454.1,254.7,1449.2,255.7,1444.1,255.7z"/>
					<path class="st75" d="M1478,237.3c-1.2,1.9-2.7,3.5-4.5,4.9c-7.1,5.5-15.1,9.2-23.7,11.6c-3.1,0.8-6.1,1.4-9.3,0.9
						c-0.5-0.1-1-0.1-1.5,0.1c0,0,0,0,0,0c-0.1,0.8,0.3,1.3,1.1,1.4c1.9,0.4,3.7,0.6,5.7,0.3c9.3-1.6,17.8-5.4,25.6-10.5
						c2.1-1.3,4.1-2.8,5.7-4.7c1.6-1.8,3-4,3.2-6.4c0.1-1.1,0.1-3.2-1-3.7C1479.3,233.3,1479.2,235.5,1478,237.3z"/>
				</g>
			</g>
		</g>
	</g>
	<g>
		<path class="st78" d="M329.5,198c0,1.5-1.2,2.7-2.7,2.7c-1.5,0-2.7-1.2-2.7-2.7c0-1.5,1.2-2.7,2.7-2.7
			C328.3,195.3,329.5,196.5,329.5,198z"/>
		<path class="st78" d="M346.4,189.2c0,0.7-0.6,1.3-1.3,1.3s-1.3-0.6-1.3-1.3c0-0.7,0.6-1.3,1.3-1.3S346.4,188.5,346.4,189.2z"/>
		<path class="st78" d="M323.9,226.3c0,1-0.8,1.9-1.9,1.9c-1,0-1.9-0.8-1.9-1.9c0-1,0.8-1.9,1.9-1.9
			C323,224.4,323.9,225.2,323.9,226.3z"/>
		<circle class="st78" cx="341.7" cy="233.5" r="2.3"/>
		<path class="st78" d="M338.3,217.6c0,0.6-0.5,1.1-1.1,1.1c-0.6,0-1.1-0.5-1.1-1.1s0.5-1.1,1.1-1.1
			C337.8,216.4,338.3,216.9,338.3,217.6z"/>
		<path class="st78" d="M321.2,248.2c0,0.8-0.7,1.5-1.5,1.5c-0.8,0-1.5-0.7-1.5-1.5c0-0.8,0.7-1.5,1.5-1.5
			C320.6,246.7,321.2,247.4,321.2,248.2z"/>
		<path class="st78" d="M347.7,261.9c0,0.8-0.7,1.5-1.5,1.5c-0.8,0-1.5-0.7-1.5-1.5c0-0.8,0.7-1.5,1.5-1.5
			C347.1,260.4,347.7,261,347.7,261.9z"/>
		<circle class="st78" cx="334.1" cy="271.7" r="1.1"/>
		<circle class="st78" cx="321.6" cy="281.9" r="1.1"/>
		<path class="st78" d="M337.1,287.2c0,1.3-1,2.3-2.3,2.3c-1.3,0-2.3-1-2.3-2.3c0-1.3,1-2.3,2.3-2.3
			C336.1,285,337.1,286,337.1,287.2z"/>
		<path class="st78" d="M374.3,255.8c0,0.8-0.7,1.5-1.5,1.5c-0.8,0-1.5-0.7-1.5-1.5s0.7-1.5,1.5-1.5
			C373.6,254.3,374.3,255,374.3,255.8z"/>
		<path class="st78" d="M364.8,309.6c0,0.4-0.3,0.8-0.8,0.8c-0.4,0-0.8-0.3-0.8-0.8c0-0.4,0.3-0.8,0.8-0.8
			C364.4,308.8,364.8,309.2,364.8,309.6z"/>
		<path class="st78" d="M327.3,302.4c0,1-0.8,1.9-1.9,1.9c-1,0-1.9-0.8-1.9-1.9c0-1,0.8-1.9,1.9-1.9
			C326.5,300.5,327.3,301.3,327.3,302.4z"/>
		<path class="st78" d="M322.4,313c0,0.6-0.5,1.1-1.1,1.1c-0.6,0-1.1-0.5-1.1-1.1s0.5-1.1,1.1-1.1
			C321.9,311.9,322.4,312.4,322.4,313z"/>
		<path class="st78" d="M359.9,322.8c0,0.4-0.3,0.8-0.8,0.8c-0.4,0-0.8-0.3-0.8-0.8c0-0.4,0.3-0.8,0.8-0.8
			C359.5,322.1,359.9,322.4,359.9,322.8z"/>
	</g>
</g>
<g id="Layer_2" class="st0">
	<rect x="141" class="st79" width="294" height="149"/>
	<rect x="541" y="218" class="st79" width="837" height="221"/>
	<rect x="1209" y="63" class="st79" width="578" height="86"/>
</g>
</svg>
