<?xml version="1.0" encoding="utf-8"?>
<!-- Generator: Adobe Illustrator 24.1.2, SVG Export Plug-In . SVG Version: 6.00 Build 0)  -->
<svg version="1.1" id="Layer_1" xmlns="http://www.w3.org/2000/svg" xmlns:xlink="http://www.w3.org/1999/xlink" x="0px" y="0px"
	 viewBox="0 0 1920 506" style="enable-background:new 0 0 1920 506;" xml:space="preserve">
<style type="text/css">
	.st0{display:none;}
	.st1{fill:#64B8CB;}
	.st2{fill:#FFFFFF;}
	.st3{fill:#EDBDA9;}
	.st4{fill-rule:evenodd;clip-rule:evenodd;fill:#123544;}
	.st5{fill-rule:evenodd;clip-rule:evenodd;fill:#FFFFFF;}
	.st6{fill:#123544;}
	.st7{fill:#FFD11D;}
	.st8{fill:#F76031;}
	.st9{opacity:0.3;fill:#FFFFFF;enable-background:new    ;}
	.st10{fill:#0A5B36;}
	.st11{fill:#0F7A4F;}
	.st12{fill:#0C6842;}
	.st13{fill:#158F5E;}
	.st14{fill:#D2F0A2;}
	.st15{fill:#BCEA73;}
	.st16{fill:#A3E440;}
	.st17{fill:#1CA56F;}
	.st18{fill:#99D53B;}
	.st19{fill:#88BA31;}
	.st20{fill:#8DC637;}
	.st21{fill:#58A9B7;}
</style>
<g id="Layer_1_1_" class="st0">
</g>
<g id="Layer_3">
	<rect x="-11" y="-39" class="st1" width="1949" height="559"/>
	<g>
		
			<ellipse transform="matrix(0.7071 -0.7071 0.7071 0.7071 270.6798 1249.8384)" class="st2" cx="1644" cy="298.2" rx="154.7" ry="154.7"/>
		<g>
			<g>
				<path class="st2" d="M1436,300.7c-0.7-56.8,21.7-113.6,66.6-155.1C1547.4,104,1605.8,86,1662.4,91l1.5-1.4
					c-3.9-0.4-7.9-0.6-11.9-0.8c-55.9-2.1-109.3,17.6-150.4,55.7c-41.1,38-64.8,89.8-67,145.7c-0.2,4-0.2,8-0.1,11.9L1436,300.7z"/>
				<path class="st2" d="M1823.6,193.1l1.1-1c-7.6-12.9-16.6-25-27-36.3c-14.8-16-31.7-29.3-50.1-39.8l-1.2,1.1
					c18.2,10.3,35.2,23.5,50.2,39.7C1807.1,168.1,1816.1,180.3,1823.6,193.1z"/>
				<path class="st2" d="M1850.4,272.3c8,64.2-14,131.3-65,178.6c-84.2,78-216.1,72.9-294-11.2c-15-16.2-26.9-34.1-35.8-53.1
					l-1.2,1.1c9.1,19.1,21.1,37,35.9,53c38,41.1,89.8,64.8,145.7,67c55.9,2.1,109.3-17.6,150.4-55.7c41.1-38,64.8-89.8,67-145.7
					c0.5-11.9-0.1-23.7-1.6-35.2L1850.4,272.3z"/>
			</g>
			<g>
				<path class="st2" d="M1492.8,215.3c6.4-11.6,14.1-22.6,23.4-32.9c62.5-69,168.6-75.6,239.2-15.9l0.9-1
					c-33.8-28.6-76.5-43.1-120.9-40.9c-46.4,2.3-89.1,22.5-120.2,56.9c-9.4,10.4-17.5,21.8-24,33.8H1492.8z"/>
				<path class="st2" d="M1471.9,288.2h-1.5c-0.3,6.1-0.4,12.3-0.1,18.5c2.2,44.4,20.9,85.5,52.7,116.3l0.9-1
					C1486.8,386,1469.2,336.7,1471.9,288.2z"/>
				<path class="st2" d="M1796.9,215.3c-1.7-3.2-3.6-6.4-5.6-9.5l-1,1.1c1.7,2.8,3.3,5.5,4.9,8.4H1796.9z"/>
				<path class="st2" d="M1817.5,288.2h-1.5c2.6,44.6-12,90.1-44.2,125.7c-52.9,58.4-136.9,72.1-204.2,38.8l-1,1.1
					c26.3,13.1,55.8,19.4,86,17.9c46.4-2.3,89.1-22.5,120.2-56.9c31.2-34.4,47.1-78.9,44.8-125.3
					C1817.6,289.1,1817.6,288.7,1817.5,288.2z"/>
			</g>
			<g>
				<path class="st2" d="M1714.4,470.9c2.5-1.1,5.1-2.2,7.6-3.4l-0.6-1.2c-2.5,1.2-5,2.3-7.5,3.3L1714.4,470.9z"/>
				<path class="st2" d="M1493.1,409.2l-1.1,0.8c1.6,2.2,3.4,4.4,5.1,6.5l1.1-0.9C1496.4,413.5,1494.7,411.4,1493.1,409.2z"/>
				<path class="st2" d="M1483.9,395.6l-1.2,0.7c1.4,2.3,2.9,4.7,4.5,6.9l1.1-0.8C1486.8,400.2,1485.3,397.9,1483.9,395.6z"/>
				<path class="st2" d="M1463.9,350.7l-1.3,0.4c0.8,2.6,1.6,5.3,2.5,7.9l1.3-0.4C1465.5,356,1464.7,353.3,1463.9,350.7z"/>
				<path class="st2" d="M1514.9,433.6l-0.9,1c2,1.9,4.1,3.7,6.2,5.5l0.9-1C1519,437.3,1516.9,435.5,1514.9,433.6z"/>
				<path class="st2" d="M1475.9,381.3l-1.2,0.6c1.2,2.5,2.5,4.9,3.9,7.3l1.2-0.7C1478.4,386.1,1477.1,383.7,1475.9,381.3z"/>
				<path class="st2" d="M1469.2,366.3l-1.3,0.5c1,2.6,2.1,5.1,3.2,7.6l1.3-0.6C1471.3,371.3,1470.2,368.8,1469.2,366.3z"/>
				<path class="st2" d="M1698.8,476.6c2.6-0.8,5.3-1.7,7.8-2.7l-0.5-1.3c-2.6,0.9-5.2,1.8-7.8,2.7L1698.8,476.6z"/>
				<path class="st2" d="M1666.4,482.4l0.2,1.4c2.7-0.4,5.5-0.8,8.2-1.3l-0.2-1.4C1671.8,481.7,1669.1,482.1,1666.4,482.4z"/>
				<path class="st2" d="M1682.5,479.6l0.3,1.3c2.7-0.6,5.4-1.3,8-2l-0.4-1.3C1687.9,478.3,1685.2,479,1682.5,479.6z"/>
				<path class="st2" d="M1527.4,444.3l-0.8,1.1c2.2,1.7,4.4,3.4,6.6,5l0.8-1.1C1531.7,447.7,1529.5,446,1527.4,444.3z"/>
				<path class="st2" d="M1540.7,453.9l-0.8,1.2c2.3,1.5,4.7,3,7,4.4l0.7-1.2C1545.4,456.9,1543,455.4,1540.7,453.9z"/>
				<path class="st2" d="M1574.9,471.4c-1.7-0.7-3.5-1.4-5.1-2.1l-0.5,1.3c1.9,0.8,3.9,1.6,5.9,2.4L1574.9,471.4z"/>
				<path class="st2" d="M1554.9,462.3l-0.6,1.2c2.4,1.3,4.9,2.5,7.4,3.7l0.6-1.2C1559.8,464.8,1557.3,463.6,1554.9,462.3z"/>
				<path class="st2" d="M1503.5,421.9l-1,0.9c1.8,2,3.7,4.1,5.6,6l1-1C1507.2,425.9,1505.3,423.9,1503.5,421.9z"/>
				<path class="st2" d="M1498.6,180.4l-1.1-0.9c-1.7,2.1-3.5,4.3-5.1,6.5l1.1,0.8C1495.2,184.7,1496.9,182.5,1498.6,180.4z"/>
				<path class="st2" d="M1520.7,155.9c-2.1,1.8-4.2,3.6-6.2,5.5l0.9,1c2-1.9,4.1-3.7,6.1-5.5L1520.7,155.9z"/>
				<path class="st2" d="M1508.6,167.2c-1.9,2-3.8,4-5.7,6l1,0.9c1.8-2,3.7-4,5.6-6L1508.6,167.2z"/>
				<path class="st2" d="M1532.5,146.6c-1.8,1.3-3.7,2.7-5.4,4.1l0.8,1.1c1.6-1.2,3.2-2.4,4.8-3.6L1532.5,146.6z"/>
				<path class="st2" d="M1609.6,115.4l-0.2-1.4c-2.4,0.4-4.9,0.9-7.3,1.5l0.2,1.4C1604.7,116.3,1607.1,115.8,1609.6,115.4z"/>
				<path class="st2" d="M1650.1,483.9l0.2,1.4c2.7-0.1,5.4-0.3,8.1-0.5l-0.1-1.4C1655.5,483.6,1652.8,483.7,1650.1,483.9z"/>
				<path class="st2" d="M1487.6,192.8c-1.6,2.3-3.1,4.6-4.5,6.9l1.2,0.7c1.4-2.3,2.9-4.6,4.5-6.9L1487.6,192.8z"/>
				<path class="st2" d="M1478.9,206.8c-1.3,2.4-2.7,4.9-3.9,7.3l1.2,0.6c1.2-2.4,2.5-4.9,3.9-7.3L1478.9,206.8z"/>
				<path class="st2" d="M1460.6,252.9c-0.7,2.7-1.3,5.4-1.8,8.1l1.4,0.3c0.5-2.7,1.2-5.4,1.8-8L1460.6,252.9z"/>
				<path class="st2" d="M1471.4,221.6c-1.1,2.5-2.2,5.1-3.2,7.6l1.3,0.5c1-2.5,2.1-5.1,3.2-7.6L1471.4,221.6z"/>
				<path class="st2" d="M1465.3,237c-0.9,2.6-1.8,5.3-2.5,7.9l1.3,0.4c0.8-2.6,1.6-5.3,2.5-7.8L1465.3,237z"/>
				<path class="st2" d="M1821.5,351.8c0.8-2.6,1.5-5.3,2.2-8l-1.3-0.3c-0.7,2.6-1.4,5.3-2.2,7.9L1821.5,351.8z"/>
				<path class="st2" d="M1812,222.9l1.3-0.6c-1.1-2.5-2.3-5-3.5-7.5l-1.2,0.6C1809.7,217.9,1810.9,220.4,1812,222.9z"/>
				<path class="st2" d="M1786.3,181.1l1.1-0.9c-1.7-2.1-3.5-4.2-5.4-6.3l-1,0.9C1782.8,176.9,1784.5,179,1786.3,181.1z"/>
				<path class="st2" d="M1729.3,463.9c2.4-1.3,4.8-2.6,7.2-4l-0.7-1.2c-2.3,1.4-4.8,2.7-7.2,4L1729.3,463.9z"/>
				<path class="st2" d="M1796.1,194.2l1.1-0.8c-1.5-2.3-3.1-4.5-4.8-6.7l-1.1,0.8C1792.9,189.7,1794.5,192,1796.1,194.2z"/>
				<path class="st2" d="M1642.7,112.5v-1.4c-2.7,0-5.5,0.1-8.3,0.2l0.1,1.4C1637.2,112.6,1640,112.5,1642.7,112.5z"/>
				<path class="st2" d="M1617.7,114.2l0.4-0.1c2.7-0.4,5.5-0.7,8.2-0.9l-0.1-1.4c-2.7,0.2-5.5,0.5-8.2,0.9l-0.4,0.1L1617.7,114.2z"
					/>
				<path class="st2" d="M1659.1,113.3l0.1-1.4c-2.7-0.2-5.5-0.4-8.3-0.6l-0.1,1.4C1653.6,112.8,1656.4,113,1659.1,113.3z"/>
				<path class="st2" d="M1707.1,124.2l0.5-1.3c-2.6-1-5.2-1.9-7.8-2.7l-0.4,1.3C1701.9,122.4,1704.5,123.3,1707.1,124.2z"/>
				<path class="st2" d="M1691.4,119.2l0.4-1.3c-2.6-0.7-5.4-1.4-8-2l-0.3,1.3C1686.1,117.7,1688.8,118.4,1691.4,119.2z"/>
				<path class="st2" d="M1675.4,115.5l0.2-1.4c-2.7-0.5-5.5-0.9-8.2-1.3l-0.2,1.4C1670,114.6,1672.7,115,1675.4,115.5z"/>
				<path class="st2" d="M1804.6,208.2l1.2-0.7c-1.3-2.4-2.7-4.8-4.2-7.1l-1.2,0.7C1801.9,203.4,1803.3,205.8,1804.6,208.2z"/>
				<path class="st2" d="M1781.2,423.5c1.8-2,3.7-4.2,5.4-6.3l-1.1-0.9c-1.7,2.1-3.5,4.2-5.4,6.2L1781.2,423.5z"/>
				<path class="st2" d="M1791.7,410.7c1.6-2.2,3.3-4.5,4.8-6.7l-1.1-0.8c-1.5,2.3-3.2,4.5-4.8,6.7L1791.7,410.7z"/>
				<path class="st2" d="M1801.1,397c1.5-2.3,2.9-4.7,4.2-7.1l-1.2-0.7c-1.3,2.4-2.7,4.8-4.2,7.1L1801.1,397z"/>
				<path class="st2" d="M1743.6,455.6c2.3-1.5,4.6-3,6.8-4.6l-0.8-1.1c-2.2,1.6-4.5,3.1-6.8,4.6L1743.6,455.6z"/>
				<path class="st2" d="M1809.2,382.6c1.2-2.5,2.4-5,3.6-7.5l-1.3-0.6c-1.1,2.5-2.3,5-3.5,7.4L1809.2,382.6z"/>
				<path class="st2" d="M1757.1,446c2.2-1.7,4.3-3.4,6.4-5.2l-0.9-1c-2.1,1.8-4.2,3.5-6.4,5.2L1757.1,446z"/>
				<path class="st2" d="M1769.6,435.3c2-1.9,4-3.8,5.9-5.8l-1-1c-1.9,1.9-3.9,3.9-5.9,5.7L1769.6,435.3z"/>
				<path class="st2" d="M1825.7,270.1l1.4-0.2c-0.4-2.7-0.9-5.5-1.4-8.2l-1.4,0.3C1824.8,264.7,1825.3,267.4,1825.7,270.1z"/>
				<path class="st2" d="M1816,367.5c1-2.6,2-5.2,2.9-7.8l-1.3-0.5c-0.9,2.6-1.9,5.2-2.9,7.7L1816,367.5z"/>
				<path class="st2" d="M1817.9,238.2l1.3-0.4c-0.9-2.6-1.8-5.2-2.8-7.8l-1.3,0.5C1816.1,233,1817.1,235.6,1817.9,238.2z"/>
				<path class="st2" d="M1822.5,254l1.3-0.3c-0.6-2.7-1.4-5.4-2.1-8l-1.3,0.4C1821.2,248.7,1821.9,251.3,1822.5,254z"/>
				<path class="st2" d="M1828.9,286.3c-0.2-2.7-0.4-5.5-0.7-8.2l-1.4,0.1c0.3,2.7,0.5,5.5,0.7,8.2L1828.9,286.3z"/>
				<path class="st2" d="M1825.5,335.7c0.5-2.7,1-5.4,1.5-8.1l-1.4-0.2c-0.4,2.7-0.9,5.4-1.5,8.1L1825.5,335.7z"/>
				<path class="st2" d="M1828.1,319.4c0.3-2.7,0.6-5.5,0.7-8.2l-1.4-0.1c-0.2,2.7-0.4,5.5-0.7,8.2L1828.1,319.4z"/>
				<path class="st2" d="M1829.2,302.9c0.1-2.7,0.1-5.5,0-8.3h-1.4c0.1,2.7,0.1,5.5,0,8.2L1829.2,302.9z"/>
			</g>
		</g>
		<path class="st3" d="M1696.5,397.4c-6.8-11.6-25.8-14.1-15.7-21.4c-0.3,0.2,3.8-3.4,4.8-4.5c0.4-0.5,0.7-0.8,1-1.1
			c0.1-0.3,0.3-0.6,0.6-1c0.4-0.7,2-4.8,1.5-3.1c0.4-1.3,0.8-2.7,1.1-4.1c0.1-0.7,0.2-1.2,0.3-1.5c0.1-0.8,0.2-1.6,0.2-2.4
			c0.1-2.2,0.2-4.3,0.2-6.5c0.1-4.7,0-9.5,0-14.2c0-6.3,2.1-11.2,5.3-14.8c-5.9-3.8-12.2-4.3-14.5-1l-0.8,1.2l-3.6,5.1l-0.2,0.3
			l-2.7-1.9l3.5-5l3.6-5.1l2.9-4.1c2.4-3.4-0.6-9.6-6.6-13.9c-6.1-4.3-12.9-5-15.3-1.6l-2.9,4.1l-3.6,5.1l-3.5,5l-2.7-1.9l16.2-22.9
			l0,0c0.1-0.2,0.3-0.3,0.4-0.5l21.3-30.2c3.9-5.5,2.1-13.5-3.9-17.7c-6.1-4.3-14.1-3.3-18,2.2l-21.3,30.2c-0.1,0.2-0.2,0.4-0.3,0.6
			l0,0l-46.8,66.4l-12.4,24.2l-3.5-67c1.9-7.9,3-15.6-3.5-20.2s-15.5-3-20.2,3.5l-3.8,56.1c0,0-6.5,15.3-2,39.3l10.5,21.2
			c0.5,122.2,7.5,80.3,0.5,90.1l89.4,10.1c2.5-10.1,0.5-59.5,0.5-59.5c3.6-1.1,13.8-4.2,18.9-6.9c2.4-1.3,6.5-3.9,11.4-9.9
			C1691.4,405.9,1698.7,401.2,1696.5,397.4z"/>
		<path class="st3" d="M1727.1,218.3c-6.1-4.3-14.1-3.3-18,2.2l-21.3,30.2c-0.1,0.2-0.2,0.4-0.3,0.6l0,0l-46.8,66.4l-0.2-0.1
			c0,0.3,0.1,0.5,0.1,0.8c1.6,9.8,2.3,21.2,5.7,30.7l0,0c0,0,0.1,0,0.1,0.1c0.1-0.4,0.6,0.1,0.9,0.5c0.1,0,0.1,0.1,0.2,0.1
			c0.2,0.1,0.3,0.1,0.6,0.2c1.3,0.4,2.6,0.8,3.9,1.1c0.1,0,0.2,0,0.3,0.1l0,0c1.4-2,2.9-3.9,4.3-5.9c8.7-12.4,16.8-25.3,24.4-38.3
			c3.8-6.5,9.5-9.9,15.6-10.8c-0.2-1.7-0.2-3.5,0-5.3l-0.7,1l-2.7-1.9l6.6-9.4c0.7-1.2,1.5-2.3,2.3-3.3l7.2-10.2l0,0
			c0.1-0.2,0.3-0.3,0.4-0.5L1731,236C1734.9,230.5,1733.1,222.5,1727.1,218.3z"/>
		<path class="st4" d="M1707.4,398.7c0,3.9-3.2,7.1-7.2,7.1h-112.4c-4,0-7.2-3.2-7.2-7.1V173.1c0-3.9,3.3-7.1,7.2-7.1h112.4
			c4,0,7.2,3.2,7.2,7.1V398.7z"/>
		<polygon class="st5" points="1695.8,192.5 1692.8,192.5 1687,192.5 1680.4,192.5 1674.9,192.5 1674.5,192.5 1667.1,192.5 
			1648.6,192.5 1642.1,192.5 1635.5,192.5 1629.3,192.5 1620.1,192.5 1614.3,192.5 1596.2,192.5 1595.5,192.5 1589.7,192.5 
			1586.4,192.5 1586.4,218.1 1586.4,218 1586.4,224.9 1586.4,224.9 1586.4,243.9 1586.4,243.9 1586.4,267 1586.4,267 1586.4,272.7 
			1586.4,272.7 1586.4,329.8 1586.4,329.8 1586.4,334.9 1586.4,334.9 1586.4,361.3 1586.4,361.3 1586.4,368.2 1586.4,368.2 
			1586.4,385.4 1586.8,385.4 1592.8,385.4 1606,385.4 1613.5,385.4 1613.5,385.4 1614.3,385.4 1619.2,385.4 1620.1,385.4 
			1625.8,385.4 1626.6,385.4 1631.6,385.4 1649.2,385.4 1649.5,385.4 1655.7,385.4 1671.3,385.4 1677.7,385.4 1679.1,385.4 
			1686.8,385.4 1701.6,385.4 1701.6,369.6 1701.6,359.1 1701.6,356.6 1701.6,353.4 1701.6,347.2 1701.6,344.5 1701.6,337.5 
			1701.6,272.7 1701.6,267 1701.6,251.9 1701.6,243.9 1701.6,209.9 1701.6,203.6 1701.6,192.5 		"/>
		<g>
			<rect x="1529.8" y="456" class="st2" width="143.7" height="150.4"/>
			<path class="st6" d="M1646,475.6c3.6,0.2,6.7-2.6,6.9-6.2c0.2-3.6-2.6-6.7-6.2-6.9c-3.6-0.2-6.7,2.6-6.9,6.2
				C1639.6,472.3,1642.3,475.4,1646,475.6z"/>
			<rect x="1521" y="483" class="st6" width="158.6" height="123.4"/>
		</g>
		<path class="st3" d="M1624.3,409.6c0.4-1.8,0.8-3.6,1.1-5.4c-0.3-1,0.7-20.1-21.7-35.8c-10.3-7.2-22.5-5.6-28.1-5.1v46.3H1624.3z"
			/>
		<path class="st3" d="M1722.8,344.1c1.4,5.4-1.6,11-6.9,12.3l-24.1,6.4c-5.2,1.4-10.6-1.9-12.1-7.3l0,0c-1.4-5.4,1.6-11,6.9-12.3
			l24.1-6.4C1716,335.4,1721.4,338.7,1722.8,344.1L1722.8,344.1z"/>
		<path class="st3" d="M1722.3,320.3c1.4,5.6-1.7,11.3-7,12.6l-24.2,6c-5.3,1.3-10.7-2.2-12-7.9l0,0c-1.4-5.6,1.7-11.3,7-12.6
			l24.2-6C1715.5,311.1,1720.9,314.7,1722.3,320.3L1722.3,320.3z"/>
		<path class="st3" d="M1720.2,288.6c2.9,6.1,0.8,13.2-4.7,15.8l-25.2,11.9c-5.5,2.6-12.3-0.3-15.2-6.5l0,0
			c-2.9-6.1-0.8-13.2,4.7-15.8l25.2-11.9C1710.6,279.5,1717.3,282.4,1720.2,288.6L1720.2,288.6z"/>
		<g>
			<path class="st7" d="M1808.6,278.5c0,4.7-3.8,8.6-8.6,8.6h-185c-4.7,0-8.6-3.8-8.6-8.6v-89.6c0-4.7,3.8-8.6,8.6-8.6h185
				c4.7,0,8.6,3.8,8.6,8.6V278.5z"/>
			<g>
				<g>
					<path class="st6" d="M1653.8,241.9c-9.5,0-17.2-7.2-17.2-16.1v-12.9c0-8.9,7.7-13.4,17.2-13.4s17.2,4.6,17.2,13.4v12.9
						C1671,234.7,1663.3,241.9,1653.8,241.9z M1653.8,204.7c-6.8,0-12.4,2.7-12.4,9v11.6c0,6.3,5.6,11.4,12.4,11.4
						s12.4-5.1,12.4-11.4v-11.6C1666.2,207.5,1660.6,204.7,1653.8,204.7z"/>
				</g>
				<g>
					<path class="st8" d="M1676.3,223.8h-45.7c-0.2,0-0.4,0-0.5,0v33h46.2V223.8z"/>
					<rect x="1630.1" y="256.8" class="st6" width="46.2" height="2.1"/>
				</g>
				<g>
					<g>
						<g>
							<g>
								<rect x="1651.4" y="231.7" class="st2" width="3.5" height="3.3"/>
								<rect x="1644.4" y="231.7" class="st2" width="3.5" height="3.3"/>
								<rect x="1658.4" y="231.7" class="st2" width="3.5" height="3.3"/>
							</g>
						</g>
					</g>
					<g>
						<g>
							<g>
								<rect x="1651.4" y="238.3" class="st2" width="3.5" height="3.3"/>
								<rect x="1644.4" y="238.3" class="st2" width="3.5" height="3.3"/>
								<rect x="1658.4" y="238.3" class="st2" width="3.5" height="3.3"/>
							</g>
						</g>
					</g>
					<g>
						<g>
							<g>
								<rect x="1651.4" y="245" class="st2" width="3.5" height="3.3"/>
								<rect x="1644.4" y="245" class="st2" width="3.5" height="3.3"/>
								<rect x="1658.4" y="245" class="st2" width="3.5" height="3.3"/>
							</g>
						</g>
					</g>
				</g>
			</g>
			<polygon class="st7" points="1625.4,310.3 1625.4,283.7 1654.4,283.7 			"/>
			<polygon class="st2" points="1785,259 1785,259 1692.4,259 1692.4,259 1692.4,233.9 1692.4,233.9 1785,233.9 1785,233.9 			"/>
			<polygon class="st2" points="1785,229.2 1785,229.2 1692.4,229.2 1692.4,229.2 1692.4,204.1 1692.4,204.1 1785,204.1 1785,204.1 
							"/>
			<g>
				<path class="st6" d="M1717.7,247.1c0,1.5-1.2,2.7-2.7,2.7s-2.7-1.2-2.7-2.7s1.2-2.7,2.7-2.7
					C1716.5,244.4,1717.7,245.6,1717.7,247.1z"/>
				<path class="st6" d="M1727.5,247.1c0,1.5-1.2,2.7-2.7,2.7s-2.7-1.2-2.7-2.7s1.2-2.7,2.7-2.7
					C1726.3,244.4,1727.5,245.6,1727.5,247.1z"/>
				<path class="st6" d="M1737.3,247.1c0,1.5-1.2,2.7-2.7,2.7s-2.7-1.2-2.7-2.7s1.2-2.7,2.7-2.7
					C1736.1,244.4,1737.3,245.6,1737.3,247.1z"/>
				<path class="st6" d="M1747,247.1c0,1.5-1.2,2.7-2.7,2.7s-2.7-1.2-2.7-2.7s1.2-2.7,2.7-2.7S1747,245.6,1747,247.1z"/>
				<path class="st6" d="M1756.8,247.1c0,1.5-1.2,2.7-2.7,2.7s-2.7-1.2-2.7-2.7s1.2-2.7,2.7-2.7
					C1755.6,244.4,1756.8,245.6,1756.8,247.1z"/>
				<path class="st6" d="M1766.6,247.1c0,1.5-1.2,2.7-2.7,2.7s-2.7-1.2-2.7-2.7s1.2-2.7,2.7-2.7
					C1765.4,244.4,1766.6,245.6,1766.6,247.1z"/>
			</g>
		</g>
		<path class="st9" d="M1686,295.3c0,0,2.8,3.7,4.8,7.5c1.6,3.2,2.4,6.6,2.4,6.6l-7.8,4c0,0-3.3-1.5-5.6-6.3
			c-2.2-4.6-1.6-7.8-1.6-7.8L1686,295.3z"/>
		<path class="st9" d="M1565,281c0,0-2.6-3-7.7-3.2h-0.1c-0.2,3-0.9,13.9-1.1,17.5c0.1,0,0.1,0,0.2,0c4.3,0,8.9-1.2,8.9-1.2
			L1565,281z"/>
		<path class="st9" d="M1692.5,319.9c0,0,2,4,3.1,7.8c1,3.3,1,6.6,1,6.6l-8.8,2.5c0,0-3-1.9-4.3-6.8c-1.2-4.6,0.1-7.6,0.1-7.6
			L1692.5,319.9z"/>
		<path class="st9" d="M1691.4,345c0,0,1.9,3.7,2.9,7.3c0.9,3.1,1,6.2,1,6.2l-7.8,2.3c0,0-2.7-1.8-3.9-6.4c-1.1-4.4,0-7.1,0-7.1
			L1691.4,345z"/>
	</g>
	<g>
		<g>
			<g>
				<g>
					<g>
						<path class="st10" d="M2035,509.1v-69.2c0-3.8,2.8-7.3,6.6-7.7c4.6-0.6,8.4,3,8.4,7.4v69.5c0,4.1-3.4,7.5-7.5,7.5l0,0
							C2038.4,516.6,2035,513.3,2035,509.1z"/>
					</g>
					<g>
						<path class="st10" d="M2113,511.7v-108c0-3.8,2.8-7.3,6.6-7.7c4.6-0.5,8.4,3,8.4,7.4V512c0,4.5-3.9,8-8.4,7.4
							C2115.8,519,2113,515.6,2113,511.7z"/>
					</g>
					<circle class="st11" cx="2037" cy="384.4" r="67.2"/>
					<path class="st12" d="M2104.2,384.4c0,37.1-30.1,67.2-67.2,67.2c-15.8,0-30.4-5.5-41.9-14.6c6,1.8,12.4,2.7,19,2.7
						c37.1,0,67.2-30.1,67.2-67.2c0-21.3-9.9-40.3-25.3-52.6C2083.9,328.1,2104.2,353.9,2104.2,384.4z"/>
				</g>
			</g>
			<g>
				<circle class="st13" cx="2140.7" cy="223.8" r="67.2"/>
				<path class="st11" d="M2207.9,223.8c0,37.1-30.1,67.2-67.2,67.2c-5.4,0-10.6-0.6-15.6-1.8c29.6-7,51.6-33.6,51.6-65.4
					s-22-58.4-51.6-65.4c5-1.2,10.2-1.8,15.6-1.8C2177.8,156.6,2207.9,186.7,2207.9,223.8L2207.9,223.8z"/>
			</g>
			<g>
				<circle class="st13" cx="2228.7" cy="315.3" r="67.2"/>
				<path class="st11" d="M2295.9,315.3c0,37.1-30.1,67.2-67.2,67.2c-6.1,0-12-0.8-17.7-2.4c32.9-4.3,58.4-32.5,58.4-66.6
					c0-31-21-57.1-49.6-64.9c2.9-0.4,5.9-0.6,8.9-0.6C2265.8,248.1,2295.9,278.2,2295.9,315.3z"/>
			</g>
			<g>
				<g>
					<path class="st11" d="M2144,508.8v-99.6c0-3.8,2.8-7.3,6.6-7.7c4.6-0.5,8.4,3,8.4,7.4V509c0,4.4-3.9,8-8.4,7.4
						C2146.8,516.1,2144,512.7,2144,508.8z"/>
					<path class="st14" d="M2185.5,434.8c-29,0-52.5-23.5-52.5-52.5v-114c0-27.3,20.6-50.7,47.8-53.1c31.1-2.7,57.2,21.7,57.2,52.3
						v114.8C2238,411.3,2214.5,434.8,2185.5,434.8L2185.5,434.8z"/>
					<path class="st15" d="M2238,267v115.4c0,24.9-20,48.9-44.7,52.6c-7.4,1.1-14.6,0.7-21.3-1c22.9-5.8,39.9-26.6,39.9-51.3V267
						c0-14.6-5.9-27.8-15.5-37.4c-6.6-6.6-15-11.5-24.4-13.9c4.2-1.1,8.5-1.6,13-1.6c14.6,0,27.8,5.9,37.4,15.5
						C2232.1,239.2,2238,252.4,2238,267L2238,267z"/>
				</g>
				<path class="st16" d="M2207.4,357.6c-2.9-2.9-7.7-2.9-10.6,0l-3.8,3.8V345l0,0v-29c0-3.8-2.8-7.3-6.6-7.7
					c-4.6-0.5-8.4,3-8.4,7.4v11.2l-7.4-7.4c-2.7-2.7-7.1-3.2-10.1-0.8c-3.6,2.8-3.8,8.1-0.7,11.2l18.2,18.2v31.4l0,0v125.2
					c0,3.8,2.8,7.3,6.6,7.7c4.6,0.5,8.4-3,8.4-7.4V382.6l14.4-14.4C2210.3,365.2,2210.3,360.5,2207.4,357.6L2207.4,357.6z"/>
			</g>
			<g>
				<g>
					<path class="st14" d="M1866,250.2v-72c0-27.3,20.6-50.7,47.8-53.1c31.1-2.7,57.2,21.7,57.2,52.3V251c0,30.6-26.1,55-57.2,52.3
						C1886.6,300.9,1866,277.5,1866,250.2z"/>
					<path class="st15" d="M1971,177.1v74.3c0,22.6-17.8,46.2-39.8,51.6c-9.7,2.4-19.2,2.1-27.9-0.4c22.3-6.3,38.6-26.8,38.6-51.1
						v-74.4c0-14.7-5.9-28-15.6-37.6c-6.3-6.3-14.2-11.1-23.1-13.6c4.6-1.3,9.5-2,14.5-2c14.7,0,28,5.9,37.6,15.6
						C1965.1,149.1,1971,162.4,1971,177.1L1971,177.1z"/>
				</g>
				<path class="st16" d="M1940.2,226.2c-2.9-2.9-7.7-2.9-10.6,0l-3.6,3.8v-15.2l0,0v-31.4c0-3.1-1.8-6-4.7-7.2
					c-5.8-2.3-11.3,1.9-11.3,7.3v11.9l-6.8-7.6c-2.9-2.9-7.7-2.9-10.6,0s-2.9,7.7,0,10.6l18.4,18.2V248l0,0v264.1
					c0,3.4,2.2,6.5,5.5,7.2c4.5,1,8.5-2.7,8.5-7.3V251.3l15.2-14.4C1943.2,233.9,1943.2,229.1,1940.2,226.2L1940.2,226.2z"/>
			</g>
			<g>
				
					<ellipse transform="matrix(0.7071 -0.7071 0.7071 0.7071 356.857 1502.329)" class="st17" cx="1991.9" cy="320.4" rx="79.7" ry="79.7"/>
				<path class="st13" d="M2071.5,320.4c0,44-35.7,79.7-79.7,79.7c-12.6,0-24.6-2.9-35.2-8.2c37-6.8,65.1-39.3,65.1-78.3
					c0-31.4-18.1-58.5-44.5-71.5c4.7-0.9,9.6-1.3,14.5-1.3C2035.9,240.8,2071.5,276.4,2071.5,320.4L2071.5,320.4z"/>
				<path class="st11" d="M2014.8,284c-2.9-2.9-7.7-2.9-10.6,0l-5.2,5.2v-11c0-0.8-0.3-1.6-0.9-2.2c-6.4-6.1-14.1-1.6-14.1,4.6v81.7
					c0,0.8,0.3,1.6,0.9,2.2c6.4,6.1,14.1,1.6,14.1-4.6v-49.5l15.8-15.8C2017.7,291.7,2017.7,287,2014.8,284z"/>
				<g>
					<path class="st11" d="M1984,511.8v-70.6c0-3.8,2.8-7.3,6.6-7.7c4.6-0.5,8.4,3,8.4,7.4V512c0,4.4-3.9,8-8.4,7.4
						C1986.8,519,1984,515.6,1984,511.8z"/>
				</g>
			</g>
			<g>
				<path class="st16" d="M2140.7,337.5c0,92.3-23.7,90.7-52.9,90.7s-52.9,1.6-52.9-90.7s29.9-196.5,52.9-196.5
					S2140.7,245.1,2140.7,337.5z"/>
				<path class="st16" d="M2140.7,337.5c0,92.3-23.7,90.7-52.9,90.7s-52.9,1.6-52.9-90.7s29.9-196.5,52.9-196.5
					S2140.7,245.1,2140.7,337.5z"/>
				<path class="st18" d="M2140.7,337.5c0,92.3-23.7,90.7-52.9,90.7c-4.8,0-9.4,0-13.8-0.3c22.5-1.7,39.1-13.1,39.1-90.4
					c0-74.6-19.5-156.9-39.1-185.8c4.7-6.9,9.3-10.7,13.8-10.7C2110.8,141,2140.7,245.1,2140.7,337.5L2140.7,337.5z"/>
				<path class="st19" d="M2119.3,347.2c-2.9-2.9-7.7-2.9-10.6,0L2095,361v-28.7l0,0v-33.5c0-3.8-2.8-7.3-6.6-7.7
					c-4.6-0.5-8.4,3-8.4,7.4v15.7l-10.7-10.7c-3.1-3.1-8.4-2.9-11.2,0.7c-2.4,3-1.9,7.4,0.8,10.1l21.1,21.1v43.7l0,0v129.7
					c0,3.8,2.8,7.3,6.6,7.7c4.6,0.5,8.4-3,8.4-7.4V382.2l24.3-24.3C2122.3,354.9,2122.3,350.2,2119.3,347.2L2119.3,347.2z"/>
			</g>
			<g>
				<path class="st16" d="M1799,404.8c0,71.1,32.1,69.8,71.6,69.8s71.6,1.3,71.6-69.8s-40.4-151.3-71.6-151.3S1799,333.7,1799,404.8
					z"/>
				<path class="st18" d="M1799,404.8c0,71.1,32.1,69.8,71.6,69.8s71.6,1.3,71.6-69.8s-40.4-151.3-71.6-151.3S1799,333.7,1799,404.8
					z"/>
				<path class="st20" d="M1942.1,404.8c0,71.1-32,69.8-71.6,69.8c-5.1,0-10.1,0-15-0.1c32.3-0.8,56.6-7.9,56.6-69.7
					c0-60.1-28.8-126.7-56.6-145.9c5.1-3.5,10.1-5.4,15-5.4C1901.7,253.5,1942.1,333.7,1942.1,404.8L1942.1,404.8z"/>
			</g>
			<g>
				<path class="st16" d="M2010.4,407.5c0,52.6-23.7,51.6-52.9,51.6c-29.2,0-52.9,0.9-52.9-51.6s29.9-111.8,52.9-111.8
					S2010.4,354.9,2010.4,407.5z"/>
				<path class="st16" d="M2010.4,407.5c0,52.6-23.7,51.6-52.9,51.6c-29.2,0-52.9,0.9-52.9-51.6s29.9-111.8,52.9-111.8
					S2010.4,354.9,2010.4,407.5z"/>
				<path class="st18" d="M2010.4,407.5c0,52.6-23.7,51.6-52.9,51.6c-5.5,0-10.7,0-15.6-0.3c21.6-1.3,37.3-8.6,37.3-51.4
					c0-41.1-18.3-86.3-37.3-104.1c5.3-4.9,10.6-7.8,15.6-7.8C1980.6,295.6,2010.4,354.9,2010.4,407.5z"/>
				<path class="st19" d="M1989.2,404.5c2.5-2.5,3.1-6.5,1.2-9.5c-2.7-4.2-8.3-4.6-11.7-1.3l-13.7,13.7V371c0-3.8-2.8-7.3-6.6-7.7
					c-4.6-0.5-8.4,3-8.4,7.4v54.8l0,0v83.3c0,3.8,2.8,7.3,6.6,7.7c4.6,0.5,8.4-3,8.4-7.4v-80.5L1989.2,404.5z"/>
			</g>
			<g>
				<path class="st16" d="M2292.4,433.1c0,37.9-17.1,37.2-38.1,37.2s-38.1,0.7-38.1-37.2s21.5-80.6,38.1-80.6
					S2292.4,395.2,2292.4,433.1z"/>
				<path class="st16" d="M2292.4,433.1c0,37.9-17.1,37.2-38.1,37.2s-38.1,0.7-38.1-37.2s21.5-80.6,38.1-80.6
					S2292.4,395.2,2292.4,433.1z"/>
				<path class="st18" d="M2292.4,433.1c0,37.9-17.1,37.2-38.1,37.2c-4.5,0-8.8,0-12.8-0.3c14.8-1.2,25.3-7.1,25.3-36.9
					c0-28.5-12.2-59.8-25.3-73.5c4.3-4.5,8.7-7.1,12.8-7.1C2270.9,352.5,2292.4,395.2,2292.4,433.1z"/>
				<path class="st19" d="M2265.6,424.4l-3.6,3.6v-24c0-0.7-0.3-1.3-0.8-1.8c-6.5-6.3-14.2-1.9-14.2,4.4v39.5l0,0v65.6
					c0,0.7,0.3,1.3,0.8,1.8c6.5,6.3,14.2,1.9,14.2-4.4v-59.9l12.3-12.3c4.4-4.5,2.1-13.1-6.9-13.2
					C2266.7,423.7,2266,423.9,2265.6,424.4z"/>
			</g>
			<path class="st19" d="M1889.5,377.3c3.1-3.1,2.9-8.4-0.7-11.2c-3-2.4-7.4-1.9-10.1,0.8l-0.7,0.7v-20.4c0-3.8-2.8-7.3-6.6-7.7
				c-4.6-0.5-8.4,3-8.4,7.4v64.2l-9.2-9.2c-2.7-2.7-7.1-3.2-10.1-0.8c-3.6,2.8-3.8,8.1-0.7,11.2l20,20v76.5c0,3.8,2.8,7.3,6.6,7.7
				c4.6,0.5,8.4-3,8.4-7.4v-79.9l0,0v-40.4L1889.5,377.3z"/>
			<g>
				<g>
					<path class="st10" d="M2295.1,522H1799c-3.8,0-7.3-2.8-7.7-6.6c-0.5-4.6,3-8.4,7.4-8.4h496.2c3.8,0,7.3,2.8,7.7,6.6
						C2303.1,518.1,2299.6,522,2295.1,522z"/>
				</g>
			</g>
		</g>
	</g>
	<g>
		<g>
			<g>
				<g>
					<g>
						<path class="st10" d="M-127,509.1v-69.2c0-3.8,2.8-7.3,6.6-7.7c4.6-0.6,8.4,3,8.4,7.4v69.5c0,4.1-3.4,7.5-7.5,7.5l0,0
							C-123.6,516.6-127,513.3-127,509.1z"/>
					</g>
					<g>
						<path class="st10" d="M-49,511.7v-108c0-3.8,2.8-7.3,6.6-7.7c4.6-0.5,8.4,3,8.4,7.4V512c0,4.5-3.9,8-8.4,7.4
							C-46.2,519-49,515.6-49,511.7z"/>
					</g>
					<circle class="st11" cx="-125" cy="384.4" r="67.2"/>
					<path class="st12" d="M-57.8,384.4c0,37.1-30.1,67.2-67.2,67.2c-15.8,0-30.4-5.5-41.9-14.6c6,1.8,12.4,2.7,19,2.7
						c37.1,0,67.2-30.1,67.2-67.2c0-21.3-9.9-40.3-25.3-52.6C-78.1,328.1-57.8,353.9-57.8,384.4z"/>
				</g>
			</g>
			<g>
				<circle class="st13" cx="-21.3" cy="223.8" r="67.2"/>
				<path class="st11" d="M45.9,223.8c0,37.1-30.1,67.2-67.2,67.2c-5.4,0-10.6-0.6-15.6-1.8c29.6-7,51.6-33.6,51.6-65.4
					s-22-58.4-51.6-65.4c5-1.2,10.2-1.8,15.6-1.8C15.8,156.6,45.9,186.7,45.9,223.8L45.9,223.8z"/>
			</g>
			<g>
				<circle class="st13" cx="66.7" cy="315.3" r="67.2"/>
				<path class="st11" d="M133.9,315.3c0,37.1-30.1,67.2-67.2,67.2c-6.1,0-12-0.8-17.7-2.4c32.9-4.3,58.4-32.5,58.4-66.6
					c0-31-21-57.1-49.6-64.9c2.9-0.4,5.9-0.6,8.9-0.6C103.8,248.1,133.9,278.2,133.9,315.3z"/>
			</g>
			<g>
				<g>
					<path class="st11" d="M-18,508.8v-99.6c0-3.8,2.8-7.3,6.6-7.7c4.6-0.5,8.4,3,8.4,7.4V509c0,4.4-3.9,8-8.4,7.4
						C-15.2,516.1-18,512.7-18,508.8z"/>
					<path class="st14" d="M23.5,434.8c-29,0-52.5-23.5-52.5-52.5v-114c0-27.3,20.6-50.7,47.8-53.1c31.1-2.7,57.2,21.7,57.2,52.3
						v114.8C76,411.3,52.5,434.8,23.5,434.8L23.5,434.8z"/>
					<path class="st15" d="M76,267v115.4c0,24.9-20,48.9-44.7,52.6c-7.4,1.1-14.6,0.7-21.3-1c23-5.7,40-26.5,40-51.2V267
						c0-14.6-5.9-27.8-15.5-37.4c-6.6-6.6-15-11.5-24.4-13.9c4.2-1.1,8.5-1.6,13-1.6c14.6,0,27.8,5.9,37.4,15.5
						C70.1,239.2,76,252.4,76,267L76,267z"/>
				</g>
				<path class="st16" d="M45.4,357.6c-2.9-2.9-7.7-2.9-10.6,0l-3.8,3.8V345l0,0v-29c0-3.8-2.8-7.3-6.6-7.7c-4.6-0.5-8.4,3-8.4,7.4
					v11.2l-7.4-7.4c-2.7-2.7-7.1-3.2-10.1-0.8c-3.6,2.8-3.8,8.1-0.7,11.2L16,348.1v31.4l0,0v125.2c0,3.8,2.8,7.3,6.6,7.7
					c4.6,0.5,8.4-3,8.4-7.4V382.6l14.4-14.4C48.3,365.2,48.3,360.5,45.4,357.6L45.4,357.6z"/>
			</g>
			<g>
				<g>
					<path class="st14" d="M-296,250.2v-72c0-27.3,20.6-50.7,47.8-53.1c31.1-2.7,57.2,21.7,57.2,52.3V251c0,30.6-26.1,55-57.2,52.3
						C-275.4,300.9-296,277.5-296,250.2z"/>
					<path class="st15" d="M-191,177.1v74.3c0,22.6-17.8,46.2-39.8,51.6c-9.7,2.4-19.2,2.1-27.9-0.4c22.3-6.3,38.6-26.8,38.6-51.1
						v-74.4c0-14.7-5.9-28-15.6-37.6c-6.3-6.3-14.2-11.1-23.1-13.6c4.6-1.3,9.5-2,14.5-2c14.7,0,28,5.9,37.6,15.6
						C-196.9,149.1-191,162.4-191,177.1L-191,177.1z"/>
				</g>
				<path class="st16" d="M-221.8,226.2c-2.9-2.9-7.7-2.9-10.6,0l-3.6,3.8v-15.2l0,0v-31.4c0-3.1-1.8-6-4.7-7.2
					c-5.8-2.3-11.3,1.9-11.3,7.3v11.9l-6.8-7.6c-2.9-2.9-7.7-2.9-10.6,0s-2.9,7.7,0,10.6l18.4,18.2V248l0,0v264.1
					c0,3.4,2.2,6.5,5.5,7.2c4.5,1,8.5-2.7,8.5-7.3V251.3l15.2-14.4C-218.8,233.9-218.8,229.1-221.8,226.2L-221.8,226.2z"/>
			</g>
			<g>
				<circle class="st17" cx="-170.1" cy="320.4" r="79.7"/>
				<path class="st13" d="M-90.5,320.4c0,44-35.7,79.7-79.7,79.7c-12.6,0-24.6-2.9-35.2-8.2c37-6.8,65.1-39.3,65.1-78.3
					c0-31.4-18.1-58.5-44.5-71.5c4.7-0.9,9.6-1.3,14.5-1.3C-126.1,240.8-90.5,276.4-90.5,320.4L-90.5,320.4z"/>
				<path class="st11" d="M-147.2,284c-2.9-2.9-7.7-2.9-10.6,0l-5.2,5.2v-11c0-0.8-0.3-1.6-0.9-2.2c-6.4-6.1-14.1-1.6-14.1,4.6v81.7
					c0,0.8,0.3,1.6,0.9,2.2c6.4,6.1,14.1,1.6,14.1-4.6v-49.5l15.8-15.8C-144.3,291.7-144.3,287-147.2,284z"/>
				<g>
					<path class="st11" d="M-178,511.8v-70.6c0-3.8,2.8-7.3,6.6-7.7c4.6-0.5,8.4,3,8.4,7.4V512c0,4.4-3.9,8-8.4,7.4
						C-175.2,519-178,515.6-178,511.8z"/>
				</g>
			</g>
			<g>
				<path class="st16" d="M-21.3,337.5c0,92.3-23.7,90.7-52.9,90.7s-52.9,1.6-52.9-90.7S-97.3,141-74.2,141S-21.3,245.1-21.3,337.5z
					"/>
				<path class="st16" d="M-21.3,337.5c0,92.3-23.7,90.7-52.9,90.7s-52.9,1.6-52.9-90.7S-97.3,141-74.2,141S-21.3,245.1-21.3,337.5z
					"/>
				<path class="st18" d="M-21.3,337.5c0,92.3-23.7,90.7-52.9,90.7c-4.8,0-9.4,0-13.8-0.3c22.5-1.7,39.1-13.1,39.1-90.4
					c0-74.6-19.5-156.9-39.1-185.8c4.7-6.9,9.3-10.7,13.8-10.7C-51.2,141-21.3,245.1-21.3,337.5L-21.3,337.5z"/>
				<path class="st19" d="M-42.7,347.2c-2.9-2.9-7.7-2.9-10.6,0L-67,361v-28.7l0,0v-33.5c0-3.8-2.8-7.3-6.6-7.7
					c-4.6-0.5-8.4,3-8.4,7.4v15.7l-10.7-10.7c-3.1-3.1-8.4-2.9-11.2,0.7c-2.4,3-1.9,7.4,0.8,10.1l21.1,21.1v43.7l0,0v129.7
					c0,3.8,2.8,7.3,6.6,7.7c4.6,0.5,8.4-3,8.4-7.4V382.2l24.3-24.3C-39.7,354.9-39.7,350.2-42.7,347.2L-42.7,347.2z"/>
			</g>
			<g>
				<path class="st16" d="M-363,404.8c0,71.1,32.1,69.8,71.6,69.8s71.6,1.3,71.6-69.8s-40.4-151.3-71.6-151.3S-363,333.7-363,404.8z
					"/>
				<path class="st18" d="M-363,404.8c0,71.1,32.1,69.8,71.6,69.8s71.6,1.3,71.6-69.8s-40.4-151.3-71.6-151.3S-363,333.7-363,404.8z
					"/>
				<path class="st20" d="M-219.9,404.8c0,71.1-32,69.8-71.6,69.8c-5.1,0-10.1,0-15-0.1c32.3-0.8,56.6-7.9,56.6-69.7
					c0-60.1-28.8-126.7-56.6-145.9c5.1-3.5,10.1-5.4,15-5.4C-260.3,253.5-219.9,333.7-219.9,404.8L-219.9,404.8z"/>
			</g>
			<g>
				<path class="st16" d="M-151.6,407.5c0,52.6-23.7,51.6-52.9,51.6s-52.9,0.9-52.9-51.6s29.9-111.8,52.9-111.8
					S-151.6,354.9-151.6,407.5z"/>
				<path class="st16" d="M-151.6,407.5c0,52.6-23.7,51.6-52.9,51.6s-52.9,0.9-52.9-51.6s29.9-111.8,52.9-111.8
					S-151.6,354.9-151.6,407.5z"/>
				<path class="st18" d="M-151.6,407.5c0,52.6-23.7,51.6-52.9,51.6c-5.4,0-10.7,0-15.6-0.3c21.6-1.3,37.3-8.6,37.3-51.4
					c0-41.1-18.3-86.3-37.3-104.1c5.3-4.9,10.6-7.8,15.6-7.8C-181.4,295.6-151.6,354.9-151.6,407.5z"/>
				<path class="st19" d="M-172.8,404.5c2.5-2.5,3.1-6.5,1.2-9.5c-2.7-4.2-8.3-4.6-11.7-1.3l-13.7,13.7V371c0-3.8-2.8-7.3-6.6-7.7
					c-4.6-0.5-8.4,3-8.4,7.4v54.8l0,0v83.3c0,3.8,2.8,7.3,6.6,7.7c4.6,0.5,8.4-3,8.4-7.4v-80.5L-172.8,404.5z"/>
			</g>
			<g>
				<path class="st16" d="M130.4,433.1c0,37.9-17.1,37.2-38.1,37.2s-38.1,0.7-38.1-37.2s21.5-80.6,38.1-80.6
					S130.4,395.2,130.4,433.1z"/>
				<path class="st16" d="M130.4,433.1c0,37.9-17.1,37.2-38.1,37.2s-38.1,0.7-38.1-37.2s21.5-80.6,38.1-80.6
					S130.4,395.2,130.4,433.1z"/>
				<path class="st18" d="M130.4,433.1c0,37.9-17.1,37.2-38.1,37.2c-4.5,0-8.8,0-12.8-0.3c14.8-1.2,25.3-7.1,25.3-36.9
					c0-28.5-12.2-59.8-25.3-73.5c4.3-4.5,8.7-7.1,12.8-7.1C108.9,352.5,130.4,395.2,130.4,433.1z"/>
				<path class="st19" d="M103.6,424.4L100,428v-24c0-0.7-0.3-1.3-0.8-1.8c-6.5-6.3-14.2-1.9-14.2,4.4v39.5l0,0v65.6
					c0,0.7,0.3,1.3,0.8,1.8c6.5,6.3,14.2,1.9,14.2-4.4v-59.9l12.3-12.3c4.4-4.5,2.1-13.1-6.9-13.2
					C104.7,423.7,104,423.9,103.6,424.4z"/>
			</g>
			<path class="st19" d="M-272.5,377.3c3.1-3.1,2.9-8.4-0.7-11.2c-3-2.4-7.4-1.9-10.1,0.8l-0.7,0.7v-20.4c0-3.8-2.8-7.3-6.6-7.7
				c-4.6-0.5-8.4,3-8.4,7.4v64.2l-9.2-9.2c-2.7-2.7-7.1-3.2-10.1-0.8c-3.6,2.8-3.8,8.1-0.7,11.2l20,20v76.5c0,3.8,2.8,7.3,6.6,7.7
				c4.6,0.5,8.4-3,8.4-7.4v-79.9l0,0v-40.4L-272.5,377.3z"/>
			<g>
				<g>
					<path class="st10" d="M133.1,522H-363c-3.8,0-7.3-2.8-7.7-6.6c-0.5-4.6,3-8.4,7.4-8.4h496.2c3.8,0,7.3,2.8,7.7,6.6
						C141.1,518.1,137.6,522,133.1,522z"/>
				</g>
			</g>
		</g>
	</g>
	<ellipse class="st14" cx="913.5" cy="-39.5" rx="1125.5" ry="223.5"/>
	<g>
		<ellipse class="st21" cx="287.1" cy="445.5" rx="143.5" ry="20.5"/>
		<g>
			<g>
				<path class="st6" d="M289.8,368.4c-42.6,0-77.2-32.3-77.2-72v-57.7c0-39.7,34.6-60.3,77.2-60.3S367,199,367,238.7v57.7
					C367,336.2,332.4,368.4,289.8,368.4z M289.8,201.9c-30.6,0-55.6,12.3-55.6,40.3v51.9c0,28,24.9,50.9,55.6,50.9
					c30.6,0,55.6-22.8,55.6-50.9v-51.9C345.4,214.2,320.4,201.9,289.8,201.9z"/>
			</g>
			<g>
				<path class="st8" d="M390.7,287.4H185.8c-0.8,0-1.6,0.1-2.3,0.1v147.8h207.2V287.4z"/>
				<rect x="183.5" y="435.4" class="st6" width="207.2" height="9.6"/>
			</g>
			<g>
				<g>
					<g>
						<g>
							<rect x="279.2" y="322.9" class="st2" width="15.8" height="14.9"/>
							<rect x="247.7" y="322.9" class="st2" width="15.8" height="14.9"/>
							<rect x="310.7" y="322.9" class="st2" width="15.8" height="14.9"/>
						</g>
					</g>
				</g>
				<g>
					<g>
						<g>
							<rect x="279.2" y="352.6" class="st2" width="15.8" height="14.9"/>
							<rect x="247.7" y="352.6" class="st2" width="15.8" height="14.9"/>
							<rect x="310.7" y="352.6" class="st2" width="15.8" height="14.9"/>
						</g>
					</g>
				</g>
				<g>
					<g>
						<g>
							<rect x="279.2" y="382.4" class="st2" width="15.8" height="14.9"/>
							<rect x="247.7" y="382.4" class="st2" width="15.8" height="14.9"/>
							<rect x="310.7" y="382.4" class="st2" width="15.8" height="14.9"/>
						</g>
					</g>
				</g>
			</g>
		</g>
	</g>
</g>
</svg>
