<?xml version="1.0" encoding="utf-8"?>
<!-- Generator: Adobe Illustrator 23.0.3, SVG Export Plug-In . SVG Version: 6.00 Build 0)  -->
<svg version="1.1" xmlns="http://www.w3.org/2000/svg" xmlns:xlink="http://www.w3.org/1999/xlink" x="0px" y="0px"
	 viewBox="0 0 1920 506" style="enable-background:new 0 0 1920 506;" xml:space="preserve">
<style type="text/css">
	.st0{display:none;}
	.st1{fill:#C2DDFF;}
	.st2{fill:#84A1C1;}
	.st3{fill:#D1E5FF;}
	.st4{fill:#4A6B54;}
	.st5{fill:#2C2858;}
	.st6{fill:#0E6A41;}
	.st7{fill:#3F964F;}
	.st8{fill:#494C7F;}
	.st9{fill:#47A859;}
	.st10{clip-path:url(#SVGID_2_);}
	.st11{fill:#201D40;}
	.st12{fill:#95A6DB;}
	.st13{fill:#DE623C;}
	.st14{fill:#F37A50;}
	.st15{fill:#E62552;}
	.st16{fill:#FFFFFF;}
	.st17{fill:#C4204A;}
	.st18{fill:#070635;}
	.st19{fill:#FF9408;}
	.st20{fill:#CED7F2;}
	.st21{display:inline;fill:#00E9D2;}
</style>
<g id="Layer_1" class="st0">
	
		<image style="display:inline;overflow:visible;" width="793" height="209" xlink:href="A45028C5.jpg"  transform="matrix(2.4212 0 0 2.4212 0 0)">
	</image>
</g>
<g id="Layer_3">
	<g>
		<rect y="-8" class="st1" width="1925" height="519.7"/>
		<path class="st2" d="M1925,78.1v180.4l-30.1,0l-208.3,0.3h0l-62.6,0.1l-106.1,0.2l-221.4,0.4h0l-3,0l-30.3,0l-7.8,0l-12.4,0
			l-1.4,0l-38.1,0.1l-13.8,0l-13.3,0l-18.7,0h0l-6.1,0l-0.9,0L988.3,260l-49.9,0.1l-43.8,0.1h0l-27.1,0l-23.9,0l-36.6,0.1h0l-5.3,0
			h0l-52.4,0.1h0l-9.2,0l-74.1,0.1l-6.8,0l-102.2,0.2h-0.2l-87.1,0.1h0l-162,0.3h0l-38.3,0.1c0,0,0,0,0,0h-1l-7,0h0l-4.2,0h0
			l-23.4,0l-8.8,0h0l-35.3,0.1h0l-6.6,0h0l-24.3,0h0l-27.7,0l-59,0.1L0,261.6v-153c30.5-6.4,71.7-8.7,107.4-7.6
			c7.9,0.3,15.7,0.6,23.5,1.1h0c15.4,1,30.6,2.3,45.7,3.9c2,0.2,4,0.4,6,0.6c0,0,0,0,0,0h0c26.1,2.7,52,6,78.3,8.5h0
			c5.3,0.5,10.6,1,15.9,1.4c31.1,2.6,63.1,4,95,4.1h0c45,0.2,90-2.1,133.1-6.8c77.4-8.5,147.1-24.5,224.4-33.1
			c144.6-16.1,301.3-4.7,446,11.3c89.7,9.9,180.8,21.7,273.7,22.5h0c14.7,0.1,29.5,0,44.4-0.5c15.5-0.5,30.9-1.4,46.1-2.5h0
			c17-1.3,33.9-2.8,50.7-4.7h0c38.9-4.2,77.2-9.5,115.6-14.5c7.2-0.9,14.4-1.9,21.7-2.8h0c1.2-0.1,2.3-0.3,3.5-0.4h0
			c24.7-3.1,49.5-5.8,74.6-7.9c29.4-2.5,59-4,89.4-3.9h0c1.6,0,3.2,0,4.7,0C1908.2,77.5,1916.6,77.7,1925,78.1z"/>
		<path class="st3" d="M1925,214.1v112l-34,1.5l-26.3,1.2l-2.1,0.1l-55.6,2.5l-10.3,0.5L1498,345.1h0l-158.4,7l-32.3,1.4l-13.8,0.6
			l-38.1,1.7l-13.8,0.6l-38.1,1.7l-13.8,0.6l-38.1,1.7l-13.8,0.6l-38.1,1.7l-1.2,0.1l-145.8,6.5h0l-90.8,4l-13,0.6h0l-17.6,0.8
			l-129.1,5.7L601.6,385l-116.7,5.2l-190.4,8.5l-83.2,3.7l-69.4,3.1l-36.1,1.6L87,407.8h0l-0.1,0l-0.2,0l-51.1,2.3l-5.1,0.2l-0.3,0
			l-0.9,0l-0.3,0l-2.1,0.1l-0.3,0l-0.5,0l-0.3,0l-19.7,0.9l-0.3,0c0,0,0,0,0,0L3,411.6l-3,0V164.3c69.7-8.2,148.6-11.3,215-3.6h0
			c22.1,2.5,43.1,6.3,62.3,11.4c7,1.9,13.6,3.9,20.3,5.9l0,0c4.9,1.5,9.7,3,14.6,4.5c9.9,3,20.1,5.9,31.3,8.2
			c3.3,0.7,6.7,1.3,10.1,1.8c0,0,0,0,0,0c4.8,0.8,9.6,1.4,14.5,2h0c9.2,1.1,18.7,1.8,28.3,2.2c42,1.9,87.3-1.9,128.3-6.8
			c24.1-2.9,48.4-6.1,72.9-8.7c6.9-0.7,13.7-1.4,20.6-2.1c3.7-0.3,7.4-0.6,11.1-0.9h0c1.6-0.1,3.2-0.2,4.8-0.4
			c6.2-0.5,12.4-0.8,18.6-1.2h0c17.6-0.9,35.4-1.1,53.2-0.3c15.1,0.7,29.6,2,43.7,3.8h0c3.5,0.5,6.9,0.9,10.4,1.4c0,0,0,0,0,0
			c9.8,1.5,19.4,3.1,28.9,5h0c16.6,3.2,32.8,6.9,48.9,10.7c5.7,1.4,11.4,2.7,17.1,4.1c8,1.9,16.1,3.8,24.2,5.7
			c6.5,1.5,13.1,3,19.7,4.4c22.9,4.9,46.3,9.1,71.4,11.6c7.5,0.8,15.2,1.4,23,1.8c29.8,1.7,59.2,0.6,88.3-1.7
			c4.9-0.4,9.8-0.8,14.7-1.3h0c1.6-0.2,3.2-0.3,4.8-0.5c2.4-0.2,4.7-0.5,7.1-0.7h0c4.4-0.5,8.8-0.9,13.2-1.4h0
			c15.7-1.7,31.3-3.6,47-5.5h0c6.1-0.7,12.3-1.5,18.4-2.2c17.4-2,34.8-3.9,52.4-5.3h0c5.3-0.4,10.5-0.8,15.8-1.2c0,0,0,0,0,0
			c9.2-0.6,18.4-1.1,27.7-1.3c0.6,0,1.3,0,1.9-0.1c41.8-1.1,84.2,1.7,122.3,8c20.4,3.3,39.5,7.7,56.7,12.9
			c25.4,7.7,49.9,17.8,83,18.6c11.4,0.3,22.2-0.6,32.7-2.1c1.2-0.2,2.4-0.4,3.6-0.5h0c15-2.3,29.2-5.9,43-9c1.7-0.4,3.4-0.8,5.1-1.1
			c0,0,0,0,0,0c4.6-1,9.3-2,14.1-3c1.7-0.4,3.5-0.7,5.2-1.1c0,0,0,0,0,0c4.6-0.9,9.1-1.8,13.8-2.7c3.3-0.6,6.6-1.2,9.9-1.8
			c6.2-1.1,12.5-2.1,18.9-3.1c31.6-4.9,64.7-8.6,98.5-11c16.3-1.1,39.1-1.1,63.2,0C1878.8,209,1903.9,211.1,1925,214.1z"/>
		<path class="st4" d="M0,511.7V371.6c49.4-15.1,129.1-27.9,224.1-30.7c110.7-3.4,218.1,6,271,9h0c0,0,0,0,0,0
			c65.4,3.8,115.6,3.1,179.6-7.7c98.4-16.5,181.1-49.8,283.2-66.1c0,0,0,0,0,0c124.9-19.9,212.2-8.8,335.6,12
			c37.9,6.4,76.1,12.7,116.6,16.4c69,6.4,146.2,5.2,217.1-4.9c95.6-13.6,185.9-44.5,298-38.1v250H0z"/>
	</g>
	<g>
		<path class="st5" d="M1925.5,178.6v135.2c-3-17.5-6.4-33.7-9.9-48.7c-0.2-1-0.5-2.1-0.7-3.1c-4.5-18.5-9.3-35-14.2-49.8
			c-19.5-58.8-40.6-89.6-50.1-101.5c-3.2-4-5.1-5.9-5.1-5.9l4.1-3.4l5.8-4.7h0l1.5-1.2h0l21.8-17.8l4.7,10l22.7,48.7L1925.5,178.6z"
			/>
		<g>
			<polygon class="st6" points="1925.5,0 1925.5,33 1885.5,40.8 1866.5,44.5 1866.5,44.5 1866.2,44.6 1848.2,48.1 1848.2,48.1 
				1846.3,44.9 1845.3,43.3 1842.9,39.2 1838.1,31.3 1819.4,0 			"/>
			<path class="st7" d="M1925.5,20.5v72.1l-10.6-8.6h0l-48.5-39.2l0,0l-0.2-0.2l-6.4-5.2l-0.5-0.4c0.8-0.9,1.8-1.8,2.9-2.7
				C1875.5,25.5,1906.1,19.5,1925.5,20.5z"/>
			<path class="st7" d="M1859.3,39c-0.2,0.1-0.5,0.2-0.7,0.3c-3.8,1.7-7.7,2.9-11.7,3.7c-0.5,0.1-1,0.2-1.5,0.3
				c-7.8,1.3-15.9,1-24.1,0.1c-17.3-1.9-35.1-6.7-52.1-5.5c-47.5,3.3-88.8,16.3-94.8,18.3h0c-0.5,0.2-0.7,0.2-0.8,0.3
				c5-10.5,13.8-24.9,38.8-35.2c8.7-3.6,16.4-3.5,20-3.2l-5.5-8.1c6.6-4,13-7.3,19.2-10h28.3c7.1,4.6,11,9.1,11,9.1
				c1-2.5,0.5-5.8-0.5-9.1h37.5l10.1,19.1l3.6-16.2c14.5,10.7,20.7,26.8,22.6,33.3C1859,38,1859.3,39,1859.3,39z"/>
			<path class="st6" d="M1707.5,58.4l-33.6-2.2c6.7-4.2,93.8-57.4,185.4-17.2c-50.6,47.4-131.2,30.2-140.9,29.3
				c2.3-6,4.3-13.4,2.1-18.5L1707.5,58.4z"/>
			<g>
				<path class="st7" d="M1755.9,147.4c2.5-8.6,10.7-17.1,13.1-19.6l-13,1.2c1.6-40.1,37.4-74.1,47.4-80l27.2,5.6l-10.5-12.6
					c21.9-5.2,47.6-2,47.6-2c-6.6,28.5-44.2,49.4-60.8,72.9c-28.5,40.1-43.7,81.9-43.7,81.9C1758.1,184.8,1748.7,172.2,1755.9,147.4
					z"/>
				<path class="st7" d="M1788.6,173.1l-25.3,21.3c0.8-7.6,12.3-104.6,99.4-147.3c-1.4,34.9-9.9,69.6-26.4,86.8l-14.4-21.4l5.5,24
					c-3.5,15.9-21,26-27.7,32.6c-0.9-4.8-5.9-14.5-11.2-16.1L1788.6,173.1z"/>
			</g>
			<path class="st6" d="M1925.5,77.1v71.1c-2.4-1.9-5.1-3.7-8-5.5c-0.2-0.1-0.4-0.3-0.6-0.4c-1-0.6-2.1-1.2-3.1-1.8l-1.1-17.1
				l-6.7,13.1l-0.3,0.5c-5.5-2.8-12.4-6.3-19.7-10.2l4.5-15.7l-10.2,12.7c-5.6-3.1-11.3-6.2-16.7-9.4c-4.5-2.6-8.1-5.6-11-8.9
				c-1.1-1.3-2.1-2.6-3-3.9c-0.6-0.9-1.2-1.8-1.7-2.8c-3.7-6.6-5.4-13.9-5.9-21.1c-0.5-6.7,0.1-13.3,1.1-19.2c0.5-2.9,1.1-5.6,1.7-8
				c0.5-2,1-3.9,1.6-5.6c0.2-0.6,0.4-1.3,0.6-1.8c0.5-1.6,1-2.9,1.4-3.9c0.6-1.7,1.1-2.7,1.1-2.7c1.1-0.1,2.2-0.1,3.3-0.2h0
				c2-0.1,4-0.1,5.9-0.1c1.2,0,2.5,0.1,3.6,0.1c8.7,0.5,16.4,2,23.3,4.5C1904.5,47.6,1917.2,61.3,1925.5,77.1z"/>
		</g>
		<g>
			<path class="st5" d="M1925.5,382v-57.2c-7.6-32.9-29.1-48.2-40.1-54c-4.1-2.2-6.7-3-6.7-3c1.5,1.2,2.9,2.5,4.2,3.9
				c7.3,7.9,11.9,18.8,15.1,30.1c2.8,10.1,4.6,20.6,6.1,29.4c0.1,0.7,0.3,1.4,0.4,2.1c-0.4-0.7-0.7-1.4-1.1-2
				c-3.8-6.7-8.1-11.5-12.7-15c-17.5-13.3-37.7-6.1-37.7-6.1c8.5,4.8,18.2,13.3,27,23.9c0.8,1,1.6,2,2.5,3.1
				c10.2,13.1,18.9,29,22.5,44.8c0.7,3.2,1.2,6.3,1.5,9.5c0.1,1.4,0.2,2.7,0.2,4.1v0c0.1,2.7,0,5.3-0.3,7.9
				c-0.1,0.8-0.2,1.6-0.3,2.4c0,0,0,0,0,0c-0.5,3.4-1.4,6.7-2.7,9.9c-0.8,2.1-1.8,4.1-3,6.1c-0.4,0.7-0.8,1.4-1.3,2.1
				c-3.6-1.7-7.4-5-11.4-8.2c0,0-0.1-0.1-0.1-0.1c0,0-0.1-0.1-0.1-0.1c-3.3-2.6-6.8-5-10.7-6.3c-0.5-0.2-1-0.3-1.5-0.4
				c-0.9-0.2-1.9-0.4-2.9-0.5c-2.2-0.2-4.5,0.1-7,1h0c-0.2,0.1-0.4,0.2-0.7,0.3c-0.4,0.1-0.7,0.3-1.1,0.5h0
				c-1.3,0.6-2.6,1.3-3.9,2.3h0c-0.1,0-0.1,0.1-0.2,0.1c-2.2,1.5-4.4,1.1-6.5-0.2c-0.4-0.2-0.8-0.5-1.2-0.7c0,0,0,0,0,0
				c-3.2-2.2-6.2-5.5-8.7-5.7c-3.5-0.2-6.2,1.4-8.2,3l0,0c-2.1,1.9-3.3,4-3.3,4l-3.4,2.9l-10.1,8.7c-1.6-0.4-3.3-0.9-5.2-1.2h0
				c-0.6-0.1-1.3-0.2-1.9-0.3c-11.3-1.6-26.6,0.1-42.3,13.3c0,0,24.1-3.6,39.6,17.9c0.6,0.8,1.2,1.6,1.9,2.2
				c-5.7-0.1-12.2,0.2-19.7,1c2.2,3.5,3.7,7.2,4.1,8.6c0.1,0.3,0.2,0.5,0.2,0.6c-0.3-0.4-0.7-0.8-1.1-1.1c-3.3-2.9-8.7-4.1-12.8-4.6
				c-0.3,0.1-0.5,0.2-0.8,0.4c-1.6,0.8-3.3,1.6-4.9,2.6c-4.6,2.7-9.2,6.1-13.5,10.3c-1.7,1.6-3.3,3.3-4.9,5.2
				c-1.8,2.1-3.5,4.3-5.3,6.7c0,0,1.9-0.6,5.3-1.2c1.4-0.3,3-0.5,4.9-0.7c3.8-0.4,8.4-0.5,13.5,0.1c1.6,0.2,3.2,0.4,4.9,0.7
				c4.3,0.8,8.9,2.2,13.5,4.3c1.2,0.5,2.4,1.1,3.6,1.8c0.4,0.2,0.9,0.5,1.3,0.7c5.6,3.3,10.2,8,13.5,12.4c2,2.6,3.5,5,4.6,6.9
				c0,0,0,0,0,0h14.3c0,0,0,0,0,0h77.4v0h8.1v0h9v-95.2l0,0V382L1925.5,382z"/>
			<g>
				<path class="st6" d="M1925.5,392.9v22.9l0,0l0,89.2c-1.5-0.7-5.7-2.6-10.7-5.9c-3-2-6.4-4.5-9.6-7.5c-2.3-2.2-4.6-4.7-6.7-7.5
					c-3.9-5.2-7.8-11.4-11.5-18.7v0c-1.1-2.2-2.2-4.5-3.2-6.9c-0.9-2.1-1.8-4.3-2.6-6.5c-0.6-1.6-1.2-3.3-1.7-5v0
					c-0.9-2.6-1.7-5.3-2.4-8.1c-0.5-1.8-0.9-3.7-1.3-5.6c-0.4-1.7-0.7-3.5-1-5.2v0c-0.1-0.7-0.2-1.4-0.4-2c0,0,0,0,0,0c0,0,0,0,0,0
					c-0.2-1-0.3-2-0.5-3c0,0,0,0,0,0c-0.3-2.3-0.6-4.7-0.9-7.1c-0.1-0.9-0.2-1.7-0.2-2.6v0c-0.1-1.6-0.2-3.2-0.3-4.8
					c-0.1-1.6-0.1-3.3-0.2-5c-0.1-3.9,0-7.9,0.1-12c0.1-3.1,0.4-6.3,0.7-9.5c0-0.1,0-0.1,0-0.2c0,0,0,0,0,0
					c0.7-7.4,1.9-15.1,3.6-23.2l6.7,4l-5-11.3c1.2-4.7,2.6-9.4,4.2-14c0.4-1.2,0.8-2.3,1.2-3.5c2.1-5.9,4.4-11.7,7-17.4
					c2.2-4.9,4.7-9.7,7.3-14.5c1.1-1.9,2.2-3.9,3.3-5.8c0,0,5.1,13.9,12.1,34c0,0.1,0.1,0.2,0.1,0.2l-13.1,12.6l15.7-5.1
					c3.8,14.6,6.6,29.3,8.3,44.3c0.4,3.2,0.7,6.3,1,9.5c0,0.3,0.1,0.6,0.1,0.9C1925.4,392.5,1925.5,392.7,1925.5,392.9z"/>
			</g>
			<g>
				<path class="st8" d="M1817.8,365.5c-6.3-2.6-12-1.6-17.6-2.6c4.3,3.8,7.1,8.9,13.1,12.1c8.5,4.6,14.6,1.1,14.6,1.1
					S1826.7,369.3,1817.8,365.5z"/>
				<path class="st8" d="M1837.4,368c-2.4-5.9-6.8-9-9.9-13.5c0.3,5.4-1.2,10.6,0.6,16.7c2.6,8.7,8.9,10.5,8.9,10.5
					S1840.8,376.4,1837.4,368z"/>
				<path class="st8" d="M1824.6,378.6c-6.3,0.6-10.6,4-15.7,5.7c5.3,1.2,9.8,4.1,16.2,4.1c9,0,12.6-5.6,12.6-5.6
					S1833.6,377.7,1824.6,378.6z"/>
				<path class="st8" d="M1853,376.5c-1.1-7.4-5.4-12.1-7.7-18c-1.1,6.2-4.2,11.8-3.8,19.2c0.6,10.6,7.3,14.4,7.3,14.4
					S1854.6,387,1853,376.5z"/>
				<path class="st8" d="M1833.5,389.4c-7.3,1.4-11.9,5.9-17.7,8.4c6.3,0.8,11.9,3.7,19.4,3c10.5-1,14.1-7.9,14.1-7.9
					S1843.9,387.4,1833.5,389.4z"/>
				<path class="st8" d="M1865.4,387.9c-0.5-7.6-4.3-12.9-6.2-19.1c-1.7,6.2-5.4,11.6-5.7,19.2c-0.4,10.9,6.1,15.3,6.1,15.3
					S1866,398.7,1865.4,387.9z"/>
				<path class="st8" d="M1846.2,400.1c-7.6,0.3-13,4-19.3,5.7c6.2,1.8,11.5,5.7,19.1,6.2c10.8,0.6,15.5-5.7,15.5-5.7
					S1857,399.7,1846.2,400.1z"/>
				<path class="st8" d="M1877,400.9c0.4-7.9-3.1-13.8-4.2-20.4c-2.4,6.3-6.9,11.4-8,19.2c-1.6,11.1,4.6,16.5,4.6,16.5
					S1876.5,412.1,1877,400.9z"/>
				<path class="st8" d="M1853.5,412.3c-7.9,0.9-13.1,5.2-19.4,7.4c6.6,1.4,12.3,4.9,20.2,4.8c11.3-0.2,15.5-7.2,15.5-7.2
					S1864.7,411,1853.5,412.3z"/>
				<path class="st8" d="M1887.4,415.4c1.7-7.7-0.7-14.1-0.8-20.8c-3.4,5.8-8.7,10.1-11.1,17.6c-3.4,10.7,1.8,17,1.8,17
					S1885,426.4,1887.4,415.4z"/>
				<path class="st8" d="M1863.8,425.4c-7.1,0.3-12,3.8-17.8,5.4c5.8,1.6,10.7,5.2,17.8,5.6c10.1,0.5,14.3-5.4,14.3-5.4
					S1873.8,425,1863.8,425.4z"/>
				<path class="st8" d="M1869.6,437.9c-7.1,0.3-12,3.8-17.8,5.4c5.8,1.6,10.7,5.2,17.8,5.6c10.1,0.5,14.3-5.4,14.3-5.4
					S1879.7,437.5,1869.6,437.9z"/>
				<path class="st8" d="M1883.1,452.6c-6.8-2.2-12.6-0.6-18.6-1.2c4.8,3.6,8.2,8.6,14.7,11.5c9.2,4,16.4,3.6,16.4,3.6
					S1892.7,455.7,1883.1,452.6z"/>
				<path class="st8" d="M1892.3,473.2l-1.1-0.1c0,0,0.5-4-1.7-12.2c-2-7.6-6.6-20.5-17.5-38.7c-9.4-15.7-29-37.1-45.6-45.8l0.5-1
					c16.8,8.9,36.7,30.5,46.1,46.2C1894.1,456.8,1892.4,472.5,1892.3,473.2z"/>
			</g>
			<g>
				<path class="st7" d="M1908.4,511L1908.4,511l-61.4,0c-3.5-4.5-7.1-10.2-10-16.2l17.7-1.7l-20.6-2.9c-3.6-5.9-7.1-12.4-10.5-19.5
					c-1.2-2.5-2.3-4.9-3.3-7.2l16.6,3.4l-18.6-8.1c-7.3-18.9-7.5-31.3-7.2-35.7c0.1-1.2,0.2-1.8,0.2-1.8c0.5,0.7,1.1,1.4,1.7,2.1h0
					c5.4,5.8,15.7,12.2,28.7,21l12.1,25.2l-6.3-21.2c5,3.5,10.4,7.4,15.9,11.7l6,27.7l-1.2-23.8c4,3.2,8,6.6,11.8,10.1
					c9.7,8.8,18.7,18.4,26.9,28.6c2.2,2.8,4.4,5.6,6.5,8.5c0,0,0,0,0,0H1908.4z"/>
			</g>
			<g>
				<path class="st9" d="M1916.4,511L1916.4,511l-8.1,0v0h-22.2c-3.4-10-5.8-22.2-6.2-37.1c-0.1-3.4-0.1-7,0.1-10.7v0
					c0.1-2.2,0.2-4.4,0.4-6.7l3.3,2l6.1,3.8h0l1.4,0.9l0,0l4,2.4l0.3,0.2l-0.4-0.4l-4.4-4.4l0,0l-1.7-1.7l-7-7l0,0l-1.2-1.2
					c0.2-1.8,0.4-3.6,0.6-5.4v0c0.2-1.3,0.4-2.7,0.6-4.1v0c0-0.2,0-0.3,0.1-0.5v0c0.1-0.7,0.2-1.4,0.3-2c0,0,0,0,0,0
					c0.5-3.2,1.1-6.5,1.8-9.9c0.5-2.7,1.1-5.3,1.7-7.7l11.3,12.7l-10-17.6c0.1-0.3,0.1-0.5,0.2-0.8c0,0,0-0.1,0-0.1
					c1.4-4.6,2.8-8.7,4.3-12.3c2-4.9,4-8.9,5.9-12c3.7-6.4,6.6-9.1,6.6-9.1v0c0,2.6-0.1,5.6,0,9.1c0.1,3.5,0.5,7.5,1.3,12
					c0.1,0.8,0.3,1.6,0.5,2.4c0,0,0,0,0,0c0.6,3.1,1.5,6.4,2.6,9.9c0.3,0.9,0.6,1.8,0.9,2.7l-1.5,34.3l2.7,17.6l4,28.6L1916.4,511z"
					/>
				<path class="st7" d="M1925.5,456.6V511h-9v0h-8.1v0c-0.5-2.8-1-5.7-1.5-8.5c-0.6-3.7-1.2-7.3-1.7-11
					c-3.6-24.4-5.4-47.7-4.8-69.6c0.1-2.1,0.1-4.1,0.2-6.1c0.2-4.2,0.5-8.3,0.8-12.4c0.4-4,0.8-8,1.4-12c0.4-3.1,0.9-6.1,1.5-9.1
					c0,0,0,0,0,0c0,2.6,0.4,5.6,1.3,9.1c0.3,1.3,0.7,2.7,1.1,4.1v0c0.7,2.4,1.6,5.1,2.5,7.9c1.3,3.8,2.7,7.9,4.3,12.4
					c0.4,1.1,0.8,2.2,1.1,3.3l-5.5,27.4l7.8-20.7c1.9,5.8,3.8,12.1,5.7,18.9l-11.8,25.7l13.4-19.8
					C1924.5,452.5,1925,454.5,1925.5,456.6z"/>
			</g>
		</g>
	</g>
	<g>
		<g>
			<polygon class="st7" points="91.1,-10 91.1,-9.4 86.5,67.9 85,94.8 84.8,96.9 84.4,103.4 84.3,105.2 84.2,108.4 83.7,115.4 
				59.6,110.7 59.2,110.6 33.7,105.7 0,99.1 0,-10 			"/>
			<path class="st6" d="M170.1,12.2c-2.2,9.2-5.5,17.6-9.7,25.1C142.3,69.7,108.5,86.6,85,94.8v0c-5.8,2-10.9,3.5-15,4.6
				c-0.1,0-0.1,0-0.2,0h0c-1.4,0.4-2.7,0.7-3.8,0.9c-4.1,1-6.5,1.3-6.5,1.3c-0.1-0.6-0.2-1.1-0.3-1.7c-0.3-1.7-0.6-3.3-0.8-5
				C49,32.8,72.2,3.3,91.1-9.4c0.3-0.2,0.6-0.4,0.9-0.6h79c-4.4,8.2-11,15.2-19.4,20c-1.4,0.8-2.9,1.6-4.4,2.4
				c1.9,0.8,4.3,1.6,7.1,2C161.4,15.4,167.1,13.4,170.1,12.2z"/>
			<path class="st6" d="M68.9,103.3l-0.6,0.5l-8.6,6.9l-0.3,0.2L0,158.9V79c20.4,1.9,43.5,7.5,58.3,16.1c2.5,1.4,4.7,2.9,6.7,4.5
				c0.3,0.3,0.6,0.5,0.9,0.8C67,101.3,68,102.3,68.9,103.3z"/>
			<path class="st7" d="M266,79.5c-11.7-4.8-22-4.7-26.8-4.3l7.4-10.9c-16.7-10.2-32.8-17.1-47.9-21.4
				c-19.4,7.2-30.5,20.2-30.5,20.2c-2.7-6.9,2.6-17.9,6.8-25c-19.6-2.2-37.2,0.1-52.4,5.4l-17.5,33l-4.8-21.7
				C75.4,73,68.9,103.3,68.9,103.3c37.1,17.6,80.7-4.3,121-1.5c68.9,4.9,128.2,24.9,128.2,24.9C311.3,112.6,299.5,93.3,266,79.5z"/>
			<path class="st7" d="M272.3,129.2l45.1-2.9c-9-5.7-125.8-76.9-248.6-23.1c67.9,63.5,176,40.5,189,39.2c-3.1-8-5.7-18-2.8-24.8
				L272.3,129.2z"/>
			<g>
				<path class="st6" d="M207.5,248.6c-3.3-11.6-14.4-22.9-17.6-26.2l17.4,1.7c-2.1-53.7-50.2-99.4-63.6-107.3l-36.5,7.5l14.1-16.9
					c-29.4-7-63.9-2.6-63.9-2.6c8.8,38.2,59.3,66.3,81.6,97.8c38.2,53.8,58.6,109.9,58.6,109.9C204.6,298.7,217.1,281.8,207.5,248.6
					z"/>
				<path class="st7" d="M163.6,283.1l33.9,28.6c-1-10.1-16.4-140.3-133.3-197.5c1.9,46.8,13.2,93.4,35.4,116.4l19.3-28.7l-7.4,32.3
					c4.7,21.4,28.2,34.9,37.1,43.7c1.2-6.5,7.9-19.5,15-21.6L163.6,283.1z"/>
			</g>
			<path class="st7" d="M92.2,155.1c0,0.7-0.1,1.3-0.2,2c-1.2,12.4-5.1,24.9-14.1,35.3c-3.9,4.5-8.7,8.5-14.7,12
				c-7.3,4.2-14.9,8.5-22.4,12.6L27,200l6.1,21.1c-9.8,5.2-19,10-26.4,13.7L0,221.6v-94.7c9.1-9,20.2-16.4,33.7-21.2
				c7.7-2.7,16.1-4.7,25.4-5.6c1.9-0.2,3.9-0.3,5.8-0.4c1.5-0.1,3.1-0.1,4.7-0.2c0.1,0,0.1,0,0.2,0c2.6,0,5.2,0,8,0.1
				c1.4,0.1,2.9,0.1,4.4,0.2c0,0,0.6,1.3,1.4,3.6c0.2,0.6,0.4,1.2,0.7,1.8c0.4,1,0.8,2.2,1.2,3.4c0.9,2.8,1.9,6.2,2.9,10
				c0.8,3.3,1.6,6.9,2.3,10.8C92,137.3,92.8,146.1,92.2,155.1z"/>
		</g>
		<g>
			<path class="st5" d="M168.5,484.5c-4.6-5-9.6-9-14.8-12.1c-0.5-0.3-1.1-0.6-1.6-0.9c-4.6,0.2-11.2,1.1-14.6,4.5
				c0.1-0.1,2-4.8,5.2-8.9c-7.5-1.5-14.1-2.4-19.9-2.8c0.7-0.6,1.4-1.3,2.1-2.1c10.7-12.4,23.9-15.1,32.5-15.3
				c5.5-0.1,9.2,0.8,9.2,0.8c-7.2-7.3-14.6-11.7-21.7-14.3c-10.5-3.8-20.2-3.5-27.3-2.2l-0.5-0.5l-12.1-12.5c0,0-0.4-0.8-1.1-2
				c0,0,0,0,0,0c-0.6-1-1.5-2.1-2.7-3.2c-1.1-1-2.5-1.9-4.1-2.4c-0.6-0.2-1.2-0.3-1.9-0.4c-0.1,0-0.2,0-0.4,0c-0.1,0-0.1,0-0.2,0
				c-0.1,0-0.2,0-0.3,0c-0.1,0-0.1,0-0.2,0c-1.8-0.1-3.9,1.4-6.2,3c-3.6,2.5-7.7,5.1-11,2.2c-1-0.8-2-1.6-2.9-2.2
				c-7.6-4.9-14.5-3.3-20.7,0c-5.2,2.7-10,6.6-14.4,9h0c-1,0.5-2,1-2.9,1.3c-1.6-3-2.9-6.4-3.9-9.9c0,0,0,0,0,0v0c0,0,0-0.1,0-0.1
				c0-0.1,0-0.2-0.1-0.3c-0.2-0.7-0.3-1.3-0.5-2v0c0,0,0,0,0,0c-0.4-1.6-0.7-3.3-0.9-5v0c0,0,0,0,0,0c0,0,0,0,0-0.1
				c-0.3-1.8-0.5-3.6-0.6-5.5c-0.1-0.8-0.1-1.6-0.1-2.5v0c-0.1-2.6-0.1-5.2,0-7.9v0c0-0.1,0-0.1,0-0.2c0,0,0,0,0,0
				c0-0.6,0-1.1,0.1-1.7c0.1-1.8,0.2-3.6,0.4-5.4v0c0,0,0,0,0,0v0c0.1-1.4,0.3-2.8,0.5-4.3c0.4-2.9,0.9-5.9,1.5-8.9c0,0,0,0,0,0
				c1.2-6.3,2.9-12.7,4.9-19v0c0.2-0.6,0.4-1.2,0.6-1.8c1-3.1,2.1-6.1,3.2-9.2c0.8-2,1.6-4.1,2.4-6.1c1.6-3.8,3.3-7.5,5-11.1v0
				c0.3-0.7,0.6-1.3,1-2c0.7-1.3,1.3-2.6,2-3.9c1.3-2.5,2.7-4.9,4-7.2v0c0.4-0.7,0.8-1.3,1.2-2c0,0,0,0,0,0
				c2.6-4.3,5.3-8.2,8.1-11.8c0.2-0.3,0.5-0.6,0.7-0.9c3.4-4.4,6.9-8.2,10.4-11.2c0.6-0.5,1.1-1,1.7-1.4h0c2.7-2.2,5.3-3.9,7.9-5.1
				c0,0-5.2-0.9-13.5,0.2c-1,0.1-2.1,0.3-3.2,0.5c0,0,0,0,0,0c-0.8,0.1-1.6,0.3-2.4,0.5c0,0,0,0,0,0h0c-0.7,0.1-1.4,0.3-2.1,0.5
				c-2.7,0.7-5.6,1.5-8.6,2.7c-0.8,0.3-1.5,0.6-2.3,0.9c-4,1.7-8.2,3.8-12.5,6.5c-0.5,0.3-1,0.6-1.5,1h0c-2.7,1.8-5.4,3.8-8.2,6
				c1.1-4.2,2.7-8.6,4.4-13.1c3-7.6,6.8-15.4,10.9-23.1c5.4-10.1,11.4-19.8,16.8-27.8c-0.3,0.1-20,9.3-38,27.9
				C14.9,270,5.3,283.6,0,300.2v209.4h30.2c0,0,0,0,0,0h16.6l0,0h72.2c0.4-0.4,0.8-0.7,1.1-1.1l0,0c3.5-3.2,7.7-6.3,12.6-8.3
				c9.2-3.9,18.1-5,25.5-4.9c12.5,0.3,21.2,4,21.2,4C176.1,493.7,172.4,488.7,168.5,484.5z"/>
			<g>
				<path class="st8" d="M106.8,248.1c7-2.3,13.1-0.7,19.3-1.3c-5,3.7-8.5,8.9-15.2,11.9c-9.6,4.2-15.9-0.1-15.9-0.1
					S96.9,251.4,106.8,248.1z"/>
				<path class="st8" d="M85.5,249.1c3.1-6.2,8.2-9.1,11.9-13.7c-0.8,5.8,0.4,11.5-2.1,18c-3.5,9.1-10.5,10.6-10.5,10.6
					S81.1,257.9,85.5,249.1z"/>
				<path class="st8" d="M98.4,261.7c6.8,1.2,11.1,5.2,16.4,7.5c-5.8,0.8-11,3.6-17.8,3.1c-9.7-0.8-13.1-7.1-13.1-7.1
					S88.8,260,98.4,261.7z"/>
				<path class="st8" d="M67.9,256.9c1.9-7.9,6.8-12.6,9.9-18.8c0.6,6.8,3.5,13.1,2.4,21.1c-1.6,11.4-9.1,14.9-9.1,14.9
					S65.3,268.1,67.9,256.9z"/>
				<path class="st8" d="M87.8,272.6c7.8,2.2,12.3,7.4,18.4,10.6c-6.8,0.3-13.2,3-21.1,1.6c-11.3-2-14.5-9.7-14.5-9.7
					S76.8,269.5,87.8,272.6z"/>
				<path class="st8" d="M53.6,268.1c1.1-8.2,5.8-13.5,8.3-20.1c1.2,6.9,4.8,13,4.5,21.3c-0.5,11.8-7.9,16-7.9,16
					S52,279.8,53.6,268.1z"/>
				<path class="st8" d="M73.2,283c8.2,0.9,13.7,5.5,20.3,7.8c-6.9,1.4-12.9,5.2-21.1,5c-11.8-0.2-16.2-7.5-16.2-7.5
					S61.6,281.7,73.2,283z"/>
				<path class="st8" d="M39.9,281.2c0.3-8.6,4.5-14.6,6.3-21.6c2,7,6.4,12.9,6.9,21.4c0.7,12.2-6.4,17.4-6.4,17.4
					S39.5,293.4,39.9,281.2z"/>
				<path class="st8" d="M64.3,295.5c8.4,1.7,13.7,6.8,20.3,9.7c-7.2,0.9-13.7,4.3-22.3,3.4c-12.1-1.2-16.1-9.1-16.1-9.1
					S52.3,293.1,64.3,295.5z"/>
				<path class="st8" d="M27.4,295.9c-1.2-8.5,2-15.2,2.6-22.4c3.2,6.5,8.5,11.6,10.4,19.9c2.8,11.9-3.4,18.2-3.4,18.2
					S29,308,27.4,295.9z"/>
				<path class="st8" d="M14,315.1c-2.6-8.2-0.7-15.3-1.3-22.5c4.3,5.9,10.4,9.9,13.8,17.8c4.8,11.2-0.1,18.5-0.1,18.5
					S17.7,326.7,14,315.1z"/>
				<path class="st8" d="M5.1,335.7c-3.9-7.6-3.2-14.9-5.1-21.9c5.2,5.1,11.9,8.1,16.5,15.3c6.6,10.2,2.9,18.3,2.9,18.3
					S10.7,346.5,5.1,335.7z"/>
				<path class="st8" d="M52,308.8c7.6,0.9,12.7,5.2,18.8,7.4c-6.4,1.3-12,4.7-19.7,4.5c-10.9-0.3-15-7.1-15-7.1
					S41.2,307.4,52,308.8z"/>
				<path class="st8" d="M44.6,321.8c7.6,0.9,12.7,5.2,18.8,7.4c-6.4,1.3-12,4.7-19.7,4.5c-10.9-0.3-15-7.1-15-7.1
					S33.8,320.4,44.6,321.8z"/>
				<path class="st8" d="M36.7,338.8c7.6,0.9,12.7,5.2,18.8,7.4c-6.4,1.3-12,4.7-19.7,4.5c-10.9-0.3-15-7.1-15-7.1
					S25.8,337.4,36.7,338.8z"/>
				<path class="st8" d="M17.1,357.8l1.2-0.1c0,0-0.1-4.4,2.9-13c2.8-8,8.9-21.5,22.2-40.2C54.9,288.4,77.9,267,96.7,259l-0.5-1.1
					C77.3,266,54,287.6,42.5,303.8C16.6,340,17.1,357.1,17.1,357.8z"/>
			</g>
			<g>
				<path class="st6" d="M159.3,342.8c0,0-0.8,0.8-2.2,2.3c-0.3,0.3-0.5,0.6-0.8,0.9l0,0c0,0-0.1,0.1-0.1,0.1l0,0
					c-4.8,4.9-14.2,14.5-23.3,23.6l-10.2-5.8l5.6,10.4c-1.5,1.5-2.9,2.9-4.3,4.2c-4.1,4-7.7,7.5-10.2,9.6c-0.6,0.5-1.1,1-1.6,1.4
					c-1.9,1.6-4.2,4-6.8,7.1c-1,1.1-2,2.4-3,3.7c-1.8,2.2-3.6,4.7-5.6,7.3c-0.3,0.4-0.6,0.8-0.9,1.2c-0.3,0.4-0.5,0.7-0.8,1.1
					c-0.2,0.3-0.5,0.6-0.7,1c-0.5,0.6-0.9,1.3-1.4,2c-19.6,27.2-46.2,69.9-62.5,96.8H0v-41.5l0.1-0.2l2.7-4.7l0-0.1l1.7-3l2.5-4.4
					l0-0.1l0-0.1l0,0l0.1-0.1c0,0,0,0,0,0l0.8-1.4l0.1-0.2l4.5-7.9l0,0l9.9-17.3l0,0l3.1-5.5l0.3-0.5l1-1.7l3.9-6c0,0,0,0,0,0l1-1.6
					c0,0,0,0,0,0l0,0c0,0,0,0,0,0l0.1-0.2l0.2-0.4l1.7-2.6c0,0,0,0,0,0l0,0c0,0,0,0,0,0l0.2-0.3v0l3.1-4.9l3-4.7l7.8-12.2l6.2-9.6
					l7.1-11.2c3.5-3,7.2-5.7,11.1-8.1c9.4-5.7,19.8-9.6,29.9-12.2l-0.6,6.6l6.8-8c10.1-2,20.4-3.2,30.7-3.4c0,0,0,0,0,0
					c5.1-0.1,10.3,0,15.4,0.3h0c0.4,0,0.9,0.1,1.3,0.1h0C157.2,342.7,158.2,342.7,159.3,342.8z"/>
			</g>
			<g>
				<path class="st7" d="M92,290.9L92,290.9c0,0,0,0.1-0.1,0.3c-0.6,2.5-4.6,19.7-9.6,40.1L70.1,332l10.9,4.4
					c-0.4,1.1-0.7,2.2-1.1,3.2c-2.3,6.6-4.8,13.1-7.4,19.5c-2.7,6.5-5.6,12.9-8.8,19.3c-1.6,3.2-3.2,6.5-4.9,9.6
					c-2.2,4.1-4.4,8.1-6.7,12.2c-0.6,1-1.2,2.1-1.8,3.1c-1.9,3.2-3.8,6.4-5.7,9.5c-1.9,3-3.8,6-5.7,9h0c-0.9,1.3-1.7,2.6-2.6,3.9v0
					c-3,4.4-6,8.8-9.2,13.1c0,0,0,0,0,0c-1.6,2.2-3.3,4.5-4.9,6.6c-4.2,5.5-8.5,10.9-12.9,16.3c0,0,0,0.1-0.1,0.1
					c-0.3,0.3-0.6,0.7-0.9,1c-0.8,0.9-1.5,1.8-2.3,2.7c-1.9,2.3-3.9,4.5-5.9,6.8c0,0-0.1,0.1-0.1,0.1v-66.8l0.1-0.7v0l0.1-0.6l0.7-4
					l1.3-7.8l0.7-4.4l0.1-0.7l1.5-8.9l0.6-3.4c0.2-0.7,0.4-1.3,0.6-2c1.2-3.6,2.6-6.9,4.1-10c0-0.1,0.1-0.2,0.1-0.2
					c2.5-5,5.4-9.5,8.6-13.7l0,0c0.7-0.9,1.4-1.8,2.1-2.7l0,0c0.4-0.5,0.8-1,1.3-1.5c1.4-1.7,2.9-3.4,4.5-5.1
					c2.2-2.4,4.4-4.7,6.8-7.1c0.2-0.2,0.4-0.4,0.6-0.6l3.3,6.7l0.3,0.7l0.1-0.6l1-6l1-6.3c1.8-1.6,3.6-3.2,5.4-4.8
					c0.6-0.6,1.3-1.1,2-1.6c1.4-1.2,2.9-2.4,4.4-3.6c2.5-2,5.1-4,7.8-5.9c1-0.7,1.9-1.4,2.9-2.1c4.3-3,8.8-5.9,13.3-8.6h0
					c2.5-1.5,5-3,7.6-4.4c0.4-0.2,0.9-0.5,1.3-0.7c0.9-0.5,1.7-0.9,2.6-1.4c0.4-0.2,0.9-0.4,1.3-0.7c0.9-0.5,1.7-0.9,2.6-1.3
					c0,0,0,0,0,0C91.1,291.3,91.6,291.1,92,290.9z"/>
				<path class="st9" d="M92,290.9L92,290.9c0,0-0.2,0.2-0.4,0.4l0,0c-1.2,1.2-5.2,5.4-10.9,11.9c-1,1.1-2,2.3-3,3.5
					c-2.3,2.7-4.9,5.8-7.7,9.2c-0.2,0.2-0.3,0.4-0.5,0.6v0c-2.8,3.5-5.9,7.3-9,11.5c-0.6,0.8-1.3,1.7-1.9,2.5c-3,4-6.2,8.3-9.3,12.9
					c-0.5,0.7-1,1.5-1.5,2.2c-0.8,1.2-1.7,2.5-2.5,3.7c-4.3,6.4-8.7,13.2-13,20.4c0,0,0,0,0,0c-1.7,2.9-3.5,5.9-5.2,8.9
					c-1.1,2-2.2,3.9-3.3,5.9c-0.7,1.2-1.3,2.5-2,3.7c-1.8,3.3-3.5,6.7-5.2,10.2c-0.3,0.7-0.6,1.3-1,2c-0.6,1.2-1.1,2.4-1.7,3.6
					c-0.7,1.4-1.3,2.8-1.9,4.2c-0.7,1.6-1.4,3.2-2.1,4.8c-0.1,0.3-0.2,0.5-0.3,0.8c-0.3,0.8-0.7,1.6-1,2.4c0,0,0,0,0,0
					c-0.5,1.3-1.1,2.6-1.6,3.9c0,0,0,0,0,0c-0.2,0.4-0.4,0.9-0.5,1.4c-0.8,2.1-1.7,4.3-2.5,6.4c-0.5,1.2-0.9,2.5-1.3,3.7
					c0,0,0,0,0,0c-0.8,2.3-1.6,4.5-2.3,6.8c0-0.1-0.1-0.2-0.1-0.3c0-0.1-0.1-0.2-0.1-0.3v-54c0.1-0.2,0.1-0.4,0.2-0.6
					c0.5-1.3,0.9-2.6,1.5-3.8c0.1-0.2,0.1-0.4,0.2-0.5c0.9-2.1,1.8-4.2,2.9-6.3c1.5-3,3.2-6,5-9c0-0.1,0.1-0.2,0.2-0.3c0,0,0,0,0,0
					c2.5-4.2,5.3-8.3,8.2-12.2c0,0,0,0,0,0c0,0,0,0,0,0c0.7-0.9,1.4-1.8,2.1-2.8l0,0c0,0,0,0,0,0c0.7-0.9,1.4-1.8,2.1-2.6
					c1.5-1.9,3.1-3.8,4.6-5.6c2.1-2.5,4.3-4.8,6.4-7c0.2-0.2,0.4-0.4,0.6-0.6l3.3,6.7l0.3,0.7l0.1-0.6l1-6l1-6.3
					c1.8-1.6,3.6-3.2,5.4-4.8c0.6-0.6,1.3-1.1,2-1.6c1.4-1.2,2.9-2.4,4.4-3.6c2.5-2,5.1-4,7.8-5.9c1-0.7,1.9-1.4,2.9-2.1
					c4.3-3,8.8-5.9,13.3-8.6h0c2.5-1.5,5-3,7.6-4.4c0.4-0.2,0.9-0.5,1.3-0.7c0.9-0.5,1.7-0.9,2.6-1.4c0.4-0.2,0.9-0.4,1.3-0.7
					c0.9-0.5,1.7-0.9,2.6-1.3c0,0,0,0,0,0C91.1,291.3,91.6,291.1,92,290.9z"/>
			</g>
			<g>
				<path class="st8" d="M16.7,371.7c3.4-6,8.7-8.7,12.7-12.9c-1.2,5.7-0.3,11.6-3.2,17.8c-4.1,8.9-11.1,9.9-11.1,9.9
					S11.8,380.2,16.7,371.7z"/>
				<path class="st8" d="M2.4,385.8c-1.7-6.2,0-11.5-0.3-17c3,4.6,7.5,7.8,9.8,13.9c3.3,8.6-0.7,13.9-0.7,13.9S4.8,394.6,2.4,385.8z
					"/>
				<path class="st8" d="M19.3,386.5c5.5-3.4,11-3.3,16.2-5c-3.5,4.2-5.4,9.4-10.5,13.3c-7.3,5.5-13.6,3.2-13.6,3.2
					S11.5,391.3,19.3,386.5z"/>
				<path class="st8" d="M18.7,400.7c6.8-3.4,13.2-2.6,19.5-4.1c-4.6,4.5-7.3,10.4-13.8,14.3c-9.2,5.6-16.2,2.3-16.2,2.3
					S9,405.5,18.7,400.7z"/>
				<path class="st8" d="M15,417.1c6.3-4.5,13-4.7,19.1-7.2c-3.9,5.3-5.8,11.7-11.7,16.7c-8.4,7.2-16,4.9-16,4.9S6,423.5,15,417.1z"
					/>
				<path class="st8" d="M16.6,431.5c6.9-4.1,13.8-3.8,20.3-5.9c-4.4,5.1-6.9,11.6-13.4,16.3c-9.2,6.8-17,3.7-17,3.7
					S6.8,437.3,16.6,431.5z"/>
				<path class="st8" d="M16.3,448.4c5.9-4.1,12.1-4.3,17.7-6.6c-3.7,4.9-5.4,10.8-10.9,15.4c-7.8,6.6-14.9,4.4-14.9,4.4
					S8,454.2,16.3,448.4z"/>
				<path class="st8" d="M19.3,462.1c5.9-4.1,12.1-4.3,17.7-6.6c-3.7,4.9-5.4,10.8-10.9,15.4c-7.8,6.6-14.9,4.4-14.9,4.4
					S10.9,468,19.3,462.1z"/>
				<path class="st8" d="M21.7,477.8c5.1-5.1,11.2-6.3,16.3-9.6c-2.8,5.4-3.5,11.6-8.1,17.1c-6.6,7.9-13.9,6.9-13.9,6.9
					S14.5,485,21.7,477.8z"/>
				<path class="st8" d="M22.6,504.6l0.8-0.8c0,0-2.8-3-6.2-10.9c-3.1-7.3-7.3-20.6-9.7-42c-2.1-18.4,0.6-47.8,8.7-65.1l-1-0.5
					C7.1,402.7,4.4,432.4,6.5,451C11.1,492.4,22.2,504.1,22.6,504.6z"/>
				<path class="st8" d="M0,390.7c1.9,1.6,3.6,3.4,5,5.5c6,8.9,2.9,16.1,2.9,16.1S4.1,412,0,408.5L0,390.7z"/>
				<path class="st8" d="M0,410.1c0.6,0.6,1.1,1.2,1.6,1.8c7,8.5,4.5,16.2,4.5,16.2c-2.2-0.1-4.2-0.7-6.1-1.8V410.1z"/>
				<path class="st8" d="M0,446c8,6.4,7.7,13.9,7.7,13.9c-2.6,0.6-5.2,0.5-7.7-0.2V446z"/>
				<path class="st8" d="M0,428.5c7.8,8,6.2,15.9,6.2,15.9c-2.1,0.1-4.2-0.2-6.2-0.9V428.5z"/>
				<path class="st8" d="M0,461.7c0.8,0.4,1.6,0.8,2.3,1.3c8.7,5.4,8.9,12.8,8.9,12.8s-4.8,1.8-11.2-1.2V461.7z"/>
				<path class="st8" d="M0,480.2c1.6,0.2,3.2,0.6,4.7,1.2c9.6,3.5,11.3,10.7,11.3,10.7s-6.3,3.9-15.5-0.4L0,491.4L0,480.2z"/>
				<path class="st8" d="M0,498.5c2.1-0.8,4.2-1.2,6.4-1.4c10.2-0.8,14.7,5.1,14.7,5.1s-4.1,6.2-14.3,6.1c-2.3,0-4.6-0.4-6.8-1.1
					V498.5z"/>
			</g>
			<g>
				<path class="st6" d="M104,479.5l-10.7-0.9l8.7,6.5c-3.1,8.4-5.9,15.8-7.4,18.9c-0.9,1.9-1.9,3.8-2.9,5.7H46.8l0,0H39v0
					c0.7-2,1.5-4.1,2.3-6.1c5.4-12.3,16.2-20.9,26.1-29c0.8-0.7,1.7-1.4,2.5-2.1l4.6-3.6c2.8-2,5.6-4,8.5-5.8
					c10.2-6.6,21.1-12,32.5-16.2C115.4,447.2,109.6,463.9,104,479.5z"/>
			</g>
			<g>
				<path class="st9" d="M96.5,406.9c0,0,0,0.1,0,0.1c-0.1,0.2-0.4,0.9-0.7,1.9c-0.1,0.3-0.3,0.7-0.5,1.2c-0.3,0.8-0.7,1.8-1.2,2.9
					c-4.7,11.7-15.6,38.4-26.7,61.7c-2.7,5.6-5.3,11.1-7.9,16c-3,5.7-7.4,12.2-12.6,19l0,0H30.2c0,0,0,0,0,0h-30
					c0.5-0.7,0.9-1.4,1.4-2.1c0,0,0,0,0,0c0,0,0,0,0,0c2.4-3.6,5-7.1,7.5-10.5c0,0,0,0,0,0c0.9-1.2,1.8-2.4,2.7-3.6l0,0c0,0,0,0,0,0
					c1-1.2,1.9-2.5,2.9-3.7c0,0,0-0.1,0.1-0.1c0,0,0,0,0-0.1v0c0,0,0-0.1,0.1-0.1c0.2-0.3,0.4-0.5,0.7-0.8c0,0,0-0.1,0.1-0.1
					c0.1-0.1,0.2-0.3,0.4-0.4l0,0c0-0.1,0.1-0.1,0.1-0.2c4.2-5.3,8.6-10.4,13.2-15.3l0,0c0,0,0.1-0.1,0.1-0.1v0c0,0,0,0,0,0
					c1.4-1.5,2.8-3,4.1-4.4l0.2,2.4v0l0,0v0l0.6,7v0l0,0.2v0l1.6,19.7l2.9-34.8c9.1-4.7,40.7-35.3,53-49.8c0.9-1.1,1.7-2.1,2.4-3
					c0.6-0.7,1-1.4,1.4-2c0,0,0,0,0,0C96.1,407.6,96.3,407.3,96.5,406.9C96.4,406.9,96.5,406.9,96.5,406.9z"/>
				<path class="st7" d="M93.8,453.9l-21.4,12.9l10.6-3.6l9.3-3.2c-0.8,3-1.8,6.1-2.8,9.3c-3.1,9.2-6.3,17.7-9.7,25.5l-24.7,6.9
					l21.8-0.7c-1.5,3.1-2.9,6-4.4,8.8H46.8l0,0H36.7c0,0,0,0,0,0c15-22.8,45.6-77.5,56.3-96.8c0.4-0.7,0.7-1.4,1.1-2
					c0.2-0.3,0.4-0.7,0.5-1c0.4-0.8,0.8-1.4,1.1-2c0,0,0,0,0,0c0.2-0.4,0.4-0.8,0.6-1.1c0,0,0,0,0,0.1c0,0,0,0,0,0
					c0,0.1,0.1,0.3,0.2,0.7c0.1,0.6,0.3,1.5,0.5,2.8c0.1,0.7,0.2,1.5,0.3,2.4C98.3,420.2,98.6,434,93.8,453.9z"/>
			</g>
			<path class="st5" d="M99.4,419.5c6.8-6.8,13.6-3.7,20-21.8c6.7,16.9-0.9,30.5-3.9,36.1C108.5,428.5,99.4,419.5,99.4,419.5z"/>
		</g>
	</g>
	<g>
		<defs>
			<rect id="SVGID_1_" x="1370.1" y="117.3" width="454.9" height="422.4"/>
		</defs>
		<clipPath id="SVGID_2_">
			<use xlink:href="#SVGID_1_"  style="overflow:visible;"/>
		</clipPath>
		<g class="st10">
			<g>
				<path class="st11" d="M1742,274.3c-11.1,21.5-7.3,40.1,24.8,87.1c14.2-6.4,31.4-14.9,31.4-14.9s-20.2-44.3-39.3-78.1
					C1759,268.4,1746.9,264.8,1742,274.3z"/>
				<path d="M1716.5,653.8c0,0-8.2,16.6-4.3,22.1c3.9,5.5,12,2.2,25.8,6.7c13.7,4.6,35.2,4.2,34.2-11.6
					c-3.3-6.8-16.9-10.5-22.4-11.7c-5.5-1.2-15-6.7-15-6.7L1716.5,653.8z"/>
				<path d="M1686.6,653.8c0,0,8.2,16.6,4.3,22.1c-3.9,5.5-12,2.2-25.8,6.7c-13.7,4.6-35.2,4.2-34.2-11.6
					c3.3-6.8,16.9-10.5,22.4-11.7c5.5-1.2,15-6.7,15-6.7L1686.6,653.8z"/>
				<path class="st11" d="M1661.3,397.3c27.1,3.3,54.6,3.4,82.4,0.2l6.3,135.9c0,0-3.5,89.9-8.3,121.4l-29.8-0.1
					c2-36.7-3.7-121.4-3.7-121.4l-5.9-77.5l-6,77.5c0,0-5.9,84.7-4.1,121.4l-31.1-0.1c-4.6-31.6-6.6-121.4-6.6-121.4L1661.3,397.3z"
					/>
				<path class="st11" d="M1652.4,268.3c0,0-32,17.4-52.5,33.5l-11.1,33.5c21.3-2.5,74.1-25.7,74.1-25.7L1652.4,268.3z"/>
				<polygon class="st12" points="1687.6,259.9 1724.8,261.6 1728.5,297.9 1724.5,401.6 1685.3,401.1 1675.1,285 				"/>
				<path class="st5" d="M1728.4,204c-5.2-5.9-9.3-0.2-16.6-7.5c-7.4-7.4-13.3-12.7-19.6-4.9c-6.3,7.8-9.6,8.9-14.2,8.4
					c-4.6-0.4-4.6,18.5-4.6,18.5s-18.1-4.5-15.7-17.7c2.7-14.6,9.3-10.4,13.1-22.3c3.7-11.9,18.1-18.5,24.7-15.7
					c6.9,3,10.6,6.3,20.7,3.8c10.1-2.5,18.8,0.5,18.8,13.6c0,13.1,15.4,9.2,10.5,25.5c-1.9,6.3-7.3,12.2-9.8,11.7
					C1732.3,216.7,1731.7,207.8,1728.4,204z"/>
				
					<rect x="1685.9" y="396.8" transform="matrix(-1 -1.224647e-16 1.224647e-16 -1 3408.2813 804.5427)" class="st8" width="36.5" height="10.9"/>
				<polygon class="st13" points="1718.7,269.1 1705.8,279.3 1692.7,269.1 1690.9,244.1 1720.4,244.1 				"/>
				<g>
					<path class="st5" d="M1759,268.4l-0.7,162.4c-12.6,10.4-37.4,13.2-37.4,13.2l4.5-180L1759,268.4z"/>
					<path class="st5" d="M1651.4,268.4l0.7,162.4c12.6,10.4,37.4,13.2,37.4,13.2l-4.5-180L1651.4,268.4z"/>
				</g>
				<polygon class="st8" points="1743.6,285.4 1722.2,377.5 1725.4,262.4 				"/>
				<polygon class="st8" points="1665.7,279 1687.6,378.5 1685,264 				"/>
				<path class="st14" d="M1702.8,178.9c38.1-0.9,29.4,50.4,26.6,58.5c-1.5,4.4-11.2,21.3-26.7,21.5c-15.5-0.2-25-17.1-26.5-21.5
					C1673.4,229.3,1663.4,179.5,1702.8,178.9z"/>
				<g>
					<path class="st5" d="M1707.3,212.9c-0.4-0.2-0.7-0.6-0.8-1c-0.3-0.9,0.2-1.9,1.1-2.2c0.3-0.1,6.9-2.2,12.9,2.1
						c0.8,0.6,1,1.7,0.4,2.5c-0.6,0.8-1.7,1-2.5,0.4c-4.6-3.3-9.7-1.6-9.7-1.6C1708.3,213.2,1707.8,213.1,1707.3,212.9z"/>
				</g>
				<g>
					<path class="st5" d="M1690.8,212.4c0.4-0.2,0.7-0.6,0.8-1c0.3-0.9-0.2-1.9-1.1-2.2c-0.3-0.1-6.9-2.2-12.9,2.1
						c-0.8,0.6-1,1.7-0.4,2.5c0.6,0.8,1.7,1,2.5,0.4c4.6-3.3,9.7-1.7,9.7-1.6C1689.9,212.7,1690.4,212.6,1690.8,212.4z"/>
				</g>
				<path d="M1683.1,218.8c0,1.7,1.4,3.1,3.1,3.1s3.1-1.4,3.1-3.1c0-1.7-1.4-3.1-3.1-3.1S1683.1,217.1,1683.1,218.8z"/>
				<path d="M1709.7,218.8c0,1.7,1.4,3.1,3.1,3.1c1.7,0,3.1-1.4,3.1-3.1c0-1.7-1.4-3.1-3.1-3.1
					C1711.1,215.7,1709.7,217.1,1709.7,218.8z"/>
				<path class="st13" d="M1697,221.8c-2.5,4-5.7,8.8-5.7,8.8s1.4,4.2,7,4.3c-2.3-1-4.6-2.6-3.7-5.7
					C1695.6,226.1,1697,221.8,1697,221.8z"/>
				<path class="st13" d="M1704.6,257.9l-2.5,0.6c-0.8,0.2-1.5,0.3-2.2,0.3c-0.7,0.1-1.4,0-2.1-0.2c-0.7-0.1-1.5-0.5-2.4-0.8
					c0.3,0.9,0.9,1.7,1.7,2.2c0.8,0.5,1.9,0.8,2.9,0.7c1-0.1,1.9-0.4,2.7-0.9C1703.5,259.5,1704.2,258.8,1704.6,257.9z"/>
				<g>
					<polygon class="st15" points="1702.4,288.8 1695.9,376.3 1705.6,387.9 1715.4,376.3 1708.7,289.1 					"/>
					<polygon class="st15" points="1698.8,279.4 1705.3,277.7 1711.9,279.7 1708.7,289.2 1702.4,289.1 					"/>
					<path class="st16" d="M1705.6,277.8c0,0,4.3,6.3,11.9,9.9l12.8-19.4l-5.6-6.6L1705.6,277.8z"/>
					<path class="st16" d="M1705.6,277.8c0,0-6.2,7.3-12.3,9.4l-11.6-21l5.5-6.3L1705.6,277.8z"/>
				</g>
				<path class="st14" d="M1582.5,232.1c1,5.1,0.9,10.5,7,13.8c0,0-2.4,16.5-2.9,30.1c0,0,16.8-15.9,16.8-16
					c-0.4-5.6-0.2-16,1.2-21.8c0.4-1.5,0.8-3,1.2-4.5c1-3.7,2.4-7.4,0.5-12c-7.2-18.1-3.8-23.5-4.9-24.5c-1.9-1-6.8,2-4.9,10.8
					c1.8,8.5,0.8,12.4,0.8,12.4s-6.5-1.8-9,0.3C1587.1,221.7,1581.3,226.1,1582.5,232.1z"/>
				<path class="st11" d="M1584.7,248.9l21.2,3.2l10.3,59.8l-27.5,23.4C1582.9,323.5,1577.8,274.9,1584.7,248.9z"/>
				<path class="st16" d="M1689.6,241.8c-0.5-0.8,0-2.1,0.7-2c2,0.2,5.3,0.5,8.5,0.4c3.2-0.1,6.4-0.7,8.4-1.1c0.8-0.2,1.3,1,0.9,1.9
					c-1.3,2.7-4.2,6.8-9,7C1694.3,248.2,1691.2,244.3,1689.6,241.8z"/>
				<path class="st5" d="M1732.9,213.2c-4.3,1.4-5.5-29.4-22.3-18.2c-11.8,7.9-33.5,9.8-29.1-0.8c-3.5,2.6-7.5,6.7-7.5,6.7l6.2-20.5
					c0,0,31.9-10,43.3,0.1C1734.9,190.6,1732.9,213.2,1732.9,213.2z"/>
				<path class="st14" d="M1725,216.7c-2.5,5-1.1,10.8,3.3,13c4.4,2.2,9.9,0,12.5-5c2.5-5,1.1-10.8-3.3-13
					C1733.1,209.5,1727.5,211.7,1725,216.7z"/>
				<g>
					<path class="st13" d="M1731.6,227.1c0.1,0,0.2,0,0.3-0.1c0.6-0.2,0.9-0.8,0.8-1.4c-0.9-3-0.8-5.4,0.2-6.7
						c1.5-1.7,4.4-1.5,4.4-1.5c0.6,0.1,1.2-0.4,1.3-1c0.1-0.6-0.4-1.2-1-1.3c-0.2,0-4.2-0.4-6.4,2.3c-1.6,2-1.9,4.9-0.7,8.8
						C1730.6,226.8,1731.1,227.1,1731.6,227.1z"/>
				</g>
				<path class="st14" d="M1789.9,416l-3.2,12.3c0,0-8.9,13.3-11,15.5c-0.7,2.7-2.9,8-2.8,9.1c0.1,1.1,0.9,3.1,0.9,3.1l4.8-6.4
					c0,0,1,2.4-0.3,5.9c-1.3,3.5-5.5,10.2-3.9,12.7c1.1,0.8,1.1,0.8,1.1,0.8s-1.5,2.1-0.5,3.6c1,1.5,8.4-3.4,15-14.3
					c2.2-1.1,5.5-4.9,5.5-4.9l2.6-19.8L1789.9,416z"/>
				<path class="st11" d="M1781.7,431.2l-14.8-69.9l31.4-14.9c9.8,29,6.1,51.4,4.3,86.7C1795.5,429.9,1781.7,431.2,1781.7,431.2z"/>
			</g>
			<g>
				<g>
					<path class="st14" d="M1622.9,285.2c0,0-56,23.6-63.7,28c-3.7,2.1,1.9,17.8,4.3,22.7c13.6-4,34.7-7.6,64.8-40L1622.9,285.2z"/>
					<path d="M1458.1,197.9c23.2-6.5,72.7,14.4,59.2,98.7s-77.3,70.4-77.3,70.4s-27.8-8.7-30.3-62.3
						C1407.2,251.1,1419.2,208.9,1458.1,197.9z"/>
					<path class="st17" d="M1470,314.5c0,0,49.2,33.6,94.6,21.8c3.5-6.4-5.3-23.1-5.3-23.1l-62.7-23.8c0,0-13.6-2.2-23,7.9
						C1465.4,306.1,1470,314.5,1470,314.5z"/>
					<g>
						<g>
							<g>
								<path class="st14" d="M1478.3,274.4l-17.3-2.6l1.4,16c0,0,8.7,15.8,17.1,13.1c8.3-2.7,4.3-9.7,4.3-9.7L1478.3,274.4z"/>
							</g>
						</g>
					</g>
					<g>
						<path class="st14" d="M1447.2,248.4c2.8,18.9,17.1,32.5,32,30.3c14.9-2.2,24.7-19.4,21.9-38.3c-2.8-18.9-17.1-32.5-32-30.3
							C1454.2,212.3,1444.4,229.5,1447.2,248.4z"/>
						<g>
							<path d="M1466.3,243.2c0.2-0.1,0.4-0.2,0.5-0.4c1.9-2.8,5.8-2.7,5.8-2.7c0.5,0,1-0.4,1-1c0-0.5-0.4-1-0.9-1
								c-0.2,0-5-0.1-7.5,3.5c-0.3,0.4-0.2,1.1,0.2,1.4C1465.7,243.2,1466,243.2,1466.3,243.2z"/>
						</g>
						<g>
							<path d="M1499.4,242.6c0.1,0,0.2-0.1,0.3-0.2c0.4-0.4,0.5-1,0.1-1.4c-2.7-3.2-6.5-2.3-6.7-2.3c-0.5,0.1-0.8,0.7-0.7,1.2
								c0.1,0.5,0.7,0.8,1.2,0.7c0.1,0,2.8-0.6,4.7,1.6C1498.6,242.7,1499.1,242.8,1499.4,242.6z"/>
						</g>
						<path class="st13" d="M1485.7,250.6c1.2,1.5,2.3,3.1,3.5,4c0.4,0.3,0.5,0.9,0.2,1.3c-1.2,1.8-4.4,3-6.4,3.7
							c-0.3,0.1-0.5-0.3-0.2-0.5c2-1.5,3-2.7,3.4-3.3c0.2-0.3,0.2-0.7,0.1-1.1c-0.3-0.8-1-2.4-1.4-3.8
							C1484.8,250.6,1485.4,250.3,1485.7,250.6z"/>
						<path class="st16" d="M1473.2,264.9c-0.4-0.6,0.1-1.3,0.8-1.2c1.7,0.3,4.6,0.8,7.4,0.9c2.8,0.2,5.7,0.1,7.4,0
							c0.7,0,1.1,0.8,0.6,1.3c-1.4,1.6-4.1,4.1-8.4,3.8C1476.9,269.5,1474.4,266.7,1473.2,264.9z"/>
						<path d="M1441.1,246.7c17.6-0.8,40.7-17,43.5-26c-2.4-11.2-11.3-17.6-21.8-13.4C1452.3,211.5,1435,232.3,1441.1,246.7z"/>
						<path d="M1480.6,225.2c0,0,10.5,10.6,21.1,13.1c-3.7-12.4-6.4-21.8-12.7-24.9c-6.4-3-13.4-3.6-13.4-3.6L1480.6,225.2z"/>
						<g>
							<path class="st14" d="M1451.3,245.5c3.3,3.1,3.9,7.7,1.4,10.4c-2.5,2.7-7.2,2.4-10.5-0.7c-3.3-3.1-3.9-7.7-1.4-10.4
								C1443.3,242.1,1448,242.4,1451.3,245.5z"/>
							<g>
								<path class="st13" d="M1448.4,254.7c0.1-0.1,0.3-0.1,0.4-0.3c1.5-1.7,1.8-3.7,0.8-5.4c-1-1.7-3.1-2.7-5-2.2
									c-0.5,0.1-0.9,0.7-0.7,1.2c0.1,0.5,0.7,0.9,1.2,0.7c1-0.2,2.3,0.3,2.9,1.3c0.6,0.9,0.3,2-0.6,3.1c-0.4,0.4-0.3,1,0.1,1.4
									C1447.7,254.8,1448.1,254.8,1448.4,254.7z"/>
							</g>
						</g>
						<path d="M1468.2,246.1c0,1.7,1.4,3,3,3c1.7,0,3-1.4,3-3c0-1.7-1.4-3-3-3C1469.5,243,1468.2,244.4,1468.2,246.1z"/>
						<path d="M1490.2,246.1c0,1.7,1.4,3,3,3c1.7,0,3-1.4,3-3c0-1.7-1.4-3-3-3C1491.5,243,1490.2,244.4,1490.2,246.1z"/>
					</g>
					<g>
						<path class="st14" d="M1494.5,637.6c-1.2-11.5,4.8-99.4,4.8-99.4c16.8-77.2,10.2-132.5,10.2-132.5l-28.9,2l-11.4,43.6
							l5.4,72.9c0,0-2,5.6-3.1,10.1c-5.8,24.3,0,53.4,3.6,72.8c1.7,9,4.2,27.8,4.3,32.1l-7.3,9.4c0,0,26.3,29.1,30.4,29.3
							c7.9,0.4,5.5-7.4,5.5-7.4C1497.1,659.4,1494.8,640.9,1494.5,637.6z"/>
						<path class="st15" d="M1471.6,658.9l1.4,18.7l3.4,0.2l1.7-17.4c9,2.3,15.4,18.5,15.4,18.5c6.2,2.2,21.8,3.7,27.4,0.9
							c1.3-5.5-13-9.3-13-9.3c-1.3,1.5-8.9,2.7-11.6,1.1c-10-8.5-14.8-20.9-17-32.3C1479.3,639.2,1463.5,640.3,1471.6,658.9z"/>
					</g>
					<g>
						<path class="st14" d="M1484.7,411.4l-40.8-5.6c-15.6,35.3-20.7,96.7-24.9,118.6c-17,28.5-22.4,114.9-22.4,114.9l-7.3,9.4
							c0,0,26.3,29.1,30.4,29.3c7.9,0.4,5.5-7.4,5.5-7.4c-10.8-11.1-12.9-25.9-13.6-29.1c-1.1-4.9,33-100.7,33-100.7l3.6-9.1
							c41.6-68.7,48.4-120.6,48.4-120.6L1484.7,411.4z"/>
						<path class="st15" d="M1388.9,658.9l1.4,18.7l3.4,0.2l1.7-17.4c9,2.3,15.4,18.5,15.4,18.5c6.2,2.2,21.8,3.7,27.4,0.9
							c1.3-5.5-13-9.3-13-9.3c-1.3,1.5-8.9,2.7-11.6,1.1c-10-8.5-14.8-20.9-17-32.3C1396.6,639.2,1380.8,640.3,1388.9,658.9z"/>
					</g>
					<g>
						<g>
							<g>
								<g>
									<path class="st18" d="M1408.9,520.3c4.1-13.6,2.3-111.1,38.2-137.6l61.8,6.5c14.3,23.1,9,83.3,4.2,132.9
										C1484.1,532.5,1461,536.6,1408.9,520.3z"/>
								</g>
							</g>
						</g>
					</g>
					<g>
						<g>
							<g>
								<path class="st15" d="M1509.7,374c0-13.5,11.7-33.8,6.1-47.5c-4.1-11-12.2-35.8-20.9-37.5c-3.6-0.7-7.5,0-12.4-1.4
									c0,0,2.6,11.5-3.2,12c-11.2,0.9-17-13.4-17-13.4c-6-0.6-27,5.7-27,7.9c0.1,17.7,7.9,46.4,12.6,65.6
									c0.9,9.8,0.2,17.3-0.8,22.9c-1.8,5.8-4,9.1-4,10.3c0,0,41.3,14,67.6-0.4C1510.8,392.4,1509.7,383.1,1509.7,374z"/>
							</g>
						</g>
					</g>
					<g id="c_20_">
						<path class="st14" d="M1436.2,386.8l3.5,1.4c0,0,3.7-5.8,7.4-5.7l-1.9,5.6c0,0,2.1,6.5,13.4,5.8c9.6,2.2,2.9,6.8,5.6,8.6
							c3.9,2.7-7.1,9.3-16.4,6.5c-12-3.7-19.9-15.1-19.9-15.1L1436.2,386.8z"/>
					</g>
					<path class="st14" d="M1436.2,293c0,0-29.5,17.3-43.7,58.6c12.8,14.2,23.6,3.6,23.6,3.6l28.5-28.2c0,0,8.4-10.3,4.4-22.9
						C1445.5,293.2,1436.2,293,1436.2,293z"/>
					<path class="st14" d="M1436.2,386.8l-20.6-30.2c0,0-4.9-11.6-23.1-5c-0.9,9.8,6.2,23.8,38.8,45.3
						C1433.3,391.5,1436.2,386.8,1436.2,386.8z"/>
					<path class="st16" d="M1479.3,299.6c1,4.6-1.7,10.2-9.5,7.6c-9.3-3.1-13.7-20.6-13.7-20.6l5.8-3.2
						C1462,283.4,1466.4,295.5,1479.3,299.6z"/>
					<path class="st16" d="M1479.3,299.6c1.1,2.4,7.7,8.5,10.8,4.9c3.1-3.7-1.6-15.9-1.6-15.9l-6.1-1.8
						C1482.4,286.8,1485.3,296.2,1479.3,299.6z"/>
					<path class="st17" d="M1436.2,293c0,0-29.5,17.3-43.7,58.6c12.8,14.2,24.7,2.5,24.7,2.5l27.4-27.1c0,0,8.4-10.3,4.4-22.9
						C1445.5,293.2,1436.2,293,1436.2,293z"/>
					<g>
						<path class="st14" d="M1652.4,285.7c0,0-6.3,2.5-5.9-0.4c0.7-4.7-3.3-13.7-14-2.6c-2.7-0.2-9.6,2.5-9.6,2.5l4.1,11.7
							c9.7,4.1,12.5,6.7,16.5,6.3L1652.4,285.7z"/>
						<g>
							<path class="st7" d="M1651.7,272.3c5.2,2.7,11.5,1.1,14.7-3.6c0.3-0.4,0.6-0.9,0.8-1.4c0.1-0.3,0.3-0.5,0.4-0.8
								c2.3-5.6,0.1-12.1-5.3-15c-5.5-2.9-12.2-0.9-15.3,4.5c-0.1,0.2-0.2,0.3-0.3,0.5c-0.3,0.6-0.5,1.2-0.7,1.8
								C1644.3,263.7,1646.6,269.7,1651.7,272.3z"/>
							<polygon class="st7" points="1646.6,262.4 1630.5,303.7 1637.6,307.5 1663,271.1 							"/>
							<path class="st7" d="M1632,303.6l4.5,3l-0.2,0.3c-0.8,1.2-2.5,1.6-3.7,0.7l0,0c-1.2-0.8-1.6-2.5-0.7-3.7L1632,303.6z"/>
							<path class="st18" d="M1646,258.3l20.4,10.4c0.3-0.4,0.6-0.9,0.8-1.4c0.1-0.3,0.3-0.5,0.4-0.8L1647,256
								c-0.1,0.2-0.2,0.3-0.3,0.5C1646.5,257.1,1646.2,257.7,1646,258.3z"/>
							<path class="st19" d="M1644.4,261.3l19.8,10.2c0.4,0.2,0.5,0.6,0.3,1l-3.6,6.9c-0.2,0.4-0.6,0.5-1,0.3l-19.8-10.2
								c-0.4-0.2-0.5-0.6-0.3-1l3.6-6.9C1643.7,261.3,1644.1,261.2,1644.4,261.3z"/>
							<path class="st7" d="M1629.7,316l5.1-9l-2.5-1.4l-5.1,9c-0.4,0.7-0.1,1.5,0.5,1.9l0,0C1628.4,316.9,1629.3,316.7,1629.7,316z
								"/>
						</g>
						<path id="c_19_" class="st14" d="M1640.8,297.4c0.2-0.1,0.5-0.2,0.7-0.2c0,0,0-0.1-0.1-0.1c-1.3-2.4-1-5,0.7-5.9
							c0.3-0.2,0.6-0.2,0.9-0.3c-0.3-1.7,0.2-3.2,1.4-3.9c0.5-0.3,1-0.4,1.6-0.3c-0.4-1.7,0.2-3.3,1.5-4.1c1.7-0.9,3.9,0,5,2
							c1.1,2,0.6,4.4-1.1,5.3c-0.4,0.2-0.9,0.4-1.4,0.4c0.9,2.2,0.5,4.4-1,5.2c-0.3,0.2-0.6,0.2-0.9,0.3c0.3,1.7-0.2,3.2-1.4,3.9
							c-0.4,0.2-0.9,0.3-1.4,0.3c0.4,1.5-0.1,3-1.2,3.6c-1.4,0.8-3.3,0-4.3-1.7C1639,300.2,1639.4,298.2,1640.8,297.4z"/>
						<path class="st14" d="M1622.9,285.2c3.7-6.2,9.3-6,14.3-7.5c5.1-1.5,6.9-2.1,8.4-2.5c1.4-0.3,0.9,6.5-5.7,7.4
							c-3.2,1.3-3.6,4.5-7.5,5.1C1630.5,286.4,1622.9,285.2,1622.9,285.2z"/>
					</g>
				</g>
				<g>
					<g>
						<path class="st16" d="M1454.3,329.3l20-1.7c0.6-0.1,1-0.6,1-1.2l-1-11.1c-0.1-0.6-0.6-1-1.2-1l-20,1.7c-0.6,0.1-1,0.6-1,1.2
							l1,11.1C1453.2,328.9,1453.7,329.4,1454.3,329.3z"/>
					</g>
					<g>
						<path class="st20" d="M1465.6,326.4l6.9-0.6c0.3,0,0.5-0.3,0.5-0.6l-0.7-8c0-0.3-0.3-0.5-0.6-0.5l-6.9,0.6
							c-0.3,0-0.5,0.3-0.5,0.6l0.7,8C1465.1,326.2,1465.3,326.4,1465.6,326.4z"/>
					</g>
					<g>
						<path class="st20" d="M1454.4,320.7l8.9-0.8c0.1,0,0.2-0.1,0.2-0.2l-0.2-1.9c0-0.1-0.1-0.2-0.2-0.2l-8.9,0.8
							c-0.1,0-0.2,0.1-0.2,0.2l0.2,1.9C1454.2,320.6,1454.3,320.7,1454.4,320.7z"/>
					</g>
					<g>
						<path class="st20" d="M1454.9,324.2l8.7-0.7c0.2,0,0.3-0.2,0.3-0.3l-0.1-1.7c0-0.2-0.2-0.3-0.3-0.3l-8.7,0.7
							c-0.2,0-0.3,0.2-0.3,0.3l0.1,1.7C1454.6,324.1,1454.8,324.3,1454.9,324.2z"/>
					</g>
				</g>
			</g>
		</g>
	</g>
</g>
<g id="Layer_2" class="st0">
	<rect x="141" class="st21" width="294" height="149"/>
	<rect x="541" y="218" class="st21" width="837" height="221"/>
	<rect x="1209" y="63" class="st21" width="578" height="86"/>
</g>
</svg>
