<?xml version="1.0" encoding="utf-8"?>
<!-- Generator: Adobe Illustrator 23.0.3, SVG Export Plug-In . SVG Version: 6.00 Build 0)  -->
<svg version="1.1" xmlns="http://www.w3.org/2000/svg" xmlns:xlink="http://www.w3.org/1999/xlink" x="0px" y="0px"
	 viewBox="0 0 1920 506" style="enable-background:new 0 0 1920 506;" xml:space="preserve">
<style type="text/css">
	.st0{fill:#76C5C8;}
	.st1{fill:#13416B;}
	.st2{opacity:0.9;fill:url(#SVGID_1_);}
	.st3{fill:#FFFFFF;}
	.st4{fill:#A1A1A1;}
	.st5{fill:none;stroke:#BBBDBF;stroke-miterlimit:10;}
	.st6{fill:#54D6BE;}
	.st7{fill:#1FB09F;}
	.st8{fill:#FFD6B6;}
	.st9{fill:#FFEADE;}
	.st10{display:none;}
	.st11{display:inline;fill:#00E9D2;}
</style>
<g id="Layer_3">
	<rect x="-11" y="-8" class="st0" width="1945" height="524"/>
	
		<image style="overflow:visible;" width="1280" height="812" xlink:href="F19C1D75.png"  transform="matrix(1.2939 0.3129 -0.3129 1.2939 -822.9109 -786)">
	</image>
	<circle class="st1" cx="1436.8" cy="270.6" r="666.8"/>
	<g>
		<linearGradient id="SVGID_1_" gradientUnits="userSpaceOnUse" x1="1566.2114" y1="479.0101" x2="1909.4858" y2="479.0101">
			<stop  offset="0" style="stop-color:#231F20"/>
			<stop  offset="1" style="stop-color:#FFFFFF;stop-opacity:0"/>
		</linearGradient>
		<polygon class="st2" points="1566.2,476.5 1903.4,813.6 1909.5,325 1728.9,144.4 1566.2,144.4 		"/>
		<g>
			<path class="st3" d="M1736,459.8c0,12.7-10.3,23-23,23h-131c-12.7,0-23-10.3-23-23V161c0-12.6,10.3-23,23-23h131
				c12.7,0,23,10.4,23,23V459.8z"/>
			<path class="st4" d="M1669.7,166.6c0,1.6-1.3,3-3,3h-38.5c-1.7,0-3-1.4-3-3v-0.2c0-1.6,1.3-3,3-3h38.5c1.7,0,3,1.4,3,3V166.6z"/>
			<path class="st4" d="M1652.3,153.5c0,2.6-2.1,4.8-4.8,4.8c-2.6,0-4.8-2.1-4.8-4.8c0-2.6,2.1-4.8,4.8-4.8
				C1650.1,148.8,1652.3,150.9,1652.3,153.5z"/>
			<path class="st5" d="M1662.5,463.4c0,8.3-6.7,15-15,15s-15-6.7-15-15c0-8.3,6.7-15,15-15S1662.5,455.2,1662.5,463.4z"/>
			<rect x="1565.8" y="182.2" class="st6" width="163.4" height="258.3"/>
			<g>
				<g>
					<g>
						<circle class="st7" cx="1643.9" cy="332.8" r="21.2"/>
					</g>
					<g>
						<g>
							<path class="st7" d="M1643.9,302.6c-16.7,0-30.2,13.5-30.2,30.2s13.5,30.2,30.2,30.2c16.7,0,30.2-13.5,30.2-30.2
								S1660.6,302.6,1643.9,302.6z M1643.9,359.1c-14.5,0-26.3-11.8-26.3-26.3s11.8-26.3,26.3-26.3c14.5,0,26.3,11.8,26.3,26.3
								S1658.5,359.1,1643.9,359.1z"/>
						</g>
					</g>
				</g>
			</g>
		</g>
	</g>
	<g>
		<polygon class="st3" points="1812.1,456.6 1751.8,496.7 1770.8,525.3 1830.6,484.7 		"/>
		<g>
			<path class="st8" d="M1791.8,436.6c0,0,1.7-14-4.6-25.8s-19.8-30.2-28.8-43.9c-9-13.7-14.7-14.1-19.8-11.7c-5.1,2.5-6.8,6-5,8.4
				c1.7,2.4,7.8,10.4,9.1,12c1.9,2.2,0.3,3-0.2,2.3c-1.1-1.4-6-6.6-10.1-12.1c-4.2-5.5-9.9-5.6-14-3.7c-4.1,1.9-6.7,6.8-5.2,9.2
				c1.5,2.4,9.6,14.8,10.9,16.6c1.3,1.9,0.1,1.9-0.5,1.9s-7.4-9.3-11.4-15.2c-4.1-5.8-9.7-7.2-14.3-5.7c-4.6,1.5-7.6,5.3-6.4,7.6
				s12.2,19.1,13.1,20.6c0.9,1.5-0.4,2.4-2.2,0.3c-1.8-2.1-45-66.7-48-70.8c-3-4.2-9.4-5.6-15.6-1.7c-6.2,3.9-3.3,12.1-0.9,15.7
				c2.4,3.6,54.8,79.8,67.1,95.9c0.8,1-0.8,1.3-1.4,0.8c-0.5-0.5-11.2-14.3-18-22.5c-7.2-8.7-12.7-8-14.9-7.3
				c-2.7,0.8-5.1,2-6.4,3.3c1.9,1.6,6.4,5.5,8.3,8.4c1.4,2,2.3,4.8,1.8,7c7.5,7.5,17.8,17.1,27.7,25.9c19.1,17,40.8,23.1,40.8,23.1
				l12.4,18.9l51.8-34.6L1791.8,436.6z"/>
			<path class="st9" d="M1672.6,419.5c-1.9-2.9-6.5-6.8-8.3-8.4c-0.8,0.7-1.2,1.5-1.3,2.3c-0.1,1.1,4.5,6.2,11.4,13.1
				C1674.9,424.3,1674,421.6,1672.6,419.5z"/>
			<path class="st9" d="M1653.6,327.5c-1.6-2.3-4.3-3.6-7.4-3.6c-2.3,0-4.7,0.7-6.9,2.1c-1.6,1-2.7,2.5-3.1,4.3
				c-0.8,3.7,1.1,8.1,2.4,10.1c0.2,0.3,0.9,1.4,2,3c3.3,0.2,7.9,0.3,11.2-2.3c3.3-2.5,5.4-5.5,5.4-8.1
				C1654.9,329.5,1654,328.1,1653.6,327.5z"/>
		</g>
	</g>
</g>
<g id="Layer_2" class="st10">
	<rect x="141" class="st11" width="294" height="149"/>
	<rect x="541" y="218" class="st11" width="837" height="221"/>
	<rect x="1209" y="63" class="st11" width="578" height="86"/>
</g>
</svg>
