<?xml version="1.0" encoding="utf-8"?>
<!-- Generator: Adobe Illustrator 23.0.3, SVG Export Plug-In . SVG Version: 6.00 Build 0)  -->
<svg version="1.1" id="Layer_1" xmlns="http://www.w3.org/2000/svg" xmlns:xlink="http://www.w3.org/1999/xlink" x="0px" y="0px"
	 viewBox="0 0 110 110" style="enable-background:new 0 0 110 110;" xml:space="preserve">
<style type="text/css">
	.st0{fill:#FFFFFF;}
</style>
<g>
	<path class="st0" d="M68.8,54.6c0.6,0,1-0.5,1-1v-8.8l1.1,1.1c0.4,0.4,1,0.4,1.4,0.1c0.2-0.2,0.3-0.4,0.3-0.7
		c0-0.3-0.1-0.5-0.3-0.7c0,0,0,0-0.1-0.1l-2.8-2.8c-0.2-0.2-0.4-0.3-0.7-0.3c0,0,0,0,0,0c-0.3,0-0.5,0.1-0.7,0.3
		c-0.2,0.2-0.3,0.5-0.3,0.7v11.2C67.8,54.2,68.3,54.6,68.8,54.6z"/>
	<path class="st0" d="M41.7,73.3c1.1,0,2-0.9,2-2s-0.9-2-2-2s-2,0.9-2,2S40.6,73.3,41.7,73.3z"/>
	<path class="st0" d="M80.2,49.1c2.6-1.6,3.5-5,1.9-7.7c-0.7-1.2-1.8-2.1-3.1-2.5c-0.4-3.1-3-5.5-6.2-5.6h-0.1
		c-1.1-2.2-3.1-3.8-5.4-4.5c-2.4-0.7-4.9-0.5-7,0.6c-0.4,0.2-0.8,0.5-1.2,0.7l-2.5-2.2c-1.1-1-2.8-1-3.9,0L42,37.7h-1.2
		c-3.6,0-6.6,3-6.6,6.6v0.9c-1.2,0-2.3,0.9-2.7,2.1l-3.7,3.3c-0.6,0.5-0.9,1.2-0.9,2c0,0.8,0.2,1.5,0.7,2.1c0.5,0.6,1.3,0.9,2.1,0.9
		c0,0,0,0,0,0h0.8c0.5,0,0.8,0.4,0.8,0.9v3.8l-2.2,7c-0.4,1.2-0.3,2.5,0.3,3.6c0.6,1.1,1.6,2,2.8,2.3c0.3,0.1,0.6,0.2,0.9,0.2V75
		h-2.7c-2.1,0-3.8,1.7-3.8,3.8c0,2.1,1.7,3.8,3.8,3.8h44.9c1.6,0,2.9-1.3,2.9-2.9V56.4c0-0.5,0.4-0.9,0.9-0.9h0.8
		c1.6,0,2.9-1.3,2.9-2.9c0-0.8-0.3-1.6-0.9-2.1L80.2,49.1z M44.1,77.1l-11.9,3.6h-1.7c-1,0-1.8-0.8-1.8-1.8c0-1,0.8-1.8,1.8-1.8
		H44.1z M31.1,67.8L31.1,67.8l2.1,0v3.5c-0.7-0.1-1.3-0.5-1.7-1l0,0l0,0C31,69.5,30.9,68.6,31.1,67.8z M48.2,67.7V75H35.3v-7.3
		L48.2,67.7z M50.1,48c0,0.5-0.4,0.8-0.8,0.8c0-0.3,0.1-0.6,0.1-0.8v-0.8c0.2,0,0.4,0.1,0.5,0.3C50,47.6,50.1,47.8,50.1,48z
		 M50.6,71.2c-0.1,0-0.2,0.1-0.3,0.1v-3.5l2.1,0l0,0C52.8,69.2,52,70.7,50.6,71.2z M44.2,58.3c-0.4,1-1.4,1.7-2.5,1.8
		c-1.1,0-2.1-0.7-2.5-1.8c0.4-0.1,0.7-0.5,0.7-1v-2.8c0.3,0,0.6,0.1,0.9,0.1h1.9c0.3,0,0.6,0,0.9-0.1v2.8
		C43.5,57.8,43.8,58.2,44.2,58.3z M38.9,47.2C38.9,47.2,38.9,47.2,38.9,47.2c2.2-0.1,4.3-1,5.9-2.5c1.1,0.6,1.9,1.5,2.5,2.6V48
		c0,2.5-2.1,4.6-4.6,4.6h-1.9c-2.5,0-4.6-2.1-4.6-4.6v-0.3c0.6-0.4,1.2-0.8,1.7-1.2C38.1,46.9,38.5,47.2,38.9,47.2z M34.7,58.4h2.4
		c0.3,1.2,1,2.3,2,2.9c1.1,0.7,2.3,1,3.6,0.7c1.9-0.4,3.3-1.8,3.7-3.6h2.4c0.4,0,0.7,0.2,0.8,0.6l2.1,6.7h-3.5l-0.7-3
		c-0.1-0.3-0.2-0.5-0.4-0.6c-0.2-0.2-0.5-0.2-0.8-0.2c-0.3,0.1-0.5,0.2-0.6,0.4c-0.2,0.2-0.2,0.5-0.2,0.8c0,0,0,0.1,0,0.1l0.6,2.5
		h-8.6l0.6-2.5c0.1-0.3,0-0.5-0.2-0.8c-0.2-0.2-0.4-0.4-0.7-0.4c-0.5-0.1-1,0.2-1.2,0.7l-0.7,3h-3.5l2.1-6.7
		C34,58.6,34.3,58.4,34.7,58.4z M45,42.4c-0.5-0.2-1-0.1-1.3,0.3c-0.9,1.2-2.2,2-3.7,2.2v-0.7c0-0.4-0.2-0.8-0.6-0.9
		c-0.4-0.2-0.8-0.1-1.1,0.2c-0.6,0.6-1.3,1.2-2,1.7v-0.9c0-2.5,2.1-4.6,4.6-4.6h1.9c2.4,0,4.4,1.9,4.6,4.3
		C46.5,43.4,45.8,42.9,45,42.4z M37.9,56.3h-3.2c-0.4,0-0.9,0.1-1.3,0.3v-0.2c0-1.6-1.3-2.9-2.9-2.9h-0.1l-0.7,0c0,0,0,0,0,0
		c-0.5,0-0.8-0.4-0.9-0.8c0-0.2,0.1-0.5,0.3-0.6l2.7-2.4c0.5,0.8,1.4,1.3,2.4,1.3h0.6c0.6,1.3,1.7,2.4,3.1,3.1V56.3z M54.7,78.9
		c0,1-0.8,1.8-1.8,1.8H39.3l11.9-3.6h1.7C53.9,77.1,54.7,77.9,54.7,78.9z M56.8,78.9c0-2.1-1.7-3.8-3.8-3.8h-2.7v-1.7
		c1.2-0.1,2.3-0.7,3.1-1.7c0.8-1,1.2-2.2,1.1-3.5c0-0.3-0.1-0.7-0.2-1l-2.7-8.8c-0.4-1.2-1.5-2-2.8-2h-3.2V54
		c1.3-0.6,2.4-1.7,3.1-3.1h0.6c1.6,0,2.9-1.3,2.9-2.9c0-1.6-1.3-2.8-2.8-2.9v-0.9c0-2.9-1.8-5.4-4.6-6.3l9.5-8.6
		c0.3-0.3,0.8-0.3,1.1,0l2.3,2.1c-1.1,1.2-1.9,2.8-2.2,4.4c-0.3,1.2-0.3,2.5-0.1,3.7c-2.6,1.7-3.3,5.2-1.6,7.8
		c1.1,1.6,2.8,2.6,4.8,2.6c0,0,0,0,0,0h2.8c0.3,0,0.5-0.1,0.7-0.3c0.2-0.2,0.3-0.4,0.3-0.7s-0.1-0.5-0.3-0.7s-0.4-0.3-0.7-0.3
		c0,0-0.1,0-0.1,0h-2.8c0,0,0,0,0,0c-1,0-1.9-0.4-2.6-1.1c-0.7-0.7-1.1-1.6-1.1-2.6c0-1.4,0.8-2.7,2.1-3.3c0.4-0.2,0.7-0.7,0.6-1.2
		c-0.3-1.2-0.3-2.4,0-3.6c0.4-1.9,1.4-3.5,3-4.6c1.6-1.1,3.5-1.5,5.4-1.1c2.3,0.5,4.3,2,5.3,4.2c0.2,0.4,0.6,0.7,1,0.6
		c0.2,0,0.4,0,0.6,0c2.4,0,4,2.3,4.3,4.5c0,0.4,0.4,0.8,0.8,0.9c1,0.2,1.8,0.7,2.3,1.6c0.5,0.8,0.7,1.8,0.5,2.7
		c-0.3,1.7-1.8,2.9-3.5,2.9h-4.7c-0.3,0-0.5,0.1-0.7,0.3c-0.2,0.2-0.3,0.4-0.3,0.7c0,0.3,0.1,0.5,0.3,0.7s0.4,0.3,0.7,0.3
		c0,0,0.1,0,0.1,0h4.7c0.3,0,0.6,0,0.8-0.1l2.4,2.2c0.3,0.2,0.3,0.6,0.2,0.9v0c-0.1,0.3-0.4,0.5-0.8,0.5c0,0,0,0,0,0h-0.8
		c-1.6,0-2.9,1.3-2.9,2.9v23.4c0,0.5-0.4,0.9-0.9,0.9H56.3C56.6,80.1,56.8,79.5,56.8,78.9z M34.2,48.9c-0.5,0-0.8-0.4-0.8-0.9
		c0-0.2,0.1-0.4,0.3-0.6l0,0c0.1-0.1,0.3-0.2,0.5-0.2V48C34.2,48.3,34.2,48.6,34.2,48.9z"/>
	<path class="st0" d="M64.1,44.9v8.8c0,0,0,0.1,0,0.1c0,0.3,0.1,0.5,0.3,0.7c0.2,0.2,0.4,0.3,0.7,0.3c0,0,0,0,0,0
		c0.3,0,0.5-0.1,0.7-0.3s0.3-0.5,0.3-0.7V42.4c0-0.4-0.2-0.8-0.6-0.9c-0.4-0.2-0.8-0.1-1.1,0.2l-2.8,2.8c0,0,0,0-0.1,0.1
		c-0.2,0.2-0.3,0.5-0.3,0.7c0,0.3,0.1,0.5,0.3,0.7c0.4,0.4,1.1,0.3,1.4-0.1L64.1,44.9z"/>
	<path class="st0" d="M72.6,60.1h-5.2l-1.6-1.6c-0.2-0.2-0.4-0.3-0.7-0.3h-5.6c-1.1,0-1.9,0.9-2,2v9.4c0,1.1,0.9,1.9,2,2h13.1
		c1.1,0,1.9-0.9,2-2V62C74.5,61,73.6,60.1,72.6,60.1z M59.6,63.8v-3.6h5.1l1.6,1.6c0.2,0.2,0.5,0.3,0.7,0.3h5.5v1.7H59.6z
		 M72.5,65.9v3.6l-12.9,0v-3.5H72.5z"/>
</g>
</svg>
