<?xml version="1.0" encoding="utf-8"?>
<!-- Generator: Adobe Illustrator 23.0.3, SVG Export Plug-In . SVG Version: 6.00 Build 0)  -->
<svg version="1.1" id="Layer_1" xmlns="http://www.w3.org/2000/svg" xmlns:xlink="http://www.w3.org/1999/xlink" x="0px" y="0px"
	 viewBox="0 0 110 110" style="enable-background:new 0 0 110 110;" xml:space="preserve">
<style type="text/css">
	.st0{fill:#FFFFFF;}
</style>
<g>
	<path class="st0" d="M79.5,45.8L79.5,45.8c-1.8-1.8-4.8-1.8-6.6,0l-4.4,4.4V38.3c0-1.2-0.5-2.4-1.4-3.3l-4.3-4.3
		c-0.9-0.9-2.1-1.4-3.3-1.4c0,0,0,0,0,0H33.3c-2.6,0-4.7,2.1-4.7,4.7v42.9c0,2.6,2.1,4.7,4.7,4.7h30.5c2.6,0,4.7-2.1,4.7-4.7V63.4
		l11-11C81.3,50.5,81.3,47.6,79.5,45.8z M59.3,38.5v-5.9c0.4,0,0.9,0.1,1.2,0.4l4.3,4.3c0.3,0.3,0.5,0.8,0.4,1.2H59.3z M57.7,41.7
		h7.5v11.7l-6.6,6.6c-0.2,0.2-0.3,0.4-0.4,0.6l-2.2,6.5c-0.3,0.8,0.2,1.8,1,2c0.3,0.1,0.7,0.1,1,0l6.5-2.2c0.2-0.1,0.5-0.2,0.6-0.4
		l0,0V77h0c0,0.8-0.7,1.3-1.4,1.3H33.3c-0.8,0-1.4-0.6-1.4-1.4V34c0-0.8,0.6-1.4,1.4-1.4h22.8v7.5C56.1,41,56.8,41.7,57.7,41.7z
		 M63.2,64.1l-3,1l1-3.1l0.8-0.7l2,2L63.2,64.1z M73.4,53.9l-7.2,7.2l-2-2l7.2-7.2L73.4,53.9z M77.7,49c0,0.4-0.1,0.7-0.4,1
		l-1.5,1.5l-2-2l1.5-1.5c0.6-0.6,1.5-0.6,2,0C77.5,48.3,77.7,48.7,77.7,49z M79.5,45.8L79.5,45.8L79.5,45.8L79.5,45.8z"/>
	<path class="st0" d="M36.4,44.6c-0.4,0-0.8,0.2-1.1,0.5c-0.3,0.3-0.5,0.7-0.5,1.1c0,0.4,0.2,0.8,0.5,1.1s0.7,0.5,1.1,0.5h21.4h0
		c0.9,0,1.6-0.7,1.6-1.6c0-0.9-0.7-1.6-1.6-1.6H36.4L36.4,44.6z M57.7,44.7L57.7,44.7L57.7,44.7L57.7,44.7z"/>
	<path class="st0" d="M51.6,50.7H36.4h0c-0.4,0-0.8,0.2-1.1,0.5c-0.3,0.3-0.5,0.7-0.5,1.1c0,0.4,0.2,0.8,0.5,1.1
		c0.3,0.3,0.7,0.5,1.1,0.5h15.3c0.9,0,1.6-0.7,1.6-1.6C53.2,51.4,52.5,50.7,51.6,50.7z"/>
	<path class="st0" d="M51.6,56.8H36.4c-0.4,0-0.8,0.2-1.1,0.5s-0.5,0.7-0.5,1.1c0,0.9,0.7,1.6,1.6,1.6h15.3c0.9,0,1.6-0.7,1.6-1.6
		C53.2,57.5,52.5,56.8,51.6,56.8z"/>
	<path class="st0" d="M53.2,64.5c0-0.9-0.7-1.6-1.6-1.6H36.4c-0.4,0-0.8,0.2-1.1,0.5c-0.3,0.3-0.5,0.7-0.5,1.1
		c0,0.9,0.7,1.6,1.6,1.6h15.3C52.5,66.1,53.2,65.4,53.2,64.5z"/>
	<path class="st0" d="M47.4,72.7C47.1,73,47,73.4,47,73.9c0,0.9,0.7,1.6,1.6,1.6h9.1h0c0.9,0,1.6-0.7,1.6-1.6c0-0.9-0.7-1.6-1.6-1.6
		h-9.1C48.1,72.3,47.7,72.4,47.4,72.7z"/>
</g>
</svg>
