<?xml version="1.0" encoding="utf-8"?>
<!-- Generator: Adobe Illustrator 23.0.3, SVG Export Plug-In . SVG Version: 6.00 Build 0)  -->
<svg version="1.1" id="Layer_1" xmlns="http://www.w3.org/2000/svg" xmlns:xlink="http://www.w3.org/1999/xlink" x="0px" y="0px"
	 viewBox="0 0 93 70" style="enable-background:new 0 0 93 70;" xml:space="preserve">
<style type="text/css">
	.st0{fill:#FFFFFF;stroke:#FFFFFF;stroke-width:0.5;}
</style>
<g id="student" transform="translate(0.25 -63.536)">
	<g id="Group_3789" transform="translate(0.559 63.934)">
		<g id="Group_3788" transform="translate(0 0)">
			<path id="Path_3055" class="st0" d="M89.7,28.4H68.4c-0.8,0-1.5,0.7-1.5,1.5l0,0v4.5h-3.7l-3.5-5.3c-1.5-2.2-3.2-4.2-5.3-5.9
				c-1.1-0.9-2.3-1.8-3.5-2.5l9.7-9.7C63,8.8,63,5.1,60.7,2.8s-5.9-2.3-8.2-0.1l-0.1,0.1l-3.3,3.3l-4.5,4.5l-5.9,5.9
				c-0.1-0.1-0.3-0.1-0.5-0.1c-0.9-0.1-1.8-0.1-2.7-0.1H18.4c-0.4,0-0.8,0.2-1.1,0.4L3.4,30.7c-2.3,2.3-2.3,5.9-0.1,8.2
				c2.3,2.3,5.9,2.3,8.2,0.1l0.1-0.1l1.5-1.5l0.4,1.5c0.2,0.7,0.5,1.4,0.8,2.1l-6.1,6.1l-3,3c-0.2,0.2-0.3,0.4-0.4,0.6l-3,9.1
				c-0.3,0.8,0.2,1.7,1,1.9c0.2,0.1,0.3,0.1,0.5,0.1c0.2,0,0.3,0,0.5-0.1l9.1-3c0.2-0.1,0.4-0.2,0.6-0.4l3-3l5.2-5.2
				c3.7,2.7,8.1,4.1,12.6,4.1h13c0.1,0,0.1,0,0.2,0c1.2,1.3,2.5,2.3,4.1,3.1c2,1,4.1,1.5,6.3,1.5h9.2v1.5c0,0.8,0.7,1.5,1.5,1.5l0,0
				h21.2c0.8,0,1.5-0.7,1.5-1.5l0,0V30C91.2,29.1,90.5,28.4,89.7,28.4L89.7,28.4z M54.6,5c1.1-1.1,2.8-1.1,3.9,0
				c1.1,1.1,1.1,2.8,0,3.9l-2.2,2.2l-3.9-3.9L54.6,5z M50.2,9.4l3.9,3.9l-2.4,2.4l-3.9-3.9L50.2,9.4z M9.5,36.7
				c-1.1,1.1-2.8,1.1-3.9,0c-1.1-1.1-1.1-2.8,0-3.9L19,19.3h16.5c0.1,0,0.3,0,0.4,0l-6,6h-8.5c-0.4,0-0.8,0.2-1.1,0.4L9.5,36.7z
				 M26.9,28.4L16.7,38.6c-0.1-0.2-0.2-0.4-0.2-0.6l-0.9-3l6.5-6.5H26.9z M11.5,55.9l-5.9,2l2-5.9l2.3-2.3c2,0.3,3.7,1.9,3.9,3.9
				L11.5,55.9z M16.2,51.2c-0.8-1.8-2.2-3.2-3.9-3.9L31.6,28l14.1-14.1l3.9,3.9L34.4,33h-2c-3.3,0-6,2.7-6.1,6
				c0,0.6,0.1,1.3,0.3,1.9c-0.1,0-0.2,0.1-0.2,0.2L16.2,51.2z M34.2,51.2c-3.7,0-7.4-1.1-10.5-3.3l4.5-4.5c1.1,1.1,2.6,1.7,4.1,1.7
				h9.4l3.5,6.1L34.2,51.2z M66.9,55.7h-9.2c-4,0-7.6-2.1-9.6-5.6L44,42.8c-0.3-0.5-0.8-0.8-1.3-0.8H32.4c-1.7,0-3-1.4-2.9-3.1
				c0-1.6,1.3-2.9,2.9-2.9h14.8c0.8,0,1.5-0.7,1.5-1.5c0-0.8-0.7-1.5-1.5-1.5h-8.5l10-10c3.4,2,6.3,4.7,8.4,7.9l4,5.9
				c0.3,0.4,0.8,0.7,1.3,0.7h4.5V55.7z M88.2,58.8H70V31.5h18.2V58.8z"/>
		</g>
	</g>
	<g id="Group_3791" transform="translate(28.417 82.13)">
		<g id="Group_3790">
			<circle id="Ellipse_68" class="st0" cx="51.2" cy="34.5" r="3"/>
		</g>
	</g>
	<g id="Group_3793" transform="translate(0 87.813)">
		<g id="Group_3792">
			<path id="Path_3056" class="st0" d="M34.1,41H2.3c-0.8,0-1.5,0.7-1.5,1.5c0,0.8,0.7,1.5,1.5,1.5h31.8c0.8,0,1.5-0.7,1.5-1.5
				C35.6,41.6,34.9,41,34.1,41z"/>
		</g>
	</g>
	<g id="Group_3795" transform="translate(14.208 87.813)">
		<g id="Group_3794">
			<path id="Path_3057" class="st0" d="M27.5,41H26c-0.8,0-1.5,0.7-1.5,1.5c0,0.8,0.7,1.5,1.5,1.5h1.5c0.8,0,1.5-0.7,1.5-1.5
				C29,41.6,28.3,41,27.5,41L27.5,41z"/>
		</g>
	</g>
</g>
</svg>
