<?xml version="1.0" encoding="utf-8"?>
<!-- Generator: Adobe Illustrator 23.0.3, SVG Export Plug-In . SVG Version: 6.00 Build 0)  -->
<svg version="1.1" id="Layer_1" xmlns="http://www.w3.org/2000/svg" xmlns:xlink="http://www.w3.org/1999/xlink" x="0px" y="0px"
	 viewBox="0 0 110 110" style="enable-background:new 0 0 110 110;" xml:space="preserve">
<style type="text/css">
	.st0{fill:#FFFFFF;}
</style>
<path class="st0" d="M80.7,51.5L80.7,51.5L59.6,30.3c-1.1-1.1-2.6-1.7-4.1-1.7c0,0,0,0,0,0c-1.6,0-3,0.6-4.1,1.7L30.1,51.5
	c-1.1,1.1-1.7,2.6-1.7,4.1s0.6,3,1.7,4.1c1,1,2.4,1.6,3.8,1.7V76c0,3.7,3,6.6,6.6,6.6h8.3c1.4,0,2.6-1.1,2.6-2.6V67.9
	c0-0.8,0.7-1.5,1.5-1.5h4.9c0.8,0,1.5,0.7,1.5,1.5v12.2c0,1.4,1.2,2.6,2.6,2.6h8.3c3.7,0,6.6-3,6.6-6.6V61.5
	c3.1-0.1,5.6-2.7,5.6-5.8C82.5,54.1,81.8,52.6,80.7,51.5z M57.9,61.2H53c-3.7,0-6.6,3-6.6,6.6v9.7h-5.7c-0.8,0-1.5-0.7-1.5-1.5V58.9
	c0-1.4-1.2-2.6-2.6-2.6h-2.3c-0.4,0-0.7-0.3-0.7-0.7c0-0.2,0.1-0.4,0.2-0.5L54.9,34c0.3-0.3,0.7-0.3,1,0l21.2,21.2
	c0.3,0.3,0.3,0.7,0,0.9l0,0c-0.1,0.1-0.3,0.2-0.5,0.2h0h-2.3c-1.5,0-2.6,1.1-2.6,2.6V76c0,0.8-0.7,1.5-1.5,1.5h-5.7v-9.7
	C64.5,64.2,61.5,61.2,57.9,61.2z"/>
</svg>
