<?xml version="1.0" encoding="utf-8"?>
<!-- Generator: Adobe Illustrator 23.0.3, SVG Export Plug-In . SVG Version: 6.00 Build 0)  -->
<svg version="1.1" id="Layer_1" xmlns="http://www.w3.org/2000/svg" xmlns:xlink="http://www.w3.org/1999/xlink" x="0px" y="0px"
	 viewBox="0 0 110 110" style="enable-background:new 0 0 110 110;" xml:space="preserve">
<style type="text/css">
	.st0{fill:#FFFFFF;}
</style>
<path class="st0" d="M94.9,47.1c-0.2-0.3-0.4-0.5-0.7-0.7L56.3,26.2c-0.5-0.3-1.1-0.3-1.6,0L16.9,46.4c-0.8,0.4-1.1,1.4-0.7,2.3
	c0.2,0.3,0.4,0.5,0.7,0.7l10.5,5.6V71h2.5c0,0.3,0.1,0.6,0.1,0.9c0.2,0.7,0.5,1.3,0.8,1.8c-0.7,2.3-1,4.7-1,7.2v3.6
	c0,0.6,0.4,1.2,0.9,1.5l1.4,0.7c1,0.5,2.1,0.7,3.1,0.7c1.1,0,2.2-0.2,3.1-0.7l1.4-0.7c0.6-0.3,0.9-0.9,0.9-1.5v-3.6
	c0-2.4-0.3-4.8-1-7.2c0.8-1.1,1.1-2.5,1-3.8c-0.2-1.4-0.9-2.7-2-3.6c-0.5-0.4-1.1-0.7-1.7-0.9v-5.3l17.7,9.4c0.5,0.3,1.1,0.3,1.6,0
	l24-12.8v13c-6.9,5.1-15.4,8-24,8h-1.5c0,0,0,0,0,0c-4.3,0-8.5-0.7-12.6-2l-0.4-0.1l-1.1,3.2l0.4,0.1c4.4,1.5,9,2.2,13.6,2.2
	c0,0,0,0,0,0h1.5c9.6,0,19.1-3.3,26.8-9.2c0.4-0.3,0.7-0.8,0.7-1.3V54.9l10.5-5.6c0.4-0.2,0.7-0.6,0.8-1
	C95.1,47.9,95.1,47.5,94.9,47.1z M33.3,80.9c0-1.7,0.2-3.4,0.6-5.1c1,0.3,2.1,0.3,3.1,0c0.4,1.7,0.6,3.4,0.6,5.1l0,2.5L37,83.6
	c-1,0.5-2.2,0.5-3.3,0l-0.5-0.2V80.9z M35.4,72.7c-1.2,0-2.1-0.9-2.1-2.1c0-1.2,0.9-2.1,2.1-2.1c1.2,0,2.1,0.9,2.1,2.1
	C37.5,71.7,36.5,72.7,35.4,72.7z M55.6,44.5c1.4,0,2.1,0.7,2.1,0.8c0,0.2-0.7,0.8-2.1,0.8c-1.4,0-2.1-0.7-2.1-0.8
	C53.5,45.2,54.1,44.5,55.6,44.5z M53.1,49.1c0.8,0.3,1.6,0.4,2.4,0.4c0,0,0,0,0,0c3.1,0,5.5-1.8,5.5-4.2s-2.4-4.2-5.5-4.2
	c-3.1,0-5.5,1.8-5.5,4.2c0,0.5,0.1,1,0.3,1.4l-15.6,8.3l-13.5-7.2l34.3-18.3l34.3,18.3L55.5,66.1L38.4,57L53.1,49.1z M30.7,56.7
	l2.9,1.6v7.1c-1.2,0.4-2.3,1.2-2.9,2.3V56.7z"/>
</svg>
