<svg id="Layer_1" data-name="Layer 1" xmlns="http://www.w3.org/2000/svg" viewBox="0 0 110 110"><defs><style>.cls-1{fill:#fff;}</style></defs><path class="cls-1" d="M31.38,40.92H78.62a1.82,1.82,0,0,0,1.82-1.82V34.56a1.81,1.81,0,0,0-1.82-1.82H31.38a1.81,1.81,0,0,0-1.82,1.82V39.1A1.82,1.82,0,0,0,31.38,40.92Zm0,18.17H78.62a1.81,1.81,0,0,0,1.82-1.82V52.73a1.81,1.81,0,0,0-1.82-1.82H31.38a1.81,1.81,0,0,0-1.82,1.82v4.54A1.81,1.81,0,0,0,31.38,59.09Zm0,18.17H78.62a1.81,1.81,0,0,0,1.82-1.82V70.9a1.82,1.82,0,0,0-1.82-1.82H31.38a1.82,1.82,0,0,0-1.82,1.82v4.54A1.81,1.81,0,0,0,31.38,77.26Z"/></svg>