<?xml version="1.0" encoding="utf-8"?>
<!-- Generator: Adobe Illustrator 23.0.3, SVG Export Plug-In . SVG Version: 6.00 Build 0)  -->
<svg version="1.1" id="Layer_1" xmlns="http://www.w3.org/2000/svg" xmlns:xlink="http://www.w3.org/1999/xlink" x="0px" y="0px"
	 viewBox="0 0 110 110" style="enable-background:new 0 0 110 110;" xml:space="preserve">
<style type="text/css">
	.st0{fill:#FFFFFF;}
</style>
<g id="interface" transform="translate(20 20)">
	<g id="Group_9">
		<g id="Group_8">
			<path id="Path_1" class="st0" d="M60.5,22.1h-9.7V10.5c0-1.1-0.9-1.9-1.9-1.9H10.3c-1.1,0-1.9,0.9-1.9,1.9c0,0,0,0,0,0v44.4
				c0,4.3,3.5,7.7,7.7,7.7h38.6c4.3,0,7.7-3.5,7.7-7.7V24C62.4,22.9,61.6,22.1,60.5,22.1z M16.1,58.8c-2.1,0-3.9-1.7-3.9-3.9l0,0
				V12.4H47v42.5c0,0.5,0.1,0.9,0.1,1.4c0,0.1,0,0.2,0.1,0.3c0.1,0.4,0.2,0.9,0.4,1.3c0,0,0,0,0,0.1c0.1,0.3,0.3,0.6,0.4,0.8
				L16.1,58.8z M58.6,54.9c0,2.1-1.7,3.9-3.9,3.9s-3.9-1.7-3.9-3.9v-29h7.7V54.9z"/>
		</g>
	</g>
	<g id="Group_11" transform="translate(9.69 6.921)">
		<g id="Group_10">
			<path id="Path_2" class="st0" d="M25.7,11.3H14.1c-1.1,0-1.9,0.9-1.9,1.9s0.9,1.9,1.9,1.9h11.6c1.1,0,1.9-0.9,1.9-1.9
				S26.8,11.3,25.7,11.3L25.7,11.3z"/>
		</g>
	</g>
	<g id="Group_13" transform="translate(5.537 13.842)">
		<g id="Group_12">
			<path id="Path_3" class="st0" d="M35.6,14H12.4c-1.1,0-1.9,0.9-1.9,1.9c0,1.1,0.9,1.9,1.9,1.9h23.2c1.1,0,1.9-0.9,1.9-1.9
				C37.6,14.9,36.7,14,35.6,14z"/>
		</g>
	</g>
	<g id="Group_15" transform="translate(5.537 19.379)">
		<g id="Group_14">
			<path id="Path_4" class="st0" d="M35.6,16.2H12.4c-1.1,0-1.9,0.9-1.9,1.9c0,1.1,0.9,1.9,1.9,1.9h23.2c1.1,0,1.9-0.9,1.9-1.9
				C37.6,17.1,36.7,16.2,35.6,16.2z"/>
		</g>
	</g>
	<g id="Group_17" transform="translate(5.537 24.916)">
		<g id="Group_16">
			<path id="Path_5" class="st0" d="M35.6,18.4H12.4c-1.1,0-1.9,0.9-1.9,1.9c0,1.1,0.9,1.9,1.9,1.9h23.2c1.1,0,1.9-0.9,1.9-1.9
				C37.6,19.3,36.7,18.4,35.6,18.4L35.6,18.4z"/>
		</g>
	</g>
	<g id="Group_19" transform="translate(5.537 30.453)">
		<g id="Group_18">
			<path id="Path_6" class="st0" d="M35.6,20.6H12.4c-1.1,0-1.9,0.9-1.9,1.9c0,1.1,0.9,1.9,1.9,1.9h23.2c1.1,0,1.9-0.9,1.9-1.9
				C37.6,21.4,36.7,20.6,35.6,20.6z"/>
		</g>
	</g>
</g>
</svg>
