<svg id="Layer_1" data-name="Layer 1" xmlns="http://www.w3.org/2000/svg" viewBox="0 0 110 110"><defs><style>.cls-1{fill:#fff;}</style></defs><g id="Group_3656" data-name="Group 3656"><g id="Group_3463" data-name="Group 3463"><g id="dog"><path id="Path_2901" data-name="Path 2901" class="cls-1" d="M64.46,57a13.55,13.55,0,0,0-18.71-4.1,13.7,13.7,0,0,0-4.1,4.1l-6,9.41A8.58,8.58,0,0,0,46.29,78.92l.11,0a16.79,16.79,0,0,1,13.42,0,8.54,8.54,0,0,0,3.45.72,8.8,8.8,0,0,0,1.91-.21,8.57,8.57,0,0,0,6.45-10.27,8.37,8.37,0,0,0-1.14-2.72Zm2.85,17.49a5.28,5.28,0,0,1-6.17,1.41,20.11,20.11,0,0,0-16.16,0l-.07,0a5.31,5.31,0,0,1-6.54-7.76l6-9.41a10.29,10.29,0,0,1,17.32,0l6,9.41A5.29,5.29,0,0,1,67.31,74.52Z"/><path id="Path_2902" data-name="Path 2902" class="cls-1" d="M37.25,57a6.59,6.59,0,0,0,3.83-4.08,8.74,8.74,0,0,0-4-10.3,6.56,6.56,0,0,0-5.57-.45,7.52,7.52,0,0,0-3.69,9.93A8,8,0,0,0,35,57.44,6.36,6.36,0,0,0,37.24,57ZM30.9,51a4.31,4.31,0,0,1,1.81-5.72A3.14,3.14,0,0,1,33.8,45a3.63,3.63,0,0,1,1.76.48A5.48,5.48,0,0,1,38,51.86,3.37,3.37,0,0,1,36.08,54h0a4.31,4.31,0,0,1-5.18-3Z"/><path id="Path_2903" data-name="Path 2903" class="cls-1" d="M49,49.64c4.5,0,8.17-4.18,8.17-9.31S53.45,31,49,31s-8.17,4.19-8.17,9.31S44.44,49.64,49,49.64Zm0-15.36c2.7,0,4.91,2.72,4.91,6S51.65,46.38,49,46.38,44,43.67,44,40.33,46.24,34.28,49,34.28Z"/><path id="Path_2904" data-name="Path 2904" class="cls-1" d="M63.06,51.93h0a6.56,6.56,0,0,0,2.1.35,8.46,8.46,0,0,0,7.71-6.07,9.1,9.1,0,0,0-.13-6.3,6.91,6.91,0,0,0-8.87-4.09,7,7,0,0,0-1.37.69,9.08,9.08,0,0,0-3.87,5c-1.49,4.46.5,9.15,4.43,10.45ZM61.72,42.5a5.91,5.91,0,0,1,2.47-3.21,3.66,3.66,0,0,1,5.09,1,3.62,3.62,0,0,1,.44.88,5.85,5.85,0,0,1,.06,4,4.34,4.34,0,1,1-8.64-.92,4.47,4.47,0,0,1,.58-1.75Z"/><path id="Path_2905" data-name="Path 2905" class="cls-1" d="M80.27,50.84h0a8,8,0,0,0-9.45,12.77,6.29,6.29,0,0,0,3.83,1.24,8.25,8.25,0,0,0,6.52-3.45A7.53,7.53,0,0,0,80.27,50.84Zm-1.71,8.62a3.84,3.84,0,1,1-6-4.46,5,5,0,0,1,3.88-2.14,3.16,3.16,0,0,1,1.92.61,4.3,4.3,0,0,1,.22,6Z"/></g></g></g></svg>