<svg id="Layer_1" data-name="Layer 1" xmlns="http://www.w3.org/2000/svg" viewBox="0 0 110 110"><defs><style>.cls-1{fill:#fff;}</style></defs><g id="book"><g id="Group_3428" data-name="Group 3428"><path id="Path_2888" data-name="Path 2888" class="cls-1" d="M88,34.65H83.45V33.11a1.33,1.33,0,0,0-1-1.33,36.94,36.94,0,0,0-9.59-1.23c-5.32,0-12.58,1.2-17.94,6.65C49.64,31.7,42.33,30.55,37,30.55a37.36,37.36,0,0,0-9.59,1.22,1.33,1.33,0,0,0-1,1.33v1.53H22A1.34,1.34,0,0,0,20.65,36V78.47A1.34,1.34,0,0,0,22,79.8a1.38,1.38,0,0,0,.66-.17c.13-.07,13.44-7.35,32-2.66H55a1.61,1.61,0,0,0,.31,0c18.64-4.73,31.94,2.55,32,2.66a1.33,1.33,0,0,0,1.82-.49,1.28,1.28,0,0,0,.18-.66V36A1.33,1.33,0,0,0,88,34.65ZM23.31,76.35v-39H26.5V70.68A1.34,1.34,0,0,0,27.82,72L28,72a59.32,59.32,0,0,1,8.32-.67,34.56,34.56,0,0,1,11.36,1.73A49,49,0,0,0,23.31,76.35Zm13-7.64a58.41,58.41,0,0,0-7.24.47v-35A36.76,36.76,0,0,1,37,33.28c5,0,11.85,1.15,16.61,6.52l0,33.15c-2.77-1.81-8.17-4.25-17.3-4.25Zm20-28.91c4.77-5.32,11.63-6.52,16.61-6.52a36.76,36.76,0,0,1,7.89.88v35a57.78,57.78,0,0,0-7.2-.48c-9.08,0-14.49,2.44-17.3,4.25ZM86.63,76.35a49,49,0,0,0-24.44-3.28A34.54,34.54,0,0,1,73.6,71.35,58.53,58.53,0,0,1,82,72a1.33,1.33,0,0,0,1.52-1.12.74.74,0,0,0,0-.21V37.31h3.19Z"/></g></g></svg>