<svg id="Layer_1" data-name="Layer 1" xmlns="http://www.w3.org/2000/svg" viewBox="0 0 110 110"><defs><style>.cls-1{fill:#fff;}</style></defs><g id="Group_3652" data-name="Group 3652"><g id="travel"><path id="Path_3013" data-name="Path 3013" class="cls-1" d="M76.11,68.19,65.5,52.27a5.46,5.46,0,0,0-6.7-2L55.73,51.6V47.17l.36-.24a13.76,13.76,0,0,0-7.63-25.21H37.34a5.41,5.41,0,0,0-1.08,10.71v8a9.47,9.47,0,0,0,9.45,9.45l.28,0v2.65a8.08,8.08,0,0,0-5.34,6.66,4.29,4.29,0,0,0-6.55,3.69V73.57A8.73,8.73,0,0,0,40.59,82v6.78h26v-5.6c.37-.18.73-.37,1.08-.58l6.3-4A7.44,7.44,0,0,0,76.2,68.32l-.09-.13Zm-.92,4.12a5.28,5.28,0,0,1-.69,2.61L67.7,64.73l2.73-1.17,3.88,5.82A5.2,5.2,0,0,1,75.19,72.31ZM63.41,81.87l-1.9-2.1,1.8-2L65.5,80.2A5.16,5.16,0,0,1,63.41,81.87Zm-3.35-3.72-1.8-2,1.79-2,1.8,2Zm-6.49-1.27V74.17l1.78,2L53.68,78a5.88,5.88,0,0,1-.11-1.11Zm4.32-7.57h6.49v2.16H57.89ZM56,73.63h1.63l-.82.91Zm6.49,0h1.66l-.83.92Zm1.9-6.49H57.89V65h6.49Zm-6.49-4.32A2.16,2.16,0,0,0,55.73,65v6.49H53.57V55.25h1.52a3.27,3.27,0,0,1,3,1.91l2.54,5.66ZM56.8,77.76l1.8,2-1.83,2a5.37,5.37,0,0,1-2.1-1.68Zm3.26,3.62.81.9H59.24Zm4.7-5.22L66,74.81l.1.21a4.92,4.92,0,0,1,.37,3ZM59.65,52.27a3.31,3.31,0,0,1,4.05,1.2l5.51,8.26-3.54,1.52a2.17,2.17,0,0,0-1.29-.43H63L60,56.27a5.38,5.38,0,0,0-3.08-2.84ZM34.1,27.13a3.24,3.24,0,0,1,3.24-3.24H48.45A11.59,11.59,0,0,1,55.73,44.5V41.64L57,40.42a3.25,3.25,0,0,0,.95-2.3v-.18a3.27,3.27,0,0,0-2.17-3.06V33.62a5.41,5.41,0,0,0-5.4-5.4H42.55a3.23,3.23,0,0,0-3-2.17H38.43v2.16h1.08a1.09,1.09,0,0,1,0,2.17H37.34A3.25,3.25,0,0,1,34.1,27.13ZM48.16,49.49c.17-.05.37-.08.55-.14l2-.65L50,46.65l-2,.65a7.29,7.29,0,0,1-9.22-4.62,7.2,7.2,0,0,1-.38-2.3V32.53H39.5a3.25,3.25,0,0,0,3-2.16h7.77a3.25,3.25,0,0,1,3.24,3.25v3.24h1.08a1.1,1.1,0,0,1,1.09,1.08v.19a1.12,1.12,0,0,1-.32.77l-1.85,1.84V52.53l-.85.36-.16.1-.27-.13A8.09,8.09,0,0,0,48.67,52c-.18,0-.35,0-.51,0Zm.51,4.68a6,6,0,0,1,2.65.62l.09.05v2a8,8,0,0,0-8.49,1.95A5.92,5.92,0,0,1,48.67,54.17ZM38.43,60.66a2.16,2.16,0,0,1,2.16,2.16V65H36.26V62.82A2.16,2.16,0,0,1,38.43,60.66ZM36.26,73.57V67.14h4.33v8.65h2.15V64.41a5.93,5.93,0,0,1,8.57-5.29l.09,0v10L49,75.81a6.55,6.55,0,0,1-12.71-2.24Zm28.12,13H42.74V82.28h.06A8.75,8.75,0,0,0,51,76.54l.4-1.1v1.43A7.57,7.57,0,0,0,59,84.44h2.42a6.35,6.35,0,0,0,1.07-.09A12.45,12.45,0,0,0,64.38,84Zm3.88-7a7.23,7.23,0,0,0-.2-5.48l-1.52-3.37V66.91L73,76.58l-.24.18Z"/><ellipse id="Ellipse_63" data-name="Ellipse 63" class="cls-1" cx="41.52" cy="35.9" rx="0.87" ry="1.74"/><ellipse id="Ellipse_64" data-name="Ellipse 64" class="cls-1" cx="48.5" cy="35.9" rx="0.87" ry="1.74"/><path id="Path_3014" data-name="Path 3014" class="cls-1" d="M40.59,41.19a4.33,4.33,0,1,0,8.65.17V39H40.59Zm6.49,0a2.17,2.17,0,0,1-4.33,0Z"/></g></g></svg>