<svg id="Layer_1" data-name="Layer 1" xmlns="http://www.w3.org/2000/svg" viewBox="0 0 110 110"><defs><style>.cls-1{fill:#fff;}</style></defs><g id="idea"><g id="Group_3445" data-name="Group 3445"><path id="Path_2929" data-name="Path 2929" class="cls-1" d="M59,84.87H51.46a4.07,4.07,0,0,1-3.77-4.33c0-.06,0-.11,0-.17V75.13a8.69,8.69,0,0,0-3.25-6.5,17.26,17.26,0,0,1-6.74-14A17.77,17.77,0,0,1,55,37.41a17.58,17.58,0,0,1,12.5,5A17.8,17.8,0,0,1,72.7,54.9a16.8,16.8,0,0,1-6.5,13.49,9.17,9.17,0,0,0-3.5,7v5.74A3.83,3.83,0,0,1,59,84.88Zm-3.75-45a15.32,15.32,0,0,0-15,14.74,14.69,14.69,0,0,0,5.74,12,10.89,10.89,0,0,1,4.26,8.49v5.24c0,.5,0,2,1.25,2H59a1.18,1.18,0,0,0,1.25-1.11V75.38a12.18,12.18,0,0,1,4.49-9,14.55,14.55,0,0,0,5.5-11.49,14.93,14.93,0,0,0-4.5-10.74,14.72,14.72,0,0,0-10.49-4.24Z"/></g><g id="Group_3446" data-name="Group 3446"><path id="Path_2930" data-name="Path 2930" class="cls-1" d="M61.45,77.38H49a1.27,1.27,0,0,1-1.3-1.21,1.25,1.25,0,0,1,1.21-1.29H61.46a1.24,1.24,0,0,1,1.2,1.29,1.26,1.26,0,0,1-1.2,1.21Z"/></g><g id="Group_3447" data-name="Group 3447"><path id="Path_2931" data-name="Path 2931" class="cls-1" d="M55.2,32.41A1.18,1.18,0,0,1,54,31.31V26.17a1.27,1.27,0,0,1,1.21-1.3,1.25,1.25,0,0,1,1.29,1.21v5.09a1.17,1.17,0,0,1-1.11,1.24A.33.33,0,0,1,55.2,32.41Z"/></g><g id="Group_3448" data-name="Group 3448"><path id="Path_2932" data-name="Path 2932" class="cls-1" d="M71.94,39.41a1.53,1.53,0,0,1-1-.25,1.22,1.22,0,0,1,0-1.72l0,0,3.5-3.5a1.24,1.24,0,0,1,1.75,1.75h0l-3.5,3.5a2.88,2.88,0,0,1-.75.25Z"/></g><g id="Group_3449" data-name="Group 3449"><path id="Path_2933" data-name="Path 2933" class="cls-1" d="M83.93,56.14h-5a1.25,1.25,0,0,1-1.3-1.2,1.24,1.24,0,0,1,1.2-1.29h5.09a1.25,1.25,0,0,1,1.3,1.2A1.24,1.24,0,0,1,84,56.14Z"/></g><g id="Group_3450" data-name="Group 3450"><path id="Path_2934" data-name="Path 2934" class="cls-1" d="M75.44,76.38a1.52,1.52,0,0,1-1-.25l-3.5-3.5a1.24,1.24,0,0,1,1.75-1.75l3.49,3.5a1.21,1.21,0,0,1,0,1.72l0,0C76.19,76.38,75.94,76.38,75.44,76.38Z"/></g><g id="Group_3451" data-name="Group 3451"><path id="Path_2935" data-name="Path 2935" class="cls-1" d="M35,76.38a1.53,1.53,0,0,1-1-.25,1.23,1.23,0,0,1,0-1.72l0,0,3.5-3.5a1.24,1.24,0,0,1,1.75,1.75l-3.5,3.5a1,1,0,0,1-.75.25Z"/></g><g id="Group_3452" data-name="Group 3452"><path id="Path_2936" data-name="Path 2936" class="cls-1" d="M31.48,56.14h-5a1.25,1.25,0,1,1-.09-2.49h5.09a1.25,1.25,0,0,1,.09,2.49Z"/></g><g id="Group_3453" data-name="Group 3453"><path id="Path_2937" data-name="Path 2937" class="cls-1" d="M38.47,39.41a1.52,1.52,0,0,1-1-.25L34,35.41a1.24,1.24,0,0,1,1.75-1.75l3.5,3.5a1.23,1.23,0,0,1,0,1.72l0,0C39,39.16,38.72,39.41,38.47,39.41Z"/></g><g id="Group_3454" data-name="Group 3454"><path id="Path_2938" data-name="Path 2938" class="cls-1" d="M65.2,56.15A1.18,1.18,0,0,1,64,55a.33.33,0,0,1,0-.14,8.86,8.86,0,0,0-8.75-8.75,1.25,1.25,0,0,1,0-2.5A11.19,11.19,0,0,1,66.45,54.79v.1a1.18,1.18,0,0,1-1.1,1.26Z"/></g></g></svg>