<svg id="Layer_1" data-name="Layer 1" xmlns="http://www.w3.org/2000/svg" viewBox="0 0 110 110"><defs><style>.cls-1{fill:#fff;}</style></defs><g id="outline"><path id="Path_3000" data-name="Path 3000" class="cls-1" d="M54.82,19.89A34.86,34.86,0,1,0,89.67,54.75,34.85,34.85,0,0,0,54.82,19.89Zm0,67.39A32.53,32.53,0,1,1,87.35,54.75h0A32.53,32.53,0,0,1,54.82,87.28Z"/><path id="Path_3001" data-name="Path 3001" class="cls-1" d="M54.82,24.54A30.21,30.21,0,1,0,85,54.75,30.21,30.21,0,0,0,54.82,24.54Zm0,58.09A27.89,27.89,0,1,1,82.7,54.75h0A27.88,27.88,0,0,1,54.82,82.63Z"/><path id="Path_3002" data-name="Path 3002" class="cls-1" d="M44,48c-1.08-.82-1.65-1.6-1.6-2.21.07-.77,1.08-1.46,1.43-1.63a4.55,4.55,0,0,0,2.36-2.79,2.86,2.86,0,0,0-.89-2.53c-2.52-2.63-6.12.1-7.33,1a7.74,7.74,0,0,0-3.25,5.53C34.54,48.05,36,50.72,39,53.32c4.28,3.67,2.54,6.41.7,9.32-1.17,1.85-2.49,3.94-.79,5.7l-1.36,2,1.93,1.29L41,69.5a2.6,2.6,0,0,0,.56.06,3.18,3.18,0,0,0,.62-.07c2-.41,3.9-2.81,5.69-7.33C50.18,56.24,49,51.75,44,48Zm1.71,13.28c-2,5.15-3.58,5.83-4,5.91-.14,0-.49.1-1.07-.49-.39-.4,0-1.21,1.08-2.84,1.74-2.75,4.66-7.35-1.15-12.33-2.45-2.09-3.64-4.11-3.53-6a5.54,5.54,0,0,1,2.25-3.79l.06,0c2.81-2.15,3.75-1.81,4.26-1.28.15.15.31.36.28.53-.06.37-.7.9-1.12,1.11a4.91,4.91,0,0,0-2.69,3.5,5,5,0,0,0,2.51,4.28c4.18,3.14,5.08,6.44,3.11,11.42Z"/><path id="Path_3003" data-name="Path 3003" class="cls-1" d="M60.55,62.14c2.34-5.9,1.11-10.4-3.87-14.13-1.08-.82-1.65-1.6-1.6-2.21.07-.77,1.08-1.46,1.43-1.63a4.53,4.53,0,0,0,2.37-2.79,2.89,2.89,0,0,0-.9-2.53c-2.52-2.63-6.11.1-7.33,1a7.8,7.8,0,0,0-3.25,5.53c-.16,2.64,1.3,5.31,4.34,7.91,4.28,3.67,2.54,6.41.7,9.32-1.17,1.86-2.5,4-.77,5.72l0,0-1.33,2,1.93,1.29,1.44-2.16a2.83,2.83,0,0,0,.5,0,3.15,3.15,0,0,0,.61-.06C56.89,69.07,58.76,66.67,60.55,62.14ZM54.39,67.2c-.13,0-.49.1-1.07-.49-.39-.4,0-1.21,1.08-2.84,1.74-2.75,4.66-7.35-1.15-12.33-2.45-2.09-3.64-4.11-3.53-6A5.52,5.52,0,0,1,52,41.77l.05,0c2.81-2.15,3.76-1.81,4.27-1.28.14.15.3.36.28.53-.07.37-.71.9-1.13,1.11a4.89,4.89,0,0,0-2.69,3.5,5,5,0,0,0,2.51,4.28c4.19,3.14,5.08,6.44,3.11,11.42-2,5.15-3.57,5.83-4,5.92Z"/><path id="Path_3004" data-name="Path 3004" class="cls-1" d="M69.45,48c-1.08-.82-1.65-1.6-1.6-2.21.07-.77,1.08-1.46,1.43-1.63a4.53,4.53,0,0,0,2.37-2.79,2.92,2.92,0,0,0-.9-2.53c-2.53-2.63-6.12.1-7.34,1a7.79,7.79,0,0,0-3.24,5.52c-.16,2.65,1.3,5.31,4.33,7.91,4.29,3.67,2.55,6.41.71,9.32-1.18,1.86-2.51,4-.78,5.72l0,0-1.33,2,1.93,1.29,1.45-2.16a2.63,2.63,0,0,0,.49,0,3.15,3.15,0,0,0,.61-.06c2-.41,3.9-2.81,5.7-7.33C75.66,56.24,74.43,51.74,69.45,48Zm1.71,13.28c-2,5.15-3.58,5.83-4,5.91-.13,0-.49.1-1.07-.49-.39-.4.05-1.21,1.08-2.84,1.74-2.75,4.66-7.35-1.15-12.33-2.45-2.09-3.64-4.11-3.53-6a5.54,5.54,0,0,1,2.25-3.79l.06,0c2.81-2.15,3.76-1.81,4.27-1.28.14.15.3.36.28.53-.07.37-.71.9-1.13,1.11a4.93,4.93,0,0,0-2.69,3.5,5,5,0,0,0,2.52,4.28c4.18,3.13,5.08,6.44,3.1,11.42Z"/><path id="Path_3005" data-name="Path 3005" class="cls-1" d="M33.91,57.07a3.49,3.49,0,1,0,3.48,3.48h0A3.48,3.48,0,0,0,33.91,57.07Zm0,4.65a1.17,1.17,0,1,1,1.16-1.17h0A1.16,1.16,0,0,1,33.91,61.72Z"/><path id="Path_3006" data-name="Path 3006" class="cls-1" d="M60.63,36.16a3.49,3.49,0,1,0-3.49-3.49h0A3.49,3.49,0,0,0,60.63,36.16Zm0-4.65a1.16,1.16,0,1,1-1.16,1.16h0A1.16,1.16,0,0,1,60.63,31.51Z"/><path id="Path_3007" data-name="Path 3007" class="cls-1" d="M59.47,71A3.49,3.49,0,1,0,63,74.5h0A3.48,3.48,0,0,0,59.47,71Zm0,4.65a1.17,1.17,0,1,1,1.16-1.16h0A1.16,1.16,0,0,1,59.47,75.66Z"/><path id="Path_3008" data-name="Path 3008" class="cls-1" d="M73.41,44.29h2.32v2.32H73.41Z"/><path id="Path_3009" data-name="Path 3009" class="cls-1" d="M44.36,71h2.33v2.32H44.36Z"/><path id="Path_3010" data-name="Path 3010" class="cls-1" d="M47.85,35h2.32v2.32H47.85Z"/><path id="Path_3011" data-name="Path 3011" class="cls-1" d="M49,76.82h2.33v2.32H49Z"/><path id="Path_3012" data-name="Path 3012" class="cls-1" d="M67.6,73.33h2.32v2.33H67.6Z"/></g></svg>