<svg id="Layer_1" data-name="Layer 1" xmlns="http://www.w3.org/2000/svg" viewBox="0 0 110 110"><defs><style>.cls-1{fill:#fff;}</style></defs><g id="Group_3658" data-name="Group 3658"><g id="Group_3458" data-name="Group 3458"><g id="pin"><g id="Group_3442" data-name="Group 3442"><g id="Group_3441" data-name="Group 3441"><path id="Path_2924" data-name="Path 2924" class="cls-1" d="M54.77,28.52A19.45,19.45,0,0,0,38.22,58.19L53.66,83.07a1.61,1.61,0,0,0,1.37.76h0A1.6,1.6,0,0,0,56.42,83l15-25.12a19.45,19.45,0,0,0-16.7-29.4ZM68.68,56.26,55,79.1,41,56.48a16.21,16.21,0,1,1,27.71-.22Z"/></g></g><g id="Group_3444" data-name="Group 3444"><g id="Group_3443" data-name="Group 3443"><path id="Path_2925" data-name="Path 2925" class="cls-1" d="M54.77,38.24A9.73,9.73,0,1,0,64.49,48,9.73,9.73,0,0,0,54.77,38.24Zm0,16.23A6.51,6.51,0,1,1,61.26,48h0A6.52,6.52,0,0,1,54.77,54.47Z"/></g></g></g></g></g></svg>