<svg id="Layer_1" data-name="Layer 1" xmlns="http://www.w3.org/2000/svg" viewBox="0 0 110 110"><defs><style>.cls-1{fill:#fff;}</style></defs><g id="drop-leaf-table"><path id="Path_2906" data-name="Path 2906" class="cls-1" d="M77,32.47a4.09,4.09,0,0,0-3.28-1.2,98.18,98.18,0,0,0-14.25,2.52c-6.62,1.68-11.09,3.66-13.3,5.86a22,22,0,0,0-5.91,12.68,18.5,18.5,0,0,0,.45,7,14.16,14.16,0,0,0,1.45,3.48c-.86.92-1.65,1.81-2.38,2.65a110.44,110.44,0,0,0-7.83,10,1.45,1.45,0,0,0,2.42,1.61h0a110,110,0,0,1,7.61-9.75c.61-.69,1.26-1.43,2-2.2l.18.19a13.22,13.22,0,0,0,6,3.4,17.87,17.87,0,0,0,4.6.6,21.48,21.48,0,0,0,2.4-.15,22,22,0,0,0,12.67-5.91C72,61.08,74,56.61,75.63,50a98.42,98.42,0,0,0,2.52-14.25A4.12,4.12,0,0,0,77,32.47Zm-1.7,3c-.63,7-3.48,21.69-7.54,25.75-5.36,5.35-16.17,7.47-21.58,2.06-.08-.09-.17-.17-.24-.26A79.86,79.86,0,0,1,60.77,50.66a1.45,1.45,0,0,0-1.48-2.5l0,0a82.32,82.32,0,0,0-15,12.4c-2.8-5.78-.6-14.32,4-18.88,4.07-4.06,18.78-6.92,25.75-7.54h.12a1.22,1.22,0,0,1,1.2,1.23v.09Z"/></g></svg>