<svg id="Layer_1" data-name="Layer 1" xmlns="http://www.w3.org/2000/svg" viewBox="0 0 110 110"><defs><style>.cls-1{fill:#fff;}</style></defs><g id="Group_3653" data-name="Group 3653"><path class="cls-1" d="M48.14,61s-4.61-.75-6.65-2.79L39,55.72a5,5,0,0,0-3-1.43v-8.5a5,5,0,0,0-10,0V61a15,15,0,0,0,8.27,13.45l5.18,2.59v6.4a1.63,1.63,0,0,0,1.62,1.62H52.94a1.63,1.63,0,0,0,1.62-1.62V68.15A7.1,7.1,0,0,0,48.14,61ZM41.79,74.6l-6-3A11.69,11.69,0,0,1,29.24,61V45.8a1.74,1.74,0,0,1,3.48,0v9.29a5,5,0,0,0-1.57,6.65,4.63,4.63,0,0,0,.79,1l5.74,5.74a1.61,1.61,0,0,0,2.29,0,1.62,1.62,0,0,0,0-2.29l-5.74-5.74a1.74,1.74,0,0,1,0-2.46,1.71,1.71,0,0,1,.65-.41,1.73,1.73,0,0,1,1.81.4l2.52,2.52c2.56,2.56,7.93,3.6,8.48,3.7l.11,0a3.89,3.89,0,0,1,3.52,3.9V81.83H42.69V76.05A1.62,1.62,0,0,0,41.79,74.6Zm-7.24-.54Z"/><path class="cls-1" d="M41.73,55.27H68.64a1.63,1.63,0,0,0,1.62-1.62V28.32a1.62,1.62,0,0,0-1.62-1.62H41.74a1.61,1.61,0,0,0-1.62,1.62V53.64a1.56,1.56,0,0,0,.46,1.14A1.65,1.65,0,0,0,41.73,55.27Zm7.83-16.84a1.64,1.64,0,0,0,1.88.3l3.71-1.87L59,38.74A1.62,1.62,0,0,0,61.12,38a1.69,1.69,0,0,0,.17-.72V29.94H67V52H43.36V29.94h5.72v7.35A1.6,1.6,0,0,0,49.56,38.43Zm8.49-3.76-2.19-1.08a1.5,1.5,0,0,0-.72-.17,1.7,1.7,0,0,0-.73.17l-2.08,1v-4.7h5.72Z"/><path class="cls-1" d="M57.43,49.66h6.73a1.62,1.62,0,0,0,0-3.24H57.43a1.58,1.58,0,0,0-1.14.48,1.6,1.6,0,0,0-.48,1.15A1.63,1.63,0,0,0,57.43,49.66Z"/><path class="cls-1" d="M77.82,70.16a1.37,1.37,0,1,0,1.37,1.37A1.37,1.37,0,0,0,77.82,70.16Z"/><path class="cls-1" d="M82.92,42.28a5,5,0,0,0-3.52-1.46h0a5,5,0,0,0-5,5v8.49a5,5,0,0,0-3,1.44L68.92,58.2A13.75,13.75,0,0,1,62.37,61h-.12a7.1,7.1,0,0,0-6.44,7.13V83.46a1.62,1.62,0,0,0,1.62,1.62H69.31a1.62,1.62,0,0,0,1.62-1.62v-6.4l3.39-1.69a1.6,1.6,0,0,0,.81-.94,1.61,1.61,0,0,0-2.26-2l-4.29,2.14a1.61,1.61,0,0,0-.89,1.45v5.78H59.05V68.15a3.87,3.87,0,0,1,3.48-3.89h.15a17,17,0,0,0,8.49-3.71L73.68,58a1.75,1.75,0,0,1,1.81-.41,1.74,1.74,0,0,1,1.06,2.23,1.67,1.67,0,0,1-.41.65L70.4,66.24a1.62,1.62,0,0,0,0,2.29,1.66,1.66,0,0,0,2.29,0l5.75-5.74a5,5,0,0,0,0-7,5.39,5.39,0,0,0-.79-.64V45.81a1.75,1.75,0,0,1,3.49,0V61a11.89,11.89,0,0,1-1.44,5.65,1.64,1.64,0,0,0-.13,1.23,1.62,1.62,0,0,0,3,.31A15.07,15.07,0,0,0,84.38,61V45.81A5,5,0,0,0,82.92,42.28Z"/></g></svg>