<?xml version="1.0" encoding="utf-8"?>
<!-- Generator: Adobe Illustrator 23.0.3, SVG Export Plug-In . SVG Version: 6.00 Build 0)  -->
<svg version="1.1" id="Layer_1" xmlns="http://www.w3.org/2000/svg" xmlns:xlink="http://www.w3.org/1999/xlink" x="0px" y="0px"
	 viewBox="0 0 93 110" style="enable-background:new 0 0 93 110;" xml:space="preserve">
<style type="text/css">
	.st0{fill:#FFFFFF;}
</style>
<g id="paper" transform="translate(-41.75 0.25)">
	<path id="Path_3044" class="st0" d="M135.2,18L117.4,0.3H64.5v65.6c-12,0.7-21.1,11-20.4,22.9c0.7,12,11,21.1,22.9,20.4
		c7.4-0.4,14-4.6,17.7-11h50.5V18z M118.2,4.6l12.7,12.7h-12.7V4.6z M65.8,106.7c-10.6,0-19.2-8.6-19.2-19.2
		c0-10.6,8.6-19.2,19.2-19.2c10.6,0,19.2,8.6,19.2,19.2v0C84.9,98.1,76.4,106.7,65.8,106.7L65.8,106.7z M85.9,95.6
		c4.5-11.1-0.9-23.8-12.1-28.2c-2.2-0.9-4.5-1.4-6.8-1.5V2.8h48.5v17h17v75.8L85.9,95.6z"/>
	<path id="Path_3045" class="st0" d="M76,13.9h20.4v2.6H76V13.9z"/>
	<path id="Path_3046" class="st0" d="M76,20.7h13.6v2.6H76V20.7z"/>
	<path id="Path_3047" class="st0" d="M76,30.9h47.7v2.6H76V30.9z"/>
	<path id="Path_3048" class="st0" d="M76,37.7h47.7v2.6H76V37.7z"/>
	<path id="Path_3049" class="st0" d="M76,51.3h47.7v2.6H76V51.3z"/>
	<path id="Path_3050" class="st0" d="M76,58.2h34.1v2.6H76V58.2z"/>
	<path id="Path_3051" class="st0" d="M76,44.5h47.7v2.6H76V44.5z"/>
	<path id="Path_3052" class="st0" d="M106.7,68.4h17v2.6h-17V68.4z"/>
	<path id="Path_3053" class="st0" d="M64.5,77v13.9h2.6V77l4.6,4.6l1.8-1.8l-7.7-7.7l-7.7,7.7l1.8,1.8L64.5,77z"/>
	<path id="Path_3054" class="st0" d="M73,96.5H58.5v-5.5H56V99h19.6v-8.1H73V96.5z"/>
</g>
</svg>
