<svg xmlns="http://www.w3.org/2000/svg" viewBox="0 0 1052.26 645"><defs><style>.cls-1{fill:#d2f2f1;}.cls-14,.cls-19,.cls-2{fill:#fff;}.cls-3{fill:#939393;}.cls-4{fill:#f4e9ab;}.cls-5{fill:#88baba;}.cls-6{fill:#9ac687;}.cls-7{fill:#62cbe9;}.cls-8{fill:#f7aa53;}.cls-9{fill:#60d3c8;}.cls-10{fill:#9cd0e5;}.cls-11{fill:#5c94c4;}.cls-12,.cls-13,.cls-15{fill:none;}.cls-12,.cls-13,.cls-14,.cls-15{stroke:#fff;stroke-width:2px;}.cls-12,.cls-14,.cls-15{stroke-miterlimit:10;}.cls-13,.cls-15{stroke-linecap:round;}.cls-13{stroke-linejoin:round;}.cls-16{font-size:15px;}.cls-16,.cls-19{font-family:Prompt-Regular, Prompt;}.cls-17{font-size:8.5px;}.cls-17,.cls-18{font-family:ArialMT, Arial;}.cls-18{font-size:3px;}.cls-19{font-size:34.93px;}</style></defs><g id="_9.ทางเดิน" data-name="9.ทางเดิน"><path class="cls-1" d="M331.56,221.14l-3.36,1.37c-2.16.9-4.28,1.82-6.38,2.74l6.38,3.27V416.06l-7,3.58c2.31,1,4.63,2,7,3,2.82,1.17,5.66,2.32,8.58,3.44v-207Q334.14,220.09,331.56,221.14Z"/><path class="cls-2" d="M724.16,416.06V229.35h15.29l-9-4.06.08,0q-2.13-.93-4.29-1.85l-.2-.09h0l-1.88-.8-3.37-1.37c-1.72-.7-3.45-1.39-5.21-2.07v207c2.91-1.12,5.76-2.27,8.58-3.44q3.55-1.49,7-3c.74-.32,1.47-.65,2.19-1l2.27-1,2.77-1.31v-.11H724.46Z"/><rect class="cls-2" x="880.74" y="358.3" width="19.01" height="10.81"/><rect class="cls-2" x="424.9" y="147.66" width="20.95" height="6.98"/><ellipse class="cls-2" cx="525.9" cy="322.13" rx="310.19" ry="148.67"/><polygon class="cls-2" points="616.57 149.36 616.57 140.3 606.82 140.3 606.82 149.36 567.47 149.36 567.47 131.3 577.3 131.3 577.3 92.06 569.34 92.06 569.34 46.1 483.94 46.1 483.94 92.06 475.42 92.06 475.42 131.32 483.94 131.32 483.94 149.44 445.44 149.44 445.44 140.3 435.82 140.3 435.82 149.44 423.58 149.44 423.58 162.72 483.94 162.72 483.94 173.46 569.34 173.46 569.34 162.89 606.82 162.89 606.82 164.59 616.57 164.59 616.57 162.89 627.04 162.89 627.04 149.36 616.57 149.36"/><rect class="cls-2" x="162.46" y="163.4" width="726.8" height="317.7"/><rect class="cls-2" x="607.38" y="494.25" width="19.4" height="2.43"/><polygon class="cls-2" points="568.01 479.29 568.01 477.59 555.38 477.59 555.38 466.97 497.34 466.97 497.34 477.53 492.04 477.53 483.94 477.53 423.75 477.53 423.75 497.28 435.24 497.28 435.24 503.83 445.2 503.83 445.2 497.28 483.94 497.28 483.94 512.9 475.54 512.9 475.54 552.81 484.54 552.81 484.54 580.68 497.34 580.68 497.34 628.1 483.94 628.1 483.94 645.3 568.2 645 568.2 627.91 555.38 627.91 555.38 580.25 568.49 580.25 568.49 552.44 577.17 552.44 577.17 513.53 568.01 513.53 568.01 495.83 605.94 495.83 605.94 503.83 616.2 503.83 616.2 497.28 626.79 497.28 626.79 479.29 568.01 479.29"/><polygon class="cls-2" points="916.78 163.3 916.78 170.04 887.98 170.04 887.98 184.93 915.81 184.93 915.81 189.98 1035.24 189.98 1035.24 163.3 916.78 163.3"/><rect class="cls-2" x="808.42" y="135.48" width="13.46" height="28.72"/><rect class="cls-2" x="229.77" y="478.9" width="10.64" height="30.76"/><rect class="cls-2" x="149.64" y="343.32" width="16.59" height="62.18"/><rect class="cls-2" x="136.16" y="392.76" width="18.46" height="13.19"/><rect class="cls-2" x="122.28" y="395.9" width="14.98" height="9.82"/><rect class="cls-2" x="135.84" y="244.38" width="20.14" height="7.86"/><polygon class="cls-2" points="163.68 293.7 163.68 230.04 153.25 230.04 149.64 230.04 132.34 230.04 132.34 221.06 122.98 221.06 122.98 249.14 131.13 249.14 132.34 249.14 149.64 249.14 149.64 280.32 113.25 280.32 113.25 269.9 92.86 269.9 92.86 279.86 64.42 279.86 64.42 293.7 16.54 293.7 16.54 284.17 11.64 284.17 0 284.17 0 364.78 1.36 364.78 11.64 364.78 16.5 364.78 16.5 351.66 65.66 351.66 65.66 363.92 92.38 363.92 92.38 372.46 113.25 372.46 113.25 363.92 157.94 363.92 157.94 351.66 227.33 351.66 227.33 293.7 163.68 293.7"/><rect class="cls-2" x="809.03" y="480.27" width="13.08" height="29.25"/><polygon class="cls-2" points="1051.64 294.27 1051.64 280.74 1036.18 280.74 1035.24 280.74 1035.24 294.27 988.42 294.27 988.42 280.86 960.4 280.86 960.4 271.14 940.94 271.14 940.94 280.86 915.81 280.86 915.42 274.86 915.42 248.85 887.98 248.85 887.98 264.85 887.16 264.85 887.16 293.27 793.63 293.27 793.63 351.15 887.38 351.15 887.38 369.47 887.16 369.47 887.16 401.95 887.16 403.23 887.16 403.8 888.36 403.8 916.2 403.8 918.96 403.8 918.96 423.24 929.86 423.24 929.86 399.15 929.86 398.5 929.86 396.26 929.86 395.7 929.86 392.85 916.2 392.85 916.2 392.64 900.12 392.64 900.12 392.42 900.12 389.23 900.12 364.89 988.42 364.89 988.42 351.15 1035.24 351.15 1035.24 365.78 1050.34 365.78 1051.64 365.78 1051.64 351.15 1052.26 351.15 1052.26 294.27 1051.64 294.27"/><rect class="cls-2" x="424.9" y="159.49" width="66.23" height="5.62"/></g><g id="_8.ห้องน้ำ" data-name="8.ห้องน้ำ"><polyline class="cls-3" points="328.2 259.07 308.65 259.07 308.65 314.25 308.65 322.69 308.65 348.57 308.65 369.43 308.65 377.98 308.65 381.04 308.65 385.92 328.2 385.92 328.2 381.04 328.2 377.98 328.2 369.43 328.2 348.57 328.2 322.69 328.2 314.25"/><polygon class="cls-3" points="724.16 259.07 724.16 288.85 724.16 307.92 724.16 314.25 724.16 322.69 724.16 348.57 724.16 369.43 724.16 377.98 724.16 381.04 724.16 385.92 743.7 385.92 743.7 381.04 743.7 377.98 743.7 369.43 743.7 348.57 743.7 322.69 743.7 314.25 743.7 307.92 743.7 288.85 743.7 259.07 724.16 259.07"/><rect class="cls-3" x="251.86" y="94.7" width="27.36" height="27.36"/><rect class="cls-3" x="424.45" y="94.7" width="27.36" height="27.36"/><rect class="cls-3" x="600.04" y="94.7" width="27" height="28.03"/><rect class="cls-3" x="773.67" y="94.47" width="26.88" height="27.59"/><rect class="cls-3" x="423.33" y="522.38" width="29.41" height="27.57"/><rect class="cls-3" x="600.04" y="522.21" width="27.54" height="27.54"/><rect class="cls-3" x="772.32" y="522.21" width="28.23" height="33.96"/><rect class="cls-3" x="95.18" y="395.9" width="27.1" height="27.1"/><rect class="cls-3" x="433.77" y="549.78" width="6.25" height="6.92"/><rect class="cls-3" x="612.83" y="546.72" width="6.71" height="9.98"/><rect class="cls-3" x="53.14" y="539.54" width="27.12" height="19.44"/><rect class="cls-3" x="88.66" y="408.26" width="10.76" height="7.17"/><rect class="cls-3" x="95.04" y="220.59" width="27.83" height="28.62"/><rect class="cls-3" x="89.02" y="228.86" width="11.94" height="7.05"/><rect class="cls-3" x="52.3" y="85.34" width="27.72" height="19.8"/><rect class="cls-3" x="264.46" y="87.74" width="6.24" height="10.3"/><rect class="cls-3" x="433.51" y="87.14" width="6.52" height="10.54"/><rect class="cls-3" x="612.82" y="87.86" width="6.99" height="9.82"/><rect class="cls-3" x="781.78" y="87.14" width="6.42" height="9.2"/><rect class="cls-3" x="972.34" y="85.34" width="27.84" height="19.68"/><rect class="cls-3" x="928.83" y="220.93" width="28" height="28.94"/><rect class="cls-3" x="954.62" y="229.35" width="9.56" height="6.47"/></g><g id="_7.พื้นที่รอบลานอเนกประสงค์" data-name="7.พื้นที่รอบลานอเนกประสงค์"><path class="cls-4" d="M781.93,188H709.77a9.69,9.69,0,0,1-9.69-9.7V166.23h98.14Z"/><path class="cls-4" d="M421.34,182.21V166.7l-168.53-.49,43.81,56.09C330.33,204.68,373.5,190.39,421.34,182.21Z"/><path class="cls-4" d="M475.55,175.7v-9.55H445.44v12.6C455.11,177.51,465.53,176.49,475.55,175.7Z"/><path class="cls-4" d="M606,178.74V166.18H575.85l.1,9.31C582,176.19,596,177.44,606,178.74Z"/><path class="cls-4" d="M754.93,222.19l43.59-56H630.36l-.25,15.9C678,190.36,721.23,204.48,754.93,222.19Z"/><path class="cls-4" d="M296.6,422.7l-43.88,56.2,168.36-.43v-16C373,454.22,330.39,440.44,296.6,422.7Z"/><path class="cls-4" d="M446.08,466.77v12.52h29.55v-9.47Q460.6,468.64,446.08,466.77Z"/><path class="cls-4" d="M765.84,416.92l48.58,61.92,70.81.11V369.47H819.87C807.23,386.76,790.45,402.45,765.84,416.92Z"/><path class="cls-4" d="M630.06,462.64l.13,16,168.43.28L755,422.88A427.54,427.54,0,0,1,630.06,462.64Z"/><path class="cls-4" d="M575.63,469.88v9.41h30.71V466.7Q591.26,468.65,575.63,469.88Z"/><path class="cls-4" d="M231.47,275.55c.1-.14,21.79-31,53.91-47.32l-48.42-62-70.73.09V275.52Z"/><path class="cls-4" d="M231.38,369.44H166.23V478.9H237.1l48.45-62.14C261.28,402.62,243.55,387.26,231.38,369.44Z"/><rect class="cls-4" x="167.85" y="311.44" width="47.83" height="22.04"/><rect class="cls-4" x="835.51" y="311.32" width="48" height="22.21"/></g><g id="_6.หน่วยงาน_บริษัท" data-name="6.หน่วยงาน/บริษัท"><rect class="cls-5" x="241.09" y="135.49" width="66.81" height="27.91"/><rect class="cls-5" x="203.52" y="92.08" width="17.31" height="44.24"/><rect class="cls-5" x="887.98" y="220.87" width="40.85" height="27.98"/><rect class="cls-5" x="915.81" y="190.3" width="20.68" height="30.57"/><rect class="cls-5" x="887.98" y="184.93" width="27.83" height="35.94"/><polygon class="cls-5" points="859.88 135.48 859.88 163.8 887.98 163.8 887.98 169.61 916.44 169.61 916.44 163.8 916.44 154.29 916.44 135.48 859.88 135.48"/><path class="cls-5" d="M792.07,381q1.59-1.52,3.11-3.06Q793.67,379.53,792.07,381Z"/><rect class="cls-5" x="822.11" y="481.32" width="94.09" height="28.2"/><rect class="cls-5" x="887.76" y="423.24" width="28.44" height="58.08"/></g><g id="_5.พื้นที่เช่าทั่วไป" data-name="5.พื้นที่เช่าทั่วไป"><rect class="cls-6" x="177.08" y="143.47" width="50.04" height="19.93"/><polygon class="cls-6" points="213.72 467.07 180.75 442.3 185.72 401.37 223.65 385.2 256.62 409.97 251.65 450.91 213.72 467.07"/><polygon class="cls-6" points="223.62 259.46 256.58 234.69 251.62 193.75 213.68 177.59 180.72 202.36 185.68 243.29 223.62 259.46"/><polygon class="cls-6" points="865.71 401.23 827.7 385.24 794.85 410.16 800.01 451.07 838.02 467.06 870.87 442.14 865.71 401.23"/><rect class="cls-6" x="445.2" y="494.25" width="38.74" height="9.57"/><rect class="cls-6" x="423.33" y="496.3" width="11.91" height="7.94"/><rect class="cls-6" x="568.01" y="494.25" width="38.04" height="9.57"/><rect class="cls-6" x="616.2" y="496.3" width="10.93" height="7.94"/><rect class="cls-6" x="132.55" y="220.68" width="30.96" height="9"/><rect class="cls-6" x="135.84" y="252.24" width="13.8" height="27.84"/><rect class="cls-6" x="496.45" y="17.25" width="29.33" height="28.85"/><rect class="cls-6" x="525.78" y="17.25" width="29.33" height="28.85"/><rect class="cls-6" x="122.28" y="405.72" width="41.52" height="17.28"/><rect class="cls-6" x="135.84" y="363.92" width="13.8" height="28.84"/><rect class="cls-6" x="616.08" y="140.64" width="10.96" height="9.86"/><rect class="cls-6" x="567.81" y="140.64" width="38.04" height="9.86"/><rect class="cls-6" x="445.2" y="140.64" width="38.74" height="9.86"/><rect class="cls-6" x="424.83" y="140.76" width="12.06" height="9.13"/><path class="cls-6" d="M700.06,166.23h44.4a0,0,0,0,1,0,0V188a0,0,0,0,1,0,0H709.3a9.23,9.23,0,0,1-9.23-9.23V166.23A0,0,0,0,1,700.06,166.23Z"/><rect class="cls-6" x="744.22" y="165.98" width="29.19" height="22.02"/><polygon class="cls-6" points="781.93 187.77 773.24 187.77 773.24 166.04 799.13 166.04 781.93 187.77"/><path class="cls-6" d="M709.3,456.93h35.16a0,0,0,0,1,0,0V478.7a0,0,0,0,1,0,0h-44.4a0,0,0,0,1,0,0V466.17A9.23,9.23,0,0,1,709.3,456.93Z"/><rect class="cls-6" x="744.22" y="456.93" width="29.19" height="22.02"/><polygon class="cls-6" points="781.93 456.93 773.24 456.93 773.24 478.66 799.13 478.66 781.93 456.93"/><rect class="cls-6" x="887.38" y="403.8" width="31.58" height="19.44"/><rect class="cls-6" x="900.12" y="364.92" width="15.48" height="27.5"/><path class="cls-6" d="M724.16,229.35v29.72H743.7v19.55h61.37c-13.88-18.46-36.25-35.1-65-49Z"/><path class="cls-6" d="M815.2,295.66c-1-2.29-2.16-4.56-3.42-6.81a92.06,92.06,0,0,0-6.71-10.23H743.7v29.3h75.63A70.19,70.19,0,0,0,815.2,295.66Z"/><path class="cls-6" d="M819.33,307.92H743.7v78H724.16v30.3h14.23v.11l.24-.11c.69-.32,1.38-.64,2-1,1.18-.57,2.33-1.15,3.48-1.73l1.45-.72q2.42-1.23,4.75-2.48l1.53-.84c1.05-.57,2.11-1.15,3.14-1.73l1.83-1.05c.91-.52,1.81-1,2.7-1.57l1.9-1.14,2.5-1.53,1.88-1.19,2.38-1.53,1.84-1.23,2.27-1.55,1.79-1.25,2.19-1.58,1.71-1.27,2.13-1.62,1.62-1.27c.7-.55,1.39-1.12,2.08-1.68l1.51-1.25c.71-.59,1.39-1.19,2.08-1.79l1.35-1.18c.75-.67,1.47-1.34,2.19-2l1.09-1q1.59-1.52,3.11-3.06c9.14-9.29,16.05-19.14,20.42-29.41a65.86,65.86,0,0,0,5.47-25.86v0s0-.06,0-.09A63.56,63.56,0,0,0,819.33,307.92Z"/></g><g id="_4.ร้านค้าย่อย" data-name="4.ร้านค้าย่อย"><polygon class="cls-5" points="91.66 47.57 91.52 69.84 189.17 69.84 189.17 16.85 33.42 16.85 33.42 47.74 91.66 47.57"/><rect class="cls-7" x="118.74" y="78.12" width="17.44" height="58.2"/><rect class="cls-7" x="147.51" y="78.12" width="17.44" height="58.2"/><rect class="cls-7" x="176.45" y="78.12" width="17.44" height="58.2"/><rect class="cls-7" x="84.47" y="134.98" width="15.66" height="9.7"/><rect class="cls-7" x="91.47" y="151.91" width="73.49" height="10.81"/></g><g id="_3.ศูนย์อาหาร_ร้านอาหาร" data-name="3.ศูนย์อาหาร/ร้านอาหาร"><path class="cls-8" d="M820,275.51h65.3V166.23H814.48L766,228.31C789.76,242.15,807.8,258.13,820,275.51Z"/><rect class="cls-8" x="744.22" y="135.58" width="29.19" height="27.76"/><rect class="cls-8" x="715.03" y="135.58" width="29.19" height="27.76"/><rect class="cls-8" x="773.24" y="135.58" width="36.1" height="27.76"/><rect class="cls-8" x="821.88" y="135.58" width="38.01" height="28.25"/><polygon class="cls-8" points="809.57 509.52 714.34 509.52 714.34 481.32 627.3 481.32 627.3 611.83 644.91 611.83 644.91 630.21 754.45 630.21 754.34 600.1 772.32 600.08 772.32 522.6 809.57 522.6 809.57 509.52"/><rect class="cls-8" x="713.98" y="481.23" width="30.48" height="28.29"/><rect class="cls-8" x="744.22" y="481.23" width="29.09" height="28.29"/><rect class="cls-8" x="773.25" y="481.23" width="36.32" height="28.29"/><polygon class="cls-8" points="772.15 123.23 772.15 31.92 755.47 31.92 755.47 14.9 644.75 14.9 644.75 31.92 627.13 31.92 627.13 163.4 714.62 163.4 714.62 135.41 750.43 135.49 806.87 135.49 806.87 123.23 772.15 123.23"/><polygon class="cls-8" points="406.87 31.92 406.87 17.25 406.83 17.25 406.83 15.24 341.08 15.24 297.68 15.24 296.57 15.24 296.57 31.92 278.87 31.92 278.87 122.4 244.83 122.4 244.83 135.57 285.38 135.57 285.38 135.49 296.57 135.49 336.26 135.49 336.23 163.4 405.85 163.4 406.87 163.4 424.57 163.4 424.57 31.92 406.87 31.92"/><rect class="cls-8" x="90.24" y="162.72" width="73.27" height="28.98"/><rect class="cls-8" x="90.24" y="191.7" width="73.27" height="28.89"/><polygon class="cls-8" points="240.75 509.52 336.29 509.52 336.29 481.32 423.33 481.32 423.33 611.83 405.71 611.83 405.71 630.21 296.18 630.21 296.18 600.08 278.31 600.08 278.31 522.6 240.75 522.6 240.75 509.52"/></g><g id="_2.ธนาคาร" data-name="2.ธนาคาร"><rect class="cls-9" x="307.81" y="135.49" width="29.11" height="27.91"/><rect class="cls-9" x="191.48" y="481.32" width="38.28" height="28.2"/><polygon class="cls-9" points="164.02 480.98 164.02 423.11 134.43 423.11 134.43 443.38 134.43 486.86 134.43 509.52 134.8 509.52 149.6 509.52 191.48 509.52 191.48 480.98 164.02 480.98"/><rect class="cls-9" x="240.41" y="481.32" width="96.49" height="28.71"/><path class="cls-9" d="M308.65,348.57h-71.9c4.37,10.27,11.28,20.12,20.42,29.41h51.48Z"/><path class="cls-9" d="M328.2,385.91H308.65V378H257.17q1.51,1.54,3.12,3.06c.35.34.72.67,1.08,1,.72.68,1.45,1.35,2.19,2l1.36,1.18c.68.6,1.37,1.2,2.08,1.79.49.42,1,.83,1.51,1.25.69.56,1.38,1.13,2.08,1.68.53.43,1.08.85,1.62,1.27l2.13,1.62c.56.43,1.13.85,1.71,1.27s1.45,1.05,2.19,1.58L280,397c.75.52,1.51,1,2.28,1.55l1.84,1.23,2.38,1.53c.62.4,1.24.8,1.88,1.19l2.5,1.53,1.89,1.14c.89.53,1.8,1.05,2.7,1.57l1.84,1.05c1,.58,2.08,1.16,3.14,1.73l1.52.84c1.57.83,3.15,1.66,4.76,2.48l1.44.72c1.16.58,2.31,1.16,3.49,1.73.67.33,1.36.65,2,1l3,1.42,2.26,1,2.19,1,7-3.58Z"/><path class="cls-9" d="M308.65,295.66h-71.5a66.28,66.28,0,0,0-5.87,26.93v.09h77.37Z"/><path class="cls-9" d="M308.65,322.68H231.28a66,66,0,0,0,5.47,25.89h71.9Z"/><path class="cls-9" d="M308.65,259.07H328.2V228.52l-6.38-3.27c-42.34,18.65-72.56,43-84.67,70.41h71.5Z"/></g><g id="_1.ลานอเนกประสงค์" data-name="1.ลานอเนกประสงค์"><path class="cls-10" d="M526.18,438.33c-73.23,0-139.82-11.83-189.4-31.15V426.1c51.24,19.69,117.29,31.55,189.4,31.55s138.26-11.88,189.52-31.59V407.13C666.1,426.48,599.46,438.33,526.18,438.33Z"/><path class="cls-10" d="M526.18,207c73.28,0,139.92,11.85,189.52,31.2V219.12c-51.26-19.71-117.36-31.59-189.52-31.59S388,199.39,336.78,219.07v19.12C386.36,218.87,453,207,526.18,207Z"/><path class="cls-11" d="M336.78,238.19v169c49.58,19.32,116.17,31.15,189.4,31.15s139.92-11.85,189.52-31.2V238.24C666.1,218.89,599.46,207,526.18,207S386.36,218.87,336.78,238.19Z"/></g><g id="Section0.75"><path class="cls-12" d="M852.81,411.07s-2.22,13.59,3.41,24.9"/><path class="cls-12" d="M856.09,436s-13,5.08-19.94,15.65"/><path class="cls-12" d="M836.09,451.51s-10.87-9-23.48-9.91"/><path class="cls-12" d="M812.66,441.49s2.42-13.7-3.09-25.08"/><path class="cls-12" d="M809,416s13.16-5,20.19-15.41"/><path class="cls-12" d="M829.36,400.85s10.71,9,23.24,9.94"/><path class="cls-12" d="M215.72,451s10.61-8.78,23.23-9.62"/><path class="cls-12" d="M238.88,441.25s-2.17-13.79,3.46-25.11"/><path class="cls-12" d="M198.24,410.91s2.43,13.74-3,25.16"/><path class="cls-12" d="M242.22,416.15s-13.29-4.83-20.4-15.29"/><path class="cls-12" d="M221.75,401s-10.61,9-23.21,10"/><path class="cls-12" d="M195.51,436s13,4.57,20.21,15"/><path class="cls-12" d="M221.89,244.38s-10.89-9.32-23.5-10.16"/><path class="cls-12" d="M198.46,233.63s2.17-13.79-3.47-25.1"/><path class="cls-12" d="M195.12,208.53s13.29-4.83,20.4-15.29"/><path class="cls-12" d="M215.58,193.34s10.62,9,23.22,10"/><path class="cls-12" d="M239.35,203.24s-2.62,13.66,2.72,25.12"/><path class="cls-12" d="M242.45,228.89s-13.45,4.38-20.56,15.49"/><polygon class="cls-12" points="91.66 47.57 91.52 69.84 189.17 69.84 189.17 16.85 33.42 16.85 33.42 47.74 91.66 47.57"/><line class="cls-12" x1="127.8" y1="78.12" x2="127.8" y2="136.32"/><line class="cls-12" x1="119.04" y1="86.52" x2="127.8" y2="86.52"/><line class="cls-12" x1="119.04" y1="94.64" x2="127.8" y2="94.64"/><line class="cls-12" x1="119.04" y1="103.08" x2="127.8" y2="103.08"/><line class="cls-12" x1="127.43" y1="103.08" x2="136.19" y2="103.08"/><line class="cls-12" x1="127.8" y1="90.72" x2="136.19" y2="90.72"/><line class="cls-12" x1="119.04" y1="111.48" x2="136.19" y2="111.48"/><line class="cls-12" x1="119.04" y1="119.49" x2="136.19" y2="119.49"/><line class="cls-12" x1="119.04" y1="127.87" x2="136.19" y2="127.87"/><ellipse class="cls-12" cx="526.55" cy="322.59" rx="294.53" ry="135.06"/><polyline class="cls-12" points="552.68 46.1 569.34 46.1 569.34 92.15 577.3 92.15 577.3 131.3 567.47 131.3 567.47 149.15"/><polyline class="cls-12" points="499.83 46.1 483.94 46.1 483.94 92.06 475.42 92.06 475.42 131.32 483.94 131.32 483.94 149.25"/><rect class="cls-12" x="972.34" y="85.34" width="27.84" height="19.68"/><polyline class="cls-12" points="135.84 392.32 135.84 395.9 122.28 395.9 122.28 405.37"/><polyline class="cls-12" points="568.2 645 568.2 627.91 555.38 627.91 555.38 580.25 568.49 580.25 568.49 552.44 577.17 552.44 577.17 513.53 568.01 513.53 568.01 495.47"/><polyline class="cls-12" points="150.19 280.08 113.25 280.08 113.25 269.9 92.86 269.9 92.86 279.86 64.42 279.86 64.42 293.7 16.89 293.7 16.89 283.72 0 283.72"/><polyline class="cls-12" points="149.64 363.91 135.3 363.91 113.67 363.91 113.67 372.72 92.38 372.72 92.38 363.91 65.47 363.91 65.47 351.66 16.51 351.66 16.51 364.68 0 364.68"/><polyline class="cls-12" points="1051.56 279.45 1035.06 279.45 1035.06 294.25 988.45 294.25 988.06 280.7 960.4 280.7 960.4 271 941.15 271 941.15 280.7 915.6 280.7 915.6 248.85"/><polyline class="cls-12" points="1051.56 365.7 1035.04 365.7 1035.04 351.27 988.57 351.27 988.57 364.89 899.75 364.89"/><path class="cls-13" d="M700.06,166.23v11.5S699.29,188,710.7,188h70.86"/><line class="cls-12" x1="213.79" y1="466.97" x2="223.65" y2="385.2"/><line class="cls-12" x1="180.75" y1="442.3" x2="256.52" y2="410.06"/><line class="cls-12" x1="251.65" y1="450.91" x2="185.72" y2="401.37"/><polygon class="cls-12" points="213.72 467.07 180.75 442.3 185.72 401.37 223.65 385.2 256.62 409.97 251.65 450.91 213.72 467.07"/><polygon class="cls-12" points="223.62 259.46 256.58 234.69 251.62 193.75 213.68 177.59 180.72 202.36 185.68 243.29 223.62 259.46"/><line class="cls-12" x1="223.55" y1="259.35" x2="213.68" y2="177.59"/><line class="cls-12" x1="256.59" y1="234.69" x2="180.81" y2="202.44"/><line class="cls-12" x1="185.68" y1="243.29" x2="251.62" y2="193.75"/><rect class="cls-12" x="203.31" y="92.08" width="17.52" height="44.24"/><rect class="cls-12" x="525.96" y="17.64" width="29.4" height="28.46"/><rect class="cls-12" x="496.56" y="17.64" width="29.4" height="28.46"/><rect class="cls-12" x="90.24" y="162.72" width="73.27" height="28.98"/><rect class="cls-12" x="90.24" y="191.7" width="73.27" height="28.98"/><rect class="cls-12" x="132.55" y="220.68" width="30.96" height="9.36"/><path class="cls-12" d="M308.65,259.07H328.2V228.52l-6.38-3.27c-42.34,18.65-72.56,43-84.67,70.41h71.5Z"/><polygon class="cls-12" points="424.57 163.4 424.57 31.92 406.87 31.92 406.83 15.24 296.57 15.24 296.57 31.92 278.87 31.92 278.87 122.4 244.83 122.4 244.83 135.27 336.33 135.27 336.23 163.4 424.57 163.4"/><polygon class="cls-12" points="714.62 163.4 714.62 135.41 806.87 135.49 806.87 123.23 772.15 123.23 772.15 31.92 755.47 31.92 755.47 14.9 644.75 14.9 644.75 31.92 627.13 31.92 627.13 163.4 714.62 163.4"/><polygon class="cls-12" points="336.9 481.32 423.33 481.32 423.33 611.83 405.71 611.83 405.71 630.21 296.18 630.21 296.18 600.08 278.31 600.08 278.31 522.6 240.75 522.6 240.41 510.03 336.9 510.03 336.9 481.32"/><polygon class="cls-12" points="627.3 481.32 627.3 611.83 644.91 611.83 644.91 630.21 754.45 630.21 754.45 600.08 772.32 600.08 772.32 522.6 809.57 522.6 809.57 509.52 714.34 509.52 714.34 481.32 627.3 481.32"/><line class="cls-12" x1="865.65" y1="401.34" x2="800.01" y2="451.08"/><line class="cls-12" x1="827.7" y1="385.24" x2="838.04" y2="466.94"/><line class="cls-12" x1="870.87" y1="442.14" x2="794.85" y2="410.16"/><polygon class="cls-12" points="865.71 401.23 827.7 385.24 794.85 410.16 800.01 451.07 838.02 467.06 870.87 442.14 865.71 401.23"/><path class="cls-12" d="M724.16,229.35v29.72H743.7v19.55h61.37c-13.88-18.46-36.25-35.1-65-49Z"/><path class="cls-12" d="M724.16,416.06V229.35h15.29l-9-4.06.08,0q-2.13-.93-4.29-1.85l-.2-.09h0l-1.88-.8-3.37-1.37c-1.72-.7-3.45-1.39-5.21-2.07v207c2.91-1.12,5.76-2.27,8.58-3.44q3.55-1.49,7-3c.74-.32,1.47-.65,2.19-1l2.27-1,2.77-1.31v-.11H724.46Z"/><path class="cls-12" d="M815.2,295.66c-1-2.29-2.16-4.56-3.42-6.81a92.06,92.06,0,0,0-6.71-10.23H743.7v29.3h75.63A70.19,70.19,0,0,0,815.2,295.66Z"/><polygon class="cls-12" points="724.16 259.07 724.16 288.85 724.16 307.92 724.16 314.25 724.16 322.69 724.16 348.57 724.16 369.43 724.16 377.98 724.16 381.04 724.16 385.92 743.7 385.92 743.7 381.04 743.7 377.98 743.7 369.43 743.7 348.57 743.7 322.69 743.7 314.25 743.7 307.92 743.7 288.85 743.7 259.07 724.16 259.07"/><path class="cls-12" d="M819.33,307.92H743.7v78H724.16v30.3h14.23v.11l.24-.11c.69-.32,1.38-.64,2-1,1.18-.57,2.33-1.15,3.48-1.73l1.45-.72q2.42-1.23,4.75-2.48l1.53-.84c1.05-.57,2.11-1.15,3.14-1.73l1.83-1.05c.91-.52,1.81-1,2.7-1.57l1.9-1.14,2.5-1.53,1.88-1.19,2.38-1.53,1.84-1.23,2.27-1.55,1.79-1.25,2.19-1.58,1.71-1.27,2.13-1.62,1.62-1.27c.7-.55,1.39-1.12,2.08-1.68l1.51-1.25c.71-.59,1.39-1.19,2.08-1.79l1.35-1.18c.75-.67,1.47-1.34,2.19-2l1.09-1q1.59-1.52,3.11-3.06c9.14-9.29,16.05-19.14,20.42-29.41a65.86,65.86,0,0,0,5.47-25.86v0s0-.06,0-.09A63.56,63.56,0,0,0,819.33,307.92Z"/><path class="cls-12" d="M308.65,348.57h-71.9c4.37,10.27,11.28,20.12,20.42,29.41h51.48Z"/><path class="cls-12" d="M308.65,295.66h-71.5a66.28,66.28,0,0,0-5.87,26.93v.09h77.37Z"/><path class="cls-12" d="M308.65,322.68H231.28a66,66,0,0,0,5.47,25.89h71.9Z"/><path class="cls-12" d="M328.2,385.91H308.65V378H257.17q1.51,1.54,3.12,3.06c.35.34.72.67,1.08,1,.72.68,1.45,1.35,2.19,2l1.36,1.18c.68.6,1.37,1.2,2.08,1.79.49.42,1,.83,1.51,1.25.69.56,1.38,1.13,2.08,1.68.53.43,1.08.85,1.62,1.27l2.13,1.62c.56.43,1.13.85,1.71,1.27s1.45,1.05,2.19,1.58L280,397c.75.52,1.51,1,2.28,1.55l1.84,1.23,2.38,1.53c.62.4,1.24.8,1.88,1.19l2.5,1.53,1.89,1.14c.89.53,1.8,1.05,2.7,1.57l1.84,1.05c1,.58,2.08,1.16,3.14,1.73l1.52.84c1.57.83,3.15,1.66,4.76,2.48l1.44.72c1.16.58,2.31,1.16,3.49,1.73.67.33,1.36.65,2,1l3,1.42,2.26,1,2.19,1,7-3.58Z"/><polyline class="cls-12" points="328.2 259.07 308.65 259.07 308.65 314.25 308.65 322.69 308.65 348.57 308.65 369.43 308.65 377.98 308.65 381.04 308.65 385.92 328.2 385.92 328.2 381.04 328.2 377.98 328.2 369.43 328.2 348.57 328.2 322.69 328.2 314.25"/><path class="cls-12" d="M331.56,221.14l-3.36,1.37c-2.16.9-4.28,1.82-6.38,2.74l6.38,3.27V416.06l-7,3.58c2.31,1,4.63,2,7,3,2.82,1.17,5.66,2.32,8.58,3.44v-207Q334.14,220.09,331.56,221.14Z"/><path class="cls-12" d="M421.34,182.21V166.7l-168.53-.49,43.81,56.09C330.33,204.68,373.5,190.39,421.34,182.21Z"/><path class="cls-12" d="M475.55,175.7v-9.55H445.44v12.6C455.11,177.51,465.53,176.49,475.55,175.7Z"/><path class="cls-12" d="M606,178.74V166.18H575.85l.1,9.31C582,176.19,596,177.44,606,178.74Z"/><path class="cls-12" d="M820,275.51h65.3V166.23H814.48L766,228.31C789.76,242.15,807.8,258.13,820,275.51Z"/><path class="cls-12" d="M754.93,222.19l43.59-56H630.36l-.25,15.9C678,190.36,721.23,204.48,754.93,222.19Z"/><path class="cls-12" d="M296.6,422.7l-43.88,56.2,168.36-.43v-16C373,454.22,330.39,440.44,296.6,422.7Z"/><path class="cls-12" d="M446.08,466.77v12.52h29.55v-9.47Q460.6,468.64,446.08,466.77Z"/><path class="cls-12" d="M765.84,416.92l48.58,61.92,70.81.11V369.47H819.87C807.23,386.76,790.45,402.45,765.84,416.92Z"/><path class="cls-12" d="M630.06,462.64l.13,16,168.43.28L755,422.88A427.54,427.54,0,0,1,630.06,462.64Z"/><path class="cls-12" d="M575.63,469.88v9.41h30.71V466.7Q591.26,468.65,575.63,469.88Z"/><path class="cls-12" d="M231.47,275.55c.1-.14,21.79-31,53.91-47.32l-48.42-62-70.73.09V275.52Z"/><path class="cls-12" d="M231.38,369.44H166.23V478.9H237.1l48.45-62.14C261.28,402.62,243.55,387.26,231.38,369.44Z"/><rect class="cls-12" x="167.85" y="311.44" width="47.83" height="22.04"/><rect class="cls-12" x="835.51" y="311.32" width="48" height="22.21"/><path class="cls-12" d="M526.18,438.33c-73.23,0-139.82-11.83-189.4-31.15V426.1c51.24,19.69,117.29,31.55,189.4,31.55s138.26-11.88,189.52-31.59V407.13C666.1,426.48,599.46,438.33,526.18,438.33Z"/><path class="cls-12" d="M526.18,207c73.28,0,139.92,11.85,189.52,31.2V219.12c-51.26-19.71-117.36-31.59-189.52-31.59S388,199.39,336.78,219.07v19.12C386.36,218.87,453,207,526.18,207Z"/><path class="cls-12" d="M336.78,238.19v169c49.58,19.32,116.17,31.15,189.4,31.15s139.92-11.85,189.52-31.2V238.24C666.1,218.89,599.46,207,526.18,207S386.36,218.87,336.78,238.19Z"/><rect class="cls-12" x="240.41" y="481.32" width="96.49" height="28.71"/><rect class="cls-12" x="122.28" y="405.72" width="41.52" height="17.28"/><rect class="cls-12" x="191.48" y="480.98" width="38.28" height="28.54"/><polygon class="cls-12" points="163.8 423 134.43 423 134.43 509.52 191.48 509.52 191.48 480.98 163.8 480.98 163.8 423"/><rect class="cls-12" x="423.33" y="496.3" width="11.91" height="7.94"/><rect class="cls-12" x="616.2" y="496.3" width="11.1" height="7.94"/><rect class="cls-12" x="445.2" y="494.25" width="38.74" height="9.99"/><rect class="cls-12" x="568.01" y="494.25" width="38.04" height="9.99"/><polygon class="cls-12" points="821.88 135.48 916.28 135.48 916.44 169.61 887.98 170.04 887.98 163.8 821.88 163.8 821.88 135.48"/><line class="cls-12" x1="859.77" y1="135.48" x2="859.77" y2="163.8"/><rect class="cls-12" x="714.62" y="135.45" width="94.72" height="27.95"/><rect class="cls-12" x="887.98" y="184.93" width="27.83" height="35.94"/><rect class="cls-12" x="915.81" y="189.98" width="20.68" height="30.89"/><rect class="cls-12" x="887.98" y="220.87" width="40.85" height="27.98"/><rect class="cls-12" x="241.09" y="135.27" width="66.81" height="28.13"/><rect class="cls-12" x="307.89" y="135.27" width="28.37" height="28.13"/><rect class="cls-12" x="135.84" y="252.24" width="13.8" height="27.84"/><rect class="cls-12" x="135.84" y="363.92" width="13.8" height="28.84"/><rect class="cls-12" x="445.2" y="140.64" width="38.74" height="9.86"/><rect class="cls-12" x="424.69" y="140.64" width="12.2" height="9.25"/><rect class="cls-12" x="567.47" y="140.64" width="38.5" height="9.86"/><rect class="cls-12" x="616.08" y="140.64" width="11.05" height="9.86"/><rect class="cls-12" x="714.34" y="481.32" width="95.23" height="28.2"/><rect class="cls-12" x="822.11" y="481.32" width="94.09" height="28.2"/><rect class="cls-12" x="887.76" y="423.24" width="28.44" height="58.08"/><rect class="cls-12" x="887.38" y="403.8" width="31.58" height="19.44"/><rect class="cls-12" x="900.12" y="364.92" width="15.48" height="27.72"/><line class="cls-12" x1="366.45" y1="416.88" x2="366.45" y2="436.13"/><line class="cls-12" x1="395.13" y1="424.72" x2="395.13" y2="443.49"/><line class="cls-12" x1="424.23" y1="430.28" x2="424.23" y2="449.02"/><line class="cls-12" x1="453.17" y1="434.28" x2="453.17" y2="453.27"/><line class="cls-12" x1="482.53" y1="436.54" x2="482.53" y2="456.29"/><line class="cls-12" x1="510.96" y1="438.17" x2="510.96" y2="456.98"/><line class="cls-12" x1="540.32" y1="438.17" x2="540.32" y2="457.9"/><line class="cls-12" x1="569.34" y1="436.94" x2="569.34" y2="456.21"/><line class="cls-12" x1="598.36" y1="434.37" x2="598.36" y2="453.95"/><line class="cls-12" x1="627.38" y1="430.47" x2="627.38" y2="449.78"/><line class="cls-12" x1="656.32" y1="424.84" x2="656.32" y2="443.63"/><line class="cls-12" x1="685.26" y1="417.63" x2="685.26" y2="436.38"/><line class="cls-12" x1="366.45" y1="228.13" x2="366.45" y2="209.04"/><line class="cls-12" x1="395.13" y1="220.68" x2="395.13" y2="201.68"/><line class="cls-12" x1="424.23" y1="215.1" x2="424.23" y2="195.9"/><line class="cls-12" x1="453.17" y1="211.09" x2="453.17" y2="191.75"/><line class="cls-12" x1="482.53" y1="208.46" x2="482.53" y2="188.99"/><line class="cls-12" x1="510.96" y1="207.21" x2="510.96" y2="187.46"/><line class="cls-12" x1="540.32" y1="207.19" x2="540.32" y2="187.68"/><line class="cls-12" x1="569.34" y1="208.43" x2="569.34" y2="188.83"/><line class="cls-12" x1="598.36" y1="211" x2="598.36" y2="191.38"/><line class="cls-12" x1="627.38" y1="215.01" x2="627.38" y2="195.33"/><line class="cls-12" x1="656.32" y1="220.53" x2="656.32" y2="200.81"/><line class="cls-12" x1="685.26" y1="227.98" x2="685.26" y2="209.06"/><line class="cls-12" x1="1035.42" y1="189.98" x2="915.81" y2="189.98"/><line class="cls-12" x1="1035.72" y1="163.08" x2="916.41" y2="163.08"/><line class="cls-14" x1="1035.24" y1="163.45" x2="1035.24" y2="190.34"/><line class="cls-13" x1="773.41" y1="166.23" x2="773.41" y2="187.82"/><line class="cls-13" x1="744.46" y1="166.23" x2="744.46" y2="187.82"/><path class="cls-13" d="M700.06,478.68v-11.5s-.77-10.27,10.64-10.27h70.86"/><line class="cls-13" x1="773.41" y1="478.68" x2="773.41" y2="457.09"/><line class="cls-13" x1="744.46" y1="478.68" x2="744.46" y2="457.09"/><line class="cls-13" x1="773.41" y1="135.45" x2="773.41" y2="163.4"/><line class="cls-13" x1="744.46" y1="135.45" x2="744.46" y2="163.4"/><line class="cls-13" x1="773.41" y1="481.32" x2="773.41" y2="509.1"/><line class="cls-13" x1="744.46" y1="481.32" x2="744.46" y2="509.1"/><line class="cls-12" x1="743.7" y1="262.17" x2="743.7" y2="231.05"/><line class="cls-12" x1="743.7" y1="413.32" x2="743.7" y2="382.21"/><polygon class="cls-15" points="278.87 122.4 251.86 122.4 251.86 94.7 264.46 94.7 264.46 87.74 270.7 87.74 270.7 94.7 278.87 94.7 278.87 122.4"/><polygon class="cls-15" points="451.58 122.4 424.56 122.4 424.56 94.69 433.51 94.7 433.51 87.14 440.03 87.14 440.03 94.7 451.58 94.7 451.58 122.4"/><polygon class="cls-15" points="627.05 122.73 600.04 122.73 600.04 94.7 612.82 94.7 612.82 87.47 619.81 87.47 619.81 94.7 627.05 94.7 627.05 122.73"/><polygon class="cls-15" points="800.55 121.87 773.53 121.87 773.53 94.47 781.67 94.47 781.78 87.14 788.2 87.14 788.2 94.36 800.55 94.47 800.55 121.87"/><polyline class="cls-12" points="915.6 392.64 929.86 392.64 929.86 423.24 918.96 423.24"/><polyline class="cls-12" points="497.34 628.1 497.34 580.68 484.54 580.68 484.54 552.85 475.63 552.85 475.63 512.9 483.94 512.9 483.94 495.1"/><line class="cls-12" x1="483.81" y1="628.1" x2="483.81" y2="645"/><line class="cls-12" x1="497.72" y1="628.1" x2="483.43" y2="628.1"/><line class="cls-12" x1="423.3" y1="504.24" x2="483.94" y2="504.24"/><line class="cls-12" x1="568.01" y1="504.24" x2="627.3" y2="504.24"/><line class="cls-12" x1="568.01" y1="507.66" x2="627.3" y2="507.66"/><line class="cls-12" x1="822.11" y1="509.52" x2="809.7" y2="509.52"/><line class="cls-12" x1="240.41" y1="509.52" x2="229.77" y2="509.52"/><polygon class="cls-12" points="122.28 423.11 95.18 423.11 95.18 415.42 88.66 415.42 88.66 408.26 95.18 408.26 95.18 395.9 122.28 395.9 122.28 423.11"/><polyline class="cls-12" points="122.85 220.88 122.85 249.21 135.84 249.21 135.84 254.44"/><rect class="cls-15" x="52.3" y="85.34" width="27.72" height="19.8"/><polygon class="cls-12" points="122.85 249.21 94.99 249.21 95.04 235.91 89.02 235.91 89.02 228.86 95.04 228.86 94.99 220.68 122.85 220.68 122.85 249.21"/><line class="cls-12" x1="809.13" y1="135.48" x2="821.88" y2="135.48"/><polygon class="cls-12" points="956.83 235.82 956.83 249.87 928.83 249.87 928.83 220.87 956.83 220.87 956.83 229.35 964.18 229.35 964.18 235.82 956.83 235.82"/><rect class="cls-12" x="53.14" y="539.54" width="27.12" height="19.44"/><rect class="cls-12" x="772.32" y="522.6" width="28.23" height="33.95"/><polygon class="cls-12" points="619.54 549.75 619.54 556.7 612.83 556.7 612.83 549.75 600.04 549.75 600.04 522.21 627.3 522.21 627.3 549.75 619.54 549.75"/><polygon class="cls-12" points="440.02 549.96 440.02 556.7 433.77 556.7 433.6 549.96 423.33 549.96 423.33 522.38 452.74 522.38 452.74 549.96 440.02 549.96"/><rect class="cls-12" x="118.74" y="78.12" width="17.44" height="58.2"/><line class="cls-12" x1="156.57" y1="78.12" x2="156.57" y2="136.32"/><line class="cls-12" x1="147.81" y1="86.52" x2="156.57" y2="86.52"/><line class="cls-12" x1="147.81" y1="94.64" x2="156.57" y2="94.64"/><line class="cls-12" x1="147.81" y1="103.08" x2="156.57" y2="103.08"/><line class="cls-12" x1="156.19" y1="103.08" x2="164.95" y2="103.08"/><line class="cls-12" x1="156.57" y1="90.72" x2="164.95" y2="90.72"/><line class="cls-12" x1="147.81" y1="111.48" x2="164.95" y2="111.48"/><line class="cls-12" x1="147.81" y1="119.49" x2="164.95" y2="119.49"/><line class="cls-12" x1="147.81" y1="127.87" x2="164.95" y2="127.87"/><rect class="cls-12" x="147.51" y="78.12" width="17.44" height="58.2"/><line class="cls-12" x1="185.51" y1="78.12" x2="185.51" y2="136.32"/><line class="cls-12" x1="176.74" y1="86.52" x2="185.51" y2="86.52"/><line class="cls-12" x1="176.74" y1="94.64" x2="185.51" y2="94.64"/><line class="cls-12" x1="176.74" y1="103.08" x2="185.51" y2="103.08"/><line class="cls-12" x1="185.13" y1="103.08" x2="193.89" y2="103.08"/><line class="cls-12" x1="185.51" y1="90.72" x2="193.89" y2="90.72"/><line class="cls-12" x1="176.74" y1="111.48" x2="193.89" y2="111.48"/><line class="cls-12" x1="176.74" y1="119.49" x2="193.89" y2="119.49"/><line class="cls-12" x1="176.74" y1="127.87" x2="193.89" y2="127.87"/><rect class="cls-12" x="176.45" y="78.12" width="17.44" height="58.2"/><rect class="cls-12" x="91.47" y="151.91" width="73.49" height="10.81"/><rect class="cls-12" x="84.47" y="134.98" width="15.66" height="9.7"/><line class="cls-12" x1="92.81" y1="134.98" x2="92.81" y2="144.68"/><line class="cls-12" x1="99.3" y1="151.76" x2="99.3" y2="162.72"/><line class="cls-12" x1="106.74" y1="151.76" x2="106.74" y2="162.72"/><line class="cls-12" x1="121.23" y1="151.76" x2="121.23" y2="162.72"/><line class="cls-12" x1="113.96" y1="151.76" x2="113.96" y2="162.72"/><line class="cls-12" x1="128.57" y1="151.76" x2="128.57" y2="162.72"/><line class="cls-12" x1="135.79" y1="151.76" x2="135.79" y2="162.72"/><line class="cls-12" x1="142.88" y1="151.76" x2="142.88" y2="162.72"/><line class="cls-12" x1="150.28" y1="151.76" x2="150.28" y2="162.72"/><line class="cls-12" x1="157.68" y1="151.76" x2="157.68" y2="162.72"/></g><g id="Text"><text class="cls-16" transform="translate(503.36 596.21)">ประตู 1</text><text class="cls-16" transform="translate(951 329.1)">ประตู 4</text><text class="cls-16" transform="translate(55.99 324.08)">ประตู 2</text></g><g id="Number"><text class="cls-17" transform="translate(427.16 148.04)">94</text><text class="cls-17" transform="translate(227.81 195.34)">1</text><text class="cls-17" transform="translate(245.16 219.04)">2</text><text class="cls-17" transform="translate(232.48 244.99)">3</text><text class="cls-17" transform="translate(203.51 246.53)">4</text><text class="cls-17" transform="translate(188.65 226.33)">5</text><text class="cls-17" transform="translate(199.56 199.9)">6</text><text class="cls-17" transform="translate(232.69 407.3)">7</text><text class="cls-17" transform="translate(244.89 433.3)">8</text><text class="cls-17" transform="translate(227 456.02)">9</text><text class="cls-17" transform="translate(195.99 450.41)">10</text><text class="cls-17" transform="translate(186.39 425.79)">11</text><text class="cls-17" transform="translate(202.17 404.59)">12</text><text class="cls-17" transform="translate(838.6 403.59)">13</text><text class="cls-17" transform="translate(856.65 426.55)">14</text><text class="cls-17" transform="translate(844.53 452.96)">15</text><text class="cls-17" transform="translate(815.57 454.69)">16</text><text class="cls-17" transform="translate(800.52 433.58)">17</text><text class="cls-17" transform="translate(810.41 407.3)">18</text><text class="cls-17" transform="translate(838.6 222.49)">19</text><text class="cls-17" transform="translate(719.82 179.38)">57</text><text class="cls-17" transform="translate(754.87 179.38)">58</text><text class="cls-17" transform="translate(776.23 179.38)">59</text><text class="cls-17" transform="translate(694.71 85.72)">66</text><text class="cls-17" transform="translate(351.56 85.72)">65</text><text class="cls-17" transform="translate(694.71 572.46)">63</text><text class="cls-17" transform="translate(863.18 498.65)">75</text><text class="cls-17" transform="translate(897.61 455.91)">74</text><text class="cls-17" transform="translate(351.56 572.46)">64</text><text class="cls-17" transform="translate(718.99 470.66)">60</text><text class="cls-17" transform="translate(754.2 470.66)">61</text><text class="cls-17" transform="translate(776.92 470.66)">62</text><text class="cls-17" transform="translate(722.99 499.28)">60/1</text><text class="cls-17" transform="translate(752.2 499.28)">61/1</text><text class="cls-17" transform="translate(784.56 499.28)">62/1</text><text class="cls-17" transform="translate(763.96 268.22)">20</text><text class="cls-17" transform="translate(763.96 294.11)">21</text><text class="cls-17" transform="translate(763.96 345.88)">22</text><text class="cls-17" transform="translate(729.93 402.95)">23</text><text class="cls-17" transform="translate(729.93 247.53)">24</text><text class="cls-17" transform="translate(279.57 281.12)">25</text><text class="cls-17" transform="translate(279.57 312.3)">26</text><text class="cls-17" transform="translate(279.57 338.59)">27</text><text class="cls-17" transform="translate(279.57 366.42)">28</text><text class="cls-17" transform="translate(279.57 388.91)">29</text><text class="cls-17" transform="translate(347.12 227.61)">30</text><text class="cls-17" transform="translate(522.86 199.56)">36</text><text class="cls-17" transform="translate(552.05 200.56)">37</text><text class="cls-17" transform="translate(580.69 202.56)">38</text><text class="cls-17" transform="translate(609.75 206.67)">39</text><text class="cls-17" transform="translate(638.5 211.67)">40</text><text class="cls-17" transform="translate(667.61 218.04)">41</text><text class="cls-17" transform="translate(696.16 227.61)">42 </text><text class="cls-17" transform="translate(696.71 425.76)">56</text><text class="cls-17" transform="translate(608.75 446.02)">53</text><text class="cls-17" transform="translate(638.5 440.1)">54</text><text class="cls-17" transform="translate(666.39 433.58)">55</text><text class="cls-17" transform="translate(522.07 451.23)">50</text><text class="cls-17" transform="translate(491.99 450.23)">48</text><text class="cls-17" transform="translate(464.67 448.23)">47</text><text class="cls-17" transform="translate(435.31 445.02)">46</text><text class="cls-17" transform="translate(406.5 440.27)">45</text><text class="cls-17" transform="translate(377.82 434.58)">44</text><text class="cls-17" transform="translate(348.13 425.71)">43</text><text class="cls-17" transform="translate(551.61 451.23)">51</text><text class="cls-17" transform="translate(580.29 448.39)">52</text><text class="cls-17" transform="translate(493.8 199.99)">35</text><text class="cls-17" transform="translate(464.05 202.24)">34</text><text class="cls-17" transform="translate(435.41 206.88)">33</text><text class="cls-17" transform="translate(406.01 211.94)">32</text><text class="cls-17" transform="translate(377.07 218.01)">31</text><text class="cls-17" transform="translate(722.32 152.83)">57/1</text><text class="cls-17" transform="translate(617.08 148.44)">99</text><text class="cls-17" transform="translate(583.07 148.44)">98</text><text class="cls-17" transform="translate(535.95 35.71)">97</text><text class="cls-17" transform="translate(506.67 35.71)">96</text><text class="cls-17" transform="translate(460.53 148.03)">95</text><text class="cls-17" transform="translate(317.98 152.66)">93</text><text class="cls-17" transform="translate(268.66 152.66)">92</text><text class="cls-17" transform="translate(207.61 116.76)">91</text><text class="cls-17" transform="translate(194.85 156.07)">152</text><text class="cls-17" transform="translate(109.51 39.06)">100</text><text class="cls-18" transform="translate(121.08 83.43)">101</text><text class="cls-18" transform="translate(121.08 91.59)">102</text><text class="cls-18" transform="translate(121.07 100.08)">103</text><text class="cls-18" transform="translate(121.12 108.08)">104</text><text class="cls-18" transform="translate(121.06 116.52)">105</text><text class="cls-18" transform="translate(121.07 124.78)">106</text><text class="cls-18" transform="translate(121.07 133)">107</text><text class="cls-18" transform="translate(129.7 133)">108</text><text class="cls-18" transform="translate(129.7 124.78)">109</text><text class="cls-18" transform="translate(129.82 116.52)">110</text><text class="cls-18" transform="translate(129.98 108.08)">111</text><text class="cls-18" transform="translate(129.82 98.36)">112</text><text class="cls-18" transform="translate(149.94 108.08)">117</text><text class="cls-18" transform="translate(149.78 133)">120</text><text class="cls-18" transform="translate(149.89 116.52)">118</text><text class="cls-18" transform="translate(158.34 133)">121</text><text class="cls-18" transform="translate(158.34 124.78)">122</text><text class="cls-18" transform="translate(158.33 116.52)">123</text><text class="cls-18" transform="translate(158.38 108.08)">124</text><text class="cls-18" transform="translate(158.33 98.36)">125</text><text class="cls-18" transform="translate(158.33 85.83)">126</text><text class="cls-18" transform="translate(178.7 83.82)">127</text><text class="cls-18" transform="translate(178.69 91.04)">128</text><text class="cls-18" transform="translate(178.69 99.77)">129</text><text class="cls-18" transform="translate(187.23 116.52)">136</text><text class="cls-18" transform="translate(187.22 124.78)">135</text><text class="cls-18" transform="translate(187.23 133)">134</text><text class="cls-18" transform="translate(94.2 140.85)">141</text><text class="cls-18" transform="translate(86.28 140.85)">140</text><text class="cls-18" transform="translate(100.71 159.08)">143</text><text class="cls-18" transform="translate(93.07 159.08)">142</text><text class="cls-18" transform="translate(115.16 159.08)">145</text><text class="cls-18" transform="translate(108.16 159.08)">144</text><text class="cls-18" transform="translate(129.93 159.08)">147</text><text class="cls-18" transform="translate(122.65 159.08)">146</text><text class="cls-18" transform="translate(144.25 159.08)">149</text><text class="cls-18" transform="translate(136.93 159.08)">148</text><text class="cls-18" transform="translate(159.04 159.08)">151</text><text class="cls-18" transform="translate(151.69 159.08)">150</text><text class="cls-18" transform="translate(178.75 108.08)">130</text><text class="cls-18" transform="translate(178.7 124.78)">132</text><text class="cls-18" transform="translate(178.7 116.52)">131</text><text class="cls-18" transform="translate(178.7 133)">133</text><text class="cls-18" transform="translate(187.23 85.83)">139</text><text class="cls-18" transform="translate(187.22 98.36)">138</text><text class="cls-18" transform="translate(187.27 108.08)">137</text><text class="cls-18" transform="translate(129.82 85.83)">113</text><text class="cls-18" transform="translate(149.89 83.32)">114</text><text class="cls-18" transform="translate(149.88 91.98)">115</text><text class="cls-18" transform="translate(149.89 99.77)">116</text><text class="cls-17" transform="translate(121.06 180.38)">88</text><text class="cls-17" transform="translate(121.07 210.22)">87</text><text class="cls-17" transform="translate(143.38 228.13)">86</text><text class="cls-17" transform="translate(138.38 269.9)">85</text><text class="cls-17" transform="translate(138.38 382.06)">84</text><text class="cls-17" transform="translate(138.38 417.43)">83</text><text class="cls-17" transform="translate(142.38 473.95)">82</text><text class="cls-17" transform="translate(286.38 498.85)">80</text><text class="cls-17" transform="translate(207.61 498.85)">81</text><text class="cls-17" transform="translate(460.96 502.77)">78</text><text class="cls-17" transform="translate(583.62 502.77)">77</text><text class="cls-17" transform="translate(615.59 502.77)">76</text><text class="cls-17" transform="translate(425.52 502.77)">79</text><text class="cls-17" transform="translate(751.36 152.83)">58/1</text><text class="cls-17" transform="translate(784.39 152.83)">59/1</text><text class="cls-17" transform="translate(836.36 152.83)">67</text><text class="cls-17" transform="translate(883.87 152.83)">68</text><text class="cls-17" transform="translate(898.61 205.24)">69</text><text class="cls-17" transform="translate(922.73 208.04)">70</text><text class="cls-17" transform="translate(904.76 238.16)">71</text><text class="cls-17" transform="translate(903.17 382.06)">72</text><text class="cls-17" transform="translate(899.61 416.63)">73</text><text class="cls-18" transform="translate(149.89 124.78)">119</text><text class="cls-19" transform="translate(408.5 332.32)">อาคาร B ชั้นที่ 1</text></g><g id="Symbol"><polygon points="524.75 628.1 515.08 628.1 519.91 619.73 524.75 611.37 529.58 619.73 534.41 628.1 524.75 628.1"/><polygon points="19.26 321.26 19.26 330.93 27.63 326.09 35.99 321.26 27.63 316.43 19.26 311.6 19.26 321.26"/><polygon points="1034.53 326.98 1034.53 336.64 1026.16 331.81 1017.8 326.98 1026.16 322.15 1034.53 317.32 1034.53 326.98"/><path class="cls-2" d="M262.56,104.69H260a1.13,1.13,0,0,0-1.12,1.11v3.46a.46.46,0,0,0,.46.48h0a.47.47,0,0,0,.47-.47l0-3.46h0a.09.09,0,0,1,.09-.09.09.09,0,0,1,.09.1v7.92a.58.58,0,0,0,.57.57.57.57,0,0,0,.56-.57v-4.52h.25v4.52a.57.57,0,1,0,1.13,0c0-7.48,0-3.2,0-7.92a.11.11,0,0,1,.09-.1.11.11,0,0,1,.11.09h0v3.47a.47.47,0,0,0,.47.47h0a.47.47,0,0,0,.47-.47V105.8h0A1.12,1.12,0,0,0,262.56,104.69Z"/><circle class="cls-2" cx="261.3" cy="103.4" r="0.98"/><path class="cls-2" d="M271.68,108.53s-.87-2.47-1-2.86c-.22-.63-.58-1-1.08-1H268c-.51,0-.87.32-1.09,1-.13.39-1,2.84-1,2.86a.47.47,0,1,0,.89.31c0-.08.54-1.51.83-2.33,0,.24,0-.27-.67,3.48a.26.26,0,0,0,.25.31h.36v3.39a.56.56,0,1,0,1.12,0V110.3h.25v3.39a.56.56,0,0,0,1.12,0V110.3h.36a.26.26,0,0,0,.25-.31c-.72-3.72-.64-3.28-.66-3.48.29.83.79,2.25.81,2.33a.47.47,0,1,0,.89-.31Z"/><circle class="cls-2" cx="268.78" cy="103.44" r="0.97"/><path class="cls-2" d="M264.89,103.06a.36.36,0,0,0-.36.36v9.89a.36.36,0,0,0,.72,0v-9.89A.36.36,0,0,0,264.89,103.06Z"/><path class="cls-2" d="M63.42,91.35H60.89a1.13,1.13,0,0,0-1.12,1.11v3.46a.46.46,0,0,0,.46.48h0a.47.47,0,0,0,.47-.47l0-3.46h0a.09.09,0,0,1,.09-.09.09.09,0,0,1,.09.1v7.92a.58.58,0,0,0,.57.57.57.57,0,0,0,.56-.57V95.87h.25v4.52a.57.57,0,1,0,1.13,0c0-7.48,0-3.2,0-7.92a.11.11,0,0,1,.09-.1.11.11,0,0,1,.11.09h0v3.47a.47.47,0,0,0,.47.47h0a.47.47,0,0,0,.47-.47V92.46h0A1.12,1.12,0,0,0,63.42,91.35Z"/><circle class="cls-2" cx="62.16" cy="90.06" r="0.98"/><path class="cls-2" d="M72.54,95.19s-.87-2.47-1-2.86c-.22-.63-.58-1-1.08-1H68.83c-.51,0-.87.32-1.09,1-.13.39-1,2.84-1,2.86a.47.47,0,1,0,.89.31c0-.08.54-1.51.83-2.33,0,.24.05-.27-.67,3.48A.26.26,0,0,0,68,97h.36v3.39a.56.56,0,1,0,1.12,0V97h.25v3.39a.56.56,0,0,0,1.12,0V97h.36a.26.26,0,0,0,.25-.31c-.72-3.72-.64-3.28-.66-3.48.29.83.79,2.25.81,2.33a.47.47,0,1,0,.89-.31Z"/><circle class="cls-2" cx="69.64" cy="90.1" r="0.97"/><path class="cls-2" d="M65.75,89.71a.37.37,0,0,0-.36.37V100a.36.36,0,1,0,.72,0V90.08A.37.37,0,0,0,65.75,89.71Z"/><path class="cls-2" d="M106.22,231.24h-2.54a1.11,1.11,0,0,0-1.11,1.11l0,3.47a.47.47,0,0,0,.47.47h0a.47.47,0,0,0,.47-.47l0-3.46h0a.09.09,0,0,1,.09-.1.1.1,0,0,1,.1.1v7.92a.57.57,0,1,0,1.13,0v-4.52h.24v4.52a.58.58,0,0,0,.57.57.57.57,0,0,0,.56-.57c0-7.48,0-3.2,0-7.92a.1.1,0,0,1,.1-.09.09.09,0,0,1,.1.09h0v3.46a.47.47,0,0,0,.47.47h0a.47.47,0,0,0,.47-.47v-3.46h0A1.11,1.11,0,0,0,106.22,231.24Z"/><circle class="cls-2" cx="104.95" cy="229.95" r="0.98"/><path class="cls-2" d="M115.33,235.08s-.86-2.47-1-2.86c-.22-.63-.58-.95-1.08-.95h-1.63c-.5,0-.87.32-1.08.95-.14.39-1,2.84-1,2.86a.47.47,0,1,0,.88.31l.83-2.33c0,.24.06-.27-.67,3.48a.27.27,0,0,0,.26.31h.35v3.39a.57.57,0,0,0,.57.56.56.56,0,0,0,.56-.56v-3.39h.24v3.39a.56.56,0,0,0,1.12,0v-3.39H114a.27.27,0,0,0,.26-.31c-.72-3.71-.64-3.28-.67-3.48.29.83.79,2.26.82,2.33a.46.46,0,0,0,.6.29A.47.47,0,0,0,115.33,235.08Z"/><circle class="cls-2" cx="112.44" cy="229.99" r="0.97"/><path class="cls-2" d="M108.55,229.61a.36.36,0,0,0-.36.36v9.89a.36.36,0,0,0,.72,0V230A.36.36,0,0,0,108.55,229.61Z"/><path class="cls-2" d="M106.08,405.46h-2.53a1.13,1.13,0,0,0-1.12,1.11V410a.46.46,0,0,0,.46.48h0a.47.47,0,0,0,.47-.47l0-3.46h0a.09.09,0,1,1,.18,0v7.92a.58.58,0,0,0,.57.57.57.57,0,0,0,.56-.57V410h.25v4.52a.57.57,0,1,0,1.13,0c0-7.48,0-3.2,0-7.92a.11.11,0,0,1,.09-.1.11.11,0,0,1,.11.1h0V410a.47.47,0,0,0,.47.47h0a.47.47,0,0,0,.47-.47v-3.47h0A1.12,1.12,0,0,0,106.08,405.46Z"/><circle class="cls-2" cx="104.82" cy="404.17" r="0.98"/><path class="cls-2" d="M115.2,409.3s-.87-2.47-1-2.86c-.22-.63-.58-.95-1.08-.95h-1.63c-.51,0-.87.32-1.09.95-.13.39-1,2.84-1,2.86a.47.47,0,1,0,.89.31c0-.08.54-1.51.83-2.33,0,.24,0-.27-.67,3.48a.26.26,0,0,0,.25.31h.36v3.39a.56.56,0,1,0,1.12,0v-3.39h.25v3.39a.56.56,0,0,0,1.12,0v-3.39h.36a.26.26,0,0,0,.25-.31c-.72-3.71-.64-3.28-.66-3.48.29.83.79,2.25.81,2.33a.47.47,0,0,0,.89-.31Z"/><circle class="cls-2" cx="112.3" cy="404.21" r="0.97"/><path class="cls-2" d="M108.41,403.83a.36.36,0,0,0-.36.36v9.89a.36.36,0,0,0,.72,0v-9.89A.36.36,0,0,0,108.41,403.83Z"/><path class="cls-2" d="M63.84,545.59H61.3a1.11,1.11,0,0,0-1.11,1.11l0,3.46a.48.48,0,0,0,.47.48h0a.47.47,0,0,0,.47-.47l0-3.47h0a.09.09,0,0,1,.09-.09.1.1,0,0,1,.1.09v7.93a.56.56,0,0,0,.56.56.57.57,0,0,0,.57-.56v-4.52h.24v4.52a.57.57,0,0,0,.57.56.56.56,0,0,0,.56-.56c0-7.48,0-3.2,0-7.92a.12.12,0,0,1,.1-.1.1.1,0,0,1,.1.09h0v3.47a.47.47,0,0,0,.47.47h0a.47.47,0,0,0,.47-.47V546.7h0A1.11,1.11,0,0,0,63.84,545.59Z"/><circle class="cls-2" cx="62.57" cy="544.3" r="0.98"/><path class="cls-2" d="M73,549.43s-.86-2.47-1-2.86c-.22-.63-.58-1-1.08-1H69.24c-.5,0-.87.32-1.08,1-.14.39-1,2.84-1,2.86a.47.47,0,0,0,.28.6.48.48,0,0,0,.6-.29c0-.08.54-1.51.83-2.34,0,.25.06-.26-.67,3.49a.26.26,0,0,0,.26.31h.35v3.39a.57.57,0,0,0,.57.56.56.56,0,0,0,.56-.56V551.2h.24v3.39a.56.56,0,0,0,1.12,0V551.2h.36a.25.25,0,0,0,.25-.31c-.71-3.72-.63-3.28-.66-3.49.29.84.79,2.26.82,2.34a.47.47,0,1,0,.88-.31Z"/><circle class="cls-2" cx="70.06" cy="544.34" r="0.97"/><path class="cls-2" d="M66.17,544a.37.37,0,0,0-.36.37v9.88a.36.36,0,1,0,.72,0v-9.88A.37.37,0,0,0,66.17,544Z"/><path class="cls-2" d="M435.78,104.69h-2.54a1.11,1.11,0,0,0-1.11,1.11l0,3.46a.48.48,0,0,0,.47.48h0a.47.47,0,0,0,.47-.47l0-3.46h0a.09.09,0,0,1,.09-.09.09.09,0,0,1,.1.1v7.92a.57.57,0,1,0,1.13,0v-4.52h.24v4.52a.58.58,0,0,0,.57.57.57.57,0,0,0,.56-.57c0-7.48,0-3.2,0-7.92a.12.12,0,0,1,.1-.1.1.1,0,0,1,.1.09h0v3.47a.47.47,0,0,0,.47.47h0a.47.47,0,0,0,.47-.47V105.8h0A1.11,1.11,0,0,0,435.78,104.69Z"/><circle class="cls-2" cx="434.51" cy="103.4" r="0.98"/><path class="cls-2" d="M444.89,108.53s-.86-2.47-1-2.86c-.22-.63-.58-1-1.08-1h-1.63c-.5,0-.87.32-1.08,1-.14.39-1,2.84-1,2.86a.47.47,0,0,0,.28.6.47.47,0,0,0,.6-.29l.83-2.33c0,.24.06-.27-.67,3.48a.27.27,0,0,0,.26.31h.35v3.39a.57.57,0,0,0,.57.56.56.56,0,0,0,.56-.56V110.3h.24v3.39a.56.56,0,0,0,1.12,0V110.3h.36a.27.27,0,0,0,.26-.31c-.72-3.72-.64-3.28-.67-3.48l.82,2.33a.47.47,0,1,0,.88-.31Z"/><circle class="cls-2" cx="442" cy="103.44" r="0.97"/><path class="cls-2" d="M438.11,103.06a.36.36,0,0,0-.36.36v9.89a.36.36,0,1,0,.72,0v-9.89A.36.36,0,0,0,438.11,103.06Z"/><path class="cls-2" d="M610.86,104.69h-2.54a1.11,1.11,0,0,0-1.11,1.11l0,3.46a.48.48,0,0,0,.47.48h0a.47.47,0,0,0,.47-.47l0-3.46h0a.1.1,0,0,1,.19,0v7.92a.57.57,0,1,0,1.13,0v-4.52h.24v4.52a.57.57,0,1,0,1.14,0c0-7.48,0-3.2,0-7.92a.11.11,0,0,1,.09-.1.1.1,0,0,1,.1.09h0v3.47a.47.47,0,0,0,.47.47h0a.47.47,0,0,0,.47-.47V105.8h0A1.13,1.13,0,0,0,610.86,104.69Z"/><circle class="cls-2" cx="609.59" cy="103.4" r="0.98"/><path class="cls-2" d="M620,108.53s-.86-2.47-1-2.86c-.21-.63-.58-1-1.08-1h-1.63c-.5,0-.86.32-1.08,1-.14.39-1,2.84-1,2.86a.47.47,0,1,0,.88.31l.83-2.33c0,.24.06-.27-.67,3.48a.27.27,0,0,0,.26.31h.36v3.39a.56.56,0,1,0,1.12,0V110.3h.24v3.39a.56.56,0,1,0,1.12,0V110.3h.36a.27.27,0,0,0,.26-.31c-.72-3.72-.64-3.28-.67-3.48l.82,2.33a.47.47,0,0,0,.6.29A.47.47,0,0,0,620,108.53Z"/><circle class="cls-2" cx="617.08" cy="103.44" r="0.97"/><path class="cls-2" d="M613.19,103.06a.36.36,0,0,0-.36.36v9.89a.36.36,0,1,0,.72,0v-9.89A.36.36,0,0,0,613.19,103.06Z"/><path class="cls-2" d="M783.91,104.69h-2.53a1.12,1.12,0,0,0-1.12,1.11l0,3.46a.48.48,0,0,0,.47.48h0a.48.48,0,0,0,.48-.47v-3.46h0a.1.1,0,0,1,.1-.09.09.09,0,0,1,.09.1v7.92a.57.57,0,1,0,1.13,0v-4.52h.25v4.52a.57.57,0,0,0,.56.57.58.58,0,0,0,.57-.57c0-7.48,0-3.2,0-7.92a.11.11,0,0,1,.09-.1.09.09,0,0,1,.1.09h0v3.47a.47.47,0,0,0,.47.47h0a.47.47,0,0,0,.47-.47V105.8h0A1.13,1.13,0,0,0,783.91,104.69Z"/><circle class="cls-2" cx="782.64" cy="103.4" r="0.98"/><path class="cls-2" d="M793,108.53l-1-2.86c-.21-.63-.58-1-1.08-1h-1.63c-.5,0-.86.32-1.08,1-.13.39-1,2.84-1,2.86a.47.47,0,1,0,.88.31c0-.08.55-1.51.83-2.33,0,.24.06-.27-.66,3.48a.25.25,0,0,0,.25.31h.36v3.39a.56.56,0,0,0,1.12,0V110.3h.24v3.39a.57.57,0,0,0,1.13,0V110.3h.35A.26.26,0,0,0,792,110c-.72-3.72-.64-3.28-.67-3.48.29.83.8,2.25.82,2.33a.47.47,0,0,0,.89-.31Z"/><circle class="cls-2" cx="790.13" cy="103.44" r="0.97"/><path class="cls-2" d="M786.24,103.06a.36.36,0,0,0-.36.36v9.89a.36.36,0,0,0,.72,0v-9.89A.36.36,0,0,0,786.24,103.06Z"/><path class="cls-2" d="M730.93,318.18h-2.54a1.11,1.11,0,0,0-1.11,1.11l0,3.46a.48.48,0,0,0,.47.48h0a.47.47,0,0,0,.47-.47l0-3.47h0a.09.09,0,0,1,.09-.09.09.09,0,0,1,.1.09v7.93a.57.57,0,0,0,1.13,0V322.7h.24v4.52a.57.57,0,0,0,.57.56.56.56,0,0,0,.56-.56c0-7.48,0-3.2,0-7.92a.12.12,0,0,1,.1-.1.1.1,0,0,1,.1.09h0v3.47a.47.47,0,0,0,.47.47h0a.47.47,0,0,0,.47-.47v-3.47h0A1.11,1.11,0,0,0,730.93,318.18Z"/><circle class="cls-2" cx="729.66" cy="316.89" r="0.98"/><path class="cls-2" d="M740,322s-.86-2.47-1-2.86c-.22-.63-.58-1-1.08-1h-1.63c-.5,0-.86.32-1.08,1-.14.39-1,2.84-1,2.86a.47.47,0,0,0,.28.6.48.48,0,0,0,.6-.29c0-.08.54-1.51.83-2.34,0,.25.06-.26-.67,3.49a.27.27,0,0,0,.26.31h.35v3.39a.57.57,0,0,0,.57.56.56.56,0,0,0,.56-.56v-3.39h.24v3.39a.56.56,0,1,0,1.12,0v-3.39h.36a.27.27,0,0,0,.26-.31c-.72-3.72-.64-3.28-.67-3.49.29.84.79,2.26.82,2.34a.47.47,0,0,0,.6.29A.47.47,0,0,0,740,322Z"/><circle class="cls-2" cx="737.15" cy="316.93" r="0.97"/><path class="cls-2" d="M733.26,316.54a.37.37,0,0,0-.36.37v9.88a.36.36,0,1,0,.72,0v-9.88A.37.37,0,0,0,733.26,316.54Z"/><path class="cls-2" d="M315.25,318.18h-2.54a1.11,1.11,0,0,0-1.11,1.11l0,3.46a.48.48,0,0,0,.47.48h0a.47.47,0,0,0,.47-.47l0-3.47h0a.09.09,0,0,1,.09-.09.1.1,0,0,1,.1.09v7.93a.56.56,0,0,0,.56.56.57.57,0,0,0,.57-.56V322.7h.24v4.52a.57.57,0,0,0,.57.56.56.56,0,0,0,.56-.56c0-7.48,0-3.2,0-7.92a.12.12,0,0,1,.1-.1.1.1,0,0,1,.1.09h0v3.47a.47.47,0,0,0,.47.47h0a.47.47,0,0,0,.47-.47v-3.47h0A1.11,1.11,0,0,0,315.25,318.18Z"/><circle class="cls-2" cx="313.98" cy="316.89" r="0.98"/><path class="cls-2" d="M324.36,322s-.86-2.47-1-2.86c-.22-.63-.58-1-1.08-1h-1.63c-.5,0-.87.32-1.08,1-.14.39-1,2.84-1,2.86a.47.47,0,0,0,.28.6.48.48,0,0,0,.6-.29c0-.08.54-1.51.83-2.34,0,.25.06-.26-.67,3.49a.26.26,0,0,0,.26.31h.35v3.39a.57.57,0,0,0,.57.56.56.56,0,0,0,.56-.56v-3.39h.24v3.39a.56.56,0,1,0,1.12,0v-3.39h.36a.25.25,0,0,0,.25-.31c-.71-3.72-.63-3.28-.66-3.49.29.84.79,2.26.82,2.34a.47.47,0,1,0,.88-.31Z"/><circle class="cls-2" cx="321.47" cy="316.93" r="0.97"/><path class="cls-2" d="M317.58,316.54a.37.37,0,0,0-.36.37v9.88a.36.36,0,1,0,.72,0v-9.88A.37.37,0,0,0,317.58,316.54Z"/><path class="cls-2" d="M983.52,91.67H981a1.13,1.13,0,0,0-1.12,1.11v3.46a.47.47,0,0,0,.46.48h0a.47.47,0,0,0,.47-.47l0-3.47h0a.09.09,0,0,1,.18,0v7.93a.57.57,0,0,0,.57.56.56.56,0,0,0,.56-.56V96.19h.25v4.52a.57.57,0,0,0,1.13,0c0-7.48,0-3.2,0-7.92a.1.1,0,0,1,.09-.1.11.11,0,0,1,.11.09h0v3.46a.48.48,0,0,0,.47.48h0a.48.48,0,0,0,.47-.48V92.78h0A1.12,1.12,0,0,0,983.52,91.67Z"/><circle class="cls-2" cx="982.26" cy="90.38" r="0.98"/><path class="cls-2" d="M992.64,95.51s-.87-2.47-1-2.86c-.22-.63-.58-1-1.08-1h-1.63c-.51,0-.87.32-1.09,1-.13.39-1,2.83-1,2.86a.47.47,0,1,0,.89.31c0-.08.54-1.51.83-2.34,0,.25.05-.26-.67,3.48a.26.26,0,0,0,.25.31h.36v3.4a.56.56,0,0,0,1.12,0v-3.4h.25v3.4a.56.56,0,0,0,1.12,0v-3.4h.36a.26.26,0,0,0,.25-.31c-.72-3.71-.64-3.28-.66-3.48.29.83.79,2.26.81,2.34a.47.47,0,1,0,.89-.31Z"/><circle class="cls-2" cx="989.74" cy="90.42" r="0.97"/><path class="cls-2" d="M985.85,90a.36.36,0,0,0-.36.36v9.89a.36.36,0,1,0,.72,0V90.39A.36.36,0,0,0,985.85,90Z"/><path class="cls-2" d="M940.09,231.19h-2.53a1.13,1.13,0,0,0-1.12,1.11v3.46a.47.47,0,0,0,.46.48h0a.47.47,0,0,0,.47-.47l0-3.47h0a.09.09,0,0,1,.18,0v7.93a.57.57,0,0,0,.57.56.56.56,0,0,0,.56-.56v-4.52H939v4.52a.57.57,0,0,0,1.13,0c0-7.48,0-3.2,0-7.92a.1.1,0,0,1,.09-.1.11.11,0,0,1,.11.09h0v3.46a.48.48,0,0,0,.47.48h0a.48.48,0,0,0,.48-.47V232.3h0A1.12,1.12,0,0,0,940.09,231.19Z"/><circle class="cls-2" cx="938.83" cy="229.9" r="0.98"/><path class="cls-2" d="M949.21,235s-.87-2.47-1-2.86c-.22-.63-.58-.95-1.09-.95h-1.63c-.5,0-.86.32-1.08.95-.13.39-1,2.84-1,2.86a.47.47,0,1,0,.89.31c0-.08.54-1.51.83-2.34,0,.25,0-.26-.67,3.49a.25.25,0,0,0,.25.3h.36v3.4a.56.56,0,0,0,1.12,0v-3.4h.25v3.4a.56.56,0,0,0,1.12,0v-3.4h.36a.25.25,0,0,0,.25-.3c-.72-3.72-.64-3.29-.66-3.49.29.83.79,2.26.81,2.34a.47.47,0,1,0,.89-.31Z"/><circle class="cls-2" cx="946.31" cy="229.94" r="0.97"/><path class="cls-2" d="M942.42,229.55a.36.36,0,0,0-.36.36v9.89a.36.36,0,1,0,.72,0v-9.89A.36.36,0,0,0,942.42,229.55Z"/><path class="cls-2" d="M784.45,535.45h-2.54a1.11,1.11,0,0,0-1.11,1.11l0,3.47a.47.47,0,0,0,.47.47h0a.47.47,0,0,0,.47-.47l0-3.46h0a.1.1,0,0,1,.09-.1.1.1,0,0,1,.1.1v7.92a.57.57,0,1,0,1.13,0V540h.24v4.52a.58.58,0,0,0,.57.57.57.57,0,0,0,.56-.57c0-7.48,0-3.2,0-7.92a.1.1,0,0,1,.1-.09.09.09,0,0,1,.1.09h0V540a.47.47,0,0,0,.47.47h0a.47.47,0,0,0,.47-.47v-3.46h0A1.11,1.11,0,0,0,784.45,535.45Z"/><circle class="cls-2" cx="783.18" cy="534.16" r="0.98"/><path class="cls-2" d="M793.56,539.29s-.86-2.47-1-2.86c-.22-.63-.58-.95-1.08-.95h-1.63c-.5,0-.87.32-1.08.95-.14.39-1,2.84-1,2.86a.47.47,0,1,0,.88.31c0-.07.54-1.51.83-2.33,0,.24.06-.27-.67,3.48a.27.27,0,0,0,.26.31h.35v3.39a.57.57,0,0,0,.57.56.56.56,0,0,0,.56-.56v-3.39h.24v3.39a.56.56,0,0,0,1.12,0v-3.39h.36a.27.27,0,0,0,.26-.31c-.72-3.71-.64-3.28-.67-3.48.29.83.79,2.26.82,2.33a.47.47,0,1,0,.88-.31Z"/><circle class="cls-2" cx="790.67" cy="534.2" r="0.97"/><path class="cls-2" d="M786.78,533.82a.36.36,0,0,0-.36.36v9.89a.36.36,0,1,0,.72,0v-9.89A.36.36,0,0,0,786.78,533.82Z"/><path class="cls-2" d="M611.05,532.45h-2.53a1.12,1.12,0,0,0-1.12,1.11l0,3.47a.47.47,0,0,0,.47.47h0a.48.48,0,0,0,.47-.47v-3.46h0a.11.11,0,0,1,.1-.1.1.1,0,0,1,.09.1v7.92a.57.57,0,1,0,1.13,0V537h.25v4.52a.57.57,0,0,0,.56.57.58.58,0,0,0,.57-.57c0-7.48,0-3.2,0-7.92a.09.09,0,0,1,.09-.09.09.09,0,0,1,.11.09h0V537a.47.47,0,0,0,.47.47h0a.47.47,0,0,0,.47-.47v-3.46h0A1.13,1.13,0,0,0,611.05,532.45Z"/><circle class="cls-2" cx="609.78" cy="531.16" r="0.98"/><path class="cls-2" d="M620.17,536.29s-.87-2.47-1-2.86c-.22-.63-.59-.95-1.09-.95h-1.63c-.5,0-.86.32-1.08.95-.13.39-1,2.84-1,2.86a.47.47,0,0,0,.29.6.45.45,0,0,0,.59-.29c0-.07.55-1.51.84-2.33,0,.24,0-.27-.67,3.48a.25.25,0,0,0,.25.31H616v3.39a.56.56,0,0,0,1.12,0v-3.39h.24v3.39a.57.57,0,0,0,.57.56.56.56,0,0,0,.56-.56v-3.39h.35a.26.26,0,0,0,.26-.31c-.72-3.71-.64-3.28-.66-3.48.29.83.79,2.26.81,2.33a.47.47,0,0,0,.6.29A.48.48,0,0,0,620.17,536.29Z"/><circle class="cls-2" cx="617.27" cy="531.2" r="0.97"/><path class="cls-2" d="M613.38,530.82a.36.36,0,0,0-.36.36v9.89a.36.36,0,1,0,.72,0v-9.89A.36.36,0,0,0,613.38,530.82Z"/><path class="cls-2" d="M434.56,532.45H432a1.13,1.13,0,0,0-1.12,1.11l0,3.47a.47.47,0,0,0,.47.47h0a.47.47,0,0,0,.47-.47v-3.46h0a.12.12,0,0,1,.1-.1.1.1,0,0,1,.09.1v7.92a.58.58,0,0,0,.57.57.57.57,0,0,0,.56-.57V537h.25v4.52a.57.57,0,1,0,1.13,0c0-7.48,0-3.2,0-7.92a.09.09,0,0,1,.09-.09.09.09,0,0,1,.11.09h0V537a.47.47,0,0,0,.47.47h0a.48.48,0,0,0,.48-.47v-3.46h0A1.12,1.12,0,0,0,434.56,532.45Z"/><circle class="cls-2" cx="433.3" cy="531.16" r="0.98"/><path class="cls-2" d="M443.68,536.29s-.87-2.47-1-2.86c-.22-.63-.58-.95-1.09-.95H440c-.5,0-.86.32-1.08.95-.13.39-1,2.84-1,2.86a.47.47,0,0,0,.29.6.45.45,0,0,0,.59-.29c0-.07.55-1.51.84-2.33,0,.24,0-.27-.67,3.48a.26.26,0,0,0,.25.31h.36v3.39a.56.56,0,0,0,1.12,0v-3.39h.24v3.39a.57.57,0,0,0,.57.56.56.56,0,0,0,.56-.56v-3.39h.35a.26.26,0,0,0,.26-.31c-.72-3.71-.64-3.28-.66-3.48.29.83.79,2.26.81,2.33a.47.47,0,0,0,.6.29A.48.48,0,0,0,443.68,536.29Z"/><circle class="cls-2" cx="440.78" cy="531.2" r="0.97"/><path class="cls-2" d="M436.89,530.82a.36.36,0,0,0-.36.36v9.89a.36.36,0,0,0,.72,0v-9.89A.36.36,0,0,0,436.89,530.82Z"/></g></svg>